<?xml version="1.0" encoding="utf-8"?>
<!-- Generator: Adobe Illustrator 25.2.3, SVG Export Plug-In . SVG Version: 6.00 Build 0)  -->
<svg version="1.1" baseProfile="tiny" id="Camada_1"
	 xmlns="http://www.w3.org/2000/svg" xmlns:xlink="http://www.w3.org/1999/xlink" x="0px" y="0px" viewBox="0 0 252.2 253.4"
	 overflow="visible" xml:space="preserve">
<g>
	<g>
		<path fill="#D1B3C4" d="M84.6,253.4c-19.3,0-35.5-10.1-45.3-28.5c-1.5-2.9-2.9-6.1-4.2-9.4c-3.1-4.5-6.8-9-10.4-13.4
			C9.9,184-5.5,165.3,16.7,141.5l0.1-0.1c3.8-3.3,6.3-8.3,6.4-13.2c0.1-4.3-1.4-8.1-4.5-11.1l-0.1-0.1c-2-2.6-4.4-5.1-7.3-7.6
			l-0.1-0.2c-1.7-2.4-3-4.7-3.9-7.2c-1.1-2.9-1.9-5.3-2.5-7.5c-6.3-14.2-6.3-27.1,0-38.2c5.7-10.1,16.4-18.5,31.8-25
			c12.1-5.1,27-9,42.1-10.8c3.7-0.3,7.2-0.4,10.7-0.4c0,0,0,0,0,0c2.9,0,6,0.1,9.3,0.3c11,0.7,19.4-5.6,28.2-12.2
			c2.6-1.9,5.2-3.9,7.9-5.7c5.7-3.4,13.1-3,18.2,1.1c2,1.8,3.8,3.8,5.8,6.1c0.9,0.9,1.9,1.9,2.9,2.9c1,1,2,2,3,3l0.1,0.1
			c2.3,2.9,6.1,5.8,8.9,6.7c22.1,6.4,42.2,13,64.2,28.1c20.9,14.3,12.6,36.2,12.3,37.1l-0.1,0.1c-4.5,7.9-7.3,11.2-10.3,14.7
			c-2.7,3.2-5.5,6.5-9.9,13.7c-1.7,2.8-3,5.2-4.2,7.6c-5.2,9.4-1.5,18.3,2.1,27c1.7,4.1,3.3,8,3.9,11.7c0.4,2.7,0.3,5-0.4,7.2
			c-1.9,4.8-3,10.2-4.1,15.5c-2.3,11.5-4.8,23.4-15.4,29.1C193,225,176.1,236.9,159,249.2l-0.1,0.1c-2.1,1.2-4.4,2.1-6.7,2.7
			c-2.4,0.7-5.1,1.1-7.8,1.2c-6,0.4-12.2-0.6-18.1-1.6c-7.9-1.4-16-2.8-24.2-0.7c-3.6,1-7.3,1.8-10.8,2.2
			C89.1,253.3,86.9,253.4,84.6,253.4z M18.1,142.9c-21,22.5-6.8,39.8,8.2,58c3.7,4.4,7.4,9,10.6,13.6l0.1,0.2
			c1.2,3.3,2.6,6.4,4.1,9.3c10.6,20,28.4,29.6,50,27.1c3.4-0.4,6.9-1.1,10.5-2.1c8.6-2.2,16.9-0.8,25,0.6c6.1,1,11.8,2,17.7,1.6
			c2.6-0.1,5-0.5,7.3-1.1c2.1-0.6,4.2-1.4,6.2-2.5c17.1-12.3,34-24.2,53-35.2c9.8-5.2,12-16.2,14.4-27.7c1.1-5.4,2.2-10.9,4.2-15.8
			c0.5-1.8,0.6-3.8,0.3-6.2c-0.6-3.5-2.1-7.3-3.7-11.3c-3.6-8.7-7.6-18.5-2-28.7c1.2-2.3,2.6-4.9,4.3-7.7c4.4-7.3,7.3-10.7,10-13.9
			c2.9-3.4,5.7-6.6,10.1-14.3c1-2.5,7.5-21.6-11.5-34.7c-21.8-14.9-41.7-21.5-63.7-27.9c-3.2-1.1-7.3-4.1-9.9-7.3c-1-1-2-2-3-3
			c-1-1-1.9-2-2.9-2.9c-2-2.3-3.8-4.3-5.7-6C147.4,1.4,140.9,1,135.9,4c-2.6,1.8-5.3,3.7-7.8,5.6C119,16.5,110.4,23,98.6,22.3
			c-3.3-0.2-6.3-0.3-9.2-0.3c0,0,0,0,0,0c-3.4,0-6.9,0.1-10.5,0.4C64,24.2,49.2,28,37.3,33.1c-15,6.4-25.4,14.5-30.9,24.2
			c-6,10.5-5.9,22.8,0.1,36.5l0.1,0.2c0.6,2.2,1.3,4.5,2.5,7.4c0.9,2.3,2,4.5,3.6,6.7c2.9,2.6,5.3,5.1,7.4,7.8
			c3.5,3.4,5.2,7.7,5.1,12.6C25,133.6,22.3,139.2,18.1,142.9z"/>
	</g>
	<g>
		<path fill="#D1B3C4" d="M91,234.2c-16.4,0-30.2-8.6-38.5-24.2c-1.3-2.5-2.5-5.1-3.5-8c-2.6-3.8-5.9-7.7-9-11.5
			c-13.1-15.8-26.6-32.2-6.6-51.4c5.2-5,7.5-13.9,1.6-20.5l-1.1-1.2c-1.7-1.9-3.3-3.7-5.1-5.3l-0.1-0.2c-1.4-2-2.5-4-3.3-6.1
			c-0.7-1.9-1.5-4.1-2.1-6.4c-5.4-12.3-5.3-23.4,0.2-33c5-8.5,14.1-15.6,27-21.1c10.4-4.4,23-7.5,35.5-8.8c3.2-0.3,6.4-0.4,9.1-0.4
			c2.5,0,5.1,0.1,7.9,0.3c9,0.5,15.8-4.5,22.9-9.9c2.4-1.8,5-3.7,7.6-5.3c4.9-3.1,11.4-2.7,15.6,0.9c1.2,1.1,2.3,2.3,3.4,3.5
			c0.5,0.6,1,1.1,1.5,1.7c0.7,0.8,1.5,1.5,2.3,2.3c0.9,0.9,1.9,1.8,2.8,2.8c1.9,2.2,5.1,4.9,7.5,5.7c19.4,6.1,36.2,11.3,54.5,23.8
			c17.8,12.2,10.7,30.9,10.4,31.6l-0.1,0.1c-3.8,6.7-6.2,9.5-8.7,12.4c-2.3,2.7-4.7,5.5-8.3,11.6c-1.3,2.1-2.5,4.3-3.6,6.4
			c-4.2,8-1.1,15.5,1.8,22.8c1.4,3.5,2.7,6.7,3.2,9.9c0.4,2.5,0.3,4.5-0.3,6.2c-1.3,3.7-2.2,7.9-3,12c-2.1,10.2-4.2,20.7-13.5,25.8
			c-9.6,5.4-18.5,11.6-27,17.6c-5.8,4.1-11.8,8.3-17.8,12.2c-1.9,1.2-4.1,1.9-5.8,2.4c-1.9,0.5-4.1,0.9-6.6,1
			c-5,0.3-10.1-0.6-15-1.4c-6.8-1.2-13.8-2.4-20.8-0.5c-3.4,0.9-6.4,1.5-9.2,1.9C94.8,234.1,92.9,234.2,91,234.2z M30.2,110.7
			c1.9,1.7,3.5,3.6,5.2,5.4l1.1,1.2c6.8,7.5,4.2,17.6-1.7,23.3c-18.7,17.9-6.3,32.9,6.8,48.7c3.2,3.9,6.5,7.8,9.2,11.8l0.1,0.2
			c1,2.8,2.2,5.4,3.5,7.8c8.9,16.9,23.9,25,42.2,22.8c2.7-0.3,5.6-0.9,8.9-1.8c7.4-2,14.6-0.7,21.6,0.5c5,0.9,9.7,1.7,14.5,1.4
			c2.3-0.1,4.4-0.4,6.2-0.9c1.5-0.4,3.5-1.1,5.2-2.1c6-3.8,12-8,17.8-12.1c8.6-6.1,17.5-12.3,27.2-17.7c8.5-4.7,10.5-14.3,12.6-24.5
			c0.8-4.1,1.7-8.4,3.1-12.2c0.5-1.4,0.6-3.1,0.2-5.2c-0.5-3-1.8-6.2-3.1-9.5c-3-7.4-6.4-15.7-1.7-24.5c1.1-2.1,2.3-4.3,3.6-6.5
			c3.7-6.2,6.2-9.1,8.5-11.8c2.5-2.9,4.8-5.6,8.5-12.1c0.8-2.1,6.3-18.2-9.7-29.2c-18-12.4-34.7-17.6-53.9-23.6
			c-2.8-0.9-6.2-3.8-8.4-6.3c-0.8-0.9-1.8-1.8-2.7-2.7c-0.8-0.7-1.6-1.5-2.3-2.3c-0.5-0.6-1-1.1-1.6-1.7c-1-1.2-2-2.3-3.2-3.3
			c-4-3.5-9.7-3-13.2-0.8c-2.6,1.6-5.1,3.5-7.5,5.3c-7.5,5.6-14.6,10.8-24.3,10.2c-2.8-0.2-5.3-0.3-7.8-0.3c-2.6,0-5.8,0-8.9,0.4
			c-21.7,2.2-50.7,11.1-61,28.9c-5.3,9-5.3,19.6-0.1,31.3l0.1,0.2c0.6,2.2,1.4,4.4,2.1,6.2C27.9,107,28.9,108.9,30.2,110.7z"/>
	</g>
	<g>
		<path fill="#D1B3C4" d="M97.3,215c-13.5,0-24.9-7.1-31.7-19.9c-1.1-2-2-4.2-2.9-6.5c-2.2-3.1-4.8-6.3-7.4-9.4
			c-10.3-12.4-21.9-26.5-5.4-42.4c5.7-5.5,5-12.5,1.3-16.5l-0.9-1c-1.4-1.5-2.7-3-4.1-4.3l-0.1-0.2c-1.2-1.6-2.1-3.3-2.7-5.1
			c-0.6-1.5-1.3-3.4-1.8-5.2c-4.5-10.1-4.4-19.3,0.2-27.2c5.8-9.9,22.3-21.6,51.4-24.6c2.6-0.3,5.3-0.3,7.5-0.3
			c2.1,0,4.2,0.1,6.5,0.2c7.3,0.4,12.8-3.7,18.7-8c2-1.5,4.1-3,6.2-4.4c4-2.6,9.5-2.2,13,0.8c1,0.9,1.9,1.9,2.8,2.9
			c0.4,0.5,0.8,0.9,1.2,1.4c0.6,0.6,1.2,1.2,1.9,1.8c0.8,0.7,1.5,1.5,2.3,2.3c1.6,1.7,4.1,4,6.1,4.6c15.9,5,29.7,9.3,44.7,19.6
			c14.7,10.1,8.9,25.5,8.6,26.1l-0.1,0.1c-3.1,5.5-5.1,7.8-7.2,10.2c-1.9,2.2-3.8,4.5-6.8,9.4c-1,1.7-2,3.5-2.9,5.2
			c-3.4,6.4-0.9,12.6,1.5,18.5c1.2,2.8,2.2,5.5,2.7,8.2c0.3,2.1,0.2,3.7-0.3,5.2c-1.1,3-1.8,6.5-2.5,9.8c-1.7,8.4-3.5,17-11.2,21.3
			c-7.9,4.4-15.1,9.5-22.1,14.4c-4.7,3.4-9.6,6.8-14.6,10c-1.6,1-3.4,1.6-4.8,2c-1.6,0.4-3.4,0.7-5.4,0.8c-4.1,0.2-8.3-0.5-12.3-1.2
			c-5.5-1-11.3-2-17-0.4c-2.8,0.8-5.3,1.3-7.5,1.5C100.5,214.9,98.9,215,97.3,215z M47.6,113.5c1.5,1.4,2.9,2.9,4.2,4.4l0.9,1
			c5.7,6.3,3.5,14.6-1.4,19.3c-15.2,14.6-5.1,26.8,5.6,39.6c2.6,3.2,5.3,6.4,7.5,9.7l0.1,0.2c0.8,2.3,1.8,4.4,2.8,6.4
			c7.3,13.8,19.5,20.4,34.4,18.6c2.2-0.3,4.5-0.7,7.3-1.5c6.1-1.6,12-0.6,17.8,0.4c4.1,0.7,8,1.4,11.9,1.2c1.9-0.1,3.5-0.4,5-0.8
			c1.3-0.3,2.9-0.9,4.2-1.7c4.9-3.1,9.8-6.6,14.5-9.9c7-5,14.3-10.1,22.3-14.6c6.9-3.8,8.5-11.7,10.2-20c0.7-3.4,1.4-6.9,2.5-10
			c0.4-1.1,0.5-2.5,0.2-4.2c-0.4-2.4-1.4-5-2.5-7.7c-2.5-6.1-5.2-12.9-1.4-20.2c0.9-1.7,1.9-3.6,3-5.3c3.1-5.1,5.1-7.4,7-9.7
			c2-2.4,3.9-4.6,6.9-9.8c0.7-1.8,5.1-14.8-7.9-23.7C188,65,174.4,60.7,158.7,55.8c-2.3-0.7-5.1-3.2-7-5.2c-0.7-0.8-1.4-1.5-2.2-2.2
			c-0.6-0.6-1.3-1.3-1.9-1.9c-0.4-0.5-0.9-0.9-1.3-1.4c-0.9-1-1.7-1.9-2.6-2.7c-3.2-2.8-7.8-2.4-10.6-0.6c-2.1,1.3-4.1,2.8-6.1,4.3
			c-5.9,4.4-12,8.9-20,8.4c-2.3-0.1-4.4-0.2-6.4-0.2c-2.2,0-4.7,0-7.3,0.3C65,57.5,48.8,69.1,43.5,78.2c-4.3,7.4-4.3,15.9-0.1,25.5
			l0.1,0.2c0.5,1.8,1.1,3.6,1.7,5.1C45.8,110.5,46.6,112,47.6,113.5z"/>
	</g>
	<g>
		<path fill="#D1B3C4" d="M103.7,195.7c-10.6,0-19.5-5.6-24.9-15.7c-0.8-1.6-1.6-3.3-2.3-5.1c-1.7-2.4-3.7-4.9-5.7-7.3
			c-8.1-9.8-17.2-20.8-4.2-33.3c3.3-3.2,4.7-8.5,1-12.6l-0.7-0.8c-1.1-1.2-2.1-2.3-3.2-3.4l-0.1-0.2c-0.9-1.3-1.6-2.6-2.2-4
			c-0.5-1.2-1-2.6-1.4-4.1c-3.5-8-3.4-15.2,0.2-21.4c6.9-11.9,25.3-17.8,40.2-19.3c2.1-0.2,4.1-0.2,5.8-0.2c1.6,0,3.3,0.1,5.1,0.2
			c5.6,0.3,9.9-2.9,14.4-6.2c1.6-1.2,3.2-2.4,4.9-3.4c3.2-2,7.6-1.8,10.4,0.6c0.8,0.7,1.5,1.5,2.2,2.3c0.3,0.4,0.6,0.7,1,1.1
			c0.5,0.5,1,1,1.4,1.4c0.6,0.6,1.2,1.2,1.8,1.8c1.6,1.8,3.4,3.2,4.6,3.5c12.4,3.9,23.2,7.2,34.9,15.3c9.3,6.3,8.6,16,6.8,20.6
			l-0.1,0.1c-2.5,4.3-4,6.1-5.6,8c-1.5,1.7-3,3.5-5.3,7.3c-0.8,1.3-1.6,2.8-2.3,4.1c-2.6,4.9-0.7,9.7,1.2,14.2
			c0.9,2.2,1.8,4.3,2.1,6.4c0.3,1.6,0.2,3-0.2,4.1c-0.8,2.3-1.4,5-1.9,7.6c-1.3,6.6-2.7,13.4-8.8,16.8c-6.1,3.4-11.8,7.4-17.2,11.2
			c-3.7,2.6-7.5,5.3-11.4,7.8c-1.3,0.8-2.7,1.2-3.8,1.5c-1.3,0.4-2.7,0.6-4.3,0.7c-3.3,0.2-6.5-0.4-9.7-0.9
			c-4.5-0.8-8.8-1.5-13.1-0.3c-2.2,0.6-4.1,1-5.9,1.2C106.1,195.6,104.9,195.7,103.7,195.7z M65.1,116.2c1.2,1.1,2.3,2.3,3.3,3.4
			l0.7,0.8c4.5,5,2.8,11.6-1.1,15.4c-11.7,11.2-3.9,20.6,4.4,30.6c2,2.5,4.2,5,5.9,7.6l0.1,0.2c0.6,1.8,1.4,3.4,2.2,5
			c5.6,10.6,15.1,15.8,26.6,14.4c1.7-0.2,3.5-0.6,5.6-1.1c4.8-1.3,9.5-0.5,14,0.3c3.2,0.5,6.2,1.1,9.2,0.9c1.5-0.1,2.7-0.3,3.9-0.6
			c1-0.3,2.2-0.7,3.2-1.3c3.9-2.4,7.7-5.1,11.3-7.7c5.5-3.9,11.2-7.9,17.4-11.4c5.3-2.9,6.5-9,7.8-15.4c0.5-2.6,1.1-5.4,2-7.9
			c0.3-0.8,0.3-1.8,0.1-3.2c-0.3-1.9-1.1-3.9-2-6c-1.9-4.8-4.1-10.2-1.1-15.9c0.7-1.3,1.5-2.8,2.3-4.2c2.4-4,4-5.8,5.5-7.6
			c1.6-1.8,3-3.5,5.4-7.6c0.5-1.4,3.9-11.4-6.1-18.2c-11.5-7.9-22.1-11.2-34.4-15c-2.4-0.7-4.8-3.3-5.5-4.1
			c-0.5-0.6-1.1-1.1-1.7-1.7c-0.5-0.5-1-1-1.5-1.5c-0.3-0.4-0.7-0.7-1-1.1c-0.7-0.7-1.3-1.5-2-2.1c-2.4-2.1-5.9-1.8-8-0.5
			c-1.6,1-3.2,2.2-4.7,3.3c-4.6,3.4-9.4,7-15.7,6.6c-1.8-0.1-3.4-0.2-5-0.2c-1.7,0-3.7,0-5.6,0.2C78.6,73,66,82,61.9,89
			c-3.3,5.7-3.3,12.3-0.1,19.7l0.1,0.2c0.4,1.4,0.9,2.8,1.3,3.9C63.7,114,64.3,115.1,65.1,116.2z"/>
	</g>
	<g>
		<path fill="#D1B3C4" d="M110,176.5c-7.7,0-14.2-4-18.1-11.4c-0.6-1.1-1.1-2.4-1.6-3.7c-1.2-1.7-2.6-3.5-4.1-5.2
			c-5.9-7.1-12.5-15.1-3-24.3c2.3-2.2,3.2-5.8,0.7-8.6l-0.5-0.6c-0.8-0.9-1.5-1.7-2.3-2.4l-0.1-0.2c-0.7-0.9-1.2-1.9-1.6-2.9
			c-0.3-0.9-0.7-1.9-1-2.9c-2.5-5.8-2.5-11,0.2-15.6c5-8.6,18.3-12.9,29.1-14c1.5-0.2,3-0.2,4.2-0.2c1.1,0,2.3,0,3.7,0.1
			c3.9,0.2,6.9-2,10.2-4.4c1.1-0.8,2.3-1.7,3.5-2.5c2.4-1.5,5.7-1.3,7.8,0.5c0.6,0.5,1.1,1.1,1.6,1.6c0.2,0.3,0.5,0.5,0.7,0.8
			c0.3,0.4,0.7,0.7,1,1c0.4,0.4,0.9,0.9,1.3,1.3c1.1,1.2,2.4,2.2,3.2,2.5c8.9,2.8,16.7,5.2,25.1,11c6.8,4.7,6.3,11.7,5,15.1
			l-0.1,0.1c-1.8,3.1-2.9,4.5-4.1,5.8c-1,1.2-2.1,2.5-3.8,5.2c-0.6,1-1.1,2-1.6,2.9c-1.8,3.4-0.5,6.8,0.8,10
			c0.7,1.6,1.3,3.1,1.5,4.7c0.2,1.2,0.1,2.2-0.2,3.1c-0.6,1.7-1,3.5-1.4,5.4c-1,4.8-2,9.7-6.5,12.2c-4.4,2.4-8.4,5.3-12.3,8
			c-2.7,1.9-5.4,3.8-8.2,5.6c-0.9,0.6-2,0.9-2.8,1.1c-0.9,0.3-2,0.4-3.1,0.5c-2.4,0.1-4.7-0.3-7-0.7c-3.2-0.6-6.2-1.1-9.3-0.2
			c-1.6,0.4-3,0.7-4.3,0.9C111.8,176.4,110.9,176.5,110,176.5z M82.6,119c0.8,0.8,1.6,1.6,2.4,2.5l0.5,0.6c3.4,3.7,2.1,8.6-0.8,11.4
			c-8.2,7.9-2.7,14.5,3.2,21.6c1.5,1.8,3,3.6,4.2,5.4l0.1,0.2c0.5,1.2,1,2.4,1.6,3.5c4,7.5,10.7,11.1,18.8,10.2
			c1.2-0.1,2.5-0.4,4-0.8c3.5-0.9,6.9-0.4,10.1,0.2c2.3,0.4,4.4,0.8,6.5,0.6c1-0.1,1.9-0.2,2.7-0.4c0.7-0.2,1.5-0.5,2.2-0.9
			c2.8-1.7,5.5-3.7,8.1-5.5c3.9-2.8,8-5.7,12.5-8.2c3.7-2,4.6-6.3,5.5-10.9c0.4-1.9,0.8-3.9,1.4-5.7c0.2-0.6,0.2-1.2,0.1-2.1
			c-0.2-1.3-0.8-2.7-1.4-4.2c-1.4-3.5-3-7.4-0.8-11.7c0.5-1,1.1-2,1.7-3c1.7-2.9,2.9-4.2,4-5.5c1.1-1.3,2.2-2.5,3.8-5.4
			c0.4-1.1,2.6-8-4.3-12.7c-8.2-5.6-15.8-8-24.6-10.7c-1.8-0.5-3.6-2.5-4.1-3c-0.4-0.4-0.8-0.8-1.2-1.2c-0.4-0.4-0.7-0.7-1.1-1.1
			c-0.2-0.3-0.5-0.5-0.7-0.8c-0.5-0.5-0.9-1-1.4-1.4c-1.6-1.4-4-1.2-5.4-0.3c-1.2,0.7-2.3,1.6-3.4,2.4c-3.4,2.5-6.8,5.1-11.5,4.8
			c-1.3-0.1-2.4-0.1-3.5-0.1c-1.2,0-2.6,0-4,0.2c-9.8,1-22.9,5-27.5,13c-2.3,4-2.3,8.6,0,13.8l0.1,0.2c0.3,1,0.6,2,0.9,2.8
			C81.6,117.4,82,118.2,82.6,119z"/>
	</g>
	<g>
		<path fill="#D1B3C4" d="M116.4,157.3c-4.8,0-8.9-2.5-11.3-7.1c-0.4-0.7-0.7-1.4-1-2.2c-0.7-1-1.5-2-2.4-3.1
			c-3.5-4.2-7.8-9.5-1.8-15.2c1.2-1.2,1.8-3.2,0.4-4.7l-0.3-0.3c-0.5-0.5-0.9-1-1.4-1.4l-0.1-0.2c-0.4-0.6-0.8-1.2-1-1.9
			c-0.2-0.5-0.4-1.1-0.6-1.8c-1.6-3.6-1.5-6.9,0.1-9.8c3.1-5.4,11.3-8,17.9-8.6c0.9-0.1,1.8-0.1,2.6-0.1c0.7,0,1.4,0,2.2,0.1
			c2.2,0.1,3.9-1.1,5.9-2.6c0.7-0.5,1.4-1,2.2-1.5c1.6-1,3.8-0.9,5.2,0.3c0.4,0.3,0.7,0.7,1,1c0.1,0.2,0.3,0.3,0.4,0.5
			c0.2,0.2,0.4,0.4,0.6,0.6c0.3,0.3,0.5,0.5,0.8,0.8c0.6,0.7,1.3,1.2,1.8,1.4c5.4,1.7,10.1,3.2,15.3,6.7c4.3,3,4,7.5,3.2,9.6
			l-0.1,0.1c-1.1,1.9-1.8,2.8-2.5,3.6c-0.6,0.8-1.3,1.5-2.2,3.1c-0.3,0.6-0.7,1.2-1,1.7c-1,1.9-0.3,3.8,0.5,5.7
			c0.4,1,0.8,1.9,0.9,2.9c0.1,0.8,0.1,1.5-0.1,2.1c-0.3,1-0.6,2.1-0.8,3.2c-0.6,2.8-1.2,6.1-4.1,7.7c-2.6,1.5-5.1,3.2-7.4,4.9
			c-1.6,1.1-3.3,2.3-5,3.4c-0.6,0.4-1.3,0.6-1.8,0.7c-0.6,0.2-1.2,0.3-2,0.3c-1.5,0.1-2.9-0.2-4.3-0.4c-1.9-0.3-3.7-0.6-5.5-0.2
			c-1,0.3-1.8,0.4-2.6,0.5C117.5,157.2,116.9,157.3,116.4,157.3z M100,121.8c0.5,0.5,1,1,1.4,1.5l0.3,0.3c2.2,2.4,1.4,5.7-0.5,7.5
			c-4.4,4.2-2.2,7.5,1.9,12.5c0.9,1.1,1.8,2.2,2.6,3.3l0.1,0.2c0.3,0.7,0.6,1.4,0.9,2.1c1.4,2.5,4.6,6.7,11,6
			c0.7-0.1,1.5-0.2,2.4-0.5c2.2-0.6,4.3-0.2,6.3,0.1c1.3,0.2,2.6,0.5,3.9,0.4c0.6,0,1.1-0.1,1.6-0.2c0.6-0.2,1-0.3,1.3-0.5
			c1.7-1,3.3-2.2,4.9-3.3c2.4-1.7,4.9-3.4,7.6-5c2.1-1.2,2.6-3.7,3.1-6.3c0.2-1.2,0.5-2.4,0.9-3.5c0.1-0.3,0.1-0.6,0-1.1
			c-0.1-0.7-0.5-1.6-0.8-2.5c-0.8-2.1-1.9-4.7-0.4-7.4c0.3-0.6,0.7-1.2,1-1.8c1.1-1.8,1.8-2.6,2.4-3.4c0.7-0.8,1.3-1.5,2.3-3.2
			c0.2-0.7,1.4-4.5-2.5-7.2c-4.9-3.4-9.5-4.8-14.8-6.5c-1.2-0.4-2.3-1.6-2.7-1.9c-0.2-0.2-0.5-0.5-0.7-0.7c-0.2-0.2-0.5-0.4-0.7-0.7
			c-0.2-0.2-0.3-0.3-0.4-0.5c-0.3-0.3-0.5-0.6-0.8-0.8c-0.8-0.7-2.1-0.6-2.8-0.1c-0.7,0.4-1.4,0.9-2,1.4c-2.1,1.6-4.2,3.2-7.2,3
			c-0.8,0-1.5-0.1-2.2-0.1c-0.7,0-1.5,0-2.3,0.1c-5.8,0.6-13.6,3-16.4,7.7c-1.3,2.3-1.3,5,0,8l0.1,0.2c0.1,0.6,0.4,1.2,0.6,1.6
			C99.5,120.9,99.7,121.3,100,121.8z"/>
	</g>
	<g>
		<path fill="#D1B3C4" d="M122.7,138c-1.9,0-3.5-1-4.5-2.8c-0.1-0.2-0.2-0.5-0.3-0.8c-0.2-0.3-0.5-0.6-0.7-0.9
			c-1.2-1.4-3-3.6-0.6-6.2l0.1-0.1c0.1-0.1,0.2-0.3,0.2-0.4c0-0.1,0-0.2-0.1-0.2l-0.1-0.1c-0.1-0.2-0.3-0.3-0.5-0.5l-0.1-0.2
			c-0.2-0.3-0.3-0.5-0.4-0.8c-0.1-0.2-0.2-0.4-0.2-0.6c-0.8-1.8-0.4-3.1,0.1-3.9c1.5-2.6,5.5-3.3,6.8-3.4c0.7-0.1,1.2-0.1,1.8,0
			c0.5,0,1-0.3,1.7-0.8c0.2-0.2,0.5-0.3,0.7-0.5c0.8-0.5,1.9-0.4,2.6,0.1c0.2,0.2,0.4,0.4,0.6,0.6c0,0,0.1,0.1,0.2,0.2
			c0.1,0.1,0.1,0.2,0.2,0.2l0.1,0.1c0.1,0.1,0.2,0.2,0.3,0.2c1.8,0.5,3.6,1.1,5.5,2.4c1.8,1.3,1.7,3.2,1.3,4.1l-0.1,0.1
			c-0.4,0.7-0.7,1-0.9,1.3c-0.2,0.3-0.4,0.5-0.7,1c-0.1,0.2-0.2,0.4-0.3,0.6c-0.2,0.4-0.1,0.7,0.2,1.5c0.2,0.4,0.3,0.8,0.4,1.2
			c0.1,0.4,0,0.7-0.1,1c-0.2,0.4-0.2,0.8-0.3,1.2c-0.2,1-0.5,2.3-1.7,3c-1.5,0.9-2.9,1.8-4.2,2.8l-0.1,0.1c-0.2,0.1-0.5,0.2-0.7,0.3
			c-0.3,0.1-0.6,0.1-0.8,0.1c-0.6,0-1.1-0.1-1.7-0.1c-0.6-0.1-1.1-0.2-1.6-0.1c-0.3,0.1-0.7,0.2-1,0.2
			C123.1,138,122.9,138,122.7,138z M117.9,128.7c-1,1.1-0.6,1.8,0.7,3.5c0.3,0.4,0.6,0.8,0.9,1.2l0.1,0.2c0.1,0.2,0.2,0.4,0.3,0.6
			c0.5,0.9,1.4,1.9,3.2,1.7c0.2,0,0.5-0.1,0.7-0.1c0.9-0.2,1.7-0.1,2.5,0c0.4,0.1,0.9,0.1,1.2,0.1c0.2,0,0.3,0,0.4-0.1
			c0.1,0,0.2-0.1,0.3-0.1c1.4-1,2.8-2,4.4-2.9c0.4-0.2,0.6-0.8,0.7-1.7c0.1-0.5,0.2-1,0.4-1.5c-0.1-0.2-0.2-0.5-0.3-0.7
			c-0.3-0.8-0.8-1.9-0.1-3.1c0.1-0.2,0.2-0.4,0.4-0.7c0.4-0.7,0.7-1,0.9-1.3c0.2-0.2,0.4-0.5,0.7-1c0.1-0.3,0.3-1.1-0.6-1.7
			c-1.5-1.1-2.9-1.6-5-2.2c-0.4-0.1-0.9-0.5-1.2-0.9c-0.1-0.1-0.2-0.2-0.2-0.2l-0.2-0.2c-0.2-0.2-0.3-0.4-0.5-0.5c0,0-0.1,0-0.2,0
			c-0.2,0.1-0.4,0.3-0.6,0.4c-0.8,0.6-1.7,1.3-3,1.2c-0.5,0-1,0-1.5,0c-1.9,0.2-4.4,1-5.2,2.4c-0.3,0.6-0.3,1.3,0.1,2.2l0.1,0.1
			c0,0.2,0.1,0.4,0.2,0.5c0,0.1,0.1,0.2,0.1,0.3c0.2,0.2,0.4,0.4,0.6,0.6c0.4,0.4,0.7,1,0.7,1.7
			C118.7,127.5,118.4,128.2,117.9,128.7z"/>
	</g>
</g>
</svg>
