<?xml version="1.0" encoding="utf-8"?>
<!-- Generator: Adobe Illustrator 25.2.3, SVG Export Plug-In . SVG Version: 6.00 Build 0)  -->
<svg version="1.1" baseProfile="tiny" id="Camada_1"
	 xmlns="http://www.w3.org/2000/svg" xmlns:xlink="http://www.w3.org/1999/xlink" x="0px" y="0px" viewBox="0 0 282.2 414.3"
	 overflow="visible" xml:space="preserve">
<path fill="#88A3B0" d="M32.9,198.8c-1.4-0.7-2.3-1.8-3-3.3c-1-2.3-0.2-6,1.7-7.4c2.5-1.9,4.3-0.2,6.1,1.4c0.8,0.7,1.9,1.4,2.3,2.3
	c0.7,1.9,1.8,4.2,1.3,5.8c-0.2,0.6-1,1.1-1.8,1.4C38.2,199.5,35.1,200,32.9,198.8"/>
<path fill="#88A3B0" d="M71,107.2c-3.5,0-6.5-2.8-6.5-6c0-2.9,2.7-5.5,5.6-5.5c2.7,0.1,6,3.7,6.1,6.6
	C76.4,105.4,74.3,107.2,71,107.2"/>
<path fill="#88A3B0" d="M53.9,134.2c-2.8,0-4.9,2-5,4.7c0,3.3,3.4,6.7,6.7,6.6c2.9-0.1,5.1-2.1,5-4.6
	C60.6,137.8,56.9,134.2,53.9,134.2z"/>
<path fill="#88A3B0" d="M158.9,85.4c-0.1-3.5,1.2-5.4,3.8-5.6c3-0.2,6,3,6.1,6.4c0.1,2.8-1.9,5.1-4.5,5.3
	C161.4,91.8,159,89,158.9,85.4"/>
<path fill="#88A3B0" d="M98.9,323.2c3.3,0.3,5.3,2.5,5,5.2c-0.3,2.6-3.7,5.6-6,5.3c-2.4-0.3-4.9-3.9-4.7-6.6
	C93.5,324.8,96.2,322.9,98.9,323.2"/>
<path fill="#88A3B0" d="M228.8,50.6c0.2-3.2,2.4-5.7,4.8-5.4c2.4,0.2,5.1,4.1,5,7c-0.1,2.3-2.8,4.4-5.4,4.3
	C230.7,56.3,228.6,53.5,228.8,50.6"/>
<path fill="#88A3B0" d="M118.9,77c-0.1,2.3-2.3,4.2-4.7,4.1c-2.8-0.1-5.3-3-5.1-5.9c0.2-2.7,2.4-5.4,4.4-5.4
	C116,69.9,119,73.8,118.9,77"/>
<path fill="#88A3B0" d="M64.5,286.8c3,0.1,5.3,2.4,5.1,5.1c-0.2,2.3-2.8,4.9-5,4.9c-2.5,0-5.9-3.2-5.7-5.5
	C59.1,288.7,61.5,286.7,64.5,286.8"/>
<path fill="#88A3B0" d="M147.7,272.6c-2.5,0.1-4.8-2-5.1-4.5c-0.2-2.8,2.5-5.8,5.1-5.8c2.5,0,4.4,2.1,4.6,5
	C152.6,270.3,150.7,272.5,147.7,272.6"/>
<path fill="#88A3B0" d="M126.4,46.1c-2.5,0.1-4.8-2-5.1-4.5c-0.2-2.8,2.5-5.8,5.1-5.8c2.5,0,4.4,2.1,4.6,5
	C131.3,43.7,129.3,45.9,126.4,46.1"/>
<path fill="#88A3B0" d="M121,296.8c0.1,2.7-1.6,4.8-4,4.8c-2.8,0-5.5-2.2-5.7-4.8c-0.2-2.6,1.6-4.9,3.8-5.1
	C118.1,291.4,120.8,293.8,121,296.8"/>
<path fill="#88A3B0" d="M78.6,242.4c-0.1,3.1-1.8,5-4.6,4.8c-2.8-0.2-4.6-2.2-4.5-5c0.1-2.7,1.9-4.6,4.3-4.6
	C76.7,237.7,78.7,239.7,78.6,242.4"/>
<path fill="#88A3B0" d="M158.6,370.1c0-2.4-2.5-5-4.8-5c-1.9,0-4.5,3-4.7,5.3c-0.1,2,2.3,4.5,4.5,4.6
	C156.2,375.1,158.6,372.6,158.6,370.1z"/>
<path fill="#88A3B0" d="M117.7,354.2c2.5,0,4.6,2.3,4.6,5c0,2.5-1.9,4.8-4,5c-2.3,0.2-4.9-2.3-4.9-4.7
	C113.3,356.9,115.5,354.2,117.7,354.2"/>
<path fill="#88A3B0" d="M226,287.8c0.1,2.7-1.7,4.5-4.2,4.5c-2.2,0-4-1.8-4.1-4.1c-0.2-2.7,2.3-5.8,4.6-5.6
	C224.2,282.7,225.9,285.1,226,287.8"/>
<path fill="#88A3B0" d="M241.9,134.7c-0.1,2.2-2.1,3.7-4.5,3.5c-2.2-0.2-3.8-2-3.7-4.4c0-2.6,1.9-5.2,3.8-5.1
	C239.5,128.7,242,132.1,241.9,134.7"/>
<path fill="#88A3B0" d="M125.4,146.7c-0.1,2.3-2.1,4.3-4.1,4.2c-2.3-0.1-4.6-3.1-4.4-5.9c0.2-2.2,1-3.9,3.6-3.8
	C122.9,141.3,125.5,144.2,125.4,146.7"/>
<path fill="#88A3B0" d="M129.9,188.7c2.2,0.1,4.3,2.8,4.3,5.5c0,2.3-1.9,4.1-4.2,3.9c-2.5-0.2-3.9-2.1-3.8-5
	C126.2,190.1,127.5,188.6,129.9,188.7"/>
<path fill="#88A3B0" d="M156.5,134c-0.4,2.7-1.9,4-3.8,3.6c-2.3-0.6-4.4-3.9-4-6.4c0.4-2.2,2.3-3.6,4.3-3.1
	C155.3,128.6,156.9,131.3,156.5,134"/>
<path fill="#88A3B0" d="M93.1,177.6c-0.1,2.8-0.8,4.6-3.4,4.6c-2.5,0-4.6-2.4-4.5-5.1c0.1-2.2,1.1-3.9,3.6-3.9
	C91.4,173,93.1,175.1,93.1,177.6"/>
<path fill="#88A3B0" d="M202.3,245.7c0,2.2-1.6,3.8-3.7,3.7c-2.3-0.1-4.2-1.9-4.2-4.1c-0.1-2.5,1.8-5,3.9-5.1
	C200.3,240.1,202.3,242.8,202.3,245.7"/>
<path fill="#88A3B0" d="M198.3,197.8c-0.3,0.9-1,1.6-2.4,1.8c-2,0.3-4.6-2.5-4.8-5c-0.2-2.5,1.5-4.8,3.4-4.7c1.1,0,2.2,0.7,3,1.6
	C198.8,193,198.9,196.2,198.3,197.8"/>
<path fill="#88A3B0" d="M198.8,347.9c-2.4,0-4.3-1.8-4.2-3.9c0.1-2.7,1.9-4.8,4.1-5c2.3-0.1,3.7,1.5,3.6,4.3
	C202.2,346.1,200.8,348,198.8,347.9"/>
<path fill="#88A3B0" d="M239.3,193c-1-0.6-1.4-1.6-1.6-2.9c-0.2-2.5,1.7-5.2,3.7-5.1c1.7,0,3.9,2.8,3.5,5.4
	c-0.1,0.6-0.5,1.2-0.9,1.8C243.3,193,240.9,194,239.3,193"/>
<path fill="#88A3B0" d="M191.8,303.3c0,2.5-1.6,4.3-3.9,4.2c-2.1-0.1-3.8-2.1-3.8-4.5c0-2.4,1.7-4.3,3.9-4.2
	C190.1,299,191.8,301,191.8,303.3"/>
<path fill="#88A3B0" d="M74.2,65.8c0,2.5-1.6,4.3-3.9,4.2c-2.1-0.1-3.8-2.1-3.8-4.5c0-2.4,1.7-4.3,3.9-4.2
	C72.6,61.5,74.2,63.4,74.2,65.8"/>
<path fill="#88A3B0" d="M209.2,96.6c-0.4,0.5-0.9,0.9-1.5,1.1c-2.1,0.7-4.3-1.7-4.5-4.3c-0.1-2.3,1.3-4,3.3-4.2
	c1.1-0.1,2.2,0.8,3,2.2C210.4,93.3,209.9,95.8,209.2,96.6"/>
<path fill="#88A3B0" d="M246.9,242.7c0-0.2,0-0.5,0-0.7c-0.2-2.8-1.7-4.7-3.7-4.5c-2,0.1-3.8,2.8-3.5,5.4c0.2,2,2.2,3.7,4.1,3.4
	c2.1-0.3,3.1-1.5,3.1-3.4V242.7z"/>
<path fill="#88A3B0" d="M121.9,246c2.4-0.2,4.1,1.6,4.3,4.4c0.2,2.3-0.6,4-2.9,4.3c-1.9,0.3-4.2-1.8-4.4-3.9
	C118.5,248.3,119.8,246.1,121.9,246"/>
<path fill="#88A3B0" d="M158.5,317.6c-0.5,0.5-1.2,1-1.9,1.3c-1.4,0.6-3.9-2.3-4-4.3c-0.1-2.2,1.9-4.5,3.8-4.4
	c1.1,0,2.2,0.8,2.9,2.1C160.3,314.1,159.5,316.7,158.5,317.6"/>
<path fill="#88A3B0" d="M156.8,234.7c-1-0.8-1.6-2-1.6-3.1c0-2.1,1.7-4.2,3.5-4.1c1.8,0.1,4,2.5,3.6,4.7c-0.1,0.7-0.5,1.4-0.9,2
	C160.8,235.1,158.4,236,156.8,234.7"/>
<path fill="#88A3B0" d="M96.7,119.7c-1-0.8-1.6-2-1.6-3.1c0-2.1,1.7-4.2,3.5-4.1c1.8,0.1,4,2.5,3.6,4.7c-0.1,0.7-0.5,1.4-0.9,2
	C100.6,120.1,98.2,121,96.7,119.7"/>
<path fill="#88A3B0" d="M209.1,148.6c1.7,0.1,3.9,3.2,3.6,5.3c-0.3,1.7-1.1,3.3-3.1,2.9c-2.1-0.4-3.6-1.6-3.6-4
	C205.8,150.5,207.3,148.5,209.1,148.6"/>
<path fill="#88A3B0" d="M183.9,46.6c1.7,0.1,3.9,3.2,3.6,5.3c-0.3,1.7-1.1,3.3-3.1,2.9c-2.1-0.4-3.6-1.6-3.6-4
	C180.7,48.5,182.2,46.6,183.9,46.6"/>
</svg>
