<?xml version="1.0" encoding="utf-8"?>
<!-- Generator: Adobe Illustrator 25.2.3, SVG Export Plug-In . SVG Version: 6.00 Build 0)  -->
<svg version="1.1" baseProfile="tiny" id="Camada_1"
	 xmlns="http://www.w3.org/2000/svg" xmlns:xlink="http://www.w3.org/1999/xlink" x="0px" y="0px" viewBox="0 0 311.5 283.2"
	 overflow="visible" xml:space="preserve">
<g>
	<g>
		<path fill="#BA7047" d="M93.3,283.2c-13.9,0-29.3-2.7-49-14.4c-11.4-6.8-14.2-13.7-18.9-25.1c-0.9-2.2-1.9-4.6-3-7.1
			c-2.1-4.9-4.6-10-6.9-14.9c-6.4-13.2-13-26.9-15-41.3c-2.4-17.8,3-38.6,9.4-47.7l0.8,0.6l-0.8-0.6l65.8-93.5
			C76,38.9,92,20.8,119.5,9.4C144.9-1.1,185.6-8,235.3,18.9c27.4,14.9,62.3,40.8,73,80c6.2,22.8,1.4,39.4,0.9,41
			c-0.2,2-3.5,27.9-30.3,65.2c-0.7,3.2-9.1,38.6-44.7,53.2c-5.5,2.2-10.7,4.4-15.7,6.6c-29,12.3-49.9,21.1-78.2,17.3
			c-10.9-1.5-20.7-0.7-30.1,0.1C104.7,282.7,99.1,283.2,93.3,283.2z M77.3,40.4l-65.7,93.4c-5.2,7.3-11.6,27.1-9,46.2
			c1.9,14.1,8.4,27.6,14.8,40.7c2.4,4.9,4.8,10,7,15c1.1,2.6,2.1,5,3,7.2c4.6,11.4,7.2,17.7,18,24.2c27.4,16.4,45.5,14.8,64.7,13.2
			c9.5-0.8,19.4-1.6,30.6-0.1c27.7,3.8,48.5-5,77.1-17.2c5-2.1,10.2-4.3,15.7-6.6c36.1-14.7,43.5-51.5,43.5-51.9l0-0.2l0.1-0.2
			c27.5-38.2,30.1-64.2,30.1-64.5l0-0.2c0.1-0.2,5.4-17.1-0.9-40.1c-10.5-38.4-45-64-72-78.6c-49-26.6-89.1-19.8-114.1-9.4
			C93.8,22.3,78.2,39.5,77.3,40.4z"/>
	</g>
	<g>
		<path fill="#BA7047" d="M103.1,261c-11.7,0-24.7-2.2-41.4-12.2c-9.7-5.7-12-11.6-16-21.3c-0.7-1.8-1.6-3.8-2.5-6
			c-1.8-4.1-3.8-8.4-5.8-12.5c-5.4-11.2-11-22.7-12.6-34.9c-2-15,2.6-32.6,7.9-40.3l55.5-78.8c0.1-0.2,13.6-15.4,36.9-25
			c21.4-8.9,55.8-14.7,97.7,8c23.1,12.5,52.6,34.4,61.6,67.5c5.2,19.2,1.2,33.1,0.7,34.6c-0.2,1.9-2.8,23.3-25.6,55
			c-0.6,2.9-7.8,32.6-37.7,44.9c-4.6,1.9-9,3.7-13.2,5.5c-24.4,10.4-42.1,17.8-66,14.6c-9.2-1.3-17.4-0.6-25.4,0.1
			C112.7,260.6,108,261,103.1,261z M33.6,134.5l0.8,0.6c-4.3,6.2-9.7,22.8-7.6,38.9c1.6,11.9,7.1,23.2,12.4,34.3
			c2,4.1,4.1,8.4,5.9,12.6c0.9,2.2,1.8,4.2,2.5,6c3.9,9.6,6,14.9,15.1,20.3c23.1,13.8,38.3,12.5,54.4,11.1
			c8.1-0.7,16.4-1.4,25.8-0.1c23.3,3.2,40.8-4.2,64.9-14.4c4.2-1.8,8.6-3.6,13.2-5.5c30.3-12.4,36.5-43.3,36.6-43.6l0-0.2l0.1-0.2
			c23.1-32.1,25.3-54,25.3-54.3l0-0.2c0-0.1,4.5-14.4-0.8-33.7c-8.9-32.3-37.8-53.8-60.6-66.1C180.7,17.5,147,23.2,126,31.9
			c-22.3,9.2-35.4,23.7-36.2,24.5l-55.4,78.7L33.6,134.5z"/>
	</g>
	<g>
		<path fill="#BA7047" d="M112.9,238.9c-9.6,0-20.1-1.8-33.7-9.9c-7.9-4.7-9.8-9.5-13-17.4c-0.6-1.5-1.3-3.1-2-4.9
			c-1.4-3.4-3-6.7-4.7-10.2c-4.4-9.1-9-18.5-10.3-28.4c-1.6-12.3,2.1-26.6,6.5-32.9l45.1-64.1c0.4-0.5,11.1-12.6,30-20.4
			c17.5-7.3,45.5-12,79.6,6.5c18.8,10.2,42.8,28,50.2,55c4.2,15.6,1,26.9,0.6,28.2c-0.2,1.7-2.4,19.1-20.8,44.7
			c-0.6,2.6-6.5,26.7-30.8,36.6c-3.8,1.5-7.3,3-10.8,4.5c-19.9,8.4-34.3,14.5-53.7,11.9c-7.5-1-14.1-0.5-20.6,0.1
			C120.8,238.6,116.9,238.9,112.9,238.9z M102.3,72.4l-45,64c-3.5,5-7.9,18.4-6.1,31.5c1.3,9.6,5.8,18.9,10.1,27.8
			c1.6,3.4,3.3,6.9,4.8,10.3c0.8,1.8,1.4,3.4,2,4.9c3.2,7.8,4.9,12,12.2,16.4c18.7,11.2,31.1,10.1,44.1,9c6.6-0.6,13.3-1.1,21-0.1
			c18.9,2.6,33.1-3.4,52.7-11.7c3.4-1.5,7-3,10.8-4.5c24.6-10,29.6-35.1,29.6-35.3l0-0.2l0.1-0.2c18.8-26.1,20.5-43.8,20.6-44l0-0.2
			c0-0.1,3.7-11.7-0.6-27.3C251.4,86.4,227.9,69,209.5,59c-33.5-18.1-60.8-13.5-77.9-6.4C113.6,60.1,102.9,71.7,102.3,72.4z"/>
	</g>
	<g>
		<path fill="#BA7047" d="M122.8,216.8c-7.4,0-15.6-1.4-26.1-7.7c-6.2-3.7-7.7-7.4-10.1-13.5c-0.5-1.2-1-2.4-1.6-3.8
			c-1.1-2.6-2.3-5.1-3.6-7.8c-3.4-7-6.9-14.3-7.9-21.9c-1.3-9.5,1.6-20.6,5-25.5l34.8-49.4c0.3-0.4,8.6-9.7,23.2-15.8
			c13.5-5.6,35.1-9.3,61.5,5c14.5,7.9,33.1,21.7,38.8,42.5c3.3,12,0.8,20.7,0.5,21.8c-0.2,1.5-1.9,14.8-16,34.5
			c-0.5,2.3-5.2,20.7-23.8,28.3c-2.9,1.2-5.7,2.4-8.3,3.5c-15.4,6.5-26.5,11.2-41.5,9.2c-5.7-0.8-10.8-0.3-15.8,0.1
			C128.8,216.5,125.9,216.8,122.8,216.8z M79.3,137.2l0.8,0.6c-2.7,3.8-6,14.1-4.7,24.1c1,7.4,4.4,14.5,7.8,21.3
			c1.3,2.6,2.6,5.3,3.7,7.9c0.6,1.4,1.1,2.6,1.6,3.8c2.4,5.9,3.7,9.2,9.3,12.5c14.4,8.6,23.8,7.8,33.9,6.9
			c5.1-0.4,10.3-0.9,16.2-0.1c14.5,2,25.4-2.6,40.5-9c2.6-1.1,5.4-2.3,8.3-3.5c18.8-7.7,22.6-26.8,22.7-27l0-0.2l0.1-0.2
			c14.4-20,15.8-33.7,15.8-33.8l0-0.2c0-0.1,2.8-8.9-0.5-20.9c-5.5-20.1-23.6-33.5-37.7-41.1c-25.7-13.9-46.7-10.4-59.8-4.9
			c-13.7,5.7-21.9,14.6-22.5,15.2l-34.7,49.3L79.3,137.2z"/>
	</g>
	<g>
		<path fill="#BA7047" d="M132.6,194.6c-5.2,0-11-1-18.4-5.4c-4.4-2.6-5.5-5.3-7.2-9.6c-0.3-0.8-0.7-1.7-1.1-2.6
			c-0.8-1.8-1.6-3.6-2.6-5.5c-2.4-4.9-4.9-10-5.6-15.5c-0.9-6.7,1.2-14.6,3.6-18.1v0l24.4-34.7c0.2-0.3,24.2-26.9,59.8-7.6
			c34.5,18.7,28.2,43.5,27.7,45.5c-0.1,1.1-1.4,10.5-11.3,24.3c-0.4,1.9-3.6,14.6-16.9,20c-2,0.8-4,1.6-5.8,2.4
			c-10.8,4.6-18.6,7.9-29.3,6.4c-4-0.5-7.6-0.2-11,0.1C136.9,194.5,134.8,194.6,132.6,194.6z M102.9,139.1
			c-1.9,2.6-4.2,9.8-3.2,16.7c0.7,5.1,3.1,10.1,5.4,14.9c0.9,1.8,1.8,3.7,2.6,5.6c0.4,1,0.8,1.8,1.1,2.7c1.7,4.2,2.6,6.4,6.4,8.6
			c10,6,16.6,5.4,23.6,4.8c3.6-0.3,7.3-0.6,11.5,0c10.1,1.4,17.7-1.8,28.2-6.3c1.8-0.8,3.8-1.6,5.8-2.4c13-5.3,15.7-18.6,15.7-18.8
			l0-0.2l0.1-0.2c10.1-14,11-23.5,11-23.6l0-0.2c0-0.1,1.9-6.2-0.4-14.6c-3.1-11.1-12.2-21-26.3-28.6c-33.9-18.4-56,5.6-57.3,7.1
			L102.9,139.1L102.9,139.1z"/>
	</g>
	<g>
		<path fill="#BA7047" d="M142.4,172.5c-3.1,0-6.4-0.6-10.8-3.2c-2.7-1.6-3.3-3.2-4.3-5.7c-0.2-0.5-0.4-1-0.6-1.5
			c-0.4-1-0.9-2-1.5-3.1c-1.4-2.9-2.8-5.8-3.3-9c-0.5-4,0.7-8.6,2.1-10.7l0,0l14.1-20c0.1-0.2,14.1-15.7,34.9-4.5
			c10.8,5.9,14.6,12.8,15.9,17.5c1.3,4.8,0.4,8.4,0.2,9.1c-0.1,0.9-0.9,6.3-6.5,14c-0.3,1.4-2.3,8.6-9.9,11.7
			c-1.2,0.5-2.3,0.9-3.3,1.4c-6,2.6-10.8,4.6-17,3.7c-2.2-0.3-4.2-0.1-6.2,0C144.9,172.4,143.7,172.5,142.4,172.5z M125.7,140.4
			c-1.1,1.5-2.3,5.6-1.8,9.3c0.4,2.9,1.8,5.7,3.1,8.4c0.5,1.1,1,2.1,1.5,3.2c0.2,0.6,0.4,1.1,0.6,1.5c1,2.4,1.4,3.5,3.5,4.8
			c5.6,3.4,9.4,3,13.3,2.7c2.1-0.2,4.2-0.4,6.7,0c5.7,0.8,10-1.1,16-3.6c1.1-0.5,2.2-0.9,3.4-1.4c7.3-3,8.8-10.4,8.8-10.5l0-0.2
			l0.1-0.2c5.7-7.9,6.3-13.3,6.3-13.3l0-0.2c0.2-0.6,4.2-13.9-15.1-24.3c-19.1-10.3-31.5,3-32.4,4L125.7,140.4L125.7,140.4z"/>
	</g>
	<g>
		<path fill="#BA7047" d="M152.3,150.4c-0.9,0-1.9-0.2-3.2-0.9c-0.9-0.5-1.2-1.1-1.4-1.8l-0.2-0.4c-0.1-0.3-0.2-0.5-0.4-0.8
			c-0.4-0.8-0.8-1.6-0.9-2.6c-0.2-1.3,0.2-2.7,0.7-3.3l0,0l3.7-5.2c1.4-1.6,5.2-3.9,10-1.3c5.5,3,4.8,7,4.6,7.7
			c-0.1,0.4-0.4,1.9-1.7,3.8c-0.2,0.7-0.9,2.6-3,3.4c-0.3,0.1-0.6,0.2-0.9,0.4c-1.6,0.7-3,1.3-4.8,1c-0.5-0.1-1,0-1.5,0
			C153,150.3,152.6,150.4,152.3,150.4z M148.5,141.7c-0.2,0.2-0.4,1.1-0.3,1.9c0.1,0.6,0.4,1.3,0.7,2c0.1,0.3,0.3,0.6,0.4,0.9
			l0.2,0.4c0.2,0.6,0.3,0.7,0.6,0.9c1.3,0.7,2,0.7,3,0.6c0.6,0,1.2-0.1,1.9,0c1.3,0.2,2.3-0.2,3.8-0.9c0.3-0.1,0.6-0.2,0.9-0.4
			c1.5-0.6,1.8-2.1,1.8-2.2l0-0.2l0.1-0.2c1.3-1.9,1.5-3.1,1.5-3.1l0-0.2c0-0.1,0.8-3-3.6-5.4c-4.3-2.3-7.1,0.5-7.5,0.9L148.5,141.7
			z"/>
	</g>
</g>
</svg>
