<?xml version="1.0" encoding="utf-8"?>
<!-- Generator: Adobe Illustrator 25.2.3, SVG Export Plug-In . SVG Version: 6.00 Build 0)  -->
<svg version="1.1" baseProfile="tiny" id="Camada_1"
	 xmlns="http://www.w3.org/2000/svg" xmlns:xlink="http://www.w3.org/1999/xlink" x="0px" y="0px" viewBox="0 0 214.7 203.7"
	 overflow="visible" xml:space="preserve">
<path fill="#88A3B0" d="M212.1,102.4c0.6,2.5,1.1,5,1.5,7.5c1.3,7.9,1.6,16,0,23.8c-0.5,2.6-1.2,5.2-2.2,7.8
	c-2.9,5.7-6.9,10.7-11.9,14.7c-24,12-50,15-68,40c-1,3-5,5-9.1,4.4c-2.4,0.5-4.8,0.8-7.2,1.2s-4.8,0.7-7.2,1.1
	c-3.3,0.3-6.6,0.5-9.8,0.7s-6.5,0.2-9.7,0.1c-3.1-0.6-6.1-1.3-9.1-2.2c-2.4-0.7-4.9-1.5-7.2-2.3c-7.1-2.5-13.6-5.5-18.6-10
	c-15-16-36-20-51.1-34.6c-1.5-2.4-2.2-5.1-2.4-8.2c0.4-8.4,3.9-15.5,7.7-22.8c1.3-2.4,2.6-4.9,3.8-7.3c1-5,4-9,3-14
	c-1.5-15.5,0.8-30.8,5.8-45.1c1-2.9,2.1-5.7,3.3-8.5C32.5,26.2,46.5,1.2,72.5,0.2c15-1,34,1,40,14c7,12,2,39,23.4,39.3
	c2.6,0.3,5.2,0.2,7.8-0.1c12.9-1.3,25.6-7.6,38.8-6.2c23,1,22,27,25.8,44.1C209.3,94.7,210.6,98.4,212.1,102.4z"/>
</svg>
