<?xml version="1.0" encoding="utf-8"?>
<!-- Generator: Adobe Illustrator 25.2.3, SVG Export Plug-In . SVG Version: 6.00 Build 0)  -->
<svg version="1.1" baseProfile="tiny" id="Camada_1"
	 xmlns="http://www.w3.org/2000/svg" xmlns:xlink="http://www.w3.org/1999/xlink" x="0px" y="0px" viewBox="0 0 208.8 233.5"
	 overflow="visible" xml:space="preserve">
<g>
	<path fill="#C2A256" d="M79.5,233.5c-19.2,0-35.1-9.9-45-28.5c-1.5-2.9-3-6.1-4.2-9.4c-11.4-20.8-11.1-44.9-10.7-68.1
		c0.1-6.9,0.2-14.1,0-21.1c-0.8-2.9-2.6-5.2-4.4-7.5c-0.5-0.6-1-1.3-1.5-1.9c-2-2.6-4.4-5-7.3-7.6l-0.1-0.2c-1.7-2.4-3-4.7-3.9-7.2
		C1,78.5-1.8,71.3,1.7,66.6C8.2,58,14.8,50.9,21.2,44c8.8-9.4,17.1-18.4,24.5-30.3C50.8,4.5,62.1-0.9,73.9,0.4
		C77.5,0.1,81.1,0,84.5,0c11.7,0,24.1,1.6,37,4.9c3.4,0.8,6.3,1.7,8.9,2.6c11.4,3.8,19.3,8.1,24.3,13.3c2.1,2.2,3.7,4.6,4.7,7.1
		c0.8,2.4,1.7,4.6,2.5,6.9l0.7,2c3.2,8.8,2,18.4,0.7,27.7c-1.8,13.5-3.5,26.2,8.2,35.8c2.6,1.5,6,2.9,9.9,4.3
		c15.6,2.6,24.4,8.7,26.2,18.1c0.4,2.1,0.6,4.3,0.8,6.6c1,13.1-1.2,22.9-7.2,31.6c-0.9,3-1.9,6-3.3,9.1
		c-10.2,22.8-29.6,38.5-61.1,49.5c-3,1.9-6.1,3.5-9.4,4.9c-3.2,1.4-6.6,2.5-10.1,3.4c-2.2,0.6-4.5,1.1-7.1,1.5
		c-2.1,0.2-4.2,0.5-6.5,0.8c-1.7,0.2-3.3,0.4-5,0.6l-1.6,0.2C91.1,232.6,85.2,233.5,79.5,233.5z M7.8,87.9c2.9,2.6,5.3,5.2,7.4,7.8
		c0.5,0.6,0.9,1.2,1.4,1.8c1.9,2.3,4,5,4.8,8.3l0,0.2c0.2,7,0.1,14.3,0,21.3c-0.3,23-0.6,46.8,10.5,67.2l0.1,0.1
		c1.2,3.3,2.6,6.4,4.1,9.3c12.3,23.2,34.4,32.3,60.5,24.9l0.1,0l1.7-0.2c1.7-0.2,3.4-0.4,5-0.6c2.3-0.3,4.4-0.6,6.5-0.8
		c2.4-0.4,4.7-0.9,6.8-1.5c3.4-0.9,6.6-2,9.8-3.3c3.2-1.4,6.3-3,9.2-4.8l0.2-0.1c31-10.8,50.1-26.2,60-48.5c1.3-3.1,2.4-6,3.2-9
		l0-0.2l0.1-0.1c5.8-8.3,7.9-17.7,7-30.4c-0.2-2.2-0.4-4.4-0.8-6.4c-1.7-8.6-9.7-14-24.7-16.5l-0.2,0c-4.1-1.5-7.6-3-10.4-4.6
		l-0.1-0.1c-12.6-10.3-10.7-24.2-8.9-37.7c1.2-9,2.5-18.4-0.6-26.8l-0.7-2c-0.8-2.2-1.7-4.5-2.5-6.9c-0.9-2.2-2.3-4.4-4.3-6.4
		c-4.8-4.9-12.4-9.1-23.5-12.7c-2.6-0.9-5.5-1.7-8.8-2.5C108.3,3.6,96,2,84.5,2c-3.4,0-7,0.1-10.5,0.4l-0.1,0l-0.1,0
		c-11-1.2-21.6,3.7-26.4,12.2c-7.5,12.2-15.9,21.2-24.7,30.7c-6.4,6.9-13,14-19.3,22.4c-2.6,3.4-1,8.7,0.9,13.5
		C5.1,83.5,6.3,85.7,7.8,87.9z"/>
</g>
</svg>
