<?xml version="1.0" encoding="utf-8"?>
<!-- Generator: Adobe Illustrator 25.2.3, SVG Export Plug-In . SVG Version: 6.00 Build 0)  -->
<svg version="1.1" baseProfile="tiny" id="Camada_1"
	 xmlns="http://www.w3.org/2000/svg" xmlns:xlink="http://www.w3.org/1999/xlink" x="0px" y="0px" viewBox="0 0 216.7 205.7"
	 overflow="visible" xml:space="preserve">
<g>
	<path fill="#88A3B0" d="M92.1,205.7c-0.9,0-1.8,0-2.7,0l-0.2,0c-3.1-0.6-6.2-1.3-9.2-2.2c-2.4-0.7-4.8-1.4-7.3-2.3
		c-5.8-2.1-13.2-5.2-18.9-10.2c-7.8-8.3-17.4-13.5-26.7-18.4c-8.4-4.5-17.2-9.2-24.5-16.2l-0.2-0.2c-1.5-2.4-2.3-5.2-2.6-8.7l0-0.1
		l0-0.1c0.4-8.5,3.9-15.8,7.8-23.2l1.1-2c0.9-1.7,1.8-3.4,2.7-5.2c0.4-1.8,1-3.4,1.6-5c1-2.8,2-5.5,1.4-8.5l0-0.1
		c-1.5-15,0.5-30.3,5.8-45.5c1-2.9,2.1-5.7,3.4-8.6c8.2-20.5,22.2-47.9,49.8-49c12.4-0.8,34.2,0,40.9,14.6c2.3,3.9,3.3,9.3,4.4,15
		c2.2,11.6,4.4,23.5,18.2,23.7c2.5,0.2,4.9,0.2,7.7-0.1c5-0.5,10.1-1.8,15.1-3.1c7.8-2,15.8-4,24-3.2c19.6,0.8,22.4,19,24.9,35
		c0.5,3.5,1.1,6.8,1.7,9.9c1,3.2,2.3,6.9,3.8,10.9l0,0.1c0.6,2.6,1.1,5.2,1.5,7.6c1.4,9,1.5,16.9,0,24.2c-0.5,2.7-1.3,5.4-2.3,8
		l0,0.1c-3,5.9-7.1,11-12.1,15l-0.2,0.1c-6.8,3.4-13.8,6.1-20.5,8.7c-17.6,6.8-34.3,13.2-47,30.9c-1.2,3.4-5.5,5.5-10,5
		c-2.4,0.5-4.7,0.8-7.1,1.2l-0.8,0.1c-2.1,0.3-4.3,0.6-6.4,1c-3.4,0.3-6.7,0.5-10,0.7C96.8,205.7,94.5,205.7,92.1,205.7z
		 M89.5,203.7c3.1,0,6.3,0,9.6-0.1c3.2-0.1,6.5-0.3,9.8-0.7c2.1-0.4,4.3-0.7,6.4-1l0.8-0.1c2.4-0.3,4.8-0.7,7.2-1.2l0.2,0l0.2,0
		c3.6,0.5,7.2-1.2,8-3.8l0.1-0.3c13.1-18.2,30.1-24.8,48-31.7c6.7-2.6,13.6-5.2,20.3-8.6c4.8-3.9,8.7-8.6,11.5-14.2
		c0.9-2.4,1.6-5,2.2-7.6c1.4-7,1.4-14.7,0-23.5c-0.4-2.3-0.9-4.8-1.5-7.4c-1.5-4.1-2.8-7.7-3.8-11c-0.7-3.2-1.2-6.5-1.8-10.1
		c-2.5-16-5.1-32.6-23.1-33.3c-7.9-0.8-15.7,1.2-23.3,3.1c-5,1.3-10.2,2.6-15.3,3.1c-2.8,0.3-5.4,0.3-8,0.1
		c-15.3-0.2-17.8-13.5-20-25.3c-1-5.5-2-10.8-4.2-14.5C106.4,2.1,85.5,1.4,73.6,2.2C47.2,3.2,33.5,30,25.5,50
		c-1.2,2.8-2.3,5.7-3.3,8.5c-5.2,14.9-7.1,29.9-5.7,44.6c0.7,3.5-0.4,6.5-1.5,9.5c-0.6,1.6-1.2,3.2-1.5,4.9l-0.1,0.3
		c-0.9,1.8-1.8,3.6-2.8,5.3l-1.1,2c-3.9,7.4-7.2,14.3-7.6,22.3c0.2,3.1,0.9,5.6,2.2,7.6c7.1,6.8,15.2,11.2,23.9,15.8
		c9.4,5,19.2,10.2,27.1,18.8c5.3,4.8,12.5,7.7,18.2,9.8c2.4,0.8,4.8,1.6,7.1,2.3C83.6,202.4,86.6,203.1,89.5,203.7z"/>
</g>
</svg>
