<?xml version="1.0" encoding="utf-8"?>
<!-- Generator: Adobe Illustrator 25.2.3, SVG Export Plug-In . SVG Version: 6.00 Build 0)  -->
<svg version="1.1" baseProfile="tiny" id="Camada_1"
	 xmlns="http://www.w3.org/2000/svg" xmlns:xlink="http://www.w3.org/1999/xlink" x="0px" y="0px" viewBox="0 0 208.3 234.3"
	 overflow="visible" xml:space="preserve">
<g>
	<path fill="#BA7047" d="M55.9,234.3c-2.9,0-5.9-0.1-8.8-0.4c-8.4-0.9-14.5-6.4-18.1-16.3c-3.4-9.2-3.7-20-3.6-25.6
		c0.2-3,0.9-6.1,1.9-9.7l0.1-0.2C46.5,150,31,110.4,6,87.9l-0.1-0.2c-1.7-2.4-3-4.7-3.9-7.2c-1-2.7-1.6-5.5-1.8-8.5
		c-0.2-2.2-0.2-4.4,0-6.5c0.2-2.3,0.7-4.6,1.3-6.8c0.7-2.2,1.4-4.3,2.3-6.5C5.1,49,6.6,45.9,8.3,43c10.1-19.4,26.1-34,43.8-40
		c3.2-1.1,6.5-1.9,9.6-2.4C68.5-1,74.6,0.4,81.7,5C96,16.5,112,15.5,129.1,14.4c6.3-0.4,12.8-0.8,19.1-0.5l0.2,0
		c2.5,0.5,5,1,7.6,1.8c3,1.2,5.6,2.7,7.9,4.5c2.2,1.7,4.2,3.8,6,6.1l0.1,0.1c2.5,4.5,5.3,8.9,8.2,13.7
		c10.1,16.1,20.5,32.8,18.9,51.1c0.3,2.3,0.8,4.6,1.5,6.9c2.8,2.8,3.9,6.3,4.9,9.6c0.6,2,1.2,3.8,2.1,5.5l0.1,0.2
		c0.7,2.2,1.2,4.7,1.8,7.8c1.6,12.5,2,25.8-6.5,38.2c-0.8,3-1.9,6-3.3,9.1c-10.2,22.8-29.6,38.5-61.1,49.5c-3,1.9-6.1,3.5-9.4,4.9
		c-3.2,1.4-6.6,2.5-10.1,3.4c-2.2,0.6-4.5,1.1-7.1,1.5c-6.8,0.7-13.7,1.8-20.4,2.9C78.6,232.4,67.2,234.3,55.9,234.3z M29.2,183
		c-1,3.4-1.6,6.3-1.8,9.1c-0.7,33.8,13.6,39.1,19.8,39.8c14,1.3,28.3-1,42.1-3.2c6.7-1.1,13.6-2.2,20.4-2.9c2.4-0.4,4.7-0.9,6.8-1.5
		c3.4-0.9,6.6-2,9.8-3.3c3.2-1.4,6.3-3,9.2-4.8l0.2-0.1c31-10.8,50.1-26.2,60-48.5c1.3-3.1,2.4-6,3.2-9l0-0.2l0.1-0.1
		c8.2-11.9,7.9-24.7,6.3-36.9c-0.5-2.9-1.1-5.3-1.7-7.5c-1-1.8-1.6-3.8-2.2-5.7c-1-3.3-2-6.4-4.6-8.9l-0.2-0.2l-0.1-0.2
		c-0.8-2.6-1.3-5.1-1.7-7.6l0-0.1l0-0.1c1.6-17.7-8.7-34.1-18.6-49.9c-3-4.7-5.7-9.2-8.3-13.7c-1.6-2.2-3.5-4.1-5.6-5.7
		c-2.2-1.7-4.7-3.1-7.4-4.2c-2.3-0.7-4.8-1.2-7.2-1.7c-6.2-0.3-12.6,0.1-18.8,0.5c-16.7,1-33.9,2.1-48.7-9.7
		c-6.5-4.3-12.1-5.6-18.4-4c-3.1,0.5-6.2,1.2-9.3,2.3C35.5,10.8,19.9,25,10,44c-1.6,2.9-3.1,5.9-4.4,9c-0.9,2.1-1.6,4.2-2.3,6.3
		c-0.6,2.1-1,4.2-1.2,6.4c-0.2,2-0.2,4.1,0,6.2c0.2,2.8,0.7,5.4,1.7,7.9c0.9,2.3,2,4.4,3.6,6.7C33,109.5,48.7,150,29.2,183z"/>
</g>
</svg>
