<?xml version="1.0" encoding="utf-8"?>
<!-- Generator: Adobe Illustrator 25.2.3, SVG Export Plug-In . SVG Version: 6.00 Build 0)  -->
<svg version="1.1" baseProfile="tiny" id="Camada_1"
	 xmlns="http://www.w3.org/2000/svg" xmlns:xlink="http://www.w3.org/1999/xlink" x="0px" y="0px" viewBox="0 0 244.5 240"
	 overflow="visible" xml:space="preserve">
<g>
	<path fill="#745D79" d="M112.8,240c-3.2,0-6.4-0.2-9.6-0.5c-3.3,0.1-6.8,0.1-10.3,0c-6.9-0.2-14.5-0.7-23.7-1.7
		c-2.6-0.3-5.3-0.6-7.9-0.9c-14.2,1-27.1-3.6-37.2-13.5C9.9,209.7,1.5,185.6,2.7,162.2c-1.2-3.6-2.1-7.1-2.6-10.6l0-0.1
		c-0.1-2.6,0.4-5.3,1.5-8.1c0.7-1.8,1.6-3.6,2.5-5.4l0.6-1.2c0.9-3.3,1.7-6.5,2.3-9c8.5-24.8,21.1-48.8,33.3-72
		C45.3,46.1,50.6,36,55.5,26l0.1-0.2c2.2-2.6,4.6-5.1,7-7.4C70.3,11.3,78.8,6.1,87.9,3c3.2-1.1,6.5-1.9,9.6-2.4
		c6.7-1.7,12.9-0.3,19.9,4.4c12.7,10.2,26.9,10.4,40.4,9.8c2.3-0.1,4.7-0.3,7.1-0.4l1.6-0.1c1.9-0.1,3.9-0.2,6-0.3
		c9.8-0.6,20.9-1.3,25.4,7.6c3.6,7.5,5.5,15.5,7.1,22.9c0.4,1.8,0.8,3.7,1.2,5.5l0.5,2.6c2,12.1,9.5,20.2,17.4,28.8
		c1.2,1.3,2.4,2.6,3.6,4l0.1,0.1c1.8,2.7,3.3,6.1,1.3,10.8c0.9,2.1,2,4.1,3.4,6.2c7.3,5.4,11.4,13.7,12,24.6
		c0.2,2.9,0.1,6.2-0.2,9.6c0.6,29.3-10.6,54.6-29.9,67.6c-3,2-6.2,3.8-9.6,5.2c-3.5,1.2-7.2,1.9-10.8,2.7c-7.1,1.5-14.5,3-20.3,7.6
		C154.9,233.1,134,240,112.8,240z M103.2,237.6L103.2,237.6c24.1,2.4,48-4.3,69.1-19.4c6.2-4.8,13.8-6.4,21.1-7.9
		c3.5-0.7,7.1-1.5,10.5-2.6c3.2-1.4,6.3-3,9.2-5c18.7-12.7,29.6-37.4,29-66l0-0.1l0-0.1c0.3-3.3,0.4-6.5,0.2-9.3
		c-0.6-10.5-4.3-18.1-11.3-23.2l-0.1-0.1l-0.1-0.1c-1.6-2.3-2.8-4.7-3.8-7.1l-0.2-0.4l0.2-0.4c1.8-3.8,0.9-6.5-0.9-9.2
		c-1.2-1.3-2.4-2.6-3.6-3.9c-7.8-8.4-15.9-17.2-17.9-29.8l-0.5-2.5c-0.4-1.8-0.8-3.7-1.1-5.5c-1.6-7.4-3.5-15.2-6.9-22.5
		c-3.8-7.7-13.8-7.1-23.4-6.4c-2,0.1-4,0.3-6,0.3l-1.6,0.1c-2.4,0.1-4.7,0.3-7.1,0.4c-13.2,0.6-28.4,0.4-41.6-10.1
		c-6.5-4.3-12.1-5.6-18.4-4c-3.1,0.5-6.2,1.2-9.3,2.3c-8.8,3-17.1,8.1-24.6,15c-2.4,2.2-4.6,4.6-6.8,7.1C52.3,37,47,47,41.9,56.8
		c-12.1,23.1-24.7,47.1-33.1,71.7c-0.6,2.4-1.4,5.7-2.3,9l-0.1,0.2l-0.6,1.3c-0.9,1.8-1.8,3.5-2.4,5.2c-1,2.5-1.4,5-1.3,7.3
		c0.5,3.4,1.4,6.8,2.6,10.4l0.1,0.2l0,0.2c-1.2,22.9,7,46.4,20.8,59.9c9.8,9.6,21.9,14,35.7,12.9l0.1,0l0.1,0c2.7,0.3,5.3,0.6,8,0.9
		c9.2,0.9,16.7,1.5,23.6,1.7C96.4,237.6,99.9,237.6,103.2,237.6L103.2,237.6z"/>
</g>
</svg>
