<?xml version="1.0" encoding="utf-8"?>
<!-- Generator: Adobe Illustrator 25.2.3, SVG Export Plug-In . SVG Version: 6.00 Build 0)  -->
<svg version="1.1" baseProfile="tiny" id="Camada_1"
	 xmlns="http://www.w3.org/2000/svg" xmlns:xlink="http://www.w3.org/1999/xlink" x="0px" y="0px" viewBox="0 0 252.2 253.4"
	 overflow="visible" xml:space="preserve">
<g>
	<path fill="#D1B3C4" d="M84.6,253.4c-19.3,0-35.5-10.1-45.3-28.5c-1.5-2.9-2.9-6.1-4.2-9.4c-3.1-4.5-6.8-9-10.4-13.4
		C9.9,184-5.5,165.3,16.7,141.5l0.1-0.1c3.8-3.3,6.3-8.3,6.4-13.2c0.1-4.3-1.4-8.1-4.5-11.1l-0.1-0.1c-2-2.6-4.4-5.1-7.3-7.6
		l-0.1-0.2c-1.7-2.4-3-4.7-3.9-7.2c-1.1-2.9-1.9-5.3-2.5-7.5c-6.3-14.2-6.3-27.1,0-38.2c5.7-10.1,16.4-18.5,31.8-25
		c12.1-5.1,27-9,42.1-10.8c3.7-0.3,7.2-0.4,10.7-0.4c0,0,0,0,0,0c2.9,0,6,0.1,9.3,0.3c11.1,0.7,19.4-5.6,28.2-12.2
		c2.6-1.9,5.2-3.9,7.9-5.7c5.7-3.4,13.1-3,18.2,1.1c2,1.8,3.8,3.8,5.8,6.1c0.9,0.9,1.9,1.9,2.9,2.9c1,1,2,2,3,3l0.1,0.1
		c2.3,2.9,6.1,5.8,8.9,6.7c22.1,6.4,42.2,13,64.2,28.1c20.9,14.3,12.6,36.2,12.3,37.1l-0.1,0.1c-4.5,7.9-7.3,11.2-10.3,14.7
		c-2.7,3.2-5.5,6.5-9.9,13.7c-1.7,2.7-3,5.2-4.2,7.6c-5.2,9.4-1.5,18.3,2.1,27c1.7,4.1,3.3,8,3.9,11.7c0.4,2.7,0.3,5-0.4,7.2
		c-1.9,4.8-3,10.2-4.1,15.5c-2.3,11.5-4.8,23.4-15.4,29.1C193,225,176.1,236.9,159,249.2l-0.1,0.1c-2.1,1.2-4.4,2.1-6.7,2.7
		c-2.4,0.7-5.1,1.1-7.8,1.2c-6,0.4-12.2-0.6-18.1-1.6c-7.9-1.4-16-2.8-24.2-0.7c-3.6,1-7.3,1.8-10.8,2.2
		C89.1,253.3,86.9,253.4,84.6,253.4z M18.1,142.9c-21,22.5-6.8,39.8,8.2,58c3.7,4.4,7.4,9,10.6,13.6l0.1,0.2
		c1.2,3.3,2.6,6.4,4.1,9.3c10.6,20,28.4,29.6,50,27.1c3.4-0.4,6.9-1.1,10.5-2.1c8.6-2.2,16.9-0.8,25,0.6c6.1,1,11.8,2,17.7,1.6
		c2.6-0.1,5-0.5,7.3-1.1c2.1-0.6,4.2-1.4,6.2-2.5c17.1-12.3,34-24.2,53-35.2c9.8-5.2,12-16.2,14.4-27.7c1.1-5.4,2.2-10.9,4.2-15.8
		c0.5-1.8,0.6-3.8,0.3-6.2c-0.6-3.5-2.1-7.3-3.7-11.3c-3.6-8.7-7.6-18.5-2-28.7c1.2-2.4,2.6-4.9,4.3-7.7c4.4-7.3,7.3-10.7,10-13.9
		c2.9-3.4,5.7-6.6,10.1-14.3c1-2.5,7.5-21.6-11.5-34.7c-21.8-14.9-41.7-21.5-63.7-27.9c-3.2-1.1-7.3-4.1-9.9-7.3c-1-1-2-2-3-3
		c-1-1-1.9-2-2.9-2.9c-2-2.3-3.8-4.3-5.7-6C147.4,1.4,140.9,1,135.9,4c-2.6,1.8-5.3,3.7-7.8,5.6C119,16.5,110.4,23,98.6,22.3
		c-3.3-0.2-6.3-0.3-9.2-0.3c0,0,0,0,0,0c-3.4,0-6.9,0.1-10.5,0.4C64,24.2,49.2,28,37.3,33.1c-15,6.4-25.4,14.5-30.9,24.2
		c-6,10.5-5.9,22.8,0.1,36.5l0.1,0.2c0.6,2.2,1.3,4.5,2.5,7.4c0.9,2.3,2,4.5,3.6,6.7c2.9,2.6,5.3,5.1,7.4,7.8
		c3.5,3.4,5.2,7.7,5.1,12.6C25,133.6,22.3,139.2,18.1,142.9z"/>
</g>
</svg>
