<?xml version="1.0" encoding="utf-8"?>
<!-- Generator: Adobe Illustrator 25.2.3, SVG Export Plug-In . SVG Version: 6.00 Build 0)  -->
<svg version="1.1" baseProfile="tiny" id="Camada_1"
	 xmlns="http://www.w3.org/2000/svg" xmlns:xlink="http://www.w3.org/1999/xlink" x="0px" y="0px" viewBox="0 0 295.1 492"
	 overflow="visible" xml:space="preserve">
<g>
	<g>
		<path fill="#C2A256" d="M66.2,458.4c-0.5-0.4-49.8-41.8-52.7-102.3c-1.9-39.3,15.8-77.9,52.6-114.7
			c38.4-38.4,55.8-75.9,51.6-111.6C112,81,66.8,52.7,66.3,52.5l1-1.7c0.5,0.3,46.4,29.1,52.3,78.9c4.3,36.3-13.3,74.4-52.1,113.2
			c-36.4,36.4-53.9,74.4-52,113.1c2.8,59.6,51.5,100.5,52,100.9L66.2,458.4z"/>
	</g>
	<g>
		<path fill="#C2A256" d="M97.6,458.2c-0.5-0.4-50.5-40.9-54.3-101.3c-2.5-39.2,14.5-78.1,50.7-115.4c37.8-39,54.5-76.8,49.7-112.3
			C137.1,80.4,91.5,52.9,91,52.6l1-1.7c0.5,0.3,46.9,28.3,53.6,78c4.9,36.2-12,74.5-50.2,114c-35.8,36.9-52.6,75.3-50.1,113.9
			c3.8,59.5,53.1,99.5,53.6,99.9L97.6,458.2z"/>
	</g>
	<g>
		<path fill="#C2A256" d="M129,458.1c-0.5-0.4-51.1-40.1-56-100.4c-3.2-39.2,13.2-78.3,48.8-116.2c37.1-39.6,53.2-77.7,47.8-113.1
			c-7.4-48.6-53.4-75.3-53.8-75.6l1-1.7c0.5,0.3,47.3,27.5,54.8,77c5.5,36.1-10.8,74.7-48.3,114.8C88.1,280.4,71.9,318.9,75,357.5
			c4.8,59.4,54.7,98.6,55.2,99L129,458.1z"/>
	</g>
	<g>
		<path fill="#C2A256" d="M160.3,457.9c-0.5-0.4-51.7-39.2-57.6-99.5c-3.8-39.1,12-78.5,46.9-117c36.4-40.2,51.9-78.5,45.9-113.9
			c-8.2-48.5-54.6-74.4-55.1-74.7l1-1.8c0.5,0.3,47.8,26.7,56.1,76.1c6,36-9.6,74.8-46.4,115.5c-34.5,38.1-50.1,76.9-46.3,115.4
			c5.8,59.4,56.3,97.7,56.8,98L160.3,457.9z"/>
	</g>
	<g>
		<path fill="#C2A256" d="M191.7,457.8c-0.5-0.4-52.4-38.4-59.2-98.5c-4.4-39,10.7-78.6,44.9-117.7c35.8-40.8,50.6-79.4,44.1-114.6
			c-8.9-48.3-55.8-73.5-56.3-73.8l0.9-1.8c0.5,0.3,48.2,25.9,57.3,75.2c6.6,35.9-8.3,75-44.5,116.3c-33.9,38.6-48.8,77.7-44.5,116.2
			c6.7,59.2,57.9,96.8,58.4,97.1L191.7,457.8z"/>
	</g>
	<g>
		<path fill="#C2A256" d="M223.1,457.6c-0.5-0.4-53-37.5-60.9-97.6c-5.1-39,9.4-78.8,43-118.5c35.1-41.4,49.3-80.2,42.2-115.4
			c-9.7-48.2-57-72.6-57.5-72.9l0.9-1.8c0.5,0.2,48.6,25.1,58.6,74.3c7.2,35.8-7.1,75.2-42.6,117.1c-33.2,39.2-47.6,78.6-42.6,116.9
			c7.7,59.2,59.5,95.8,60,96.2L223.1,457.6z"/>
	</g>
	<g>
		<path fill="#C2A256" d="M254.5,457.5c-0.5-0.4-53.7-36.7-62.5-96.6c-5.7-38.9,8.1-79,41.1-119.3c34.4-42,48-81.1,40.3-116.1
			c-10.5-48.1-58.3-71.7-58.8-72l0.9-1.8c0.5,0.2,49.1,24.3,59.8,73.3c7.8,35.7-5.9,75.3-40.7,117.8
			c-32.6,39.8-46.3,79.4-40.7,117.7c8.7,59.1,61.1,94.9,61.6,95.2L254.5,457.5z"/>
	</g>
</g>
</svg>
