<?xml version="1.0" encoding="utf-8"?>
<!-- Generator: Adobe Illustrator 25.2.3, SVG Export Plug-In . SVG Version: 6.00 Build 0)  -->
<svg version="1.1" baseProfile="tiny" id="Camada_1"
	 xmlns="http://www.w3.org/2000/svg" xmlns:xlink="http://www.w3.org/1999/xlink" x="0px" y="0px" viewBox="0 0 406.5 287.4"
	 overflow="visible" xml:space="preserve">
<g>
	<path fill="#88A3B0" d="M217.4,46c-0.5,0-0.9-0.1-1.3-0.2c-1.1-0.4-1.7-1.5-2-2.4c-0.7-1.6-1-5,0.2-7.4l0,0
		c0.8-1.5,2.1-2.6,3.8-3.4c2.7-1.2,6.9-0.2,8.6,2c2.3,3.1,0.2,5.4-1.2,7.2l-0.2,0.2c-0.2,0.2-0.3,0.4-0.5,0.6
		c-0.6,0.7-1.3,1.6-2.2,2l-0.7,0.3C220.5,45.4,218.9,46,217.4,46z M216.1,36.9c-1,1.8-0.6,4.6-0.2,5.7c0.4,1,0.8,1.2,0.9,1.2
		c1.1,0.4,2.9-0.4,4.4-1l0.8-0.3c0.4-0.2,0.9-0.8,1.3-1.3c0.2-0.2,0.3-0.4,0.5-0.6l0.2-0.2c1.6-1.9,2.4-3,1.1-4.7
		c-1.1-1.5-4.3-2.2-6.2-1.4C217.6,35,216.7,35.8,216.1,36.9z"/>
</g>
<g>
	<path fill="#88A3B0" d="M311.4,80.9c-1.6,0-2.9-0.5-3.9-1.5c-1.1-1.1-1.7-2.8-1.7-4.8v0c0.1-4,3.2-7.4,7-7.4c1.7,0,3.3,0.7,4.6,2
		c1.2,1.3,1.9,3,1.9,4.6c-0.1,3.2-4.1,7-7.6,7.1C311.6,80.9,311.5,80.9,311.4,80.9z M307.8,74.6c0,1.5,0.4,2.6,1.1,3.4
		c0.6,0.6,1.5,0.9,2.6,0.9c2.4-0.1,5.6-2.9,5.7-5.1c0-1.1-0.5-2.3-1.3-3.2c-0.9-0.9-2-1.4-3.1-1.4C310.1,69.1,307.9,71.6,307.8,74.6
		L307.8,74.6z"/>
</g>
<g>
	<g>
		<g>
			<path fill="#88A3B0" d="M273,65.3c-3,0-5.4-2.6-5.5-6c-0.1-1.9,0.8-3.8,2.3-5.4c1.5-1.5,3.4-2.4,5.2-2.4c0,0,0.1,0,0.1,0
				c3.3,0,5.7,2.5,5.7,6c0,3.6-4,7.7-7.6,7.8C273.1,65.3,273.1,65.3,273,65.3z M275,53.5c-1.3,0-2.7,0.7-3.8,1.8
				c-1.1,1.1-1.8,2.6-1.7,3.9c0.1,2.3,1.7,4.1,3.6,4.1l0,0c2.5-0.1,5.7-3.3,5.7-5.8C278.7,55.2,277.2,53.6,275,53.5
				C275,53.5,275,53.5,275,53.5z"/>
		</g>
	</g>
</g>
<g>
	<path fill="#88A3B0" d="M327.6,173.4c-3.2,0-5.9-2.3-6.2-5.4c-0.1-1.5,0.4-3,1.4-4.1c1.3-1.5,3.4-2.3,5.7-2.4h0c0.1,0,0.2,0,0.3,0
		c4.9,0,6.1,2.6,6.3,4.8c0.1,1.6-0.5,3.2-1.8,4.5c-1.5,1.6-3.6,2.6-5.7,2.6C327.7,173.4,327.7,173.4,327.6,173.4z M328.7,163.5
		c-1.7,0-3.3,0.7-4.3,1.7c-0.7,0.8-1,1.7-0.9,2.6c0.2,2,2,3.6,4.3,3.5c1.6,0,3.1-0.8,4.2-2c0.9-0.9,1.3-2,1.2-3.1
		C333.1,165,332.5,163.4,328.7,163.5L328.7,163.5z"/>
</g>
<g>
	<path fill="#88A3B0" d="M86.1,108.6c-0.2,0-0.4,0-0.6,0c-1.6-0.2-3.4-1.3-4.7-2.9c-1.1-1.4-1.7-3-1.5-4.3c0.3-2.9,4.4-5.8,7.7-5.5
		c1.2,0.1,2.4,0.7,3.3,1.8c1.1,1.3,1.7,3.2,1.5,4.9v0c-0.2,1.8-0.9,3.4-2,4.5C88.8,108,87.5,108.6,86.1,108.6z M86.5,97.8
		c-2.3,0-5.1,2.2-5.3,3.8c-0.1,0.7,0.3,1.8,1.1,2.8c1,1.2,2.3,2,3.3,2.1c1.1,0.1,2-0.2,2.8-0.9c0.8-0.7,1.3-1.9,1.4-3.2
		c0.1-1.2-0.3-2.5-1.1-3.4c-0.6-0.7-1.3-1.1-1.9-1.1C86.7,97.8,86.6,97.8,86.5,97.8z"/>
</g>
<g>
	<path fill="#88A3B0" d="M362.2,243.2c-0.1,0-0.2,0-0.3,0c-2.8-0.2-5.4-3.3-5.2-6.4c0.1-1.3,0.7-2.6,1.8-3.7c1.4-1.2,3.2-1.9,5-1.7
		l0,0c2.1,0.2,4,1,5.2,2.5c0.9,1,1.3,2.3,1.1,3.5C369.5,240.2,365.5,243.2,362.2,243.2z M363,233.4c-1.2,0-2.4,0.4-3.2,1.2
		c-0.7,0.6-1.1,1.4-1.2,2.2c-0.1,2,1.6,4.2,3.3,4.3c2.5,0.1,5.7-2.4,5.9-4.1c0.1-0.9-0.3-1.6-0.7-2c-0.8-1-2.3-1.6-3.8-1.8
		C363.2,233.4,363.1,233.4,363,233.4z"/>
</g>
<g>
	<path fill="#88A3B0" d="M337.1,123.5c-0.1,0-0.1,0-0.2,0l0,0c-1.4,0-2.6-0.6-3.6-1.7c-1-1.1-1.6-2.6-1.5-4.1
		c0.1-1.6,0.9-3.2,2.2-4.4c1.4-1.2,3.1-1.8,4.7-1.7c3.3,0.3,6.3,2.9,6.3,5.4c0,1.2-0.7,2.6-1.9,3.8
		C341.5,122.5,339.1,123.5,337.1,123.5z M337,121.5c1.5,0,3.4-0.8,4.8-2.1c0.8-0.8,1.3-1.6,1.3-2.3c0-1.4-2-3.2-4.4-3.4
		c-1.1-0.1-2.3,0.3-3.2,1.2c-0.9,0.8-1.5,1.9-1.6,3c0,1,0.3,1.9,1,2.6C335.4,121.1,336.2,121.5,337,121.5z"/>
</g>
<g>
	<path fill="#88A3B0" d="M122.4,74.2c-0.1,0-0.3,0-0.4,0c-2.8-0.2-5.8-3.3-5.9-6c0-1.8,1.2-3.7,2.4-4.9c1.3-1.3,2.8-2,4.1-1.9
		c3.3,0.2,5.7,3.1,5.6,6.7v0c-0.1,1.8-0.8,3.5-2.1,4.6C125.1,73.7,123.8,74.2,122.4,74.2z M122.4,63.5c-0.7,0-1.6,0.5-2.5,1.3
		c-1.1,1.1-1.8,2.4-1.8,3.4c0,1.7,2.2,3.9,4,4c1,0.1,1.9-0.3,2.7-0.9c0.9-0.8,1.4-1.9,1.4-3.2C126.2,65.5,124.7,63.6,122.4,63.5
		C122.5,63.5,122.4,63.5,122.4,63.5z"/>
</g>
<g>
	<path fill="#88A3B0" d="M146.3,157c-1.6,0-3-0.5-4-1.5c-1.1-1-1.8-2.5-1.9-4.2l0,0c-0.1-3,2.4-5.8,5.5-6.1c1.6-0.1,3.4,0.5,4.8,1.8
		c1.3,1.2,2.1,2.8,2.1,4.3c0,3-2.5,5.4-5.9,5.6C146.6,157,146.4,157,146.3,157z M142.3,151.2c0,1.2,0.5,2.1,1.2,2.8
		c0.8,0.7,1.8,1,3.1,0.9c2.3-0.2,4-1.7,4.1-3.6c0-0.9-0.5-2-1.4-2.8c-1-0.9-2.2-1.4-3.3-1.3C144,147.4,142.3,149.3,142.3,151.2
		L142.3,151.2z"/>
</g>
<g>
	<path fill="#88A3B0" d="M372.9,135.7c-1.6,0-3-0.5-4-1.5c-1.1-1-1.8-2.5-1.9-4.2l0,0c-0.1-3,2.4-5.8,5.5-6.1
		c1.6-0.1,3.4,0.5,4.8,1.8c1.3,1.2,2.1,2.8,2.1,4.3c0,3-2.5,5.4-5.9,5.6C373.2,135.7,373,135.7,372.9,135.7z M368.9,129.9
		c0,1.2,0.5,2.1,1.2,2.8c0.8,0.7,1.8,1,3.1,0.9c2.3-0.2,4-1.7,4.1-3.6c0-0.9-0.5-2-1.4-2.8c-1-0.9-2.2-1.4-3.3-1.3
		C370.6,126.1,368.9,128,368.9,129.9L368.9,129.9z"/>
</g>
<g>
	<path fill="#88A3B0" d="M116.9,125.6c-1.6,0-3-0.5-4-1.5c-1-0.9-1.5-2.2-1.5-3.6c0-3.4,2.6-6.4,5.7-6.7c3.1-0.2,5.9,1.9,6.2,4.7
		c0.2,1.7-0.4,3.4-1.5,4.8c-1.2,1.3-2.8,2.1-4.5,2.2C117.1,125.6,117,125.6,116.9,125.6z M117.6,115.8c-0.1,0-0.2,0-0.3,0
		c-2.1,0.2-3.9,2.3-3.9,4.7c0,0.8,0.3,1.6,0.9,2.1c0.7,0.7,1.7,1,2.9,0.9h0c1.2-0.1,2.3-0.6,3.1-1.5c0.8-0.9,1.2-2.1,1.1-3.2
		C121.2,117.2,119.5,115.8,117.6,115.8z"/>
</g>
<g>
	<path fill="#88A3B0" d="M171.8,83.2c-0.1,0-0.1,0-0.2,0l0,0c-1.9-0.1-3.5-0.7-4.5-1.8c-0.9-1-1.3-2.3-1.2-3.8
		c0.2-3.3,2.7-5.6,6-5.5c3.2,0.1,5.5,2.3,5.5,5.3c0,1.7-0.6,3.2-1.7,4.3C174.6,82.7,173.2,83.2,171.8,83.2z M171.5,74.1
		c-2.1,0-3.6,1.4-3.7,3.6c-0.1,1,0.2,1.8,0.7,2.3c0.7,0.7,1.7,1.1,3.1,1.2l0,0c1,0,1.9-0.3,2.6-0.9c0.7-0.7,1.1-1.7,1.1-2.8
		c0-1.9-1.4-3.2-3.6-3.3C171.6,74.1,171.6,74.1,171.5,74.1z"/>
</g>
<g>
	<g>
		<g>
			<path fill="#88A3B0" d="M43.9,163.2C43.9,163.2,43.9,163.2,43.9,163.2c-1.6,0-3.1-0.7-4.2-1.9c-1.1-1.2-1.7-2.6-1.7-4
				c0-1.4,0.8-2.9,2.1-4c1.1-1,2.4-1.5,3.6-1.5c2.9,0.2,6.2,3.2,6.3,5.7c0,1.3-0.7,2.7-1.8,3.9C46.9,162.5,45.3,163.2,43.9,163.2z
				 M43.5,153.8c-0.6,0-1.3,0.4-2,1c-0.8,0.8-1.4,1.8-1.4,2.6c0,0.9,0.4,1.8,1.1,2.6c0.8,0.8,1.8,1.3,2.8,1.3l0,0
				c0.9,0,2-0.5,2.8-1.3c0.8-0.8,1.2-1.7,1.2-2.5C47.9,156.2,45.4,153.9,43.5,153.8C43.5,153.8,43.5,153.8,43.5,153.8z"/>
		</g>
	</g>
</g>
<g>
	<path fill="#88A3B0" d="M54.8,126.9C54.8,126.9,54.7,126.9,54.8,126.9c-3.1,0-5.9-2.3-6-4.9c-0.1-1.3,0.5-2.8,1.5-3.9
		c1.1-1.3,2.7-2,4.2-2.1c1.7,0,3.4,0.7,4.7,1.9c1,1,1.6,2.3,1.6,3.5c0,1.4-0.6,2.7-1.6,3.8C58,126.2,56.4,126.9,54.8,126.9z
		 M54.6,117.9C54.6,117.9,54.6,117.9,54.6,117.9c-1,0-2.1,0.6-2.8,1.4c-0.7,0.8-1.1,1.7-1,2.4c0.1,1.5,2.1,3,4,3.1
		c1.1,0,2.2-0.4,3-1.2c0.7-0.7,1.1-1.5,1.1-2.4v0c0-0.7-0.4-1.4-1-2C56.9,118.4,55.7,117.9,54.6,117.9z"/>
</g>
<g>
	<path fill="#88A3B0" d="M126,230.6c-1.6,0-2.9-0.5-3.9-1.5c-1-0.9-1.5-2.3-1.5-3.7c0-2.7,2.3-4.9,5.1-5.1c1.7-0.1,3.7,0.7,5.1,2.1
		c1.1,1.1,1.7,2.4,1.6,3.6c-0.1,2.5-2.9,4.6-6.2,4.7C126.1,230.6,126.1,230.6,126,230.6z M126,222.2c-0.1,0-0.1,0-0.2,0
		c-1.8,0.1-3.2,1.5-3.2,3.1c0,0.9,0.3,1.7,0.9,2.3c0.6,0.6,1.6,1,2.6,0.9h0c2.2,0,4.2-1.3,4.3-2.8c0-0.6-0.3-1.4-1-2.1
		C128.4,222.8,127.1,222.2,126,222.2z"/>
</g>
<g>
	<path fill="#88A3B0" d="M279.4,246.5c-0.1,0-0.1,0-0.1,0l0,0c-1.2,0-2.4-0.6-3.2-1.5c-0.9-1.1-1.4-2.5-1.3-4
		c0.2-2.7,2.5-4.6,5.4-4.6c0,0,0.1,0,0.1,0c1.8,0,3.7,0.8,4.9,2.1c0.8,0.8,1.2,1.8,1.2,2.7c0,1-0.6,2.1-1.7,3.1
		C283.2,245.6,281.1,246.5,279.4,246.5z M279.4,244.5c1.2,0,2.8-0.7,3.9-1.7c0.6-0.6,1-1.2,1-1.7c0-0.4-0.2-0.8-0.6-1.3
		c-0.8-0.9-2.2-1.5-3.5-1.5c-1.9,0-3.3,1.1-3.4,2.8c-0.1,1,0.2,1.9,0.8,2.5C278,244.2,278.7,244.5,279.4,244.5z"/>
</g>
<g>
	<path fill="#88A3B0" d="M267.5,130c-0.1,0-0.1,0-0.2,0h0c-1.5-0.1-2.9-0.7-3.9-1.9c-0.9-1-1.3-2.1-1.3-3.2c0.1-1.3,0.8-2.5,1.9-3.6
		c1.4-1.3,3.3-2,5-1.8c4,0.3,4.8,2.7,4.7,4.6c0,1.4-0.8,2.8-2.1,4C270.5,129.3,268.9,130,267.5,130z M267.4,128c0.9,0,2.1-0.5,3-1.3
		c0.9-0.8,1.4-1.8,1.4-2.6c0-1.2-0.3-2.3-2.9-2.5c-1.2-0.1-2.5,0.4-3.6,1.3c-0.8,0.7-1.2,1.5-1.3,2.2c0,0.6,0.2,1.2,0.7,1.8
		C265.5,127.5,266.5,127.9,267.4,128L267.4,128z"/>
</g>
<g>
	<path fill="#88A3B0" d="M219.7,138.8c-1.4,0-2.6-0.5-3.5-1.5c-0.9-1-1.4-2.4-1.2-3.8c0.3-3,2.6-4.8,6-4.7c1.9,0,3.3,0.5,4.2,1.5
		c0.8,0.8,1.1,1.9,1.1,3.3v0C226.1,136.2,223.1,138.7,219.7,138.8C219.8,138.8,219.8,138.8,219.7,138.8z M220.8,130.7
		c-1.4,0-3.6,0.4-3.9,2.9c-0.1,0.9,0.2,1.7,0.7,2.3c0.5,0.6,1.3,0.9,2.1,0.9c2.1,0,4.4-1.7,4.5-3.4c0-0.8-0.1-1.4-0.5-1.8
		c-0.5-0.6-1.5-0.9-2.8-0.9C220.9,130.7,220.9,130.7,220.8,130.7z"/>
</g>
<g>
	<path fill="#88A3B0" d="M280.9,161.2c-0.3,0-0.7,0-1-0.1l0,0c-1.8-0.3-3.2-1-3.9-2.1c-0.6-0.8-0.7-1.8-0.5-2.9
		c0.7-2.9,4.5-5.3,7.5-4.8c1.4,0.2,2.6,1,3.3,2.1c0.7,1,0.9,2.2,0.6,3.4C286.4,159.3,283.7,161.2,280.9,161.2z M282.2,153.2
		c-1.9,0-4.3,1.6-4.8,3.3c-0.1,0.5-0.1,0.9,0.2,1.3c0.4,0.6,1.3,1.1,2.6,1.3h0c2.1,0.3,4.4-1,4.8-2.8c0.2-0.6,0-1.3-0.3-1.8
		c-0.4-0.6-1.1-1.1-2-1.2C282.5,153.2,282.4,153.2,282.2,153.2z"/>
</g>
<g>
	<path fill="#88A3B0" d="M236.5,97.6c0,0-0.1,0-0.1,0l0,0c-1.7-0.1-5.6-0.3-5.5-4.4c0-1.5,0.6-2.8,1.7-3.9c1.2-1.1,2.8-1.7,4.4-1.6
		c4.1,0.2,4.8,2.9,4.9,4.5c0.1,1.5-0.5,2.8-1.4,3.8C239.5,97.1,238.1,97.6,236.5,97.6z M236.5,95.6c1,0.1,2-0.3,2.6-1
		c0.6-0.6,0.9-1.4,0.9-2.3c0-1.2-0.4-2.5-3-2.6c-1.1,0-2.2,0.3-3,1.1c-0.7,0.7-1.1,1.5-1.1,2.4C232.8,94.7,233.4,95.5,236.5,95.6z"
		/>
</g>
<g>
	<path fill="#88A3B0" d="M168.4,206.8c0,0-0.1,0-0.1,0h0c-1.4,0-2.6-0.5-3.5-1.4c-0.8-0.9-1.2-2.1-1.2-3.3c0.1-2.8,2.3-5.1,5-5.2
		c0.1,0,0.1,0,0.2,0c3,0,5.9,2.3,6,4.8c0,1.1-0.4,2.2-1.3,3.1C172.2,206.1,170.4,206.8,168.4,206.8z M168.3,204.8
		c1.4,0.1,2.8-0.5,3.7-1.4c0.4-0.4,0.8-0.9,0.7-1.6c-0.1-1.5-2.1-3-4.1-2.9c-1.7,0-3,1.5-3.1,3.3c0,0.8,0.2,1.4,0.6,1.9
		C166.8,204.5,167.5,204.8,168.3,204.8L168.3,204.8z"/>
</g>
<g>
	<path fill="#88A3B0" d="M218.5,203.2c-1,0-1.9-0.1-2.6-0.4c-1.4-0.5-2.2-1.6-2.4-3.2c-0.2-1,0.2-2.2,1.1-3.2
		c1.2-1.5,3.1-2.6,4.8-2.7c1.7-0.1,3.4,0.5,4.5,1.5c0.8,0.8,1.3,1.8,1.3,2.8c0,1.3-0.8,2.7-2,3.7C222,202.8,220.2,203.2,218.5,203.2
		z M219.8,195.7c-0.1,0-0.2,0-0.3,0c-1.2,0.1-2.6,0.9-3.4,2c-0.5,0.6-0.7,1.2-0.7,1.7c0.2,1.1,0.6,1.4,1.1,1.6h0
		c1.4,0.5,4.2,0.3,5.3-0.6c0.8-0.7,1.3-1.5,1.3-2.2c0-0.5-0.2-0.9-0.6-1.3C221.8,196.1,220.8,195.7,219.8,195.7z"/>
</g>
<g>
	<path fill="#88A3B0" d="M70.9,206.9c-0.1,0-0.2,0-0.4,0c-3.3-0.1-5.5-2-5.5-4.5v0c0-1.5,0.6-3,1.7-3.9c0.9-0.8,2.1-1.3,3.3-1.2
		c3.2,0.2,5.8,2.4,5.9,5c0.1,1.3-0.3,2.5-1.2,3.3C73.8,206.4,72.5,206.9,70.9,206.9z M67.1,202.4c0,1.4,1.4,2.4,3.6,2.5
		c1.2,0.1,2.1-0.2,2.7-0.8c0.4-0.4,0.6-1,0.6-1.8c-0.1-1.6-1.9-3-4-3.1c-0.8-0.1-1.4,0.3-1.8,0.7C67.5,200.5,67.1,201.4,67.1,202.4z
		"/>
</g>
<g>
	<path fill="#88A3B0" d="M224.2,249.5c-0.2,0-0.5,0-0.7,0c-1-0.1-1.8-0.7-2.3-1.1c-1.2-1.1-2.3-3.9-1.1-6l0,0
		c0.7-1.2,1.9-1.9,3.7-2.1c1.7-0.1,3.5,0.5,4.8,1.7c1,0.9,1.5,2,1.5,3c0,1-0.6,2-1.6,2.9C227.2,248.9,225.7,249.5,224.2,249.5z
		 M224.2,242.3c-0.1,0-0.2,0-0.3,0c-1.4,0.1-1.9,0.6-2.1,1.1l0,0c-0.7,1.2,0.2,3,0.7,3.4c0.5,0.4,0.9,0.6,1.3,0.7
		c1.3,0.2,2.6-0.4,3.3-1.1c0.5-0.5,0.9-1,0.9-1.4c0-0.5-0.3-1.1-0.8-1.5C226.4,242.7,225.3,242.3,224.2,242.3z"/>
</g>
<g>
	<path fill="#88A3B0" d="M110.7,196.3c-1.6,0-3-0.6-4-1.6c-0.8-0.9-1.3-2.1-1.2-3.3c0.1-2.6,2.6-4.7,5.5-4.7c1.5,0,3,0.6,4,1.6
		c0.9,0.9,1.3,2.1,1.2,3.3C115.9,194.3,113.5,196.3,110.7,196.3z M111,188.7C111,188.7,111,188.7,111,188.7c-1.9,0-3.5,1.3-3.5,2.8
		c0,0.7,0.2,1.4,0.7,1.9c0.6,0.6,1.5,0.9,2.5,0.9c1.8,0,3.3-1.2,3.4-2.8c0.1-0.9-0.3-1.5-0.7-1.8C112.9,189.1,112,188.7,111,188.7z"
		/>
</g>
<g>
	<path fill="#88A3B0" d="M348.2,78.8c-1.6,0-3-0.6-4-1.6c-0.8-0.9-1.3-2.1-1.2-3.3c0.1-2.6,2.6-4.7,5.5-4.7c1.6,0,3,0.6,4,1.6
		c0.9,0.9,1.3,2.1,1.2,3.3C353.5,76.8,351.1,78.8,348.2,78.8z M348.6,71.2C348.6,71.2,348.6,71.2,348.6,71.2c-1.9,0-3.5,1.3-3.5,2.8
		c0,0.7,0.2,1.4,0.7,1.9c0.6,0.6,1.5,0.9,2.5,0.9c1.8,0,3.3-1.2,3.4-2.8c0.1-0.9-0.3-1.5-0.7-1.8C350.4,71.5,349.6,71.2,348.6,71.2z
		"/>
</g>
<g>
	<path fill="#88A3B0" d="M320.3,214.6c-1.5,0-2.9-0.5-3.5-1.1c-0.7-0.6-1.1-1.3-1.3-1.9c-0.3-1.1-0.1-2.2,0.6-3.2
		c1-1.4,2.8-2.4,4.6-2.5c1.4-0.1,2.8,0.3,3.8,1.2c0.9,0.8,1.4,1.9,1.5,3c0.1,1.5-0.9,3-2.8,3.9C322.2,214.4,321.2,214.6,320.3,214.6
		z M321,207.8c-0.1,0-0.2,0-0.2,0c-1.2,0.1-2.5,0.8-3.1,1.7c-0.2,0.4-0.5,0.9-0.3,1.5c0.1,0.3,0.4,0.7,0.8,1.1l0,0
		c0.4,0.4,2.5,0.9,4,0.1c1.1-0.6,1.7-1.3,1.7-2c0-0.7-0.3-1.2-0.8-1.7C322.5,208,321.8,207.8,321,207.8z"/>
</g>
<g>
	<g>
		<g>
			<path fill="#88A3B0" d="M171.5,251.5c-2.6,0-4.3-1.4-4.7-4c-0.2-1.1,0.1-2.3,0.9-3.3c0.8-1.1,2.1-1.8,3.4-1.9
				c1.7-0.2,3.5,0.4,4.8,1.5c1,0.8,1.6,1.9,1.7,3v0c0.2,2.5-2.1,4.5-5.5,4.7C171.9,251.5,171.7,251.5,171.5,251.5z M171.8,244.2
				c-0.1,0-0.3,0-0.4,0c-0.8,0.1-1.5,0.5-2,1.2c-0.4,0.6-0.6,1.2-0.5,1.8c0.3,1.7,1.2,2.4,3.2,2.3c2.2-0.2,3.7-1.3,3.6-2.6
				c0-0.5-0.4-1.1-0.9-1.6C173.9,244.6,172.8,244.2,171.8,244.2z"/>
		</g>
	</g>
</g>
<g>
	<path fill="#88A3B0" d="M162.9,130.8c-2.6,0-4.3-1.3-4.7-3.8c-0.2-1.1,0.2-2.2,0.9-3.3c0.9-1.3,2.4-2.1,3.8-2.3
		c1.7-0.2,3.3,0.2,4.5,1.2c0.9,0.7,1.4,1.7,1.5,2.8v0c0.2,2.9-2,5.1-5.4,5.4C163.4,130.8,163.2,130.8,162.9,130.8z M163.9,123.3
		c-0.2,0-0.4,0-0.6,0c-0.9,0.1-1.8,0.7-2.5,1.5c-0.4,0.6-0.7,1.2-0.6,1.7c0.2,1.2,0.7,2.3,3.3,2.1c2.3-0.2,3.7-1.5,3.5-3.2
		c-0.1-0.7-0.5-1.2-0.8-1.4C165.6,123.6,164.8,123.3,163.9,123.3z"/>
</g>
<g>
	<path fill="#88A3B0" d="M99.9,164.4c-1.7,0-3.4-0.7-4.2-1.6l0,0c-0.7-0.7-1.2-1.4-1.5-2.1c-0.2-0.5-0.4-1.3,0.3-2.3
		c0.8-1.4,3-3,4.9-3.1c1.4-0.1,2.9,0.5,4,1.6c1,0.9,1.5,2.1,1.4,3.2c-0.1,1.5-1,2.9-2.6,3.7C101.4,164.2,100.7,164.4,99.9,164.4z
		 M97.2,161.4c0.6,0.7,2.7,1.4,4.1,0.6c1-0.5,1.5-1.2,1.5-2c0-0.5-0.3-1.2-0.8-1.7c-0.7-0.7-1.7-1.1-2.5-1.1c-0.9,0.1-2.3,0.9-3,1.8
		c-0.3,0.4-0.4,0.7-0.4,0.8C96.2,160.3,96.6,160.9,97.2,161.4z"/>
</g>
<g>
	<path fill="#88A3B0" d="M182.4,166.9c-0.2,0-0.4,0-0.6-0.1c-1-0.2-1.8-0.6-2.4-1c-0.8-0.5-1.5-1.7-1.7-2.9
		c-0.2-1.2,0.1-2.3,0.8-3.2c1-1.2,2.5-2,3.9-2c1.4,0,2.8,0.6,3.9,1.6c0.9,0.9,1.3,1.9,1.3,2.9c0,1.1-0.7,2.4-1.9,3.3
		C184.7,166.4,183.5,166.9,182.4,166.9z M182.5,159.8C182.5,159.8,182.5,159.8,182.5,159.8c-0.9,0-1.8,0.5-2.4,1.3l0,0
		c-0.4,0.5-0.4,1.1-0.4,1.6c0.1,0.8,0.5,1.4,0.8,1.5c0.4,0.3,1,0.6,1.6,0.7c0.7,0.1,1.6-0.2,2.4-0.8c0.7-0.6,1.1-1.3,1.1-1.8
		c0-0.4-0.2-0.9-0.7-1.4C184.2,160.2,183.3,159.8,182.5,159.8z"/>
</g>
<g>
	<path fill="#88A3B0" d="M297.3,106.8c-0.2,0-0.4,0-0.6-0.1c-1-0.2-1.8-0.6-2.4-1c-0.8-0.5-1.5-1.7-1.7-2.9
		c-0.2-1.2,0.1-2.3,0.8-3.2c1-1.2,2.5-2,3.9-2c1.4,0,2.8,0.6,3.9,1.6c0.8,0.9,1.3,1.9,1.3,2.9c0,1.1-0.7,2.4-1.9,3.3
		C299.6,106.3,298.5,106.8,297.3,106.8z M297.5,99.6C297.5,99.6,297.4,99.6,297.5,99.6c-0.9,0-1.8,0.5-2.4,1.3l0,0
		c-0.4,0.5-0.4,1.1-0.4,1.6c0.1,0.8,0.5,1.4,0.8,1.5c0.4,0.3,1,0.6,1.6,0.7c0.7,0.1,1.6-0.2,2.4-0.8c0.7-0.6,1.1-1.3,1.1-1.8
		c0-0.4-0.2-0.9-0.7-1.4C299.2,100,298.3,99.6,297.5,99.6z"/>
</g>
<g>
	<path fill="#88A3B0" d="M260.6,217.3c-0.2,0-0.4,0-0.7-0.1c-1.5-0.3-2.6-0.8-3.2-1.7c-0.5-0.7-0.7-1.6-0.5-2.6
		c0.5-2.8,2.3-4.4,4.9-4.5c0,0,0,0,0.1,0c1.6,0,3.1,0.6,4.1,1.6c0.7,0.8,1.1,1.7,1.1,2.7l0,0c0,1-0.7,2.1-1.8,3
		C263.6,216.5,262.1,217.3,260.6,217.3z M261.2,210.5C261.2,210.5,261.2,210.5,261.2,210.5c-1.7,0-2.7,0.9-3,2.8
		c-0.1,0.5,0,0.8,0.2,1.1c0.3,0.4,1,0.7,1.9,0.9c0.8,0.1,2.1-0.3,3.1-1.1c0.7-0.6,1.1-1.2,1.1-1.5l0,0c0-0.5-0.3-0.9-0.5-1.2
		C263.3,210.8,262.3,210.5,261.2,210.5z"/>
</g>
<g>
	<path fill="#88A3B0" d="M362.6,192.1c-0.2,0-0.4,0-0.7-0.1c-1.5-0.3-2.6-0.8-3.2-1.7c-0.5-0.7-0.7-1.6-0.5-2.6
		c0.5-2.8,2.3-4.4,4.9-4.5c1.6,0,3.1,0.6,4.1,1.6c0.7,0.8,1.1,1.7,1.1,2.7v0c0,1-0.7,2.1-1.8,3C365.6,191.3,364,192.1,362.6,192.1z
		 M363.2,185.3C363.2,185.3,363.2,185.3,363.2,185.3c-1.7,0-2.7,0.9-3,2.8c-0.1,0.5,0,0.8,0.2,1.1c0.3,0.4,1,0.7,1.9,0.9
		c0.8,0.1,2.1-0.3,3.1-1.1c0.7-0.6,1.1-1.2,1.1-1.5l0,0c0-0.5-0.3-0.9-0.5-1.2C365.2,185.7,364.2,185.3,363.2,185.3z"/>
</g>
</svg>
