<?xml version="1.0" encoding="utf-8"?>
<!-- Generator: Adobe Illustrator 25.2.3, SVG Export Plug-In . SVG Version: 6.00 Build 0)  -->
<svg version="1.1" baseProfile="tiny" id="Camada_1"
	 xmlns="http://www.w3.org/2000/svg" xmlns:xlink="http://www.w3.org/1999/xlink" x="0px" y="0px" viewBox="0 0 279.5 155.4"
	 overflow="visible" xml:space="preserve">
<g>
	<g>
		<path d="M117.3,126.5c-2.3,0-6.4-3.9-6.9-4.4c-0.2-0.3-22.1-24.6-27.1-26.9c-5-2.4-9-8.1-9-8.1l-17-24.6
			c-3.3-5.5-12.5-4.2-12.6-4.2L21,61.1l-0.1-0.2c-3.4-7,0.1-25.6,0.9-29.3c0.1-0.5,0.7-0.6,1.2-0.6h6.7c2.3,0,4.6,0.2,6.8,0.5
			c13,2.1,31,3.1,31.1,3.1c3.9,0.2,7.9,1,11.8,2.4c5.1,1.7,9.8,4.7,14.1,8.8c7.6,7.3,15.7,11,20.9,12l0.1,0c1.4,0.3,2.5,1.4,2.8,2.8
			c0.3,1.4-0.2,2.9-1.3,3.7c-1.1,0.9-2.3,1.3-3.1,1.6c-2.8,0.9-6,0.6-8.9-0.8c-8.5-4.2-12.2-5.1-13-5.3c-9.3,17.7,9.1,37.8,9.3,38
			l11.7,13.2c2.7,3.1,4.7,6.5,5.8,10.3c0.9,3,0.9,4.5,0,4.9C117.7,126.5,117.5,126.5,117.3,126.5z M47.3,57.6c0.8,0,1.6,0,2.5,0.2
			c3.7,0.5,6.4,2,7.9,4.4l17,24.5c0,0.1,3.9,5.6,8.8,8c5,2.4,26.3,26,27.2,27.1c1.4,1.4,5.3,4.8,6.9,4.2c0.3-0.1,0.8-0.7-0.3-4.3
			c-1.1-3.7-3.1-7.1-5.7-10.1L100,98.4c-0.2-0.2-18.9-20.7-9.3-38.8l0.1-0.2l0.2,0c0.1,0,3.6,0.6,13.4,5.4c2.8,1.4,5.8,1.6,8.5,0.8
			c0.8-0.2,1.9-0.7,3-1.5c1-0.8,1.4-2,1.2-3.2c-0.3-1.3-1.2-2.2-2.4-2.5l-0.1,0c-5.2-1-13.5-4.8-21.1-12.1c-4.2-4.1-8.9-7-13.9-8.7
			c-3.9-1.3-7.8-2.1-11.7-2.3c-0.2,0-18.2-1.1-31.2-3.1c-2.2-0.3-4.4-0.5-6.7-0.5H23c-0.7,0-0.7,0.2-0.8,0.2
			c-0.4,2.2-4.2,21.7-1,28.8l23.4-2.8C44.7,57.8,45.8,57.6,47.3,57.6z"/>
	</g>
	<g>
		<path d="M90.8,60c-3.5-1.1-7-1.3-7-1.3l0-0.5c0,0,3.6,0.3,7.1,1.4L90.8,60z"/>
	</g>
	<g>
		<path d="M123.4,108.3c-2.4,0-6.4-2.5-6.6-2.6c-0.2-0.1-15.4-10.3-26.9-24.3l0.4-0.3c11.5,14,26.6,24.1,26.8,24.2
			c1.4,0.9,5.5,3,7.1,2.4c0.3-0.1,0.5-0.4,0.6-0.8c0.6-2.9-1.9-3.9-2-4l-9.6-6c-19.2-14-25-25.2-25-25.3l0.4-0.2
			c0.1,0.1,5.8,11.2,24.9,25.1l9.6,5.9l0,0c0,0,3,1.2,2.3,4.5c-0.1,0.5-0.4,0.9-0.9,1.1C124,108.3,123.7,108.3,123.4,108.3z"/>
	</g>
	<g>
		<path d="M126.9,119.3c-3.9,0-15.3-8.1-15.8-8.4l0.3-0.4c0.1,0.1,12.6,8.9,15.9,8.3c0.2,0,0.4-0.1,0.5-0.3c1.6-2.5-1.5-5-1.6-5
			l-9.5-7.7l0.3-0.4l9.4,7.7c0,0,3.6,2.9,1.7,5.7c-0.2,0.3-0.5,0.4-0.8,0.5C127.2,119.3,127,119.3,126.9,119.3z"/>
	</g>
	<g>
		<path d="M115.2,97.6c-0.8,0-1.5-0.2-1.6-0.2l0.1-0.5c0.9,0.2,2.5,0.3,2.9-0.2c0.3-0.4,0.4-0.9,0.2-1.4c-0.2-0.9-1.1-1.7-2.3-2.4
			c-0.2-0.1-16.7-8.6-21.8-14.4l0.4-0.3c4.4,5,18.4,12.7,21.7,14.3c1.8,0.9,2.4,1.9,2.6,2.7c0.2,0.7,0.1,1.3-0.3,1.8
			C116.7,97.5,115.9,97.6,115.2,97.6z"/>
	</g>
	<g>
		<path d="M159.5,126.5c-0.2,0-0.4,0-0.5-0.1c-0.9-0.3-0.9-1.9,0-4.9c1.2-3.8,3.1-7.2,5.8-10.3L176.5,98c0.2-0.2,18.6-20.4,9.3-38
			c-0.8,0.2-4.5,1.1-13,5.3c-2.9,1.4-6,1.7-8.9,0.8c-0.8-0.3-2-0.7-3.1-1.6c-1.1-0.9-1.7-2.3-1.3-3.7c0.3-1.4,1.4-2.5,2.8-2.8l0.1,0
			c5.1-1,13.3-4.7,20.8-12c4.3-4.1,9-7.1,14.1-8.8c3.9-1.4,7.9-2.2,11.8-2.4c0.2,0,18.2-1.1,31.1-3.1c2.2-0.3,4.5-0.5,6.8-0.5h6.7
			c0.5,0,1.1,0.1,1.2,0.6c0.7,3.7,4.2,22.3,0.9,29.3l-0.1,0.2l-0.2,0l-23.6-2.8c-0.1,0-9.3-1.4-12.6,4.2l-17,24.6c0,0.1-4,5.7-9,8.1
			c-4.9,2.4-26.8,26.7-27,26.9C166,122.6,161.9,126.5,159.5,126.5z M186.1,59.5l0.1,0.2c9.6,18-9.1,38.6-9.3,38.8l-11.6,13.2
			c-2.7,3-4.6,6.4-5.7,10.1c-1.1,3.6-0.6,4.2-0.3,4.3c1.6,0.6,5.6-2.9,6.9-4.2c0.9-1,22.2-24.6,27.2-27c4.9-2.4,8.8-7.9,8.8-8
			l17-24.6c1.4-2.4,4.2-3.9,7.9-4.4c2.8-0.4,5.1,0,5.2,0l23.4,2.8c3.2-7.1-0.5-26.6-1-28.8c0-0.1,0-0.2-0.8-0.2h-6.7
			c-2.3,0-4.6,0.2-6.7,0.5c-13,2.1-31,3.1-31.2,3.1c-3.9,0.2-7.8,1-11.7,2.3c-5,1.7-9.7,4.7-13.9,8.7c-7.6,7.4-15.9,11.1-21.1,12.1
			l-0.1,0c-1.2,0.3-2.2,1.2-2.4,2.5c-0.3,1.2,0.2,2.5,1.2,3.2c1.1,0.8,2.2,1.3,3,1.5c2.7,0.9,5.7,0.6,8.5-0.8
			c9.8-4.8,13.2-5.4,13.4-5.4L186.1,59.5z"/>
	</g>
	<g>
		<path d="M186,60l-0.1-0.5c3.6-1.1,7.1-1.4,7.1-1.4l0,0.5C193,58.6,189.6,58.9,186,60z"/>
	</g>
	<g>
		<path d="M153.5,108.3c-0.3,0-0.7,0-0.9-0.2c-0.5-0.2-0.8-0.6-0.9-1.1c-0.7-3.3,2.3-4.5,2.4-4.5l9.6-5.9
			c19.1-13.9,24.8-25,24.9-25.1l0.4,0.2c-0.1,0.1-5.8,11.3-25,25.3l-9.6,6c-0.1,0.1-2.7,1.1-2.1,4c0.1,0.4,0.3,0.6,0.6,0.8
			c1.6,0.7,5.7-1.5,7.1-2.4c0.1-0.1,15.3-10.2,26.7-24.2l0.4,0.3c-11.5,14-26.7,24.2-26.9,24.3C159.9,105.9,155.9,108.3,153.5,108.3
			z"/>
	</g>
	<g>
		<path d="M149.9,119.3c-0.1,0-0.3,0-0.4,0c-0.4-0.1-0.7-0.2-0.8-0.5c-1.9-2.8,1.6-5.7,1.7-5.7l9.4-7.7l0.3,0.4l-9.4,7.7
			c-0.1,0.1-3.2,2.6-1.6,5c0.1,0.2,0.3,0.3,0.5,0.3c3.3,0.6,15.7-8.2,15.9-8.3l0.3,0.4C165.3,111.3,153.9,119.3,149.9,119.3z"/>
	</g>
	<g>
		<path d="M161.6,97.6c-0.7,0-1.4-0.1-1.8-0.6c-0.4-0.5-0.5-1.2-0.3-1.8c0.2-0.7,0.8-1.8,2.6-2.7c3.2-1.6,17.2-9.2,21.7-14.3
			l0.4,0.3c-5.1,5.8-21.6,14.3-21.8,14.4c-1.3,0.6-2.1,1.5-2.3,2.4c-0.1,0.5-0.1,1,0.2,1.4c0.4,0.6,2,0.4,2.9,0.2l0.1,0.5
			C163.1,97.4,162.4,97.6,161.6,97.6z"/>
	</g>
</g>
<g>
	<path d="M138.2,96.9l-0.1-0.1c-0.1-0.1-12.8-7-15.2-19.2c-1-5.5,1.5-7.9,3.7-9c2.3-1,5-0.9,7.4,0.3c2,1,3.4,2.4,4.1,4
		c0.7-1.6,2.1-3,4.1-4c2.5-1.2,5.2-1.4,7.4-0.3c2.3,1,4.8,3.4,3.7,9c-2.3,12.2-15,19.2-15.2,19.2L138.2,96.9z M129.9,68.5
		c-1.1,0-2.1,0.2-3.1,0.7c-2.1,1-4.4,3.2-3.5,8.4c2.1,11.4,13.5,18.1,14.8,18.8c1.3-0.7,12.6-7.4,14.8-18.8c1-5.2-1.3-7.4-3.5-8.4
		c-2.1-1-4.7-0.9-7,0.3c-2.1,1.1-3.5,2.5-4.1,4.3l-0.2,0.7l-0.2-0.7c-0.6-1.8-1.9-3.2-4.1-4.3C132.6,68.8,131.2,68.5,129.9,68.5z"/>
</g>
</svg>
