<?xml version="1.0" encoding="utf-8"?>
<!-- Generator: Adobe Illustrator 25.2.3, SVG Export Plug-In . SVG Version: 6.00 Build 0)  -->
<svg version="1.1" baseProfile="tiny" id="Camada_1"
	 xmlns="http://www.w3.org/2000/svg" xmlns:xlink="http://www.w3.org/1999/xlink" x="0px" y="0px" viewBox="0 0 210.1 155.4"
	 overflow="visible" xml:space="preserve">
<g>
	<g>
		<path d="M122.4,146.2L108,113.9c0-0.1-3.1-8.4-15.8-9.5l-24.4,0c-1.3,0-2.6-0.3-3.7-0.9l-18.3-9.3c-0.2-0.1-4.5-2.3-5-6.9
			c-0.4-4.1-0.8-7.3-1-8.8c-0.1-0.6,0.1-1.2,0.4-1.7l5.9-10c0.1-0.1,0.8-0.9,1.6-0.8c0.5,0,1,0.3,1.4,0.8c1.3,1.7,1.4,6.7,1,7.8
			c-0.3,0.7-1.3,2.3-2.1,3.5c-0.4,0.7-0.5,1.5-0.2,2.2c0.7,1.8,2,5.1,2.9,6.1c1.3,1.4,6.9,4,7,4L57.5,91c-0.2-0.1-5.8-2.6-7.2-4.1
			c-0.9-1.1-2.3-4.4-3-6.3c-0.3-0.9-0.2-1.9,0.3-2.7c1.1-1.7,1.8-3,2-3.5c0.4-1,0.2-5.8-0.9-7.3c-0.3-0.4-0.6-0.6-1-0.6c0,0,0,0,0,0
			c-0.6,0-1.2,0.6-1.2,0.6l-5.8,10c-0.2,0.4-0.3,0.9-0.3,1.4c0.2,1.5,0.5,4.7,1,8.8c0.5,4.3,4.7,6.5,4.7,6.5l18.3,9.3
			c1.1,0.5,2.3,0.8,3.5,0.8h24.4c13.1,1.1,16.2,9.7,16.3,9.8l14.4,32.2L122.4,146.2z"/>
	</g>
	<g>
		<path d="M66.1,104.3l-24.4-8.2c-0.3-0.1-6.8-2.6-7-5.7l-0.6-18.6c0-0.7,0.2-1.4,0.5-2.1l7-11.8c0.6-0.4,1.9-0.8,2.9,0.5
			c1.1,1.4,2.6,6.1-0.1,12l-0.5-0.2c2.5-5.6,1.2-10.3,0.2-11.5c-0.9-1.1-2-0.5-2.2-0.4L35.1,70c-0.3,0.5-0.5,1.2-0.5,1.8l0.6,18.6
			c0.1,2.7,6.6,5.2,6.6,5.2l24.4,8.2L66.1,104.3z"/>
	</g>
	<g>
		<path d="M34.9,88c0,0-3.7-0.3-5.1-4.3c-1-3.1-4.8-12.1-6.4-15.8c-0.4-0.9-0.6-2-0.5-3l1.2-12.2l0.2,0c0,0,4-1.1,5.9,5.2
			c1.1,3.5,1.4,5.5,1.5,6.6c0.1,0.8,0.3,1.6,0.7,2.3l2.3,4.2l-0.4,0.2L32,66.8c-0.4-0.7-0.7-1.6-0.8-2.5c-0.1-1.1-0.4-3-1.5-6.5
			c-1.6-5.1-4.4-5-5.1-4.9l-1.1,11.8c-0.1,0.9,0.1,1.9,0.4,2.8c1.6,3.7,5.4,12.8,6.4,15.9c1.2,3.7,4.5,4,4.6,4L34.9,88z"/>
	</g>
	<g>
		<rect x="32.9" y="58.5" transform="matrix(0.8551 -0.5184 0.5184 0.8551 -28.2624 26.4115)" width="0.5" height="10.5"/>
	</g>
	<g>
		<path d="M23.5,59.4l-2.3-4.8l0-0.1c0-0.1,0.6-1.6,3-1.2l-0.1,0.5c-1.7-0.2-2.3,0.5-2.5,0.8l2.2,4.6L23.5,59.4z"/>
	</g>
	<g>
		<path d="M58.2,82.2c-5.8,0-10.5-1-10.6-1.1l0.1-0.5c0.1,0,13.8,3.1,23.4-1.3l-11.7-0.5c-1.8-0.1-3.5-0.4-5-0.9
			c-2.9-1-4.5-2.1-4.8-3.4l0.5-0.1c0.3,1.1,1.8,2.1,4.5,3c1.5,0.5,3.2,0.8,4.9,0.9l13.6,0.5l-0.8,0.4C68,81.6,62.8,82.2,58.2,82.2z"
			/>
	</g>
	<g>
		<path d="M80.9,73.3c-4.2,0-9.9-0.3-15.9-2.3c-6-2-15.3-1.6-15.4-1.6l0-0.5c0.1,0,9.5-0.4,15.6,1.7c6.5,2.2,12.9,2.3,17.1,2.3
			l0,0.5C81.9,73.3,81.4,73.3,80.9,73.3z"/>
	</g>
	<g>
		<path d="M149.3,139.5l-12.9-20.8c-0.8-1.3-1.6-2.7-2.3-4c-2.5-4.8-9.2-16.9-17.3-27.3l0.4-0.3c8.2,10.4,14.9,22.6,17.4,27.3
			c0.7,1.3,1.5,2.6,2.3,4l12.9,20.8L149.3,139.5z"/>
	</g>
	<g>
		<path d="M111.4,80.9c0,0-3.5-3.6-7.3-4.7l0.1-0.5c3.9,1.1,7.4,4.7,7.5,4.8L111.4,80.9z"/>
	</g>
	<g>
		<path d="M114.6,96.2c-3.8-4.4-11.1-8.2-11.2-8.2l0.2-0.4c0.1,0,7.5,3.9,11.3,8.4L114.6,96.2z"/>
	</g>
	<g>
		<rect x="75.3" y="83.5" width="11.3" height="0.5"/>
	</g>
	<g>
		<rect x="95.8" y="83.5" width="6.3" height="0.5"/>
	</g>
	<g>
		<path d="M110.3,91.7c-0.3,0-0.6,0-0.9-0.1l-0.1,0l-3.3-2.2l0.1-0.2c0.1-0.2,11.3-21.7,27.4-29.3l0.2,0.5
			c-15.1,7.1-25.8,26.7-27,28.9l2.9,1.9c3.8,0.6,7.1-3.9,7.2-4c7.4-11.6,14.2-15,16.8-15.9c0.7-0.2,1.4-0.4,2.3-0.5l8.2-0.7
			c1-0.1,1.9,0.1,2.8,0.5c6.2,3.2,14.4,2.7,20.4,2.4c1.8-0.1,3.3-0.2,4.5-0.2c5.6,0.1,13.1,9.4,13.5,9.8l-0.4,0.3
			c-0.1-0.1-7.7-9.5-13.1-9.6c-1.2,0-2.7,0.1-4.5,0.2c-6.1,0.4-14.4,0.9-20.7-2.4c-0.8-0.4-1.6-0.6-2.5-0.5l-8.2,0.7
			c-0.8,0.1-1.5,0.2-2.1,0.4c-2.5,0.9-9.2,4.2-16.5,15.7C117,87.6,114.1,91.7,110.3,91.7z"/>
	</g>
	<g>
		<path d="M91,86.6c-2.2,0-3.8-0.5-4.3-1.5c-0.3-0.4-0.4-1.2,0.2-2.3c1-1.7,14.7-16,20.5-22c1.1-1.2,2.5-2,4-2.6l17.3-6l0.2,0.5
			l-17.3,6c-1.4,0.5-2.8,1.3-3.8,2.4c-4.5,4.7-19.4,20.2-20.5,21.9c-0.4,0.7-0.5,1.3-0.2,1.8c0.5,0.8,1.9,1.3,3.9,1.3
			c2.5,0,7.8-5.3,7.8-5.3c17-17.5,26.3-15.8,26.7-15.7l-0.1,0.5c-0.1,0-9.5-1.7-26.2,15.6C98.9,81.3,93.6,86.6,91,86.6z"/>
	</g>
	<g>
		<path d="M81.3,84c0,0-0.9-0.2-1.2-1c-0.2-0.5-0.2-1.1,0.1-1.7c0.8-1.8,15.2-18.4,23.3-23.1c3.3-1.9,6.6-2.7,10.8-3.8
			c4.5-1.1,10-2.5,17.6-5.7c0.9-0.4,1.9-0.6,2.8-0.5l14.9,1.1l17.7,0c0.1,0,14.1,0.1,22,6.2l-0.3,0.4c-7.7-6.1-21.5-6.1-21.7-6.1
			h-17.8l-14.9-1.1c-0.9-0.1-1.8,0.1-2.6,0.4c-7.6,3.2-13.2,4.6-17.6,5.7c-4.2,1-7.4,1.8-10.7,3.7c-7.8,4.5-22.3,21.1-23.1,22.8
			c-0.2,0.5-0.3,1-0.1,1.3c0.3,0.5,0.9,0.7,0.9,0.7L81.3,84z"/>
	</g>
	<g>
		<path d="M85.4,74.5c-0.4,0-1-0.1-1.8-0.2c-0.8-0.2-1.3-0.5-1.5-1.1c-0.3-0.8,0.3-1.7,0.3-1.8l0-0.1c0.2-0.1,16.6-14,19.5-16.9
			c3-3,7.7-3.1,7.9-3.1h15.4v0.5h-15.4c0,0-4.7,0.1-7.6,3c-2.8,2.8-18.7,16.3-19.5,16.9c-0.1,0.1-0.4,0.8-0.2,1.3
			c0.1,0.4,0.5,0.6,1.2,0.8c2.1,0.5,2.6,0.1,2.6,0.1l0.4,0.3C86.6,74.3,86.3,74.5,85.4,74.5z"/>
	</g>
</g>
</svg>
