<?xml version="1.0" encoding="utf-8"?>
<!-- Generator: Adobe Illustrator 25.2.3, SVG Export Plug-In . SVG Version: 6.00 Build 0)  -->
<svg version="1.1" baseProfile="tiny" id="Camada_1"
	 xmlns="http://www.w3.org/2000/svg" xmlns:xlink="http://www.w3.org/1999/xlink" x="0px" y="0px" viewBox="0 0 114.5 199.3"
	 overflow="visible" xml:space="preserve">
<g>
	<path d="M49.5,187.2l-0.4-0.2l11-21.3c0.2-0.4,5.5-9.6,9.9-10.5c0.7-0.4,11.7-6.7,15.7-14.6c1.8-3.6,1.9-8.7,1.9-8.7l4.2-18.7
		c0-0.1,2.5-6.3-2.1-9.3l-15.6,1.3c0,0-3.6,0.5-9.1,8.2c0,0.1-3.6,4.2-1.8,5.9c1,1,2.7,0.9,3.9,0.6c0.9-0.2,1.6-0.6,2.3-1.3l5.6-5.3
		l0.3,0.4l-5.6,5.3c-0.7,0.7-1.6,1.2-2.5,1.4c-1.3,0.3-3.1,0.4-4.3-0.8c-2.1-2.1,1.6-6.4,1.8-6.6c5.7-8,9.3-8.4,9.4-8.4l15.7-1.3
		l0.1,0c5,3.2,2.4,9.8,2.4,9.9l-4.1,18.7c0,0.2-0.1,5.2-2,8.9c-4.2,8.3-15.9,14.8-16,14.9l-0.1,0c-4.2,0.8-9.5,10.2-9.6,10.3
		L49.5,187.2z"/>
</g>
<g>
	<path d="M80.7,117.8c0,0-0.1-3.4,4.5-4.6l0.1,0.5c-4.2,1.1-4.1,4-4.1,4.1L80.7,117.8z"/>
</g>
<g>
	<polygon points="82.5,115.1 74.1,114.8 74.1,114.3 82.5,114.6 	"/>
</g>
<g>
	<path d="M78.1,136.7l-2.6-4.7c-0.3-0.5-0.8-0.8-1.4-0.8h-5.3c-0.5,0-0.9,0.2-1.2,0.6l-1.7,2.1c-0.1,0.4-1.3,2.8-4,2.2
		c-0.4-0.1-0.7-0.3-0.9-0.7c-1-2.2,2.4-9,2.5-9.3c0,0,1.6-3.6,5.1-3.3l8.4,0c0,0,0,0,0,0c1.4,0,2.7,0.4,3.8,1.2
		c2.4,1.6,5.5,4.7,7.2,9.9l-0.5,0.2c-1.6-5.1-4.7-8.1-7-9.7c-1-0.7-2.2-1.1-3.5-1.1c0,0,0,0,0,0l-8.4,0c-3.2-0.3-4.6,2.9-4.7,3
		c-1,1.9-3.3,7.2-2.5,8.9c0.1,0.2,0.3,0.4,0.5,0.5c2.5,0.6,3.4-1.8,3.5-1.9l0-0.1l1.7-2.1c0.4-0.5,1-0.8,1.6-0.8h5.3
		c0.8,0,1.5,0.4,1.8,1.1l2.6,4.7L78.1,136.7z"/>
</g>
<g>
	<path d="M19.4,175.2l-0.4-0.3l18.6-27.7c0,0,2.6-4.8,2.4-11.7c-0.1-6.4,2.4-20.1,9.8-29.9c6.9-9.1,11.4-13.3,11.5-13.4l0.3,0.4
		c0,0-4.5,4.2-11.4,13.3c-7.4,9.7-9.9,23.3-9.7,29.6c0.2,7-2.4,11.9-2.5,11.9L19.4,175.2z"/>
</g>
<g>
	<path d="M55.2,113.8l0-0.5c0.1,0,12.1-1.1,16-8.6l0.4,0.2C67.5,112.7,55.3,113.8,55.2,113.8z"/>
</g>
<g>
	<path d="M61.1,112.4l-0.5-0.1c0.1-0.4,2.6-10,6.3-13.6l0.3,0.4C63.6,102.4,61.1,112.3,61.1,112.4z"/>
</g>
<g>
	<polygon points="83.3,104.1 82.9,103.8 85.6,98.7 86.1,98.9 	"/>
</g>
<g>
	<path d="M93,108.1l-0.4-0.2l4.4-8.1c0,0,1.4-4.1-0.8-5.4l-8.5-6l0.3-0.4l8.5,6c2.5,1.5,1.1,5.8,1,6L93,108.1z"/>
</g>
<g>
	<rect x="84.5" y="95.1" transform="matrix(0.5272 -0.8497 0.8497 0.5272 -43.0069 118.2445)" width="0.5" height="5.3"/>
</g>
<g>
	<path d="M73.7,95.4c-2,0-3.9-0.8-5.3-2.3l-0.7-0.8c-0.6-0.6-0.7-1.6-0.2-2.3c0.5-0.6,1.3-1.5,2.8-2.1l0.2-0.1
		c3.1-1.2,10.4-3.9,12.7-2.8L83,85.5c-2.1-1-9.5,1.8-12.3,2.8l-0.2,0.1c-1.4,0.5-2.2,1.3-2.6,1.9c-0.4,0.5-0.3,1.2,0.2,1.7l0.7,0.8
		c1.4,1.4,3.3,2.2,5.2,2.1c2.7-0.1,5.4-0.8,5.5-0.8l0.1,0.5c0,0-2.8,0.7-5.6,0.8C73.9,95.4,73.8,95.4,73.7,95.4z"/>
</g>
<g>
	<path d="M71.3,93.1l-0.2-0.5c0,0,2-0.8,3.4-2c1.3-1.1,0.7-2.2,0.7-2.3l-1-1.6l0.4-0.3l1,1.6c0,0,0.8,1.5-0.8,2.9
		C73.4,92.2,71.4,93,71.3,93.1z"/>
</g>
<g>
	<path d="M63.3,135l-0.4-0.2c0.9-1.5,1.6-3.4,1.2-3.7c-0.6-0.6-2.1-0.3-2.1-0.3l-0.1-0.5c0.1,0,1.7-0.4,2.5,0.4
		C65.3,131.5,63.6,134.4,63.3,135z"/>
</g>
<g>
	<path d="M66.6,118l-0.4-0.3c0.6-0.8,2.1-3,1.3-4c-1-1.2-2.4-0.5-2.4-0.5l-0.2-0.5c0,0,1.8-0.8,3,0.7
		C69.1,114.9,66.7,117.9,66.6,118z"/>
</g>
<g>
	<rect x="70.8" y="130.9" width="0.5" height="9.4"/>
</g>
<g>
	<path d="M73.2,104.1l-0.3-0.4c6.1-5.1,12.7-24.5,12.7-24.7c0.4-1,3.7-9.2,5.7-9.4c0.2,0,0.6,0,0.8,0.5c1.6,2.5-1.5,11.6-1.6,12
		C86.1,95.9,73.3,104.1,73.2,104.1z M91.3,70.2C91.3,70.2,91.3,70.2,91.3,70.2c-1.3,0.1-3.9,5.6-5.3,9.1c-0.2,0.7-5.5,16.1-11,22.9
		c3.8-2.9,11.7-10,15-20.2c0-0.1,3.1-9.3,1.7-11.6C91.5,70.2,91.4,70.2,91.3,70.2z"/>
</g>
<g>
	<path d="M74.6,103.1l-0.4-0.3c5.9-6.4,13.2-22.8,13.3-22.9l4.3-9l0.5,0.2l-4.3,9C88,80.2,80.5,96.7,74.6,103.1z"/>
</g>
<g>
	<path d="M72.3,106.7l-0.7-1c-0.1-0.1-6.3-9.8-11.6-13.9c-5.4-4.2-6.6-13.4-6.7-13.8c0-0.1-0.4-1.5,0.3-2.1c0.3-0.2,0.7-0.3,1.2-0.1
		c1.8,0.7,6.8,9.2,7.3,10.2c0.4,0.6,9.2,14.9,10,19.5L72.3,106.7z M54.2,76.2c-0.1,0-0.2,0-0.2,0.1c-0.3,0.3-0.2,1.2-0.1,1.6
		c0,0.1,1.3,9.3,6.5,13.5c4.2,3.3,9,10,10.9,12.8c-1.9-5.6-9.4-17.7-9.5-17.8c-1.5-2.6-5.7-9.4-7.1-10
		C54.5,76.2,54.3,76.2,54.2,76.2z"/>
</g>
<g>
	<path d="M71.3,104.9c-0.1-0.1-5.7-12-12.2-18.1c-2.2-2.1-5.7-9.9-5.8-10.2l0.5-0.2c0,0.1,3.5,8,5.7,10.1
		c6.5,6.2,12.2,18.2,12.3,18.3L71.3,104.9z"/>
</g>
<g>
	<path d="M70.9,88.2c-0.1-0.1-12.8-7.3-18.2-18.8c0-0.1-1-2.3,0.1-3.2c0.4-0.4,1.3-0.6,2.6,0.6c0.7,0.6,1.3,1.4,1.8,2.3
		c1.4,2.8,6.6,12.5,14,18.7L70.9,88.2z M53.6,66.4c-0.2,0-0.3,0.1-0.5,0.2c-0.7,0.6-0.2,2.1,0.1,2.6c3.8,8.2,11.5,14.2,15.5,16.9
		C62.4,80,58,71.8,56.7,69.3c-0.4-0.9-1-1.6-1.7-2.2C54.6,66.8,54.1,66.4,53.6,66.4z"/>
</g>
<g>
	<path d="M73.9,86.9l0-1.6c0.2-8.1,4.2-15.8,5.9-18.8c0.4-0.7,0.8-1.5,1.1-2.3c1.1-2.8,3.9-9.5,4.7-11.9c0.5-1.4,1.1-2.2,1.7-2.3
		c0.3-0.1,0.6,0.1,0.7,0.2l0.1,0.1l0,0.1C88.4,57,86,67.1,82,71.1c-3.9,3.9-7.5,14.2-7.6,14.3L73.9,86.9z M87.4,50.5
		C87.4,50.5,87.4,50.5,87.4,50.5c-0.3,0.1-0.8,0.3-1.3,2c-0.8,2.3-3.6,9.1-4.7,11.9c-0.4,0.9-0.7,1.6-1.2,2.4
		c-1.5,2.7-5,9.5-5.7,16.9c1.2-3.1,4-9.8,7.1-12.9c3.9-3.9,6.3-13.8,6-20.2C87.5,50.5,87.5,50.5,87.4,50.5z"/>
</g>
<g>
	<path d="M74.4,85.4l-0.5-0.1c0.1-0.5,2.2-12.7,6.9-17.7c4.6-4.9,6.7-16.5,6.7-16.6l0.5,0.1C88,51.6,85.9,63,81.2,68
		C76.5,72.9,74.4,85.3,74.4,85.4z"/>
</g>
<g>
	<path d="M81.6,104.4l-0.5-0.2c0-0.1,2-5.4,1.2-8.7l0.5-0.1C83.6,98.8,81.7,104.1,81.6,104.4z"/>
</g>
<g>
	<path d="M83.1,86c0-0.1-2-6.8-2-14.6l0.5,0c-0.1,7.7,1.9,14.4,1.9,14.4L83.1,86z"/>
</g>
<g>
	<path d="M74.4,77h-0.5c0-8.4,1.8-11.4,4.6-13.7c0.9-0.7,1.6-0.9,2.2-0.7c0.7,0.3,0.9,1.2,0.9,1.2l-0.5,0.1c0,0-0.1-0.7-0.6-0.8
		c-0.4-0.1-1,0.1-1.7,0.6C76.1,65.9,74.4,68.9,74.4,77z"/>
</g>
<g>
	<rect x="63.1" y="87" transform="matrix(0.669 -0.7433 0.7433 0.669 -43.1298 77.6883)" width="5.1" height="0.5"/>
</g>
<g>
	<path d="M67.9,85l-0.4-0.3c0.3-0.4,3-4.1,4.4-4.1c1.4,0,2.5,2.5,2.5,2.6l-0.5,0.2c-0.3-0.6-1.1-2.3-2-2.3C71,81.1,69,83.5,67.9,85z
		"/>
</g>
<g>
	<polygon points="68.8,97.9 68.4,97.6 70.8,94.5 71.2,94.8 	"/>
</g>
<g>
	<g>
		<rect x="68.4" y="119.3" transform="matrix(0.1055 -0.9944 0.9944 0.1055 -55.1296 178.3079)" width="6.3" height="1"/>
	</g>
	<g>
		<path d="M62.3,144.1l-0.7-0.7c0.1-0.1,5.2-5.5,6.8-12.6l1,0.2C67.7,138.4,62.5,143.9,62.3,144.1z"/>
	</g>
	<g>
		
			<rect x="68.1" y="99.7" transform="matrix(4.691502e-02 -0.9989 0.9989 4.691502e-02 -30.373 168.6005)" width="10.2" height="1"/>
	</g>
	<g>
		<path d="M74.6,86.6l-1,0c0-0.2,0.3-24.9-1.6-36.7l1-0.2C74.9,61.6,74.6,86.3,74.6,86.6z"/>
	</g>
	<g>
		<rect x="70.6" y="38.7" transform="matrix(0.9916 -0.1291 0.1291 0.9916 -4.7967 9.5253)" width="1" height="6.2"/>
	</g>
	<g>
		<rect x="66.4" y="66.3" transform="matrix(0.9679 -0.2512 0.2512 0.9679 -16.6175 19.1939)" width="1" height="16.9"/>
	</g>
	<g>
		<rect x="61.7" y="57" transform="matrix(0.9623 -0.2721 0.2721 0.9623 -13.6278 19.1459)" width="1" height="3.4"/>
	</g>
	<g>
		<rect x="58.6" y="49.7" transform="matrix(0.8944 -0.4472 0.4472 0.8944 -16.2994 31.7702)" width="1" height="1.5"/>
	</g>
</g>
<g>
	<path d="M70.3,52.3c-0.6,0-1.3-0.2-2-0.5c-1-0.5-1.8-1.3-2.4-2.1c-0.4-0.5-0.8-1-0.8-1.7c0-0.7,0.6-1.4,1.4-1.6
		c0.3-0.1,0.6-0.1,0.9,0c0,0,0-0.1,0-0.1c0-0.8,0.7-1.3,1.2-1.7c0.5-0.4,1.1-0.7,1.7-0.7c0.3,0,0.6,0.2,0.9,0.5c0,0,0,0,0,0l0-0.1
		c0.5-0.8,1.3-0.8,1.9-0.6c0.8,0.2,1.4,0.8,1.6,1.6c0.8-0.4,1.7,0.1,2.1,0.4c0.4,0.3,0.9,0.8,0.7,1.5c0,0.1-0.1,0.2-0.1,0.3
		c0.3,0,0.5,0.1,0.8,0.2c0.3,0.3,0.4,0.7,0.3,1.2c-0.1,0.4-0.4,0.7-0.6,0.9c-0.9,0.8-2.1,1.3-3.4,1.3c-0.7,0-1.5-0.2-2.1-0.5
		c0,0.1,0,0.2-0.1,0.3l0,0c-0.1,0.4-0.5,0.8-1,1C71.2,52.2,70.8,52.3,70.3,52.3z M67,46.9c-0.1,0-0.2,0-0.3,0c-0.6,0.1-1,0.6-1,1.1
		c0,0.5,0.3,0.9,0.7,1.3c0.6,0.7,1.3,1.5,2.3,2c0.9,0.5,2,0.6,2.8,0.2c0.2-0.1,0.6-0.3,0.7-0.7l0,0c0.1-0.2,0-0.4-0.1-0.6
		c-0.1-0.1-0.3-0.2-0.4-0.3l-0.4-0.4l-0.3-0.2c-0.3-0.2-0.5-0.4-0.8-0.6c-0.1-0.1-0.3-0.2-0.4-0.3c-0.5-0.4-1-0.9-1.2-1c0,0,0,0,0,0
		c-0.1,0-0.1-0.1-0.2-0.1c0,0,0,0,0,0c0,0-0.1-0.1-0.1-0.1c-0.1,0-0.1-0.1-0.2-0.1C67.6,47,67.3,46.9,67,46.9z M72.4,50
		c0.7,0.4,1.5,0.7,2.3,0.7c1.1,0,2.2-0.4,3-1.1c0.3-0.2,0.4-0.5,0.5-0.7c0.1-0.3,0-0.5-0.1-0.7c-0.2-0.2-0.6-0.1-1,0
		c0,0-0.1,0-0.1,0c-0.1,0-0.2,0.1-0.2,0.1c0,0-0.1,0.1-0.1,0.1c0,0,0,0,0,0c-0.2,0.1-0.3,0.3-0.7,0.4c-0.2,0.1-0.5,0.2-0.7,0.4
		c-0.1,0-0.1,0.1-0.2,0.1c-0.2,0.1-0.3,0.2-0.5,0.3l-0.2,0.1l-0.1-0.2c-0.1-0.1-0.1-0.3-0.1-0.3c0.1-0.2,0.3-0.2,0.5-0.3
		c0.1,0,0.1,0,0.2,0c0,0,0.1,0,0.1-0.1c0.2-0.2,0.5-0.4,0.8-0.4c0.2-0.1,0.4-0.2,0.6-0.3c0.1-0.1,0.2-0.2,0.4-0.2
		c0.2-0.1,0.4-0.3,0.5-0.5c0.1-0.3-0.2-0.7-0.5-0.9c-0.5-0.4-1.3-0.6-1.7-0.3c0,0,0,0.2-0.1,0.4c0,0.5-0.2,1.1-0.6,1.5
		C72.8,50.1,72.6,50,72.4,50L72.4,50z M71.5,49.4l0.4,0.2c0.1,0,0.1,0.1,0.2,0.1c0-0.3,0-0.7,0-1.2c-0.1-0.9-0.3-2.1-0.5-2.8
		c0-0.1-0.1-0.3-0.2-0.4c-0.2-0.3-0.5-0.8-1.1-0.9c-0.5-0.1-0.9,0.2-1.4,0.6c-0.5,0.4-1,0.8-1,1.3c0,0.1,0,0.2,0.2,0.3
		c0.1,0.1,0.2,0.1,0.4,0.2c0.1,0,0.2,0.1,0.3,0.2c0.5,0.4,0.9,0.7,1.3,1.1c0.1,0.1,0.2,0.2,0.3,0.3c0.1,0,0.1,0.1,0.2,0.1
		c0.2,0.1,0.5,0.3,0.6,0.5L71.5,49.4z M72.6,48.6c0,0.2,0,0.4,0,0.5c0.2-0.2,0.4-0.4,0.7-0.7c0.2-0.2,0.4-0.3,0.4-0.4
		c0.3-0.5,0.5-0.6,0.6-0.8c0.1-0.3,0.2-0.6,0.3-0.9c0-0.2,0-0.4-0.1-0.6c-0.2-0.6-0.7-1.2-1.3-1.4c-0.7-0.2-1.1-0.1-1.4,0.4l0,0.1
		c0,0-0.1,0.1-0.1,0.1c0,0,0,0,0,0c0,0.1,0.1,0.1,0.2,0.3c0.1,0.1,0.1,0.2,0.2,0.4c0,0.1,0,0.1,0.1,0.2c0.1,0.2,0.1,0.3,0.2,0.5
		C72.5,46.5,72.6,47.6,72.6,48.6z"/>
</g>
<g>
	<path d="M73.7,68.3c-1.2-0.9-2.5-1.7-3.8-2.3l-0.3-0.1c-0.4-0.2-0.8-0.3-1.2-0.6c-0.6-0.4-0.9-0.9-1-1.4c-0.1-0.7,0.2-1.4,0.8-1.6
		c0.7-0.3,1.5,0.2,1.8,0.5c0.1,0.1,0.2,0.2,0.3,0.3c0.3,0.3,0.6,0.6,1,0.7l-0.2,0.5c-0.5-0.2-0.8-0.5-1.2-0.8
		c-0.1-0.1-0.2-0.2-0.3-0.3c-0.2-0.2-0.8-0.6-1.3-0.4c-0.4,0.1-0.6,0.6-0.5,1.1c0.1,0.5,0.6,0.9,0.8,1.1c0.3,0.2,0.7,0.4,1.2,0.6
		l0.3,0.1c1.4,0.6,2.8,1.4,4,2.3L73.7,68.3z"/>
</g>
<g>
	<path d="M73.2,63.1c-0.9-1.3-1.8-2.6-2.9-3.8c-0.4-0.4-0.8-0.8-1.3-0.9c-0.4-0.1-1-0.1-1.3,0.3c-0.2,0.3-0.3,0.7-0.2,1.1
		c0.1,0.2,1.1,1.4,1.6,2c0.5,0.5,0.8,0.9,0.9,1l-0.4,0.3c-0.1-0.1-0.4-0.5-0.8-1c-1-1.1-1.6-1.9-1.7-2.2c-0.1-0.6,0-1.2,0.3-1.6
		c0.5-0.5,1.3-0.6,1.8-0.4c0.6,0.2,1.1,0.6,1.5,1c1.1,1.2,2,2.5,2.9,3.8L73.2,63.1z"/>
</g>
<g>
	<path d="M74.1,70.6c-0.2-1.7,0.2-3.6,1.3-5c0.3-0.4,0.6-0.7,0.9-1c0.3-0.3,0.6-0.6,0.9-1c0.6-0.8,1.1-1.8,1.5-2.8
		c0.2-0.5,0.4-0.9,0.4-1.4c0-0.5-0.2-0.9-0.5-1.1c-0.6-0.4-1.4,0.1-2,0.6c-1.4,1.3-2.3,3-2.5,4.9l-0.5-0.1c0.3-2,1.2-3.8,2.7-5.2
		c0.7-0.7,1.8-1.2,2.6-0.7c0.6,0.4,0.8,1.1,0.7,1.6c0,0.6-0.3,1.1-0.5,1.6c-0.4,1-0.8,2-1.5,2.9c-0.3,0.4-0.6,0.7-0.9,1
		c-0.3,0.3-0.6,0.6-0.9,0.9c-1,1.3-1.5,3-1.2,4.6L74.1,70.6z"/>
</g>
<g>
	<path d="M75.9,59.3l-0.5-0.1c0.2-0.7,0-1.4-0.5-2c-0.2-0.2-0.5-0.4-0.8-0.3c-0.2,0.1-0.3,0.3-0.3,0.5c-0.1,0.3-0.2,0.6-0.3,1
		l-0.5-0.1c0.1-0.4,0.2-0.7,0.3-1c0.1-0.3,0.3-0.6,0.6-0.7c0.5-0.2,1,0,1.4,0.4C75.9,57.5,76.1,58.4,75.9,59.3z"/>
</g>
<g>
	<path d="M73.3,59.8l-2-1.9c-0.2-0.2-0.3-0.3-0.6-0.4c-0.2-0.1-0.4-0.1-0.5,0c-0.2,0.1-0.2,0.4-0.1,0.6c0.1,0.2,0.3,0.5,0.5,0.6
		l-0.3,0.4c-0.2-0.2-0.5-0.5-0.6-0.8c-0.2-0.4-0.1-0.9,0.2-1.1c0.3-0.2,0.6-0.2,1-0.1c0.3,0.1,0.5,0.3,0.7,0.5l2,1.9L73.3,59.8z"/>
</g>
<g>
	<path d="M67.6,78c-1.8-0.2-3.7-1-5-2.3c-0.7-0.7-1.1-1.4-1.2-2.1c0-0.4,0-0.8,0.2-1.1c0.2-0.4,0.6-0.6,1-0.6c0,0,0,0,0,0
		c0.6,0,1,0.5,1.3,0.9c0.8,1.1,1.9,1.9,3.1,2.4L67,75.7c-1.3-0.5-2.4-1.4-3.3-2.5c-0.3-0.4-0.6-0.8-1-0.8c-0.2,0-0.4,0.1-0.6,0.3
		C62,73,62,73.3,62,73.5c0.1,0.6,0.4,1.2,1,1.8c1.2,1.2,2.9,2,4.7,2.2L67.6,78z"/>
</g>
<g>
	<path d="M64.1,73.6c-0.3-0.3-0.6-0.8-0.7-1.3c-0.1-0.3,0-0.7,0.2-0.9c0.2-0.2,0.4-0.3,0.6-0.3c0.3,0,0.6,0.2,0.8,0.3
		c0.2,0.1,0.4,0.3,0.7,0.6c0.2,0.2,0.5,0.4,0.6,0.5l-0.3,0.4c-0.2-0.1-0.4-0.3-0.7-0.5c-0.3-0.2-0.5-0.4-0.7-0.5
		c-0.2-0.1-0.4-0.2-0.5-0.2c-0.1,0-0.2,0.1-0.2,0.1c-0.1,0.1-0.2,0.3-0.1,0.5c0.1,0.4,0.3,0.8,0.5,1.1L64.1,73.6z"/>
</g>
<g>
	<path d="M67.9,79.5c-0.1-1,0.8-1.9,1.4-2.5c0.4-0.4,0.8-0.7,1.2-1c0.3-0.2,0.6-0.5,0.8-0.7c0.3-0.3,0.7-0.7,0.8-1.1
		c0.1-0.4,0.1-0.9-0.3-1.1c-0.2-0.2-0.6-0.2-1-0.1c-0.4,0.1-0.7,0.4-0.9,0.7c-1,1-1.7,2.1-2.2,3.5L67.2,77c0.5-1.5,1.2-2.7,2.3-3.7
		c0.3-0.3,0.7-0.6,1.1-0.8c0.5-0.2,1.1-0.1,1.4,0.2c0.5,0.3,0.6,1,0.4,1.7c-0.2,0.6-0.6,1-0.9,1.3c-0.3,0.3-0.6,0.5-0.8,0.7
		c-0.4,0.3-0.8,0.6-1.1,1c-0.6,0.6-1.3,1.4-1.3,2.2L67.9,79.5z"/>
</g>
<g>
	<path d="M66.7,74.3l-0.2-0.5c0.1,0,0.1-0.1,0.2-0.2c0-0.1,0.1-0.2,0.1-0.2c0-0.1,0-0.2,0.1-0.3c0.2-0.4,0.5-0.7,0.8-1l1.6-1.5
		c0.1-0.1,0.3-0.3,0.5-0.3c0.4-0.2,0.9,0,1.2,0.3c0.2,0.3,0.4,0.7,0.4,1.1c0,0.4-0.1,0.7-0.2,1.1l-0.5-0.1c0.1-0.3,0.2-0.6,0.1-0.9
		c0-0.3-0.1-0.6-0.3-0.8c-0.2-0.2-0.4-0.3-0.6-0.2c-0.1,0-0.2,0.1-0.3,0.2l-1.6,1.5c-0.3,0.2-0.5,0.5-0.7,0.8c0,0.1,0,0.1-0.1,0.2
		c0,0.1-0.1,0.2-0.1,0.3C67.1,74,66.9,74.2,66.7,74.3z"/>
</g>
<g>
	<path d="M66.3,71.7l-0.4-0.3c0.2-0.3,0.3-0.8,0.3-1.2c0-0.1,0-0.1,0-0.2c0-0.1,0-0.3,0-0.4c0-0.3,0.2-0.6,0.4-0.7
		c0.3-0.2,0.7-0.2,1,0.1c0.2,0.1,0.3,0.2,0.4,0.4c0.1,0.1,0.1,0.1,0.2,0.2c0.1,0.1,0.3,0.2,0.4,0.3c0.3,0.2,0.7,0.5,0.9,0.9L69,71
		c-0.1-0.3-0.4-0.5-0.7-0.7c-0.2-0.1-0.3-0.2-0.4-0.3c-0.1-0.1-0.2-0.2-0.2-0.2c-0.1-0.1-0.2-0.2-0.3-0.3c-0.1-0.1-0.3-0.2-0.5-0.1
		c-0.1,0.1-0.1,0.2-0.2,0.3c0,0.1,0,0.2,0,0.4c0,0.1,0,0.1,0,0.2C66.7,70.8,66.6,71.3,66.3,71.7z"/>
</g>
<g>
	<path d="M65,68.3c-1.3-0.1-2.4-0.5-3.4-1c-1.1-0.6-2-1.5-2.5-2.6c-0.3-0.6-0.3-1.1,0-1.5c0.3-0.3,0.8-0.5,1.3-0.3
		c0.4,0.1,0.7,0.4,1,0.6l2.2,2L63.2,66l-2.2-2c-0.3-0.2-0.5-0.5-0.8-0.5c-0.2-0.1-0.6,0-0.7,0.2c-0.2,0.3,0,0.7,0.1,0.9
		c0.5,0.9,1.3,1.8,2.3,2.3c0.9,0.5,2,0.8,3.2,0.9L65,68.3z"/>
</g>
<g>
	<path d="M64,65.7c-0.2-0.6-0.2-1.3-0.2-1.9l0-0.2c0-0.5,0.1-1,0-1.5c-0.1-0.6-0.4-1.1-0.8-1.4c-0.4-0.3-1-0.3-1.3,0.1
		c-0.2,0.3-0.3,0.7-0.3,1.3c0.1,0.8,0.3,1.6,0.7,2.3l-0.4,0.2c-0.4-0.8-0.7-1.6-0.8-2.5c-0.1-0.7,0.1-1.3,0.4-1.6
		c0.5-0.5,1.3-0.6,2-0.1c0.5,0.3,0.9,0.9,1,1.7c0.1,0.6,0.1,1.1,0,1.6l0,0.2c0,0.5,0,1.2,0.1,1.7L64,65.7z"/>
</g>
<g>
	<path d="M65.6,68.4L65.3,68c0.8-0.8,1.2-2,1.2-3.6c0-0.8-0.1-1.4-0.3-2c-0.2-0.7-0.6-1.2-1.1-1.5c-0.5-0.3-1.2-0.4-1.7-0.1
		l-0.2-0.4c0.7-0.3,1.5-0.3,2.2,0.2c0.6,0.4,1.1,1,1.3,1.8c0.2,0.6,0.3,1.2,0.3,2.1C66.9,66.2,66.5,67.5,65.6,68.4z"/>
</g>
<g>
	<path d="M61,58.8c-2.1,0-4.3-1.1-5.3-2.8c-0.4-0.7-0.5-1.4-0.2-1.9c0.4-0.7,1.2-0.8,1.8-0.6c0.6,0.2,1.1,0.7,1.5,1.1
		c0.1,0.1,0.2,0.2,0.3,0.3c0.3,0.3,0.5,0.7,0.8,0.9l-0.3,0.4c-0.4-0.3-0.7-0.6-0.9-1c-0.1-0.1-0.2-0.2-0.3-0.3
		c-0.3-0.4-0.7-0.8-1.2-0.9c-0.4-0.1-1,0-1.2,0.4c-0.2,0.4,0,1,0.2,1.4c1.1,1.9,3.8,3,6,2.5l0.1,0.5C61.9,58.8,61.5,58.8,61,58.8z"
		/>
</g>
<g>
	<path d="M62.4,58.6L62,58.3c0.4-0.5,0.9-1,1.5-1.4c0.5-0.4,1-0.9,1.4-1.4c0.4-0.4,0.7-0.8,0.7-1.3c0-0.5-0.4-0.9-0.7-1.3
		c-0.5-0.6-1.1-1.1-1.8-1.5c-0.5-0.3-0.9-0.4-1.1-0.3c-0.3,0.1-0.5,0.5-0.7,1c-0.3,1.3-0.3,2.7-0.1,4l-0.5,0.1
		c-0.3-1.4-0.2-2.8,0.1-4.2c0.2-0.8,0.5-1.2,1-1.4c0.6-0.2,1.2,0.1,1.6,0.4c0.7,0.5,1.3,1,1.9,1.6c0.4,0.4,0.8,1,0.8,1.6
		c0,0.6-0.4,1.1-0.8,1.6c-0.4,0.5-0.9,1-1.5,1.4C63.3,57.7,62.8,58.2,62.4,58.6z"/>
</g>
<g>
	<path d="M58,54.4c-0.1-0.9-0.1-1.8-0.1-2.7c0-0.3,0-0.6,0.3-0.8c0.2-0.2,0.6-0.3,1.1-0.2c0.8,0.2,1.5,0.7,2,1.4l-0.4,0.3
		c-0.4-0.6-1-1-1.7-1.2c-0.2,0-0.5-0.1-0.6,0.1c-0.1,0.1-0.1,0.3-0.1,0.5c0,0.9,0,1.8,0.1,2.6L58,54.4z"/>
</g>
<g>
	<path d="M56.7,50.1c-1.3,0-2.1-0.3-3.7-1.1c-0.4-0.2-0.9-0.5-1.2-0.9c-0.4-0.5-0.6-1-0.5-1.5c0.2-1.1,1.3-1.6,2.2-1.7
		c1.3-0.1,2.5,0.4,3.5,1.2l-0.3,0.4c-0.8-0.8-2-1.2-3.1-1.1c-0.8,0.1-1.7,0.5-1.8,1.3c-0.1,0.4,0.1,0.8,0.4,1.1
		c0.3,0.4,0.7,0.6,1.1,0.8c2.2,1.1,2.8,1.3,5.7,0.9l0.1,0.5C58,50,57.3,50.1,56.7,50.1z"/>
</g>
<g>
	<path d="M60.1,47.4l0-0.5c0.1,0,0.3-0.1,0.4-0.3c0.1-0.2,0.2-0.4,0.2-0.6c0.1-0.6,0.2-1.2,0.2-1.8c0-0.4,0-0.9-0.3-1.2
		c-0.3-0.3-0.8-0.3-1.2-0.1c-0.5,0.2-0.8,0.6-1,1.1c-0.2,0.5-0.1,1,0.2,1.5l-0.4,0.3c-0.4-0.6-0.4-1.3-0.3-1.9
		c0.2-0.6,0.7-1.2,1.3-1.4c0.5-0.2,1.3-0.2,1.8,0.2c0.4,0.4,0.4,1,0.4,1.5c0,0.6-0.1,1.3-0.2,1.9c-0.1,0.2-0.1,0.5-0.3,0.8
		C60.7,47.2,60.4,47.3,60.1,47.4z"/>
</g>
<g>
	<path d="M58.8,49.8l-0.1-0.5c0.4-0.1,1.1-0.1,1.6-0.1c0.5,0,0.8,0,1.1-0.2c0.1-0.1,0.2-0.3,0.3-0.5c0-0.1,0.1-0.1,0.1-0.2
		c0.1-0.2,0.2-0.4,0.3-0.5c0.2-0.4,0.5-0.7,0.5-1.1c0.1-0.5-0.2-1-0.6-1.2c-0.4-0.2-0.5-0.2-0.9,0.1L60.9,45
		c0.5-0.3,0.8-0.5,1.4-0.1c0.6,0.4,0.9,1.1,0.8,1.7c-0.1,0.5-0.3,0.9-0.6,1.3c-0.1,0.2-0.2,0.3-0.3,0.5c0,0.1-0.1,0.1-0.1,0.2
		c-0.1,0.2-0.2,0.5-0.5,0.7c-0.3,0.3-0.8,0.4-1.4,0.4C59.8,49.7,59.2,49.8,58.8,49.8z"/>
</g>
<g>
	<path d="M54.2,45.1l-0.5-0.1c0.1-0.4-0.3-1.1-0.6-1.7c-0.1-0.2-0.3-0.5-0.4-0.7c-0.3-0.5-0.6-1.3-0.2-2c0.4-0.7,1.4-0.7,2-0.4
		c0.6,0.3,1,0.9,1.4,1.4c0.4,0.5,0.7,1,1.2,1.2L57,43.3c-0.6-0.3-1-0.8-1.4-1.4c-0.4-0.5-0.7-1-1.2-1.2c-0.5-0.2-1.1-0.2-1.4,0.2
		c-0.3,0.4,0,1,0.2,1.5c0.1,0.2,0.2,0.4,0.3,0.6C53.9,43.7,54.3,44.5,54.2,45.1z"/>
</g>
<g>
	<path d="M58.7,43c-0.1-1.4-0.6-2.3-1.6-3.3c-0.2-0.2-0.7-0.7-1.2-0.5c-0.2,0.1-0.4,0.3-0.5,0.5c-0.1,0.2-0.1,0.4-0.1,0.6
		c0,0.2,0,0.4-0.1,0.7l-0.5-0.1c0-0.2,0-0.4,0-0.6c0-0.3,0-0.6,0.1-0.8c0.2-0.4,0.4-0.7,0.7-0.8c0.5-0.2,1.1,0.1,1.7,0.7
		c1,1.1,1.6,2.1,1.7,3.6L58.7,43z"/>
</g>
<g>
	<path d="M69.7,39c-0.5,0-1-0.1-1.5-0.2c-1.2-0.3-2.4-0.9-3.6-1.8c-0.3-0.2-0.7-0.5-0.9-0.9c-0.3-0.5-0.3-1,0-1.4
		c0.2-0.4,0.7-0.6,1.1-0.6c0,0,0,0,0,0c0.4,0,0.8,0.1,1.1,0.3c1.1,0.5,2,1.2,2.8,2l-0.4,0.3c-0.7-0.8-1.6-1.5-2.6-1.9
		c-0.3-0.1-0.6-0.3-0.9-0.3c0,0,0,0,0,0c-0.3,0-0.6,0.1-0.7,0.4c-0.1,0.2-0.1,0.6,0,0.8c0.2,0.3,0.5,0.5,0.7,0.7
		c1.1,0.9,2.3,1.4,3.4,1.7c1.3,0.3,2.6,0.2,3.7-0.3l0.2,0.4C71.5,38.8,70.6,39,69.7,39z"/>
</g>
<g>
	<path d="M67.3,31.6c-2-0.8-3.1-2.8-3.8-4.2c-0.4-0.8-0.8-1.8-0.4-2.7c0.3-0.7,1-1.3,1.8-1.3c0.8,0,1.6,0.4,1.9,1.1
		c0.4,0.8,0.2,1.7,0.1,2.3l-0.5-0.1c0.1-0.8,0.2-1.5,0-2c-0.3-0.5-0.8-0.9-1.4-0.9c-0.6,0-1.1,0.4-1.3,1c-0.3,0.7,0.1,1.6,0.4,2.3
		c1,2.1,2.1,3.4,3.5,4L67.3,31.6z"/>
</g>
<g>
	<path d="M65.2,34.8c-1.1-1-1.7-1.8-2.6-3c-0.3-0.4-0.6-0.9-0.6-1.5c0-0.7,0.4-1.3,1-1.6c0.6-0.2,1.6-0.2,2,0.4l-0.4,0.3
		c-0.3-0.3-1-0.4-1.4-0.2c-0.4,0.2-0.7,0.6-0.7,1.1c0,0.4,0.3,0.9,0.5,1.2c0.8,1.2,1.4,2,2.5,2.9L65.2,34.8z"/>
</g>
<g>
	<path d="M71.6,38.7l-0.2-0.5c0.7-0.3,1.8-0.9,2.4-1.3c0.6-0.5,1-1.1,1-1.7c0-0.4-0.2-0.9-0.7-1c-0.4-0.1-0.7,0.2-0.8,0.3
		c-0.2,0.2-0.3,0.3-0.4,0.5c-0.1,0.1-0.2,0.2-0.3,0.3c-0.6,0.7-1.4,1.2-2.3,1.4l-0.1-0.5c0.8-0.1,1.5-0.6,2-1.2
		c0.1-0.1,0.2-0.2,0.2-0.3c0.1-0.2,0.3-0.4,0.5-0.6c0.4-0.4,0.8-0.5,1.2-0.5c0.7,0.1,1.1,0.9,1.1,1.5c0,0.8-0.4,1.6-1.2,2.1
		C73.5,37.8,72.3,38.4,71.6,38.7z"/>
</g>
<g>
	<path d="M70.1,36.8c-0.4-0.8-0.5-1.8-0.3-2.8c0.2-0.9,0.8-1.7,1.6-2.2c0.4-0.2,0.7-0.3,1.1-0.3c0.7,0.1,1.1,0.7,1.2,1.3
		c0.1,0.6-0.1,1.2-0.3,1.6l-0.5-0.2c0.1-0.4,0.3-0.9,0.3-1.4c0-0.4-0.3-0.8-0.7-0.9c-0.2,0-0.5,0.1-0.7,0.2
		c-0.7,0.4-1.2,1.2-1.4,1.9c-0.2,0.8-0.1,1.7,0.3,2.4L70.1,36.8z"/>
</g>
<g>
	<path d="M69.8,33.2c-0.5-0.1-1-0.1-1.4-0.4c-0.5-0.3-0.9-0.8-0.9-1.3c0-0.3,0.1-0.6,0.2-0.8c0-0.1,0.1-0.2,0.1-0.3
		c0.1-0.4,0.1-0.8,0.1-1.2c0-0.5,0-1,0.1-1.4c0.3-0.8,1-1.3,1.8-1.4c0.5,0,0.9,0.1,1.1,0.4c0.4,0.4,0.5,1,0.2,1.9
		c-0.3,1.1-0.7,2.1-1.3,3l-0.4-0.3c0.5-0.9,1-1.9,1.2-2.9c0.2-0.7,0.2-1.1-0.1-1.4c-0.2-0.2-0.4-0.3-0.8-0.2c-0.6,0-1.2,0.5-1.4,1
		c-0.1,0.4-0.1,0.8-0.1,1.3c0,0.4,0,0.9-0.1,1.4c0,0.1-0.1,0.2-0.1,0.4c-0.1,0.2-0.2,0.4-0.2,0.6c0,0.4,0.3,0.7,0.6,0.9
		c0.4,0.2,0.8,0.3,1.3,0.3L69.8,33.2z"/>
</g>
<g>
	<path d="M72.9,32.2l-0.2-0.5c0.6-0.2,0.7-0.6,0.9-1.4c0.1-0.7-0.2-1.4-0.8-1.7c-0.6-0.3-1.3-0.2-1.6,0.4l-0.4-0.2
		c0.4-0.8,1.4-1,2.3-0.6c0.8,0.4,1.3,1.3,1.1,2.2C73.9,31.2,73.8,31.9,72.9,32.2z"/>
</g>
<g>
	<path d="M69.4,26.9L69,26.7c0.3-0.5,0.4-0.6,0.5-1.1c0.2-0.5,0.1-1.1-0.1-1.5c-0.2-0.4-0.6-0.6-1.1-0.8c-0.4-0.1-0.9-0.1-1.4-0.1
		c-0.3,0-0.9,0.4-1.3,0.7l-0.3-0.4c0.3-0.2,1.1-0.7,1.5-0.8c0.6-0.1,1.2-0.1,1.6,0.1c0.6,0.2,1.1,0.5,1.4,1c0.3,0.5,0.3,1.2,0.1,1.9
		C69.8,26.2,69.7,26.4,69.4,26.9z"/>
</g>
<g>
	<path d="M65.4,30.2c-0.2-0.2-0.2-0.5-0.2-0.8c0.1-0.5,0.4-1,0.7-1.3c0.5-0.4,1.3-0.4,2-0.5c0.1,0,0.3,0,0.4,0l0.1,0.5
		c-0.1,0-0.2,0-0.4,0c-0.6,0.1-1.3,0.1-1.7,0.4c-0.3,0.2-0.5,0.6-0.6,1c0,0.2,0,0.3,0.1,0.4L65.4,30.2z"/>
</g>
</svg>
