<?xml version="1.0" encoding="utf-8"?>
<!-- Generator: Adobe Illustrator 25.2.3, SVG Export Plug-In . SVG Version: 6.00 Build 0)  -->
<svg version="1.1" baseProfile="tiny" id="Camada_1"
	 xmlns="http://www.w3.org/2000/svg" xmlns:xlink="http://www.w3.org/1999/xlink" x="0px" y="0px" viewBox="0 0 168.1 179.3"
	 overflow="visible" xml:space="preserve">
<g>
	<g>
		<path d="M117.5,156.3L106.6,127c0-0.1-2.3-6.5-9.7-7.3c-7.6-0.8-25.9-5.7-26.1-5.7c-0.1,0-4.4-2-7.9-7.1l-4.2-2.7L23.6,78.8
			c0,0-1-1.2-0.8-2.2c0.1-0.4,0.4-0.8,0.8-1c1.7-0.9,8.2-0.3,10.7,1.1l0.3,0.2C46.4,84.1,55.3,89,59.8,90.8l-1.2-8.5
			c0-0.2-0.3-4.3,0.5-6.2c1.3-3.2,5-11.7,7.1-16.5c0.3-0.6,0.8-1,1.4-1c0.6,0,1.2,0.3,1.5,0.9c1.3,2.5,2.7,6.3,1.6,10.1
			c-0.1,0.2-8.9,16.8,0.2,22.9c2.9,1.9,6.7,2.1,9.7,0.5c3.1-1.7,4.5-4.6,4-8.6l-5.4-14.3c-0.1-0.2-2.2-5.3-0.5-9.1
			c0.7-1.6,2-2.7,3.8-3.3l0.2-0.1L90,74c0.1,0.1,6.1,12.2,14.9,16.5c3.7,1.8,9.5,6.1,13.9,12.1c8.3,11.5,15.7,28.3,18.1,36.1
			l-0.5,0.1c-2.4-7.7-9.7-24.5-18-35.9c-4.4-6-10.1-10.2-13.8-12c-8.9-4.4-15-16.6-15.1-16.7l-7-15.9c-1.5,0.6-2.6,1.6-3.2,2.9
			c-1.6,3.6,0.4,8.7,0.5,8.7l5.4,14.3c0.6,5.3-2,7.9-4.2,9.2c-3.2,1.7-7.2,1.5-10.3-0.5c-9.5-6.3-0.5-23.3-0.4-23.5
			c1.1-3.6-0.2-7.2-1.5-9.7c-0.2-0.4-0.6-0.6-1-0.6c-0.4,0-0.8,0.3-1,0.7c-2.1,4.8-5.8,13.3-7.1,16.5c-0.7,1.8-0.5,5.9-0.5,5.9
			l1.4,9.4L60,91.4c-4.4-1.7-13.5-6.7-25.6-14l-0.3-0.2c-2.3-1.4-8.6-1.9-10.2-1.1c-0.3,0.2-0.5,0.4-0.6,0.7
			c-0.1,0.6,0.4,1.4,0.6,1.7l35,25.2l4.3,2.8c3.5,4.9,7.7,6.9,7.7,6.9c0.1,0,18.4,4.9,26,5.7c7.7,0.8,10.1,7.6,10.1,7.7l10.9,29.3
			L117.5,156.3z"/>
	</g>
	<g>
		<rect x="60.7" y="91.1" transform="matrix(0.9806 -0.1961 0.1961 0.9806 -17.5756 13.815)" width="0.5" height="9.1"/>
	</g>
	<g>
		<path d="M68.6,112.5l-27.9,0c-0.3-0.1-2.8-1-2.8-2.4c0-1.5,4.3-4.6,8.9-4.6c4.3,0,14.1-0.3,14.2-0.4l0,0.5
			c-0.1,0-9.9,0.4-14.3,0.4c-4.3,0-8.4,3-8.4,4.1c0,0.9,1.7,1.7,2.4,1.9h27.8V112.5z"/>
	</g>
	<g>
		<path d="M54.2,105.6L24.7,95.2c-0.9-0.3-3.6-1.3-3.2-2.4c0.4-1.1,3.5-4.2,6.3-3.9c2.7,0.3,12.9,2.1,13,2.1l-0.1,0.5
			c-0.1,0-10.3-1.8-13-2.1c-2.7-0.3-5.5,2.7-5.8,3.6c-0.1,0.4,1.4,1.3,2.9,1.8l29.5,10.4L54.2,105.6z"/>
	</g>
	<g>
		<path d="M75.9,85.8c-1.3,0-2.4-0.4-3.3-1.3c-3.8-3.5-3.2-12.9-3.2-13.3l0.5,0c0,0.1-0.6,9.6,3,12.9c1,1,2.3,1.3,3.8,1.1
			c2.8-0.4,4.7-1.3,5.5-2.8c0.9-1.6,0.2-3.2,0.2-3.2l0.5-0.2c0,0.1,0.8,1.9-0.2,3.7c-0.9,1.6-2.9,2.6-5.9,3
			C76.4,85.8,76.2,85.8,75.9,85.8z"/>
	</g>
	<g>
		<polygon points="80.6,59 79.7,55 67.6,56.1 67.6,58.9 67.1,58.9 67.1,55.6 80,54.5 81,58.9 		"/>
	</g>
	<g>
		<polygon points="71.6,55.5 70.6,36.7 74.3,36.7 76.5,54.7 76,54.8 73.9,37.2 71.1,37.2 72.1,55.4 		"/>
	</g>
	<g>
		<path d="M74.3,37l-0.5-0.1c0-0.1,1-5.6-0.8-7.6c-0.5-0.6-1.2-0.8-2.1-0.7c-1.2,0.1-1.9,0.5-2.2,1.2c-0.6,1.4,1.3,3.7,1.4,3.7
			c0.1,0.1,0.9,1.4,1,3.4l-0.5,0c-0.1-1.8-0.9-3.1-0.9-3.1c-0.1-0.1-2.1-2.5-1.4-4.2c0.3-0.8,1.2-1.3,2.6-1.5
			c1.1-0.1,1.9,0.2,2.5,0.8C75.4,31.2,74.4,36.8,74.3,37z"/>
	</g>
	<g>
		<path d="M51.5,82.1c0,0-4.7-3.6-5.6-11c-1-8.2,2.9-17.7,11.5-28.3l0.4,0.3C49.2,53.6,45.3,62.9,46.3,71c0.9,7.2,5.4,10.7,5.5,10.7
			L51.5,82.1z"/>
	</g>
	<g>
		<path d="M46.2,69l-0.4-0.2c-0.1,0-10.9-4.9-9.6-18.2l0-0.3l0.3,0.1c0.3,0.1,8.3,2.5,9.6,18.1L46.2,69z M36.6,51
			c-0.9,11.2,7.1,16.1,8.9,17.1C44.3,54.9,38.1,51.6,36.6,51z"/>
	</g>
	<g>
		<path d="M45.9,72.6l0.1-0.4c3-13.1,13.6-13.5,13.7-13.5l0.4,0L59.9,59c-4,9.9-13.5,13.4-13.6,13.4L45.9,72.6z M59.3,59.2
			c-1.9,0.2-10,1.8-12.7,12.6C48.5,71,55.8,67.4,59.3,59.2z"/>
	</g>
	<g>
		<path d="M48.5,57.2l0-0.3c-2-12.2,4.2-15.2,4.4-15.3l9.5-5.3l0,0.4C63.9,52,48.9,57,48.8,57.1L48.5,57.2z M61.9,37.1L53.1,42
			c-0.1,0-6,3-4.2,14.5C50.9,55.7,63,50.5,61.9,37.1z"/>
	</g>
	<g>
		<path d="M142.4,126.6c-0.1-0.4-11.4-35.9-33.2-56.5c-0.6,0.3-3,1.3-4.2-0.1c-0.3-0.4-0.5-0.8-0.6-1.4c-0.2-1.4,0.4-2.7,1.6-3.4
			c1.1-0.7,2.3-0.6,3.4,0.1l0.1,0c1.6,1.2,0.9,3.3,0.2,4.5c21.8,20.7,33.2,56.3,33.3,56.6L142.4,126.6z M107.6,65.3
			c-0.5,0-0.9,0.1-1.4,0.4c-1,0.6-1.5,1.8-1.3,2.9c0.1,0.4,0.2,0.8,0.5,1.1c1.1,1.2,3.3,0.2,3.7,0c0.2-0.4,1.6-2.7,0-3.9l-0.1,0
			C108.6,65.4,108.1,65.3,107.6,65.3z"/>
	</g>
	<g>
		<path d="M117.6,84.2c-2.9,0-7-0.8-10.6-4.7l0.4-0.3c6,6.5,13.6,4.1,13.6,4.1l0.2,0.5C121.1,83.8,119.7,84.2,117.6,84.2z"/>
	</g>
	<g>
		<path d="M138.4,115.9c0-0.1-1.6-9.3,7.3-18.2l0.4,0.4c-8.8,8.8-7.2,17.7-7.2,17.8L138.4,115.9z"/>
	</g>
	<g>
		<path d="M132.2,101.4l-0.5,0l1.8-27.2l0.4,0.3c0.1,0.1,9,8.1-1.3,20.7L132.2,101.4z M134,75.3l-1.3,19.1
			C140.9,83.9,135.5,77,134,75.3z"/>
	</g>
	<g>
		<path d="M132.6,95.9c-0.1,0-0.1,0-0.2,0l-0.4,0l0.2-0.3c0-0.1,4.5-9.6,14.1-11.1l0.4-0.1l-0.1,0.4
			C146.5,84.8,143.3,95.9,132.6,95.9z M145.9,84.9c-8,1.5-12.2,8.7-13.1,10.4C141.9,95.3,145.3,86.9,145.9,84.9z"/>
	</g>
	<g>
		<path d="M147.3,98.9c-1.3,0-2.3-1-2.3-2.3c0-1.3,1-2.3,2.3-2.3c1.3,0,2.3,1,2.3,2.3C149.6,97.9,148.6,98.9,147.3,98.9z
			 M147.3,94.8c-1,0-1.8,0.8-1.8,1.8c0,1,0.8,1.8,1.8,1.8c1,0,1.8-0.8,1.8-1.8C149.1,95.6,148.3,94.8,147.3,94.8z"/>
	</g>
	<g>
		<path d="M106,80.1c-1.2,0-2.1-0.9-2.1-2.1s0.9-2.1,2.1-2.1s2.1,0.9,2.1,2.1S107.2,80.1,106,80.1z M106,76.4
			c-0.9,0-1.6,0.7-1.6,1.6s0.7,1.6,1.6,1.6s1.6-0.7,1.6-1.6S106.9,76.4,106,76.4z"/>
	</g>
	<g>
		<path d="M124.5,88.1l-0.5-0.1c0-0.1,1.5-13.9-5.8-19.3l0.3-0.4c3.1,2.3,5.1,6.5,5.8,12C124.9,84.5,124.5,88.1,124.5,88.1z"/>
	</g>
	<g>
		<path d="M116.9,69.7c-1.3,0-2.3-1-2.3-2.3c0-1.3,1-2.3,2.3-2.3s2.3,1,2.3,2.3C119.2,68.7,118.2,69.7,116.9,69.7z M116.9,65.6
			c-1,0-1.8,0.8-1.8,1.8c0,1,0.8,1.8,1.8,1.8s1.8-0.8,1.8-1.8C118.7,66.4,117.9,65.6,116.9,65.6z"/>
	</g>
	<g>
		<path d="M124.6,81.8l-0.4-0.3c6.4-9.6,1.7-14.8,0.4-16l-1.5,9.3l-0.5-0.1l1.7-10.1l0.3,0.2C124.6,64.9,132.2,70.4,124.6,81.8z"/>
	</g>
	<g>
		<path d="M107.7,155.3c-0.1-0.2-10.5-22.6-36.3-20.7l0-0.5c26.1-2,36.7,20.8,36.8,21L107.7,155.3z"/>
	</g>
	<g>
		<path d="M68.7,153.8c-1.3,0-2-0.1-2.1-0.1l-0.6-0.1l16.6-12.7h13.2c-0.9-6.4-7.8-15.8-7.8-15.9l-0.8-1.1l1.2,0.8
			c14.1,9.2,14.6,22.5,14.6,22.6l-0.5,0c0-0.1-0.5-12.4-13.3-21.5c1.9,2.8,6.6,10,7.1,15.3l0,0.3h-2.5
			C86.3,152.6,73.6,153.8,68.7,153.8z M67.3,153.2c3.2,0.2,17.6,0.2,25.9-11.8H82.7L67.3,153.2z"/>
	</g>
	<g>
		<path d="M71.4,135l-0.3-0.5c-2.1-3.9-9.3-6.8-9.4-6.9l-0.1,0l0-0.1c-3.5-7.4,2.1-13.9,2.2-14l0.1-0.1l0.2,0.1
			c11.4,6,7.5,20.8,7.5,20.9L71.4,135z M62.1,127.2c0.8,0.4,6.8,2.9,9.2,6.5c0.6-2.8,2.4-14.5-7.2-19.7
			C63.3,115,59.1,120.8,62.1,127.2z"/>
	</g>
	<g>
		<path d="M53.3,149.9h-0.2l0-0.2c0-4.9,2.4-9.8,6.4-12.9c4.1-3.2,9.8-2.8,10-2.7l2.1,0.1l0,0.3C70.5,149.7,53.5,149.9,53.3,149.9z
			 M68.7,134.5c-1.7,0-5.8,0.3-8.9,2.7c-3.8,2.9-6.2,7.6-6.2,12.2c2.1-0.1,16.3-1.2,17.5-14.8l-1.6-0.1
			C69.5,134.5,69.2,134.5,68.7,134.5z"/>
	</g>
	<g>
		<path d="M54.1,144.7c-0.2-0.1-4.6-1.9-4.6-5.5c0-3.6,3.6-5.2,3.7-5.2l0.2,0.5c0,0-3.4,1.5-3.4,4.8c0,3.3,4.2,5,4.2,5L54.1,144.7z"
			/>
	</g>
	<g>
		<path d="M58.8,137.8c-0.5-0.2-11.6-5.2-12.8-11.2l0-0.9l0.2,0c0.5-0.1,12.1-1.3,15.8,1.5c3.7,2.8,5.9,6.9,5.9,6.9l-0.4,0.2
			c0,0-2.2-4-5.8-6.8c-3.3-2.5-13.6-1.6-15.2-1.4v0.4c1.1,5.6,12.4,10.7,12.5,10.8L58.8,137.8z"/>
	</g>
	<g>
		<path d="M55.5,125.8l-0.5-6.1l0.2-0.1c0.2-0.1,4-1.6,6,0l-0.3,0.4c-1.6-1.3-4.6-0.3-5.3,0l0.5,5.7L55.5,125.8z"/>
	</g>
</g>
</svg>
