<?xml version="1.0" encoding="utf-8"?>
<!-- Generator: Adobe Illustrator 25.2.3, SVG Export Plug-In . SVG Version: 6.00 Build 0)  -->
<svg version="1.1" baseProfile="tiny" id="Camada_1"
	 xmlns="http://www.w3.org/2000/svg" xmlns:xlink="http://www.w3.org/1999/xlink" x="0px" y="0px" viewBox="0 0 166.1 162.2"
	 overflow="visible" xml:space="preserve">
<g>
	<path d="M112,148h-0.5v-31.3c0-0.9,0.2-1.7,0.7-2.5c2.4-4.2,10.3-19.8,9.9-42.8c0,0,0,0,0,0c0,0-1.1-3.5-11.9-8
		c-0.5-0.2-1.1-0.1-1.6,0c-0.9,0.3-2.6,1.3-3.5,4.2c-1.4,4.2-5.4,14.5-5.4,14.6c0,0-1.1,2.7,0,6.6c0.5,1.7,1,3.2,1.5,4.4
		c0.2,0.4,0.5,0.7,0.9,0.8c0.4,0.1,0.8,0.1,1.1-0.2c1.7-1.1,3.4-2.9,3.4-4c0.1-7.3,0.8-9,0.9-9.2c0.1-0.4,1.8-4.7,5.1-6.5
		c0.9-0.5,1.9-0.4,2.9-0.2c0.4,0,0.7,0.1,1.2,0.1l0,0.5c-0.4,0-0.8-0.1-1.2-0.1c-1-0.1-1.8-0.2-2.6,0.2c-3.3,1.7-4.9,6.2-4.9,6.2
		l0,0.1c0,0-0.8,1.4-0.9,9c0,1.4-2.2,3.4-3.7,4.4c-0.5,0.3-1,0.4-1.5,0.2c-0.5-0.2-1-0.5-1.2-1.1c-0.5-1.3-1-2.8-1.5-4.5
		c-1.1-4,0-6.8,0-6.9c0-0.1,4-10.4,5.4-14.6c1-3.1,2.9-4.2,3.9-4.5c0.5-0.2,1.2-0.3,1.9,0c11.2,4.7,12.2,8.3,12.2,8.4
		c0.4,23.2-7.5,38.9-10,43.1c-0.4,0.7-0.6,1.5-0.6,2.2V148z"/>
</g>
<g>
	<path d="M93.1,95.9c-0.3,0-0.6,0-0.9-0.2c-0.7-0.3-1.2-0.8-1.4-1.6c-0.2-0.5-0.3-1-0.4-1.7c-0.1-0.7-0.3-1.6-0.5-2.5
		c-1.4-5.1-1.5-10.6-0.1-15.8l4.3-15.9c0.2-0.9,0.9-1.7,1.9-2.1c1.9-0.7,5.6-1.7,8.8,0.4c2.4,1.6,5.1,3.2,7.4,4.5
		c0.9,0.5,1.8,1,2.5,1.5c1.3,0.8,2.1,2.1,2.3,3.6l-0.5,0.1c-0.1-1.4-0.9-2.6-2-3.3c-0.8-0.5-1.6-1-2.5-1.5c-2.3-1.4-5-3-7.4-4.6
		c-3-2-6.5-1.1-8.3-0.4c-0.8,0.3-1.4,1-1.6,1.8l-4.3,15.9c-1.3,5.1-1.3,10.5,0.1,15.5c0.2,0.9,0.4,1.8,0.5,2.5
		c0.1,0.7,0.2,1.2,0.3,1.7c0.2,0.7,0.6,1.1,1.1,1.3c1.1,0.4,2.4-0.3,2.6-0.4l4.5-5.2l0.4,0.3l-4.6,5.3
		C95.2,95.4,94.2,95.9,93.1,95.9z"/>
</g>
<g>
	<path d="M82,86.6c-0.5,0-1-0.2-1.4-0.5c-1.3-1.2-1-3.9-1-4l0.4-8c1.4-17.1,5.5-24.4,7.4-25.9c3.4-2.6,7,0.5,7.1,0.5l7.6,6.6
		l-0.3,0.4l-7.6-6.6c-0.1-0.1-3.4-2.8-6.5-0.5c-0.1,0-5.5,4.4-7.2,25.5l-0.4,8c0,0-0.3,2.6,0.8,3.6c0.4,0.4,0.9,0.5,1.6,0.3
		c3.2-0.7,6.2-4.7,6.3-4.7l0.4,0.3c-0.1,0.2-3.2,4.2-6.5,4.9C82.4,86.5,82.2,86.6,82,86.6z"/>
</g>
<g>
	<path d="M74.4,77.9C74.4,77.9,74.4,77.9,74.4,77.9c-1.1,0-1.8-1.2-2.1-2.2c-0.3-0.9-0.3-1.9-0.1-3.1c0.3-2.2,1.2-12.5,1.7-18.3
		c0.3-3.4,1.5-6.6,3.6-9.4l2.3-3.1c0.4-0.6,1-1,1.7-1.1c1.1-0.3,3-0.4,4.3,1.5c1.8,2.7,3.5,5.5,3.5,5.5l-0.4,0.3
		c0,0-1.7-2.8-3.5-5.5c-1-1.6-2.6-1.5-3.7-1.3c-0.6,0.1-1.1,0.5-1.4,0.9l-2.3,3.1c-2,2.7-3.2,5.8-3.5,9.1
		c-0.5,5.9-1.4,16.1-1.7,18.4c-0.2,1.1-0.1,2.1,0.1,2.9c0.3,0.9,0.8,1.9,1.6,1.9c0,0,0,0,0.1,0c0.8,0,2-0.2,2.9-0.6
		c1.2-0.5,2.5-3.3,2.9-4.3l0.5,0.2c-0.1,0.2-1.6,3.9-3.2,4.6C76.6,77.6,75.2,77.9,74.4,77.9z"/>
</g>
<g>
	<path d="M80,149.6l-0.4-33.8c0-1.2-0.8-3-1.7-4.1c-6.9-9.9-9.6-24.7-9.7-24.9c0-0.2-3.2-20.4-4.2-31.2c-1-10.9,3.3-15.8,3.5-16.1
		L79,26.7l0.2,0c3.2,0.9,3.7,4,3.7,4c0,0.2,0.9,5.4-3.8,12.6c-3.3,5.1-9.6,5.1-9.7,5.1c0,0,0,0,0,0l0-0.5l0,0c0.1,0,6.2,0,9.3-4.9
		c4.5-7.1,3.7-12.2,3.7-12.2c0-0.1-0.4-2.7-3.2-3.6L68,39.8c0,0-4.3,5-3.4,15.7c1,10.8,4.1,31,4.2,31.2c0,0.1,2.8,14.9,9.6,24.7
		c0.8,1.2,1.7,3.1,1.7,4.4l0.4,33.8L80,149.6z"/>
</g>
<g>
	<rect x="118.7" y="75.6" transform="matrix(0.6646 -0.7472 0.7472 0.6646 -27.9098 119.3553)" width="0.5" height="30.2"/>
</g>
<g>
	<polygon points="73.8,56.1 59.8,44.5 60.1,44.2 74.1,55.7 	"/>
</g>
<g>
	<path d="M74.2,37.8c-1.9,0-3.6-1.1-3.7-1.1l0.3-0.4c0,0,2.5,1.6,4.6,0.9c2.1-0.7,6.6-7.5,6.6-7.6l0.4,0.3c-0.2,0.3-4.6,7-6.9,7.8
		C75.1,37.8,74.7,37.8,74.2,37.8z"/>
</g>
<g>
	<path d="M52.3,48C52.3,48,52.3,48,52.3,48c-4.3,0-9.1-2.6-14.1-7.7l-0.1-0.1c-3.3-3.3-6.2-4.1-8.6-4.8c-0.4-0.1-0.7-0.2-1-0.3
		L28,34.9l0.4-0.3c0.1-0.1,11.2-7.2,23.2,2c-7.7-10.7-2.3-21.9-2.2-22.1l0.3-0.6l0.2,0.7c0.3,1.5,2.4,5.2,3.7,6.8
		c0,0,0.2,0.1,0.4,0.3c7.5,6.5,9.3,11.7,9.4,14.9c0.1,2.9-1,5.6-3.3,7.9C57.8,46.9,55.2,48,52.3,48z M29.2,34.7
		c0.2,0,0.3,0.1,0.5,0.1c2.4,0.7,5.4,1.6,8.8,5l0.1,0.1c6.1,6.2,10.8,7.6,13.7,7.6c0,0,0,0,0,0c2.7,0,5.2-1.1,7.4-3.4
		c2.2-2.3,3.3-4.8,3.2-7.6c-0.1-3.1-1.8-8.1-9.2-14.5c-0.3-0.2-0.4-0.3-0.4-0.4c-1.1-1.4-3-4.4-3.6-6.3c-1,2.6-4.5,13.3,4,22.9
		c0.7,0.7,1.5,1.4,2.2,2.2c0.3,0.2,0.5,0.5,0.8,0.7l-0.3,0.4c-1.2-1-2.2-2-3.1-3c-3.9-3.5-9.4-6.8-16.2-6.2
		C33.2,32.7,30.3,34.1,29.2,34.7z"/>
</g>
<g>
	<polygon points="36.1,32.2 35.2,20.3 48,20.5 48,21 35.7,20.8 36.6,32.2 	"/>
</g>
<g>
	<path d="M81.6,149.8l-0.3-0.4c0.1-0.1,14.7-11,12.6-25.8c-1.7,0.6-11.1,4.2-13.5,18.6l-0.5-0.1c2.7-16.1,14-19.1,14.1-19.1l0.3-0.1
		l0,0.3C96.7,138.4,81.8,149.7,81.6,149.8z"/>
</g>
<g>
	<path d="M80.4,136.8l-0.6,0c-0.2,0-17.9-1.6-19.3-23.8l0-0.3l0.3,0c0.1,0,14.1,2.4,19.6,21.3l-0.5,0.1
		C74.9,117,63.1,113.6,61,113.2c1.4,19.2,15.1,22.5,18.2,23l-14.7-17.6l0.4-0.3L80.4,136.8z"/>
</g>
</svg>
