<?xml version="1.0" encoding="utf-8"?>
<!-- Generator: Adobe Illustrator 25.2.3, SVG Export Plug-In . SVG Version: 6.00 Build 0)  -->
<svg version="1.1" baseProfile="tiny" id="Camada_1"
	 xmlns="http://www.w3.org/2000/svg" xmlns:xlink="http://www.w3.org/1999/xlink" x="0px" y="0px" viewBox="0 0 161.2 216.9"
	 overflow="visible" xml:space="preserve">
<g>
	<g>
		<path d="M118.2,192.2l-7.3-29.6l0-0.1c0,0,1.6-4.4,2.1-11.6c0.5-6.6,0.1-17-4.4-29.1l-4.5-16.1c0-0.1-0.4-5.3-3.7-5.2
			c-0.6,0-1,0.2-1.3,0.7c-1.4,1.8-0.5,6.4-0.5,6.4l3.9,18.3l-0.5,0.1l-3.9-18.3c0-0.2-1-4.9,0.6-6.8c0.4-0.5,1-0.8,1.7-0.9
			c0.1,0,0.1,0,0.2,0c3.5,0,4,5.4,4,5.6l4.5,16.1c4.6,12.1,4.9,22.6,4.4,29.3c-0.5,6.7-1.9,11-2.1,11.6l7.3,29.4L118.2,192.2z"/>
	</g>
	<g>
		<path d="M93.6,122.2l-4.2-32c0-0.1-0.5-2.9,0.8-4.4c0.5-0.6,1.2-0.9,2-0.9c3.5,0,4.5,4.5,4.5,4.5l2.9,11.2l-0.5,0.1l-2.9-11.2
			c0-0.1-0.9-4.1-4-4.1c-0.7,0-1.2,0.2-1.6,0.7c-1.1,1.3-0.7,4-0.7,4l4.2,32L93.6,122.2z"/>
	</g>
	<g>
		<path d="M82.4,120.2c0-0.3-1.6-31.6-1.7-35c-0.1-2.1,0.4-3.7,1.4-4.7c0.8-0.8,1.9-1.2,3.3-1.2c0,0,0,0,0,0c3.4,0,3.6,3.7,3.6,3.7
			l0.9,7.9l-0.5,0.1L88.5,83c0-0.1-0.2-3.3-3.1-3.3c0,0,0,0,0,0c-1.3,0-2.3,0.4-3,1.1c-0.9,0.9-1.3,2.4-1.2,4.4
			c0.1,3.4,1.7,34.7,1.7,35L82.4,120.2z"/>
	</g>
	<g>
		<path d="M70.3,146.9l-0.4-0.2c3.3-6.2,3.4-44.1,3.4-55.5l0-0.6c0-3.3,1.2-6.6,3.8-6.8c2.8-0.2,4,1.2,4,1.2l-0.4,0.3
			c0,0-1.1-1.2-3.6-1.1c-2.6,0.2-3.3,4-3.3,6.3l0,0.6C73.8,105.9,73.6,140.8,70.3,146.9z"/>
	</g>
	<g>
		<path d="M85.1,193.8l-4.9-15.9c-0.7-2.1-1.9-4.1-3.5-5.6c-2.1-2-5.4-5.6-8.6-11.3c-3.6-6.2-3.8-9.1-4.1-13.8
			c-0.2-2.6-0.4-5.8-1.3-10.4c-2.4-12.7-4.8-17.6-4.9-17.6l-0.1-0.2l0.1-0.1c0,0,3.2-3,6.5-1.3c3.2,1.7,4.2,6,4.3,6.1l3.6,13.5
			l-0.5,0.1l-3.6-13.5c0-0.1-1-4.2-4-5.8c-2.6-1.4-5.2,0.5-5.8,1.1c0.5,1,2.7,6.1,4.8,17.6c0.9,4.7,1.1,7.9,1.3,10.5
			c0.3,4.7,0.5,7.5,4,13.6c3.2,5.6,6.4,9.2,8.5,11.2c1.7,1.6,3,3.7,3.7,5.9l4.9,15.9L85.1,193.8z"/>
	</g>
	<g>
		<polygon points="62.2,182.1 61.7,182.1 63.9,146.8 64.4,146.8 		"/>
	</g>
	<g>
		<path d="M64,117.8l-0.1-23.2c0,0-0.6-5.7-3.4-8.5c-0.2-0.3-4.2-5.6-4.6-11.2c-0.2-3.6-1.6-6.9-2.4-8.5c-0.7-1.4-1-2.9-0.9-4.4
			c0.1-2.3,0.6-6,2.5-10.3c1.3-2.9,2.1-5,2.5-6.3c0.5-1.5,1.1-2.9,2-4.1c0.5-0.7,1-1.3,1.6-1.9c2-2.3,3.6-7.7,3.6-7.7
			c0-0.1,0.6-2.2,1.9-2.4c0.7-0.1,1.4,0.3,2.1,1.3c2.3,3.2,1.2,5.5,1,5.9l-1.6,7.2c-0.4,1.8-1.1,3.7-2,5.5c-0.5,1-0.8,1.8-0.8,2.4
			c0,1.4-0.5,7-2.1,9l-0.4-0.3c1.4-1.7,2-6.9,2-8.6c0-0.6,0.3-1.5,0.8-2.6c0.9-1.8,1.6-3.6,2-5.4l1.6-7.3c0.1-0.1,1.2-2.2-1-5.4
			c-0.4-0.6-1-1.2-1.6-1.1c-0.8,0.1-1.3,1.5-1.5,2c-0.1,0.2-1.6,5.6-3.7,7.9c-0.5,0.6-1,1.2-1.5,1.9c-0.8,1.1-1.5,2.4-1.9,3.9
			c-0.4,1.3-1.2,3.5-2.5,6.4c-1.9,4.2-2.4,7.8-2.4,10.1c0,1.4,0.3,2.8,0.9,4.2c1,2,2.2,5.2,2.4,8.7c0.4,5.4,4.4,10.8,4.5,10.9
			c2.9,2.9,3.5,8.6,3.5,8.8l0.1,23.2L64,117.8z"/>
	</g>
	<g>
		<path d="M95.4,86.9l-0.5-0.2c0.1-0.2,6.5-17.1,5.5-29.9c0-0.1,0.4-6.2-3.3-7.4c-0.7-0.2-1.5,0-2,0.6c-1.9,2-6.7,7.5-9.1,14.6
			c-0.4,1.3,0,2.7,1,3.3c0.4,0.2,0.8,0.4,1.3,0.4c1.7,0,3.8-3.3,4.5-4.5c0.1-0.2,2.8-5.7,6.4-6.5l0.1,0.5c-3.3,0.7-6,6.2-6.1,6.2
			c-0.1,0.2-2.6,4.8-4.9,4.8c-0.5,0-1.1-0.1-1.5-0.4c-1.2-0.8-1.8-2.4-1.3-3.9c2.5-7.2,7.3-12.7,9.2-14.8c0.7-0.7,1.7-1,2.5-0.7
			c4.1,1.3,3.6,7.6,3.6,7.9C101.9,69.8,95.4,86.8,95.4,86.9z"/>
	</g>
	<g>
		<path d="M81.5,68.1c-0.4,0-0.8-0.1-1.3-0.3c-1.1-0.5-1.7-1.7-1.7-3.5c0-1.2,0.3-2.4,0.9-3.5c1.3-2.7,5.7-11.9,7.1-15.4
			c1.5-4.1,2.9-4,3.2-3.9c6.1,0.4,6.4,7.6,6.4,7.7l-0.5,0c0-0.3-0.3-6.9-6-7.2l-0.1,0c0,0-1.2-0.3-2.6,3.6
			C85.7,49,81.6,57.5,79.9,61c-0.5,1.1-0.8,2.2-0.8,3.3c0,1.6,0.4,2.6,1.4,3c2.3,1.1,4.6-1.9,4.7-1.9l0.4,0.3
			C85.4,65.9,83.6,68.1,81.5,68.1z"/>
	</g>
	<g>
		<path d="M76.5,63.4c-0.5,0-1.1-0.1-1.7-0.3c-2.7-0.9-1.8-5.2-1.8-5.4l5.6-20.4c0,0,2.1-2.6,6.1-1.3c4.1,1.3,3.5,6.9,3.5,7L87.7,43
			c0-0.1,0.5-5.3-3.1-6.5c-3.5-1.1-5.3,0.8-5.5,1.1l-5.5,20.2c0,0-0.9,4.1,1.4,4.8c2.4,0.8,3.9-0.5,4-0.5l0.3,0.4
			C79.2,62.6,78.2,63.4,76.5,63.4z"/>
	</g>
	<g>
		<path d="M69.1,61.5c-0.4,0-0.7,0-1.1-0.2c-3.9-1-2-8.7-1.9-9l3.5-16.8c0-0.1,0.9-1.5,3.5-1.9c2.6-0.4,5.8,3.5,5.9,3.6l-0.4,0.3
			c0,0-3.1-3.8-5.5-3.5c-2.1,0.3-3,1.4-3.2,1.6l-3.4,16.6c0,0.1-1.9,7.5,1.5,8.4c3.4,0.9,4.9-3,5-3.1l0.5,0.2
			C73.5,57.9,72.1,61.5,69.1,61.5z"/>
	</g>
	<g>
		<rect x="93.8" y="63.9" transform="matrix(0.2772 -0.9608 0.9608 0.2772 4.7064 137.9183)" width="0.5" height="3.9"/>
	</g>
	<g>
		<path d="M90.4,64.5c0,0-1.8-1.8-3.8-1.8c0,0,0,0-0.1,0l0-0.5c0,0,0,0,0.1,0c2.2,0,4,1.9,4.1,2L90.4,64.5z"/>
	</g>
	<g>
		<path d="M84.4,63.5c0,0-1.8-2.2-4.9-2.1l0-0.5c3.4-0.1,5.2,2.2,5.3,2.3L84.4,63.5z"/>
	</g>
	<g>
		<path d="M73.1,61.3c0-0.1-0.5-2.7,1.4-5c0.5-0.6,1.1-0.9,1.7-0.9c1.7-0.1,3.4,1.5,3.5,1.6l-0.3,0.4c0,0-1.6-1.5-3.1-1.4
			c-0.6,0-1,0.3-1.4,0.8c-1.7,2.1-1.3,4.6-1.3,4.6L73.1,61.3z"/>
	</g>
	<g>
		<path d="M66.7,60.6c-0.9-1.3-0.2-3.5,0.4-4.7c0.4-0.9,1-1.6,1.8-2c0.6-0.3,1.1-0.4,1.8-0.4c0.5,0,0.9,0.2,1.2,0.6
			c0.8,0.9,0.7,2.5,0.7,2.5l-0.5,0c0,0,0.1-1.5-0.6-2.2c-0.2-0.3-0.5-0.4-0.9-0.4c-0.5,0-1,0.1-1.5,0.3c-0.7,0.3-1.2,0.9-1.5,1.7
			c-0.4,0.9-1.2,3-0.4,4.2L66.7,60.6z"/>
	</g>
	<g>
		<path d="M60.3,125.7l0-0.5c0,0,2.8-0.3,3.5-1.7c0.6-1.2-1.1-3.8-1.8-4.8l0.4-0.3c0.3,0.4,2.7,3.7,1.9,5.3
			C63.4,125.4,60.4,125.7,60.3,125.7z"/>
	</g>
	<g>
		<path d="M76.7,90.7c-0.6,0-1.1-0.2-1.5-0.5c-0.5-0.5-0.5-1.1-0.5-1.2v-3.9h0.5v3.9c0,0,0,0.5,0.4,0.8c0.3,0.3,0.8,0.4,1.4,0.3
			c1.8-0.1,2.3-0.8,2.3-0.9l0.4,0.2c-0.1,0.1-0.6,0.9-2.7,1.1C76.9,90.7,76.8,90.7,76.7,90.7z"/>
	</g>
	<g>
		<path d="M85.2,87.5c-2.5,0-3.1-3-3.2-3.1l0-3.9h0.5v3.9c0,0.1,0.6,2.7,2.7,2.6c2.2-0.1,2.4-3,2.4-3l0.5,0c0,0-0.3,3.4-2.9,3.5
			C85.3,87.5,85.2,87.5,85.2,87.5z"/>
	</g>
	<g>
		<path d="M93.3,93.2c0,0-0.1,0-0.1,0c-2.5-0.1-2.8-3.4-2.9-3.6l-0.4-3.5l0.5-0.1l0.4,3.5c0,0,0.4,3,2.4,3.1c2,0.1,2.4-2.1,2.5-2.2
			l0.5,0.1C96.1,90.6,95.6,93.2,93.3,93.2z"/>
	</g>
	<g>
		<path d="M100.9,106.9c-0.1,0-0.1,0-0.2,0c-2.2-0.1-2.1-1.9-2.1-2l-0.4-3.1l0.5-0.1l0.4,3.2c0,0.2,0,1.4,1.7,1.5
			c1.7,0.1,1.8-0.9,1.8-0.9l0.5,0.1C103.1,105.6,102.9,106.9,100.9,106.9z"/>
	</g>
</g>
</svg>
