<svg id="Camada_1" data-name="Camada 1" xmlns="http://www.w3.org/2000/svg" viewBox="0 0 270.69 292.18"><defs><style>.cls-1{fill:#745d79;}</style></defs><path class="cls-1" d="M78.65,64.93a.38.38,0,0,1-.35-.23l-4.48-11a.37.37,0,0,1,.2-.49.39.39,0,0,1,.49.21l4.48,11a.37.37,0,0,1-.2.49Z"/><path class="cls-1" d="M120,246h0a.38.38,0,0,1-.36-.39c.25-8.63,5.21-18.69,9.77-25.23,1.1-1.58,2.15-3,3.16-4.45a104.49,104.49,0,0,0,9.11-14.29c.48-.93,1-1.89,1.57-2.87a36,36,0,0,0,3.84-8.5,5.44,5.44,0,0,0,0-3.74,3.6,3.6,0,0,0-3.45-1.63,9,9,0,0,0-3.95,1.56c-6.17,3.88-9.13,10.95-12,17.79L127,206a93.75,93.75,0,0,0-6.45,23.14,36.23,36.23,0,0,1-.82,3.67c-.66,2.51-1.28,4.88-.63,7.3a.38.38,0,0,1-.27.46.37.37,0,0,1-.46-.26c-.7-2.62,0-5.2.63-7.69a31.05,31.05,0,0,0,.8-3.59,95.23,95.23,0,0,1,6.51-23.32L127,204c2.9-6.95,5.91-14.13,12.28-18.13a9.74,9.74,0,0,1,4.29-1.68,4.35,4.35,0,0,1,4.17,2,6.07,6.07,0,0,1,.1,4.27,36.22,36.22,0,0,1-3.92,8.68c-.54,1-1.07,1.93-1.55,2.86a107.15,107.15,0,0,1-9.17,14.38c-1,1.4-2,2.86-3.15,4.44-4.5,6.45-9.4,16.36-9.64,24.82A.38.38,0,0,1,120,246Z"/><path class="cls-1" d="M119.43,243.76a.33.33,0,0,1-.34-.26s0-.07,0-.15c-.35-3-2.9-12.93-21.06-16.81-17.17-3.67-37.7-13.69-40.88-22.75-.91-2.59-.87-4.49.12-5.64,1.34-1.55,3.87-1.09,4-1.07,38.16,9.57,56.59,38.48,56.77,38.77a.38.38,0,0,1-.12.52.37.37,0,0,1-.52-.12c-.18-.29-18.45-28.95-56.29-38.44h0s-2.19-.39-3.25.83c-.8.93-.79,2.58,0,4.9,2.5,7.12,19.3,17.77,40.32,22.27,18.65,4,21.29,14.36,21.65,17.45a.41.41,0,0,1-.27.49Z"/><path class="cls-1" d="M116.28,236a.4.4,0,0,1-.32-.17c-2.2-3.47-9.48-8.46-11.66-9.91-5-3.3-11.23-5.59-17.3-7.8-1.62-.59-3.2-1.17-4.72-1.75a61.15,61.15,0,0,1-24.83-17.74.37.37,0,0,1,.57-.48,60.35,60.35,0,0,0,24.53,17.52c1.51.58,3.09,1.16,4.71,1.74,6.11,2.23,12.42,4.53,17.45,7.88,2.84,1.89,9.66,6.65,11.89,10.14a.36.36,0,0,1-.12.51A.36.36,0,0,1,116.28,236Z"/><path class="cls-1" d="M111.08,218.33a.38.38,0,0,1-.35-.23c-2.24-5.53-8-11.84-12.36-15a52.38,52.38,0,0,0-15.32-7.33c-10.28-3.23-22.2-7.47-32.74-14.41-6.19-4.08-14.74-18.78-13.45-23.13a1.8,1.8,0,0,1,1.88-1.38c3.29,0,5,2.27,7.69,5.74a55.47,55.47,0,0,0,19.71,16.88A63.08,63.08,0,0,0,77.49,184c8.07,2.58,15.69,5,27.87,19.29a.37.37,0,0,1,0,.53.38.38,0,0,1-.53-.05c-12-14.1-19.56-16.51-27.53-19.06a64.19,64.19,0,0,1-11.48-4.58,56.25,56.25,0,0,1-19.94-17.08c-2.61-3.4-4.19-5.45-7.07-5.45h0a1.08,1.08,0,0,0-1.16.85c-1.11,3.72,6.82,18.12,13.14,22.28,10.46,6.89,22.33,11.11,32.55,14.32a53.51,53.51,0,0,1,15.54,7.44c4.4,3.2,10.32,9.65,12.62,15.3a.38.38,0,0,1-.21.49A.35.35,0,0,1,111.08,218.33Z"/><path class="cls-1" d="M96.92,199.36a.37.37,0,0,1-.29-.14c-4.19-5.14-10.8-7.43-17.19-9.64l-1.32-.46A104.7,104.7,0,0,1,56,178.89,55.35,55.35,0,0,1,38.58,162c-1.19-1.89-1.36-3.49-.47-4.5a.38.38,0,0,1,.53,0,.37.37,0,0,1,0,.53c-.88,1,0,2.68.54,3.6a54.67,54.67,0,0,0,17.22,16.69,104.06,104.06,0,0,0,21.93,10.15l1.32.46c6.49,2.25,13.21,4.57,17.53,9.88a.38.38,0,0,1,0,.53A.43.43,0,0,1,96.92,199.36Z"/><path class="cls-1" d="M110.08,216.14a.36.36,0,0,1-.36-.27c-2.32-7.63-.13-15.6,2.11-20.94a105.78,105.78,0,0,1,6.68-12.65c1.15-2,2.34-4,3.44-6a109.69,109.69,0,0,0,10.68-28.34,5.13,5.13,0,0,0-.07-3.63c-.89-1.58-3.25-1.68-5.12-1-3.83,1.47-6.5,5.12-8.6,8.51A100,100,0,0,0,105.3,188c-.82,5.05-1.46,11.56,1,17.15a.37.37,0,0,1-.19.49.38.38,0,0,1-.5-.19c-2.54-5.77-1.9-12.42-1.06-17.57a100.65,100.65,0,0,1,13.65-36.42c2.16-3.49,4.92-7.27,9-8.81,2.16-.83,4.94-.65,6,1.3a5.87,5.87,0,0,1,.16,4.17,110.81,110.81,0,0,1-10.76,28.53c-1.11,2-2.3,4.06-3.45,6a105.86,105.86,0,0,0-6.64,12.56c-2.19,5.23-4.33,13-2.09,20.44a.37.37,0,0,1-.25.46A.18.18,0,0,1,110.08,216.14Z"/><path class="cls-1" d="M107.52,209.49a.36.36,0,0,1-.37-.32c-1.2-9.23,0-12.45,2-17.78l.24-.64a151.09,151.09,0,0,1,7.86-16.9c1.12-2.17,2.27-4.42,3.37-6.64,3.46-7.05,7.09-15.47,7.81-24.56a.39.39,0,0,1,.41-.34.38.38,0,0,1,.34.4c-.73,9.21-4.4,17.72-7.89,24.83-1.1,2.23-2.26,4.48-3.38,6.65A153.14,153.14,0,0,0,110.06,191l-.24.64c-1.93,5.22-3.1,8.37-1.93,17.42a.37.37,0,0,1-.32.42Z"/><path class="cls-1" d="M80.74,161.19a.36.36,0,0,1-.32-.18c-1.58-2.6-2.18-2.5-3.17-2.32a7.11,7.11,0,0,1-1,.12,11.58,11.58,0,0,0-3.66.85c-.42.15-.83.29-1.25.42-2.23.68-4,.61-5.34-.23a3,3,0,0,1-1.29-1.58,2.06,2.06,0,0,1,.48-2.06,3.39,3.39,0,0,1,.74-.49,3.25,3.25,0,0,0,.52-.31,7.61,7.61,0,0,0,.83-.87,4.76,4.76,0,0,1,1.53-1.34,2.08,2.08,0,0,1,2.32,0,20,20,0,0,0,3.37,1.42A21,21,0,0,1,78,156.11a.37.37,0,0,1,.13.51.37.37,0,0,1-.51.14,20.08,20.08,0,0,0-3.38-1.43,20.13,20.13,0,0,1-3.5-1.49,1.37,1.37,0,0,0-1.61,0A4.15,4.15,0,0,0,67.81,155a6.94,6.94,0,0,1-.92,1,3.46,3.46,0,0,1-.65.4,2.42,2.42,0,0,0-.57.36,1.28,1.28,0,0,0-.28,1.3,2.24,2.24,0,0,0,1,1.17c1.12.71,2.71.76,4.72.14.41-.12.82-.27,1.22-.41a12.37,12.37,0,0,1,3.9-.89,6.27,6.27,0,0,0,.92-.11c1.29-.23,2.18-.22,3.94,2.67a.38.38,0,0,1-.13.52A.41.41,0,0,1,80.74,161.19Z"/><path class="cls-1" d="M79.9,160.16a.37.37,0,0,1-.31-.17c-1-1.54.07-2.45,1.08-3.32a10,10,0,0,0,1.12-1,19.07,19.07,0,0,1,2.59-2.26,20.81,20.81,0,0,0,2.1-1.76,2.37,2.37,0,0,0,.51-2.7,2.57,2.57,0,0,0-1.83-1.09,7.38,7.38,0,0,0-2.44.8,10.19,10.19,0,0,0-4.18,5.53.38.38,0,0,1-.45.25.38.38,0,0,1-.27-.44,18.64,18.64,0,0,0,.46-5.31,5.88,5.88,0,0,0-2.38-4.36,6.72,6.72,0,0,0-4.33-.79,1.78,1.78,0,0,0-1.42.63,1.44,1.44,0,0,0-.09,1.24,2.52,2.52,0,0,1,0,2.22l0,0c1.17.6,1.84,1.4,1.85,2.24,0,1.71-.34,2.06-1.09,2.62a6.58,6.58,0,0,0-.8.67.37.37,0,1,1-.53-.53,7.49,7.49,0,0,1,.88-.74c.6-.45.81-.61.79-2,0-.63-.74-1.32-1.91-1.8L69,148a.47.47,0,0,1-.31-.45.41.41,0,0,1,.4-.31h0a.3.3,0,0,0,.28-.11c.08-.1.24-.47-.08-1.55a2.1,2.1,0,0,1,.19-1.87,2.53,2.53,0,0,1,2-1,7.31,7.31,0,0,1,4.81.92,6.55,6.55,0,0,1,2.71,4.9,12.65,12.65,0,0,1,0,2.82A11.16,11.16,0,0,1,82.3,148a8,8,0,0,1,2.77-.91,3.25,3.25,0,0,1,2.57,1.44,3.12,3.12,0,0,1-.63,3.62A23,23,0,0,1,84.84,154a18.45,18.45,0,0,0-2.49,2.17,10.19,10.19,0,0,1-1.19,1.12c-1.09.94-1.55,1.39-.94,2.34a.38.38,0,0,1-.11.52A.42.42,0,0,1,79.9,160.16Z"/><path class="cls-1" d="M65.16,156.25l-.34,0A2.38,2.38,0,0,1,63.1,155h0a2,2,0,0,1-.15-.82,1.67,1.67,0,0,0-.08-.52,3.21,3.21,0,0,0-.47.25,2.22,2.22,0,0,1-.38.19,2.28,2.28,0,0,1-1.8,0,2.2,2.2,0,0,1-.82-2.81,3.34,3.34,0,0,1,1.49-1.51,2.34,2.34,0,0,1-.37-.45,2.09,2.09,0,0,1-.26-1.61,2.6,2.6,0,0,1,2.14-1.83,3.77,3.77,0,0,1,2.32.44,4.63,4.63,0,0,1,1.45-1.72,2.82,2.82,0,0,1,2.71-.35,2.34,2.34,0,0,1,1.1,3.29,2.87,2.87,0,0,1,1.67,1.59,3.22,3.22,0,0,1-.23,2.83,3.89,3.89,0,0,1-2.24,1.71,2,2,0,0,1-1.24,0,3.49,3.49,0,0,1-.73,1.66A2.75,2.75,0,0,1,65.16,156.25Zm-2.25-3.35a.69.69,0,0,1,.48.19,1.48,1.48,0,0,1,.31,1,1.71,1.71,0,0,0,.07.52h0a1.58,1.58,0,0,0,1.17.85,1.88,1.88,0,0,0,1.69-.7,2.9,2.9,0,0,0,.61-1.91.38.38,0,0,1,.29-.37.38.38,0,0,1,.43.21c.12.26.61.29,1,.17a3.11,3.11,0,0,0,1.8-1.37,2.53,2.53,0,0,0,.19-2.17,2,2,0,0,0-1.66-1.25.39.39,0,0,1-.32-.25.36.36,0,0,1,.09-.39,1.61,1.61,0,0,0-.49-2.59,2.12,2.12,0,0,0-2,.29,4.21,4.21,0,0,0-1.37,1.79.38.38,0,0,1-.54.16,3.16,3.16,0,0,0-2.16-.55A1.86,1.86,0,0,0,61,147.83a1.33,1.33,0,0,0,.17,1,1.06,1.06,0,0,0,.66.51.36.36,0,0,1,.3.34.38.38,0,0,1-.25.38,3,3,0,0,0-1.78,1.44,1.43,1.43,0,0,0,.48,1.83,1.54,1.54,0,0,0,1.2,0l.25-.14A1.94,1.94,0,0,1,62.91,152.9Z"/><path class="cls-1" d="M65.23,151.73a1.84,1.84,0,0,1-.47-.06,1.37,1.37,0,0,1-.84-.61h0a1.21,1.21,0,0,1-.06-1,1.8,1.8,0,0,1,.92-1.07,2.72,2.72,0,0,1,1.21-.14,1.08,1.08,0,0,1,.72.21,1,1,0,0,1,.34.75,1.83,1.83,0,0,1-1.82,1.93Zm.44-2.15a1.7,1.7,0,0,0-.61.09,1.12,1.12,0,0,0-.49.62.52.52,0,0,0,0,.39h0a.66.66,0,0,0,.4.26,1.08,1.08,0,0,0,1-.2,1.14,1.14,0,0,0,.4-.9.34.34,0,0,0-.07-.21s-.2,0-.28,0Z"/><path class="cls-1" d="M78.77,150a.35.35,0,0,1-.21-.07.38.38,0,0,1-.1-.52L82,144.17a4.91,4.91,0,0,0,1.16-2.69,2.59,2.59,0,0,0-1.79-2.32,3.34,3.34,0,0,0-3,.61,4.76,4.76,0,0,0-1.63,2.82,2.09,2.09,0,0,0,0,1.06,1.81,1.81,0,0,0,.33.45,2.33,2.33,0,0,1,.5.72.38.38,0,0,1-.71.26,1.86,1.86,0,0,0-.35-.48,2.15,2.15,0,0,1-.49-.72,2.89,2.89,0,0,1,0-1.43,5.42,5.42,0,0,1,1.91-3.27,4.07,4.07,0,0,1,3.73-.73,3.37,3.37,0,0,1,2.31,3,5.66,5.66,0,0,1-1.29,3.12l-3.56,5.19A.38.38,0,0,1,78.77,150Z"/><path class="cls-1" d="M67.21,138.21a.36.36,0,0,1-.34-.22c-.34-.73-1-.85-1.75-1a5.09,5.09,0,0,1-1-.24,8.91,8.91,0,0,0-4.35-.12l-.4.06a12.36,12.36,0,0,1-4.29.15,4.33,4.33,0,0,1-3.56-3.14,3.73,3.73,0,0,1,.6-2.72,5.09,5.09,0,0,1,2.11-1.74,4.73,4.73,0,0,1,3.45-.32,7.31,7.31,0,0,1,2.46,1.6l.45.38a8.57,8.57,0,0,0,3,1.4c.46.15.93.3,1.4.48a.37.37,0,0,1,.21.48.37.37,0,0,1-.48.22c-.45-.18-.91-.32-1.36-.46a9.37,9.37,0,0,1-3.26-1.54l-.46-.4a6.62,6.62,0,0,0-2.2-1.45,4,4,0,0,0-2.91.29,4.36,4.36,0,0,0-1.8,1.48,3,3,0,0,0-.49,2.16,3.62,3.62,0,0,0,3,2.55,12,12,0,0,0,4-.16l.4-.06a9.48,9.48,0,0,1,4.72.16,5.79,5.79,0,0,0,.82.2,2.72,2.72,0,0,1,2.3,1.42.39.39,0,0,1-.19.5Z"/><path class="cls-1" d="M65.35,134.08h0a.37.37,0,0,1-.32-.42c.27-1.87.43-3.53-.32-4.91-.08-.15-.18-.29-.27-.44a2.81,2.81,0,0,1-.51-2.66c0-.15.06-.3.08-.45a3.75,3.75,0,0,0-2-3.78,2.3,2.3,0,0,0-1.91-.18,3.58,3.58,0,0,0-1.36,1.29,5.21,5.21,0,0,0-1,1.73,5.44,5.44,0,0,0,0,2.12,5.45,5.45,0,0,1,0,2.57.38.38,0,0,1-.47.24.37.37,0,0,1-.24-.47,4.82,4.82,0,0,0,0-2.23,6,6,0,0,1,0-2.42,5.83,5.83,0,0,1,1.11-2,4.36,4.36,0,0,1,1.67-1.53,3.06,3.06,0,0,1,2.54.2,4.53,4.53,0,0,1,2.36,4.56c0,.16-.06.33-.09.49a3,3,0,0,0-.09,1,3,3,0,0,0,.5,1.06c.1.16.2.32.29.48.94,1.71.64,3.83.41,5.38A.38.38,0,0,1,65.35,134.08Z"/><path class="cls-1" d="M65.16,129a.38.38,0,0,1,0-.75,3.18,3.18,0,0,0,2.56-2.18.39.39,0,0,1,.28-.26.37.37,0,0,1,.36.11,2,2,0,0,0,2.24.35,3.14,3.14,0,0,0,1.55-2,2.13,2.13,0,0,0,0-1.51,2.45,2.45,0,0,0-1.62-1.09.38.38,0,0,1-.27-.42.37.37,0,0,1,.39-.31.76.76,0,0,0,.66-.42,3.37,3.37,0,0,0,.34-1,2.19,2.19,0,0,0-.14-1.86,2.1,2.1,0,0,0-1.41-.47,4.89,4.89,0,0,0-1.48,0,1.36,1.36,0,0,0-1,.72.38.38,0,0,1-.29.23A.37.37,0,0,1,67,118a2.46,2.46,0,0,0-3.12-.26,3.62,3.62,0,0,0-1.41,3.14.37.37,0,0,1-.36.39.36.36,0,0,1-.39-.35,4.34,4.34,0,0,1,1.73-3.8,3.28,3.28,0,0,1,3.75,0,2.24,2.24,0,0,1,1.22-.72,5.46,5.46,0,0,1,1.71,0,2.21,2.21,0,0,1,2.21,3.24,3.73,3.73,0,0,1-.44,1.26,1.47,1.47,0,0,1-.31.38,2.61,2.61,0,0,1,1.2,1.14,2.9,2.9,0,0,1,.08,2A3.88,3.88,0,0,1,70.87,127a2.82,2.82,0,0,1-2.68-.15,4,4,0,0,1-3,2.2Z"/><path class="cls-1" d="M66.94,123.31a1.83,1.83,0,0,1-.5-.07,1.16,1.16,0,0,1-.89-.91c0-.21,0-.58.61-.83a2.2,2.2,0,0,1,1-.19l.18,0a1.06,1.06,0,0,1,.91.69.88.88,0,0,1-.19.91A1.54,1.54,0,0,1,66.94,123.31Zm.1-1.25a1.51,1.51,0,0,0-.58.12.43.43,0,0,0-.17.12.78.78,0,0,0,.37.22,1.11,1.11,0,0,0,.85-.12s0,0,0-.15h0c0-.08-.15-.15-.32-.18H67Z"/><path class="cls-1" d="M66.63,137a.37.37,0,0,1-.37-.35,7.67,7.67,0,0,1,1.72-5,14.11,14.11,0,0,1,2.7-2.48,9.76,9.76,0,0,0,3.11-3.27,2.87,2.87,0,0,0,.21-2.18,1.47,1.47,0,0,0-1.58-1,.38.38,0,1,1-.18-.73,2.21,2.21,0,0,1,2.46,1.41,3.57,3.57,0,0,1-.23,2.78,10.36,10.36,0,0,1-3.33,3.54,14,14,0,0,0-2.56,2.34A7,7,0,0,0,67,136.63a.37.37,0,0,1-.34.4Z"/><path class="cls-1" d="M66.16,135.46h0a.38.38,0,0,1-.32-.42,17.65,17.65,0,0,1,.77-3.54,6.22,6.22,0,0,1,2.16-3,.37.37,0,0,1,.52.09.38.38,0,0,1-.09.53,5.55,5.55,0,0,0-1.89,2.66,17.2,17.2,0,0,0-.72,3.39A.39.39,0,0,1,66.16,135.46Z"/><path class="cls-1" d="M54.16,129.81l-.12,0a25.71,25.71,0,0,1-3.83-1.62,4.59,4.59,0,0,1-2.24-2,3.83,3.83,0,0,1-.06-2.61,5.81,5.81,0,0,1,2.48-3.44,5.92,5.92,0,0,1,4.53-.54,10.48,10.48,0,0,1,4,2.15.37.37,0,1,1-.47.58,9.79,9.79,0,0,0-3.69-2,5.19,5.19,0,0,0-3.95.45,5.11,5.11,0,0,0-2.15,3,3.07,3.07,0,0,0,0,2.09,3.91,3.91,0,0,0,1.9,1.64,24.83,24.83,0,0,0,3.72,1.57.38.38,0,0,1,.24.47A.38.38,0,0,1,54.16,129.81Z"/><path class="cls-1" d="M55.54,120.45a.37.37,0,0,1-.33-.21,5.58,5.58,0,0,1-.82-3.86,5,5,0,0,1,.84-1.6,19.36,19.36,0,0,1,2-2.34,7.57,7.57,0,0,1,3.77-2.3,3.78,3.78,0,0,1,4.09,1.69,4.18,4.18,0,0,1,.18,3,9.24,9.24,0,0,1-.39,1.19,9.72,9.72,0,0,0-.36,1.08.38.38,0,1,1-.73-.19,10.87,10.87,0,0,1,.39-1.15,9.27,9.27,0,0,0,.36-1.12,3.57,3.57,0,0,0-.12-2.5,3.05,3.05,0,0,0-3.27-1.31A6.85,6.85,0,0,0,57.75,113a17.91,17.91,0,0,0-1.91,2.24,4.15,4.15,0,0,0-.72,1.35,5,5,0,0,0,.76,3.34.37.37,0,0,1-.17.5A.33.33,0,0,1,55.54,120.45Z"/><path class="cls-1" d="M57.3,129.09a.3.3,0,0,1-.13,0,3.53,3.53,0,0,1-2-2.18c-.12-.29-.22-.59-.32-.89a7.72,7.72,0,0,0-.66-1.58,2,2,0,0,0-1.83-1.08A.38.38,0,0,1,52,123a.38.38,0,0,1,.31-.43,2.68,2.68,0,0,1,2.6,1.43,7.87,7.87,0,0,1,.73,1.73c.1.29.19.57.3.85a2.91,2.91,0,0,0,1.52,1.75.38.38,0,0,1-.12.73Z"/><path class="cls-1" d="M47.43,109.38c-.45,0-.89,0-1.33,0h0a7,7,0,0,1-3.09-.67A3.8,3.8,0,0,1,41.07,105a3.32,3.32,0,0,1,3-2.82,5.57,5.57,0,0,1,3.14,1.26l.61.4a21.65,21.65,0,0,0,5.9,2.21c.21.06.35.26.69.81a2.07,2.07,0,0,0,.2.32,1.29,1.29,0,0,0,.17.16.88.88,0,0,1,.38.65.62.62,0,0,1-.26.48,2.58,2.58,0,0,1-1.27.34l-.34,0c-.47.09-1,.16-1.43.23A31.92,31.92,0,0,1,47.43,109.38Zm-1.3-.78a30.86,30.86,0,0,0,5.68-.28c.46-.07.93-.14,1.39-.23a3.09,3.09,0,0,1,.4,0,5.63,5.63,0,0,0,.77-.13s0,0,0,0a2.61,2.61,0,0,1-.24-.23,3.51,3.51,0,0,1-.27-.42c-.09-.14-.24-.39-.32-.5a22.07,22.07,0,0,1-6-2.27l-.63-.41a5.06,5.06,0,0,0-2.66-1.14h0a2.53,2.53,0,0,0-2.32,2.17,3,3,0,0,0,1.56,3,6.19,6.19,0,0,0,2.75.58Z"/><path class="cls-1" d="M53.74,106.8a.36.36,0,0,1-.3-.15,3.59,3.59,0,0,1-.53-2.37l0-.45a5.33,5.33,0,0,0,0-1.65,5.27,5.27,0,0,0-1-1.81L49.37,97a4.52,4.52,0,0,0-1.23-1.27,2.5,2.5,0,0,0-3,.67,3.89,3.89,0,0,0-.67,3.34,8.43,8.43,0,0,0,2,2.78c.28.31.54.6.75.85a.38.38,0,0,1-.58.48c-.2-.25-.45-.53-.73-.83a8.42,8.42,0,0,1-2.12-3.12,4.63,4.63,0,0,1,.82-4,3.25,3.25,0,0,1,3.95-.84A5.23,5.23,0,0,1,50,96.55l2.51,3.37A5.93,5.93,0,0,1,53.63,102a6.33,6.33,0,0,1,.06,1.89l0,.43A2.91,2.91,0,0,0,54,106.2a.37.37,0,0,1-.08.52A.33.33,0,0,1,53.74,106.8Z"/><path class="cls-1" d="M55.51,109.56h-.08a.38.38,0,0,1-.29-.44,6.54,6.54,0,0,1,2.34-3.47c.47-.4,1-.77,1.46-1.13s1.16-.86,1.68-1.33A5.41,5.41,0,0,0,62.5,100a2.36,2.36,0,0,0-.57-1.93A2.78,2.78,0,0,0,60,97.49,6.24,6.24,0,0,0,55.27,100a8,8,0,0,0-1.45,5.3.38.38,0,0,1-.35.4.37.37,0,0,1-.4-.34,8.76,8.76,0,0,1,1.6-5.81A6.88,6.88,0,0,1,60,96.74a3.45,3.45,0,0,1,2.47.82,3.06,3.06,0,0,1,.79,2.55,6,6,0,0,1-2.11,3.62c-.56.5-1.16,1-1.75,1.38s-1,.71-1.42,1.1a5.76,5.76,0,0,0-2.08,3.06A.38.38,0,0,1,55.51,109.56Z"/><path class="cls-1" d="M53.54,101.64a.38.38,0,0,1-.36-.26,8.06,8.06,0,0,1-.15-4,22.67,22.67,0,0,1,1.11-3.73,8.06,8.06,0,0,1,.94-2,8.23,8.23,0,0,1,2-1.8,5.11,5.11,0,0,1,3.28-1.24A3.22,3.22,0,0,1,63,91a5.06,5.06,0,0,1-.34,3.46A12.6,12.6,0,0,1,61.07,97a.37.37,0,0,1,0,.51.38.38,0,0,1-.53,0l-.24-.21a.37.37,0,0,1,0-.51A13.69,13.69,0,0,0,62,94.14a4.29,4.29,0,0,0,.31-2.94,2.48,2.48,0,0,0-2-1.81,4.43,4.43,0,0,0-2.78,1.11,7.39,7.39,0,0,0-1.85,1.62,7.12,7.12,0,0,0-.84,1.81,23.83,23.83,0,0,0-1.09,3.61,7.57,7.57,0,0,0,.13,3.61.36.36,0,0,1-.24.47A.23.23,0,0,1,53.54,101.64Z"/><path class="cls-1" d="M54,101.3a.39.39,0,0,1-.38-.34,4.69,4.69,0,0,1,.66-2.74,12.46,12.46,0,0,1,1.64-2.15l3.38-3.87a.38.38,0,0,1,.53,0,.37.37,0,0,1,0,.53l-3.39,3.86a12.68,12.68,0,0,0-1.55,2,3.94,3.94,0,0,0-.56,2.29.39.39,0,0,1-.33.42Z"/><path class="cls-1" d="M51.21,89.68a.38.38,0,0,1-.38-.36,5.82,5.82,0,0,0-.13-1,.07.07,0,0,1,0,0h0c-.61-2.62-3-5.13-4.71-7-.62-.67-1.16-1.25-1.51-1.72a8.24,8.24,0,0,1-1.7-3.14,4.4,4.4,0,0,1,1.2-4,2.77,2.77,0,0,1,3.45-.54,3.54,3.54,0,0,1,1,1.32A28.93,28.93,0,0,1,50,76.92c0,.13.1.27.16.41l.06.15a12.86,12.86,0,0,1,2.66-4.22,6,6,0,0,1,3.6-2.07,3.18,3.18,0,0,1,3.47,2.24c.34,1.62-1,3.09-1.75,4a71.63,71.63,0,0,0-6.11,7.89c-.08.12-.17.23-.25.34-.36.46-.65.83-.38,2.46v0a5.88,5.88,0,0,1,.16,1.18.38.38,0,0,1-.36.39Zm-.7-10.85v0a3.55,3.55,0,0,1-.2,1,5.83,5.83,0,0,0-.16.63,13.4,13.4,0,0,0,.63,4.68c0,.14.07.29.11.43a4,4,0,0,1,.32-.45c.07-.1.14-.19.21-.3a72.21,72.21,0,0,1,6.18-8c.93-1,1.82-2.15,1.58-3.31a2.46,2.46,0,0,0-2.66-1.64,5.31,5.31,0,0,0-3.14,1.83A12.41,12.41,0,0,0,50.51,78.83Zm-4.37-6.6a2.51,2.51,0,0,0-1.65.72,3.66,3.66,0,0,0-1,3.28,7.77,7.77,0,0,0,1.57,2.84c.33.44.85,1,1.46,1.65a32.72,32.72,0,0,1,3.4,4.12,12.47,12.47,0,0,1-.51-4.44,7.22,7.22,0,0,1,.18-.74,5.68,5.68,0,0,0,.16-.62.33.33,0,0,1,0-.22s0-.06,0-.08a4.38,4.38,0,0,0-.34-1.13c-.06-.16-.12-.31-.16-.44a28.39,28.39,0,0,0-1.53-3.63A2.83,2.83,0,0,0,47,72.48,1.42,1.42,0,0,0,46.14,72.23Z"/><path class="cls-1" d="M50.25,78.67a.38.38,0,0,1-.37-.31c-.31-1.75.42-3.4,1.13-5,.19-.41.37-.81.53-1.21a28.48,28.48,0,0,0,1.45-6,3.56,3.56,0,0,0-.53-2.91,2.44,2.44,0,0,0-2.84-.36,4.34,4.34,0,0,0-2,2.52,13.29,13.29,0,0,0-.49,3.44,7.79,7.79,0,0,0,0,1.93,8.46,8.46,0,0,0,1.17,2.38.38.38,0,0,1-.12.52.39.39,0,0,1-.52-.12,9,9,0,0,1-1.27-2.64,8.89,8.89,0,0,1,0-2.12A14.15,14.15,0,0,1,47,65.19a5,5,0,0,1,2.33-3,3.16,3.16,0,0,1,3.74.53,4.16,4.16,0,0,1,.71,3.54,29.46,29.46,0,0,1-1.5,6.13c-.16.41-.35.82-.53,1.24-.67,1.49-1.36,3-1.08,4.56a.38.38,0,0,1-.31.43Z"/><path class="cls-1" d="M50.1,85.22a.35.35,0,0,1-.21-.07c-1.1-.74-1.37-2.43-1.61-3.93A14.56,14.56,0,0,0,48,79.71a11.4,11.4,0,0,0-2.5-4.29.37.37,0,0,1,0-.53.39.39,0,0,1,.53,0,12,12,0,0,1,2.66,4.59A14.48,14.48,0,0,1,49,81.1c.22,1.35.46,2.87,1.29,3.43a.37.37,0,0,1,.1.52A.37.37,0,0,1,50.1,85.22Z"/><path class="cls-1" d="M89.29,114.33a3,3,0,0,1-.89-.14,11,11,0,0,1-4.54-2.94,3.52,3.52,0,0,1-.25-3.19,7.41,7.41,0,0,1,.92-1.9c-2-.09-3.77-3-4.15-4.68a3.28,3.28,0,0,1,.58-3,4.06,4.06,0,0,1,2.65-1,4.77,4.77,0,0,1,3.48.57A2.82,2.82,0,0,1,88,99.63a3,3,0,0,0,.43,1l.17.22a2.18,2.18,0,0,1,.62,2,8.87,8.87,0,0,1,1-.18,4.36,4.36,0,0,1,3.68,1.13c2.56,2.75-.71,7-2.28,9A3,3,0,0,1,89.29,114.33ZM85.37,106a.39.39,0,0,1-.06.33,6.8,6.8,0,0,0-1,1.93,3,3,0,0,0,.14,2.53,10.54,10.54,0,0,0,4.16,2.66c1.07.34,1.6-.06,2.39-1.08,1.55-2,4.45-5.77,2.32-8a3.62,3.62,0,0,0-3.06-.89,6.72,6.72,0,0,0-2.67.87,4.93,4.93,0,0,0-.87.7A5.47,5.47,0,0,1,85.37,106Zm-.54-7.82a11.24,11.24,0,0,0-1.14.07,3.42,3.42,0,0,0-2.18.73,2.63,2.63,0,0,0-.39,2.32c.34,1.5,2,4.27,3.67,4.09a3.21,3.21,0,0,0,1.43-1,6.42,6.42,0,0,1,1-.8,9,9,0,0,1,1.09-.51,1.51,1.51,0,0,0-.36-1.82l-.18-.23a3.85,3.85,0,0,1-.55-1.25,2.14,2.14,0,0,0-.6-1.16A2.84,2.84,0,0,0,84.83,98.2Z"/><path class="cls-1" d="M94.46,108.17a.38.38,0,0,1-.36-.26.38.38,0,0,1,.24-.47,29.62,29.62,0,0,0,4.68-2.3,8.91,8.91,0,0,0,1.82-1.46c.22-.21.44-.42.68-.63a5.56,5.56,0,0,0,1.68-2.49,7.28,7.28,0,0,0-4.69-.49c-2,.41-3.42,2.06-4.92,3.81l-.09.1a.38.38,0,0,1-.53,0,.39.39,0,0,1,0-.53l.09-.1c1.59-1.85,3.09-3.59,5.34-4s3.26-.14,5.41.62a.37.37,0,0,1,.24.43,6,6,0,0,1-2,3.21l-.66.62a9.78,9.78,0,0,1-2,1.57,29.41,29.41,0,0,1-4.82,2.36A.2.2,0,0,1,94.46,108.17Z"/><path class="cls-1" d="M89.2,101.19a.36.36,0,0,1-.37-.32,3.41,3.41,0,0,1,.76-2.23,13.36,13.36,0,0,1,2.81-3.39,6.9,6.9,0,0,1,4.94-1.4,1.61,1.61,0,0,1,1.12.49,1.71,1.71,0,0,1,.27,1.31,17.41,17.41,0,0,1-1,4.14.37.37,0,0,1-.48.22.36.36,0,0,1-.22-.48,16.3,16.3,0,0,0,.91-4,1.08,1.08,0,0,0-.1-.76,1,1,0,0,0-.62-.22,6.15,6.15,0,0,0-4.4,1.24,12.79,12.79,0,0,0-2.64,3.21,2.75,2.75,0,0,0-.65,1.72.37.37,0,0,1-.32.42Z"/><path class="cls-1" d="M84.72,85.63c-1.88,0-3.14-4.66-3.15-4.7h0A10.34,10.34,0,0,1,82,74.59a.38.38,0,0,1,.29-.23.37.37,0,0,1,.35.14,2.37,2.37,0,0,0,4.2-1.63.38.38,0,0,1,.25-.37,2.73,2.73,0,0,1,3.28,1.67A4.63,4.63,0,0,1,90,77.86a14.63,14.63,0,0,1-1.49,2.25L88,80.8a20.5,20.5,0,0,0-1.5,2.4,5.5,5.5,0,0,0-.24.56c-.3.8-.69,1.79-1.42,1.87Zm-2.43-4.89c.39,1.49,1.6,4.27,2.47,4.14.28,0,.65-1,.8-1.39.1-.26.19-.48.27-.64a22.1,22.1,0,0,1,1.56-2.49c.17-.24.35-.47.53-.7a14,14,0,0,0,1.41-2.13,3.81,3.81,0,0,0,.31-3.08,2.07,2.07,0,0,0-2.09-1.31,3.11,3.11,0,0,1-5.09,2.27,9.57,9.57,0,0,0-.17,5.33Z"/><path class="cls-1" d="M82.33,82.45h-.06c-1-.18-2-.3-2.94-.42s-2-.24-3-.43a4.4,4.4,0,0,1-2.58-1.12,2.81,2.81,0,0,1-.55-2.53,4.36,4.36,0,0,1,1.36-2.12,6.43,6.43,0,0,1,7.55-.66.37.37,0,1,1-.4.63,5.7,5.7,0,0,0-6.65.58,3.61,3.61,0,0,0-1.13,1.75A2.07,2.07,0,0,0,74.32,80a3.65,3.65,0,0,0,2.15.88c1,.19,2,.31,3,.43s1.94.24,3,.43a.36.36,0,0,1,.3.43A.38.38,0,0,1,82.33,82.45Z"/><path class="cls-1" d="M78.26,74.93a.37.37,0,0,1-.26-.1l-3.39-3.27A5.43,5.43,0,0,1,73,69.23,3.77,3.77,0,0,1,73.71,66a4.93,4.93,0,0,1,5-1.82,4.35,4.35,0,0,1,3.19,4.26.36.36,0,0,1-.4.35.38.38,0,0,1-.35-.39,3.56,3.56,0,0,0-2.63-3.49,4.14,4.14,0,0,0-4.25,1.55A3,3,0,0,0,73.67,69a4.87,4.87,0,0,0,1.46,2l3.39,3.27a.37.37,0,0,1,0,.53A.35.35,0,0,1,78.26,74.93Z"/><path class="cls-1" d="M84.23,76.31a2.81,2.81,0,0,1-2.44-1.23,2.08,2.08,0,0,1-.24-1.43,3.53,3.53,0,0,1-2.65.13,2.91,2.91,0,0,1-1.74-2.93,3.3,3.3,0,0,1,2.1-2.69,3.66,3.66,0,0,1,2-.17c0-.11,0-.23,0-.34-.08-1.11-.17-2.36.91-3.13a3.08,3.08,0,0,1,3.09-.65,3.29,3.29,0,0,1,2.21,1.43A2,2,0,0,1,87.53,67a1.6,1.6,0,0,1-.1.23,4.94,4.94,0,0,1,1.83.43,2.58,2.58,0,0,1,1.57,2.48,3.55,3.55,0,0,1-1,1.84,4,4,0,0,1-1,.92,1.78,1.78,0,0,1-1,.22,3.29,3.29,0,0,1-.8,2,3.76,3.76,0,0,1-2.35,1.21A3.25,3.25,0,0,1,84.23,76.31Zm-1.65-3.15a1.47,1.47,0,0,0-.21.33,1.39,1.39,0,0,0,.06,1.2,2.23,2.23,0,0,0,2.15.84,3,3,0,0,0,1.88-1A2.42,2.42,0,0,0,87,72.63a.38.38,0,0,1,.16-.37.38.38,0,0,1,.41,0,.82.82,0,0,0,.81,0,3.4,3.4,0,0,0,.82-.75A3,3,0,0,0,90.09,70a1.85,1.85,0,0,0-1.15-1.71,6.08,6.08,0,0,0-2.45-.41.38.38,0,0,1-.11-.73.72.72,0,0,0,.45-.47,1.23,1.23,0,0,0-.06-1A2.59,2.59,0,0,0,85,64.6a2.37,2.37,0,0,0-2.49.53c-.73.52-.67,1.42-.59,2.46,0,.19,0,.37,0,.55a.17.17,0,0,1,0,.07,3.82,3.82,0,0,1,.64.32.37.37,0,0,1,.12.52.36.36,0,0,1-.51.12,3.09,3.09,0,0,0-2.71-.31,2.53,2.53,0,0,0-1.62,2.06,2.15,2.15,0,0,0,1.27,2.17,3.71,3.71,0,0,0,3-.54,1.5,1.5,0,0,1,.68-.36.38.38,0,0,1,.44.22.38.38,0,0,1-.16.47Z"/><path class="cls-1" d="M84.58,71.66a1.22,1.22,0,0,1-.59-.14,1.24,1.24,0,0,1-.6-1.4A.31.31,0,0,1,83.3,70a.37.37,0,0,1,.15-.51,2.34,2.34,0,0,1,2.28,0,.39.39,0,0,1,.17.21,1.53,1.53,0,0,1-.35,1.51A1.37,1.37,0,0,1,84.58,71.66Zm-.1-1.59-.13,0a.42.42,0,0,0-.23.2.49.49,0,0,0,.23.57.59.59,0,0,0,.67-.13.75.75,0,0,0,.19-.62L85,70.05a.38.38,0,0,1-.43,0A.28.28,0,0,0,84.48,70.07Z"/><path class="cls-1" d="M74,54a2.67,2.67,0,0,1-1.48-.79l-.36-.28a26.13,26.13,0,0,0-2.53-1.47l-.41-.22a11.7,11.7,0,0,1-2.77-1.76A4.1,4.1,0,0,1,65,45.87a3.06,3.06,0,0,1,.92-1.61,3.51,3.51,0,0,1-.46-.35,9.46,9.46,0,0,1-2.62-3.11,4.12,4.12,0,0,1,.72-4.86,3.73,3.73,0,0,1,2.7-.8,6.66,6.66,0,0,1,2.61.86,4.59,4.59,0,0,1,2,1.86,5.56,5.56,0,0,1,.45,1.51c.05.25.1.5.17.74A9,9,0,0,0,72,41.43c.16.35.31.7.44,1.06A3.75,3.75,0,0,1,72.56,45a7.71,7.71,0,0,1,1.52,2.43,12.11,12.11,0,0,1,.7,3.1c0,.12,0,.27.06.44.17,1.1.28,2.13-.13,2.66a1,1,0,0,1-.65.37ZM66.83,44.4a.37.37,0,0,1-.13.2A2.34,2.34,0,0,0,65.76,46a3.34,3.34,0,0,0,1.16,2.92,11.25,11.25,0,0,0,2.6,1.65l.42.21a28.9,28.9,0,0,1,2.6,1.52c.12.08.26.19.42.32s.76.63,1,.62a.23.23,0,0,0,.14-.09c.24-.32.07-1.52,0-2.09,0-.18,0-.35-.06-.47a11.56,11.56,0,0,0-.66-2.91A6.82,6.82,0,0,0,72,45.49l-.07,0a.32.32,0,0,1-.18-.22,4.65,4.65,0,0,0-2.66-1.3,3.61,3.61,0,0,0-1.74.29A4.6,4.6,0,0,1,66.83,44.4Zm1.94-1.23a2.55,2.55,0,0,1,.39,0A5.21,5.21,0,0,1,72,44.42a3.44,3.44,0,0,0-.19-1.68c-.12-.34-.27-.68-.42-1a10.82,10.82,0,0,1-.54-1.41,7.13,7.13,0,0,1-.18-.8,5.22,5.22,0,0,0-.39-1.32,3.8,3.8,0,0,0-1.71-1.54,5.78,5.78,0,0,0-2.3-.77,3,3,0,0,0-2.16.62,3.44,3.44,0,0,0-.53,4A9,9,0,0,0,66,43.34c.49.42.49.42,1.1.18A4.54,4.54,0,0,1,68.77,43.17Z"/><path class="cls-1" d="M74.32,54.34h0a.38.38,0,0,1-.36-.39,5.64,5.64,0,0,1,1.41-2.86c.23-.31.46-.62.65-.92s.45-.7.69-1.05A19.79,19.79,0,0,0,78,46.92a18.13,18.13,0,0,0,1.28-6.37,2.49,2.49,0,0,0-.07-1.13c-.28-.7-1.22-.91-1.61-1a5.21,5.21,0,0,0-3.8,1c-.94.68-1.09,1.66-1.28,2.89l-.06.38a.38.38,0,0,1-.43.31.39.39,0,0,1-.31-.43l.06-.38c.2-1.29.39-2.51,1.57-3.38a6,6,0,0,1,4.36-1.09,2.65,2.65,0,0,1,2.2,1.43,3.12,3.12,0,0,1,.12,1.47,18.53,18.53,0,0,1-1.36,6.63,18.18,18.18,0,0,1-1.38,2.3c-.23.34-.46.68-.68,1s-.43.64-.68,1A5.08,5.08,0,0,0,74.69,54,.37.37,0,0,1,74.32,54.34Z"/><path class="cls-1" d="M72,45.15a.37.37,0,0,1-.26-.1L70.29,43.7a8.75,8.75,0,0,1-1.52-1.92,4.33,4.33,0,0,0-2.1-2,.39.39,0,0,1-.18-.5.38.38,0,0,1,.5-.18,5.11,5.11,0,0,1,2.42,2.26,8.28,8.28,0,0,0,1.39,1.78l1.43,1.35a.37.37,0,0,1,0,.53A.35.35,0,0,1,72,45.15Z"/><path class="cls-1" d="M139.9,238a.32.32,0,0,1-.19-.05.37.37,0,0,1-.13-.51c6.09-10.16,15.27-11.62,24.15-13,1.47-.23,3-.47,4.46-.75,3.73-.71,7.55-1.25,11.24-1.77a143.41,143.41,0,0,0,19-3.58c8-2.28,18.8-7.07,24.49-16.91a15.08,15.08,0,0,0,2.37-8.78,7.94,7.94,0,0,0-4.95-7,8.59,8.59,0,0,0-6.58.87,26.89,26.89,0,0,0-5.4,4.19l-.14.13c-11.65,10.73-24.59,21.17-40.18,24.81-1.88.43-3.82.77-5.69,1.1a67.31,67.31,0,0,0-8.7,1.93,19.26,19.26,0,0,0-10.85,9.66.38.38,0,1,1-.67-.34,20.14,20.14,0,0,1,11.3-10,67.77,67.77,0,0,1,8.79-1.95c1.86-.32,3.79-.66,5.65-1.1,15.42-3.59,28.27-14,39.85-24.62l.13-.13a27.37,27.37,0,0,1,5.56-4.3,9.17,9.17,0,0,1,7.17-.92,8.7,8.7,0,0,1,5.46,7.59,15.86,15.86,0,0,1-2.47,9.23c-5.82,10.06-16.77,14.93-24.94,17.25a143.77,143.77,0,0,1-19.11,3.6c-3.69.52-7.5,1.06-11.21,1.77-1.48.28-3,.52-4.48.75-8.71,1.39-17.72,2.82-23.63,12.67A.36.36,0,0,1,139.9,238Z"/><path class="cls-1" d="M150.43,224.3a.38.38,0,0,1-.36-.27.37.37,0,0,1,.26-.46c5.23-1.51,10.64-2.67,15.87-3.8,3.28-.7,6.67-1.43,10-2.24,7.16-1.74,16.42-4.4,24.54-9.51a91.28,91.28,0,0,0,14.22-11.74.38.38,0,0,1,.53.54,91.45,91.45,0,0,1-14.35,11.83c-8.21,5.18-17.55,7.86-24.76,9.61-3.32.81-6.72,1.54-10,2.25-5.21,1.12-10.61,2.28-15.82,3.78Z"/><path class="cls-1" d="M124.28,275.57h-.11a.66.66,0,0,1-.49-.5.69.69,0,0,1,0-.32c0-2.65-1.29-54.71-44.6-115.42a.6.6,0,1,1,1-.7c22.86,32,33.86,61.83,39.06,81.17,5.7,21.2,6,35,5.66,35.5A.62.62,0,0,1,124.28,275.57Z"/><path class="cls-1" d="M104.08,201.64a.6.6,0,0,1-.6-.54c-.07-.72-7-71.95-12.82-87.52a.59.59,0,0,1,.35-.77.61.61,0,0,1,.78.35c5.82,15.72,12.6,84.88,12.89,87.82a.61.61,0,0,1-.54.66Z"/><path class="cls-1" d="M89.88,103.54a.61.61,0,0,1-.58-.44l-5-17.42a.6.6,0,0,1,.41-.74.59.59,0,0,1,.74.41l5,17.42a.6.6,0,0,1-.42.74A.45.45,0,0,1,89.88,103.54Z"/><path class="cls-1" d="M69.89,144a.59.59,0,0,1-.53-.34l-5-10.21a.6.6,0,0,1,1.08-.53l5,10.21a.59.59,0,0,1-.27.8A.54.54,0,0,1,69.89,144Z"/><path class="cls-1" d="M59.58,121.17a.6.6,0,0,1-.57-.4l-4.3-12.3a.61.61,0,0,1,.37-.76.6.6,0,0,1,.77.37l4.29,12.29a.6.6,0,0,1-.37.77A.63.63,0,0,1,59.58,121.17Z"/><path class="cls-1" d="M53.37,102.49a.6.6,0,0,1-.59-.5L50,85.82a.6.6,0,0,1,1.19-.2L54,101.79a.6.6,0,0,1-.49.69Z"/><path class="cls-1" d="M133.69,277.55h0a.6.6,0,0,1-.59-.62c0-.64,2.2-64.75,45.62-123a.6.6,0,0,1,.84-.12.6.6,0,0,1,.12.84c-43.18,57.9-45.36,121.65-45.38,122.28A.6.6,0,0,1,133.69,277.55Z"/><path class="cls-1" d="M143.78,225.62a.59.59,0,0,1-.41-.16.6.6,0,0,1,0-.85c.22-.23,21.88-23.57,41.46-35.92a.61.61,0,0,1,.83.19.6.6,0,0,1-.19.83c-19.45,12.26-41,35.48-41.22,35.72A.63.63,0,0,1,143.78,225.62Z"/><path class="cls-1" d="M199,175.54a.6.6,0,0,1-.33-1.11c.11-.07,2.23-1.58,8.86-11.5a.6.6,0,0,1,1,.67c-6.82,10.2-9,11.71-9.22,11.85A.61.61,0,0,1,199,175.54Z"/><path class="cls-1" d="M214.19,142a.59.59,0,0,1-.6-.59l0-13.57a.6.6,0,0,1,1.2,0l0,13.57a.59.59,0,0,1-.59.6Z"/><path class="cls-1" d="M192.2,134.24a.58.58,0,0,1-.36-.12.61.61,0,0,1-.12-.85l15.79-20.67a.6.6,0,0,1,.84-.11.58.58,0,0,1,.11.84L192.68,134A.6.6,0,0,1,192.2,134.24Z"/><path class="cls-1" d="M226.37,80.79a.6.6,0,0,1-.34-.11.61.61,0,0,1-.15-.84c2.28-3.21,3.23-4.62,4-7.27a47.19,47.19,0,0,0,1.88-10.34.62.62,0,0,1,.65-.56.59.59,0,0,1,.55.64,48.87,48.87,0,0,1-1.93,10.6c-.85,2.83-1.9,4.38-4.2,7.62A.58.58,0,0,1,226.37,80.79Z"/><path class="cls-1" d="M240,190.06a22.23,22.23,0,0,1-6.93-1.3,71.69,71.69,0,0,1-12-6.69,96.22,96.22,0,0,0-8.93-5.33c-1.14-.58-2.24-1.17-3.33-1.74-6.27-3.33-11.7-6.21-19-5.63-6.5.51-12.61,3.1-18.52,5.6-3.65,1.55-5.46,3-9.68,7.82a.38.38,0,0,1-.53,0,.37.37,0,0,1,0-.53c4.31-4.92,6.17-6.42,9.95-8,6-2.53,12.13-5.14,18.75-5.66,7.55-.59,13.06,2.33,19.44,5.71,1.07.58,2.18,1.16,3.32,1.74a98.42,98.42,0,0,1,9,5.37,71.46,71.46,0,0,0,11.9,6.63c1.61.66,6.72,1.8,8.89.9a7.25,7.25,0,0,0,4.12-4.33c.63-2.26-.16-4.95-2.37-8-7.17-9.86-13.26-11.92-22.66-12.43a37.91,37.91,0,0,0-4.81.12c-2.77.2-5.39.39-8.34-.62a8.37,8.37,0,0,1-3.28-1.87,4.2,4.2,0,0,0-2.89-1.22c-4.71-.51-13.86,1.68-18.39,3.37-6.38,2.4-13,5.23-17.74,11.08a.37.37,0,0,1-.53.06.39.39,0,0,1-.06-.53c4.85-6,11.59-8.87,18.07-11.31,4.59-1.72,13.91-3.93,18.73-3.41a4.92,4.92,0,0,1,3.3,1.39,7.59,7.59,0,0,0,3,1.73c2.8,1,5.35.78,8.05.59a37.32,37.32,0,0,1,4.9-.13c9.42.51,15.92,2.69,23.23,12.74,2.35,3.23,3.18,6.13,2.48,8.62a8,8,0,0,1-4.55,4.82A6.88,6.88,0,0,1,240,190.06Z"/><path class="cls-1" d="M164.7,176.24h-.11a.38.38,0,0,1-.25-.47c7-22.68,8.26-41.43,4.23-62.68-3.55-18.65-5.16-51.16,4.94-64.26a14.4,14.4,0,0,1,10.69-6,2.72,2.72,0,0,1,2.51,1c1.87,2.5.13,8.78-1.66,13.6-3.2,8.65-3.68,11.78-5,20.16l-.14.9c-2.42,15.69-2.43,27.26-2.44,38.44,0,13.68,0,26.61-4.14,46.17a.38.38,0,0,1-.44.29.38.38,0,0,1-.29-.45c4.11-19.48,4.12-32.37,4.12-46,0-11.21,0-22.81,2.45-38.56l.14-.89c1.3-8.44,1.78-11.59,5-20.31,2.4-6.48,3-11.17,1.76-12.89a2,2,0,0,0-1.86-.73,13.72,13.72,0,0,0-10.15,5.68c-4.55,5.91-7.13,16.58-7.46,30.84a168.6,168.6,0,0,0,2.66,32.82c4.07,21.38,2.8,40.23-4.24,63A.38.38,0,0,1,164.7,176.24Z"/><path class="cls-1" d="M172.52,107.52a.38.38,0,0,1-.37-.35c-.7-10.13-1.42-20.6-.15-30.87,1.42-11.48,5.34-21.32,11.34-28.44a.37.37,0,0,1,.57.48c-5.9,7-9.76,16.71-11.16,28.05-1.27,10.2-.55,20.64.15,30.72a.37.37,0,0,1-.35.4Z"/><path class="cls-1" d="M231.28,70.11h-.07a.37.37,0,0,1-.3-.44,6.28,6.28,0,0,0-2.18-6.13,21.43,21.43,0,0,0-2.95-2c-.45-.27-.89-.54-1.32-.82a24.58,24.58,0,0,1-5.2-4.5c-.79-.9-1.8-2.27-1.6-3.79a3.63,3.63,0,0,1,1.91-2.59,7.38,7.38,0,0,1,3-.79c1.67-.14,2.81.2,3.48,1a4.22,4.22,0,0,1,.73,2.41c0,.21,0,.42.07.63.35,2.62,2.75,5.2,3.77,6.19,2.16,2.11,1.94,3.93,1.72,5.85,0,.3-.07.61-.1.92a.37.37,0,0,1-.41.34.38.38,0,0,1-.34-.4c0-.33.07-.64.1-.95.23-1.88.4-3.37-1.5-5.22-1.33-1.3-3.62-3.89-4-6.63,0-.22-.05-.44-.07-.66a3.66,3.66,0,0,0-.56-2c-.5-.62-1.44-.87-2.84-.75a6.49,6.49,0,0,0-2.71.7,2.83,2.83,0,0,0-1.52,2,4.35,4.35,0,0,0,1.41,3.19,23.86,23.86,0,0,0,5,4.37c.43.28.87.55,1.3.81A20.41,20.41,0,0,1,229.23,63a7.1,7.1,0,0,1,2.42,6.83A.38.38,0,0,1,231.28,70.11Z"/><path class="cls-1" d="M231.91,66.68a.39.39,0,0,1-.34-.22.37.37,0,0,1,.18-.5,29.83,29.83,0,0,1,4.85-1.64c2.51-.68,4.89-1.32,7-3.25a6.75,6.75,0,0,0,2-3.11c.35-1.81.08-4.08-1.32-4.8a5.49,5.49,0,0,0-4.92.15c-1.37.65-2.92,3-3.94,4.64l-.4.62a10.87,10.87,0,0,0-2,5.92.34.34,0,0,1-.38.36.38.38,0,0,1-.37-.38,11.55,11.55,0,0,1,2.12-6.31l.4-.62c1.07-1.66,2.68-4.17,4.25-4.91a6.23,6.23,0,0,1,5.59-.14c1.75.91,2.12,3.47,1.71,5.61a7.5,7.5,0,0,1-2.19,3.52c-2.23,2.06-4.69,2.72-7.29,3.43a27.42,27.42,0,0,0-4.73,1.59A.47.47,0,0,1,231.91,66.68Z"/><path class="cls-1" d="M236.42,56.08a.28.28,0,0,1-.15,0,.36.36,0,0,1-.19-.49,6.09,6.09,0,0,0,.21-5.13c-.31-.87-1.19-3-2.73-3.83a4.92,4.92,0,0,0-4.57-.07,5.24,5.24,0,0,0-2.85,3.8.35.35,0,0,1-.41.33.37.37,0,0,1-.33-.41,6,6,0,0,1,3.24-4.38,5.63,5.63,0,0,1,5.29.07c1.76,1,2.73,3.29,3.06,4.24a6.79,6.79,0,0,1-.23,5.68A.38.38,0,0,1,236.42,56.08Z"/><path class="cls-1" d="M217.5,52.52a3.52,3.52,0,0,1-2.27-.88,4.1,4.1,0,0,1-1.44-2.86,5.15,5.15,0,0,1,3.14-4.71,7.67,7.67,0,0,1,5.7,0A17.67,17.67,0,0,1,227.48,47a.37.37,0,0,1,.07.53.39.39,0,0,1-.53.07,17,17,0,0,0-4.64-2.79,7,7,0,0,0-5.14,0,4.38,4.38,0,0,0-2.7,4,3.38,3.38,0,0,0,1.17,2.33,2.73,2.73,0,0,0,2,.69.36.36,0,0,1,.41.33.36.36,0,0,1-.33.41A1.94,1.94,0,0,1,217.5,52.52Z"/><path class="cls-1" d="M226.09,46.76a.37.37,0,0,1-.37-.35c-.13-1.85-.15-4.52,1.24-6.33s2.86-3.27,5.3-3a3.76,3.76,0,0,1,2.48,1.07,4.09,4.09,0,0,1,.67,3.53,12,12,0,0,1-1.34,3.83l0,0A.37.37,0,0,1,234,46l-.41.23a.37.37,0,0,1-.46-.07.38.38,0,0,1,0-.46,11.32,11.32,0,0,0,1.62-4.21,3.4,3.4,0,0,0-.49-2.9,3,3,0,0,0-2-.82c-1.95-.18-3.27,1-4.64,2.76-1.23,1.6-1.21,4.09-1.08,5.81a.39.39,0,0,1-.35.41Z"/><path class="cls-1" d="M217.9,44.33h-.09a5,5,0,0,1-3.87-4,4.67,4.67,0,0,1,3.26-4.74,7.44,7.44,0,0,1,5.8.7,21.52,21.52,0,0,1,4.56,3.58.37.37,0,1,1-.52.54A20.68,20.68,0,0,0,222.65,37a6.69,6.69,0,0,0-5.21-.65,4,4,0,0,0-2.76,4A4.26,4.26,0,0,0,218,43.59a.38.38,0,0,1,.28.45A.39.39,0,0,1,217.9,44.33Z"/><path class="cls-1" d="M231.94,66.44a.38.38,0,0,1-.36-.25,23.3,23.3,0,0,0-8.66-11.44l-.36-.24a10,10,0,0,1-1.71-1.36A4.65,4.65,0,0,1,220,50a.37.37,0,0,1,.4-.34.39.39,0,0,1,.35.41,4,4,0,0,0,.69,2.54,9.67,9.67,0,0,0,1.6,1.26l.36.24A24.06,24.06,0,0,1,232.29,66a.36.36,0,0,1-.23.47A.25.25,0,0,1,231.94,66.44Z"/><path class="cls-1" d="M231.92,65.37a.37.37,0,0,1-.29-.14.38.38,0,0,1,.06-.53l4.48-3.5a24.12,24.12,0,0,0,5.32-5.11A.36.36,0,0,1,242,56a.37.37,0,0,1,.1.52,24.49,24.49,0,0,1-5.48,5.28l-4.47,3.5A.37.37,0,0,1,231.92,65.37Z"/><path class="cls-1" d="M225.65,49.62a.35.35,0,0,1-.28-.13,7.28,7.28,0,0,0-7.7-2.12.36.36,0,0,1-.47-.23.38.38,0,0,1,.23-.48A8,8,0,0,1,225.94,49a.37.37,0,0,1-.29.62Z"/><path class="cls-1" d="M225.8,45.79h0a2.27,2.27,0,0,1-1.72-1.19,7.79,7.79,0,0,1-.49-1,6.62,6.62,0,0,0-.3-.66,4.77,4.77,0,0,0-3.88-2.52.32.32,0,0,1-.14,0l-.22,0a.37.37,0,0,1-.34-.39.38.38,0,0,1,.37-.36h.07a5.53,5.53,0,0,1,4.81,2.93c.12.23.22.47.32.71a6.41,6.41,0,0,0,.44.91,1.57,1.57,0,0,0,1.13.84.39.39,0,0,1,.35.41A.37.37,0,0,1,225.8,45.79Z"/><path class="cls-1" d="M228.55,94.23a.4.4,0,0,1-.28-.12A7,7,0,0,0,224.52,92h0a3.25,3.25,0,0,1-2.4-1.35l0,0a4.51,4.51,0,0,1-.85.84,4.42,4.42,0,0,1-3.76.71A5,5,0,0,1,217,92a2.67,2.67,0,0,0-1.14-.23.81.81,0,0,0-.25.08,4.76,4.76,0,0,1-.31,1,.36.36,0,0,1-.31.23.4.4,0,0,1-.35-.17,1,1,0,0,1,0-1,1.45,1.45,0,0,1,.34-.44c.09-.53.14-1.07.18-1.61l0-.19a7.8,7.8,0,0,1,.76-3.14,2.79,2.79,0,0,1,.28-.42,6.77,6.77,0,0,1-2.78-.55,7.08,7.08,0,0,1-3.82-3.91.38.38,0,0,1,0-.33.37.37,0,0,1,.27-.18,12.31,12.31,0,0,0,2.94-1c.58-.25,1.18-.51,1.8-.72a5.91,5.91,0,0,1,4.08-.06,3.44,3.44,0,0,1,.53-2.23,8.33,8.33,0,0,1,1.92-1.92l.51-.41a4.37,4.37,0,0,0,1.67-2.42.41.41,0,0,1,.28-.3.36.36,0,0,1,.39.13A12.48,12.48,0,0,1,226.29,77a6.57,6.57,0,0,1,.14,2.85s0,.06,0,.09a4.24,4.24,0,0,1,2.75-.93,19.8,19.8,0,0,1,2.56.07,16.28,16.28,0,0,0,3,0,.38.38,0,0,1,.17.73,4.63,4.63,0,0,0-2,2.23A7.08,7.08,0,0,1,231,84.32a4.3,4.3,0,0,1-2.3.74,5.24,5.24,0,0,1,1.85,3,7.46,7.46,0,0,1-1.68,6,.39.39,0,0,1-.28.15Zm-5.84-4.69a1,1,0,0,0,.07.78,2.61,2.61,0,0,0,1.88,1h0a7.76,7.76,0,0,1,3.85,2,6.57,6.57,0,0,0,1.27-5.06A4.34,4.34,0,0,0,227,85c-.4,0-.8-.12-1.2-.19a.37.37,0,0,1-.31-.4.36.36,0,0,1,.36-.34,4.09,4.09,0,0,1,1.3.19,4.72,4.72,0,0,0,3.35-.54,6.49,6.49,0,0,0,1.62-2,8.88,8.88,0,0,1,1.26-1.77c-.59,0-1.18,0-1.75-.09a20.55,20.55,0,0,0-2.48-.08,3.19,3.19,0,0,0-2.77,1.3,1.17,1.17,0,0,1-.66,1.09.36.36,0,0,1-.43,0,.37.37,0,0,1-.09-.43,5.37,5.37,0,0,1,.43-.83s0-.1,0-.16a3.59,3.59,0,0,1,0-1,5.69,5.69,0,0,0-.13-2.52,11.76,11.76,0,0,0-1.74-3.89,5.9,5.9,0,0,1-1.71,2.1l-.52.42a7.69,7.69,0,0,0-1.76,1.75,2.21,2.21,0,0,0,0,2.58.37.37,0,0,1,0,.52.37.37,0,0,1-.52,0c-1.39-1.38-3.75-.74-4.44-.51s-1.17.45-1.74.7a15.23,15.23,0,0,1-2.65,1,6.42,6.42,0,0,0,3.23,3.08,6.32,6.32,0,0,0,3.36.41,2.68,2.68,0,0,1,1.71-.45.38.38,0,0,1,.33.32.38.38,0,0,1-.22.4,7,7,0,0,1-1.55.45,3,3,0,0,0-.76.89,7,7,0,0,0-.67,2.84l0,.2c0,.38-.06.76-.11,1.15h0a3.39,3.39,0,0,1,1.46.27c.15,0,.31.11.47.15A3.59,3.59,0,0,0,222,89.3c0-.1.06-.2.1-.31a.38.38,0,0,1,.47-.21.37.37,0,0,1,.24.46C222.78,89.34,222.75,89.44,222.71,89.54Z"/><path class="cls-1" d="M221.94,84.72a1.43,1.43,0,0,1-.29,0,1.18,1.18,0,0,1-.78-.6.87.87,0,0,1,0-.77,1,1,0,0,1,.82-.55,2.09,2.09,0,0,1,1.51-.17.89.89,0,0,1,.6.4.86.86,0,0,1-.13,1,1.67,1.67,0,0,1-.66.42A2.52,2.52,0,0,1,221.94,84.72Zm-.38-.94a.42.42,0,0,0,.24.18,1.73,1.73,0,0,0,.89-.2,1.23,1.23,0,0,0,.39-.24.14.14,0,0,0,0-.13h0a.43.43,0,0,0-.15-.07h-.08a.29.29,0,0,1,0,.18.37.37,0,0,1-.49.2,1.76,1.76,0,0,0-.52-.17,1.12,1.12,0,0,0-.26.22S221.57,83.77,221.56,83.78Z"/><path class="cls-1" d="M218.3,164.24a.37.37,0,0,1-.37-.34.38.38,0,0,1,.34-.41c3.09-.25,3.51-.35,5-.92a7.42,7.42,0,0,0,2.94-1.8,2.69,2.69,0,0,0,.53-3,3.41,3.41,0,0,0-1.26-1.16c-1-.64-3-1.7-4.4-1.62a1.12,1.12,0,0,0-.75.31h0a.46.46,0,0,1-.07.07,4.6,4.6,0,0,0-.58.82,5.31,5.31,0,0,1-1.14,1.43A14.68,14.68,0,0,1,214,159.8l-1.13.39a10.68,10.68,0,0,0-4.37,2.91.4.4,0,0,1-.27.12.4.4,0,0,1-.27-.11c-1.87-1.9-1-6.51,0-8.45a9.4,9.4,0,0,1,6.92-4.89,5.51,5.51,0,0,1,5.22,2,3.48,3.48,0,0,1,.44,2.55,2.65,2.65,0,0,1,.42-.06c1.66-.08,3.75,1.05,4.84,1.73a4.26,4.26,0,0,1,1.51,1.43,3.44,3.44,0,0,1-.61,3.82,7.93,7.93,0,0,1-3.23,2c-1.6.63-2.13.73-5.19,1Zm-2.51-13.78a4.74,4.74,0,0,0-.75.06,8.62,8.62,0,0,0-6.37,4.49c-.87,1.68-1.6,5.53-.4,7.27a11.26,11.26,0,0,1,4.36-2.79l1.15-.4a14.23,14.23,0,0,0,4.25-2,4.43,4.43,0,0,0,1-1.23,5.09,5.09,0,0,1,.69-1,3.37,3.37,0,0,0-.15-2.65A4.57,4.57,0,0,0,215.79,150.46Z"/><path class="cls-1" d="M203.48,160.93l-.1,0a4.37,4.37,0,0,1-2.5-3,19.12,19.12,0,0,1-.69-3.83,5,5,0,0,1,.69-3.37,2,2,0,0,1,2-.87,2.68,2.68,0,0,1,1.22.81c.65.64,1.4,1.4,2.15,2.17s1.49,1.51,2.15,2.16a.39.39,0,0,1,0,.53.37.37,0,0,1-.53,0c-.65-.64-1.4-1.41-2.15-2.17s-1.5-1.52-2.15-2.16a2.1,2.1,0,0,0-.86-.61,1.31,1.31,0,0,0-1.23.59,4.3,4.3,0,0,0-.54,2.87,17.56,17.56,0,0,0,.66,3.67,3.73,3.73,0,0,0,2,2.45.38.38,0,0,1-.1.74Z"/><path class="cls-1" d="M204.68,152.16a.37.37,0,0,1-.36-.27,10.23,10.23,0,0,0-.68-1.61,6,6,0,0,1-.94-3.16,6.71,6.71,0,0,1,1.91-4,4.84,4.84,0,0,1,4.22-1.31,3.43,3.43,0,0,1,2.85,3,.36.36,0,0,1-.32.41.37.37,0,0,1-.42-.32,2.67,2.67,0,0,0-2.26-2.33,4,4,0,0,0-3.55,1.12,5.85,5.85,0,0,0-1.68,3.53,5.66,5.66,0,0,0,.86,2.73,10.17,10.17,0,0,1,.73,1.74.37.37,0,0,1-.26.46Z"/><path class="cls-1" d="M210.11,152.61a.38.38,0,0,1-.37-.31,11.47,11.47,0,0,1,3.66-10.46,7,7,0,0,1,3.73-1.83,4.24,4.24,0,0,1,3.91,1.51,4.72,4.72,0,0,1-.15,5.2,13,13,0,0,1-3.88,3.47.38.38,0,0,1-.42-.63,12.31,12.31,0,0,0,3.66-3.24,4,4,0,0,0,.19-4.35,3.49,3.49,0,0,0-3.22-1.22,6.36,6.36,0,0,0-3.33,1.66,10.69,10.69,0,0,0-3.41,9.76.38.38,0,0,1-.31.43Z"/><path class="cls-1" d="M220.64,153.18a.37.37,0,0,1-.08-.74,3.38,3.38,0,0,0,2.16-1.81,3.54,3.54,0,0,0,.26-3,1.72,1.72,0,0,0-2.15-1,.38.38,0,0,1-.24-.72,2.48,2.48,0,0,1,3.08,1.42,4.27,4.27,0,0,1-.29,3.63,4.06,4.06,0,0,1-2.67,2.19Z"/><path class="cls-1" d="M222.44,146.78a.36.36,0,0,1-.22-.07.37.37,0,0,1-.08-.52l.41-.58c.7-1,1.42-2.05,2.78-2.28a8.49,8.49,0,0,1,1.94,0,6.54,6.54,0,0,0,2,0,2.18,2.18,0,0,1-.82-1.55,5,5,0,0,1,.58-2.29,6,6,0,0,0,.44-1.3,5.39,5.39,0,0,1-3.38.72.36.36,0,0,1-.21-.11c-.24-.22-.52-.73.25-1.66a.76.76,0,0,0,.18-.54l-.23.1a2.59,2.59,0,0,0-1.33,1.51,3.29,3.29,0,0,1-1.69,1.88,20.85,20.85,0,0,1-2,.77,10,10,0,0,1-1.3.14h-.15a.34.34,0,0,1-.26,0,.43.43,0,0,1-.34-.41c0-.34.31-.36.7-.39a9.7,9.7,0,0,0,1.2-.13c.2,0,1.52-.58,1.77-.7a2.56,2.56,0,0,0,1.34-1.52,3.24,3.24,0,0,1,1.69-1.87,1,1,0,0,1,.79-.13.7.7,0,0,1,.48.49,1.45,1.45,0,0,1-.32,1.22,1.4,1.4,0,0,0-.33.57,4.81,4.81,0,0,0,3.26-1,.36.36,0,0,1,.37-.06.38.38,0,0,1,.23.3,4.46,4.46,0,0,1-.51,2.35,4.48,4.48,0,0,0-.53,2c0,.54.45,1.16,1,1.16a.38.38,0,0,1,.34.24.35.35,0,0,1-.08.4c-.79.78-2.05.65-3.27.53a7,7,0,0,0-1.74-.05c-1,.17-1.62,1-2.28,2l-.43.6A.36.36,0,0,1,222.44,146.78Z"/><path class="cls-1" d="M209.46,142.68a.38.38,0,0,1-.37-.32,6.81,6.81,0,0,1,8.47-7.63,5.33,5.33,0,0,1,2.28,1.31c1.17,1.1,1.24,3.1.16,4.85a.37.37,0,1,1-.63-.39c.87-1.43.85-3.07,0-3.92a4.63,4.63,0,0,0-2-1.12,6.05,6.05,0,0,0-7.53,6.79.37.37,0,0,1-.32.42Z"/><path class="cls-1" d="M214.29,129.38a1.29,1.29,0,0,1-.52-.15c-.71-.35-5.25-3.17-6.14-4.62a6.66,6.66,0,0,1-1.06-3.22,4,4,0,0,1,1.33-3.18,2.91,2.91,0,0,1,3.44-.22,3.5,3.5,0,0,1,1.31,2.5,11.46,11.46,0,0,1,0,1.65c0,.33,0,.66,0,1a8.56,8.56,0,0,0,.82,3.35,9.4,9.4,0,0,0,.51.87c.59.94.95,1.52.63,1.88A.48.48,0,0,1,214.29,129.38Zm0-.75h0Zm-4.47-10.36a2.34,2.34,0,0,0-1.45.52,3.2,3.2,0,0,0-1.05,2.58,5.74,5.74,0,0,0,1,2.84h0c.68,1.11,4.29,3.46,5.52,4.17l-.39-.64a9.14,9.14,0,0,1-.56-.95,9.28,9.28,0,0,1-.89-3.64c0-.34,0-.68,0-1a11.23,11.23,0,0,0,0-1.54,2.89,2.89,0,0,0-1-2A1.87,1.87,0,0,0,209.82,118.27Z"/><path class="cls-1" d="M207.85,129.13a7,7,0,0,1-2.45-.39,4,4,0,0,1-2.61-2.73,2.31,2.31,0,0,1,.59-2.21,4.25,4.25,0,0,1,2.13-.72,4.36,4.36,0,0,0,1.55-.41.38.38,0,0,1,.4.64,5,5,0,0,1-1.83.52,3.66,3.66,0,0,0-1.74.52,1.59,1.59,0,0,0-.36,1.5,3.21,3.21,0,0,0,2.13,2.19,7.94,7.94,0,0,0,3.36.29,43.76,43.76,0,0,1,4.69,0,.37.37,0,0,1,.35.39.35.35,0,0,1-.39.36,43.93,43.93,0,0,0-4.59-.06C208.69,129.1,208.28,129.13,207.85,129.13Z"/><path class="cls-1" d="M214.56,128.54a.38.38,0,0,1-.38-.36,12.75,12.75,0,0,1,1.54-5.57,12,12,0,0,0,1.47-5.25,2,2,0,0,0-.4-1.3,1.79,1.79,0,0,0-1.63-.39,3.76,3.76,0,0,0-3,3.06.37.37,0,0,1-.74-.12,4.51,4.51,0,0,1,3.64-3.68,2.47,2.47,0,0,1,2.3.63,2.7,2.7,0,0,1,.6,1.77,12.64,12.64,0,0,1-1.53,5.58,12.11,12.11,0,0,0-1.48,5.24.37.37,0,0,1-.36.39Z"/><path class="cls-1" d="M217.71,119.32a.38.38,0,0,1-.1-.74,6.73,6.73,0,0,1,1.68-.24,4.18,4.18,0,0,0,1.86-.41,4.25,4.25,0,0,0,2.19-3.44,2,2,0,0,0-.21-1.13,2.09,2.09,0,0,0-1.08-.76,4.51,4.51,0,0,0-5.73,2.64.38.38,0,0,1-.49.21.37.37,0,0,1-.21-.48,5.25,5.25,0,0,1,6.68-3.07,2.73,2.73,0,0,1,1.47,1.07,2.7,2.7,0,0,1,.32,1.56,5,5,0,0,1-2.59,4.06,4.86,4.86,0,0,1-2.17.5,6.08,6.08,0,0,0-1.51.21Z"/><path class="cls-1" d="M214.17,131.33h0a.38.38,0,0,1-.38-.38c0-3.81,3.61-5.24,5.53-6,.36-.15.72-.28,1.09-.42A12.84,12.84,0,0,0,225,122a2.59,2.59,0,0,0,.92-2.19,2.05,2.05,0,0,0-1.42-1.37,6.86,6.86,0,0,0-2.31-.21.4.4,0,0,1-.38-.36.37.37,0,0,1,.36-.39,7.55,7.55,0,0,1,2.56.24,2.78,2.78,0,0,1,1.92,1.93,3.2,3.2,0,0,1-1.12,2.89,13.62,13.62,0,0,1-4.9,2.67l-1.07.41c-1.88.76-5,2-5.06,5.33A.37.37,0,0,1,214.17,131.33Z"/><path class="cls-1" d="M179,154.88a.91.91,0,0,1-.49-.15c-.91-.6-1.35-3-.79-4.41.16-.42.3-.85.43-1.26.45-1.4.91-2.85,2.5-3.46a20.54,20.54,0,0,1,5.92-1.08c.91-.07,2.6-.2,3.62.83a3.2,3.2,0,0,1,0,4.05,8.39,8.39,0,0,1-3.28,2.3,11.38,11.38,0,0,1-2.78.75,11.63,11.63,0,0,0-2.6.69l-.41.2a1.6,1.6,0,0,0-.73.54l-.61.64A1,1,0,0,1,179,154.88Zm8.56-9.65c-.31,0-.63,0-.93,0a19.92,19.92,0,0,0-5.71,1c-1.25.48-1.62,1.64-2.05,3-.14.43-.28.87-.46,1.31h0c-.46,1.16,0,3.17.51,3.5,0,0,.11.08.29-.11l.6-.62a2.16,2.16,0,0,1,1-.71l.4-.19a11.8,11.8,0,0,1,2.79-.75,11.78,11.78,0,0,0,2.6-.69,8,8,0,0,0,3-2.08,2.47,2.47,0,0,0,.09-3.07A2.85,2.85,0,0,0,187.6,145.23Zm-9.5,5.23h0Z"/><path class="cls-1" d="M191.6,158.13a17.37,17.37,0,0,1-4-.62l-1.23-.28c-.52-.1-1.06-.25-1.62-.4-2.36-.63-5-1.35-7.24.39a.37.37,0,0,1-.46-.59c2.51-2,5.37-1.2,7.89-.53.55.15,1.08.29,1.59.4l1.24.28a16.46,16.46,0,0,0,4,.6c1.47,0,3.45-.67,4.22-2.31a4,4,0,0,0-1.22-4.55,5.75,5.75,0,0,0-4.49-1.41.38.38,0,1,1-.05-.75,6.53,6.53,0,0,1,5,1.59,4.74,4.74,0,0,1,1.41,5.43,5.43,5.43,0,0,1-4.88,2.75Z"/><path class="cls-1" d="M178.83,148.71a.38.38,0,0,1-.36-.26,30.71,30.71,0,0,0-2.17-4.63,12.34,12.34,0,0,1-1.71-4.39,5.2,5.2,0,0,1,1.41-4.57,4.8,4.8,0,0,1,5.68-.34,7.32,7.32,0,0,1,3.14,4.85,17,17,0,0,1,0,5.75.39.39,0,0,1-.43.32A.38.38,0,0,1,184,145a16,16,0,0,0,.05-5.49,6.53,6.53,0,0,0-2.79-4.36,4.11,4.11,0,0,0-4.79.25,4.56,4.56,0,0,0-1.17,3.92,11.75,11.75,0,0,0,1.62,4.13,29.74,29.74,0,0,1,2.23,4.76.36.36,0,0,1-.24.47A.2.2,0,0,1,178.83,148.71Z"/><path class="cls-1" d="M184.4,145.44a.41.41,0,0,1-.3-.14.38.38,0,0,1,.06-.53c.6-.47,1.43-1.06,2.31-1.69a40,40,0,0,0,4.13-3.18,5.48,5.48,0,0,0,2-3.11,3.63,3.63,0,0,0-2-3.29,5.1,5.1,0,0,0-7.33,2.75.38.38,0,1,1-.71-.25,5.85,5.85,0,0,1,8.41-3.15,4.38,4.38,0,0,1,2.36,4,6.11,6.11,0,0,1-2.2,3.58,41.37,41.37,0,0,1-4.22,3.26c-.87.61-1.69,1.2-2.27,1.66A.4.4,0,0,1,184.4,145.44Z"/><path class="cls-1" d="M190.57,148.71a.38.38,0,0,1-.38-.36.38.38,0,0,1,.36-.39,10.78,10.78,0,0,0,8.28-5,3.81,3.81,0,0,0,.64-2.42c-.1-.7-.28-.8-1.65-1.41a7.66,7.66,0,0,0-5.77.38.38.38,0,1,1-.32-.68,8.45,8.45,0,0,1,6.36-.4c1.39.61,2,.86,2.13,2a4.61,4.61,0,0,1-.74,2.89,11.61,11.61,0,0,1-8.9,5.34Z"/><path class="cls-1" d="M198.64,139.52a.37.37,0,0,1-.36-.3.36.36,0,0,1,.28-.44l1.08-.22c1.75-.35,3.57-.71,4.72-1.84a3.47,3.47,0,0,0,.86-1.2,3,3,0,0,0-.55-2.59c-1.62-2.47-4.8-2.45-7.24-1.62a9.5,9.5,0,0,0-4.93,3.06.38.38,0,0,1-.53.07.39.39,0,0,1-.07-.53,10.19,10.19,0,0,1,5.28-3.31c2.58-.88,6.26-.91,8.12,1.91a3.85,3.85,0,0,1,.63,3.26,4.07,4.07,0,0,1-1,1.48c-1.32,1.29-3.33,1.69-5.11,2l-1.05.22Z"/><path class="cls-1" d="M190.26,133.18a.38.38,0,0,1-.35-.22c-.17-.39-.35-.78-.54-1.16-.29-.6-.59-1.22-.83-1.87a6.42,6.42,0,0,1-.43-3.44,3.57,3.57,0,0,1,2.23-2.73c1.64-.55,3.52-1,5-.12l.11.07c1.26.76,4.22,2.55,3.15,7a.36.36,0,0,1-.45.28.38.38,0,0,1-.28-.45c.94-4-1.59-5.5-2.81-6.24l-.11-.07c-1.25-.76-2.93-.3-4.41.19a2.79,2.79,0,0,0-1.73,2.17,5.62,5.62,0,0,0,.39,3c.23.61.52,1.21.8,1.8.19.39.39.79.56,1.19a.37.37,0,0,1-.19.49Z"/><path class="cls-1" d="M184.19,134a.36.36,0,0,1-.37-.34,26.12,26.12,0,0,0-.9-5.42,8.33,8.33,0,0,0-3-4.34.39.39,0,0,1-.13-.45.36.36,0,0,1,.4-.23l1.77.25,1.05-3.86a.37.37,0,0,1,.67-.11l1.47,2.12a5.33,5.33,0,0,1,2.66-2.13.37.37,0,0,1,.38.07.36.36,0,0,1,.11.37,27.67,27.67,0,0,0-.14,12.38.36.36,0,0,1-.28.44.37.37,0,0,1-.45-.28,28.41,28.41,0,0,1,0-12,4.49,4.49,0,0,0-1.88,2,.38.38,0,0,1-.31.21.41.41,0,0,1-.34-.17l-1.34-2-.93,3.4a.38.38,0,0,1-.42.27l-.81-.12a9.93,9.93,0,0,1,2.22,3.87,26.13,26.13,0,0,1,.93,5.58.37.37,0,0,1-.33.41Z"/><path class="cls-1" d="M213,116.64a.38.38,0,0,1-.35-.24c-.82-2-2.51-2.8-5-3.43-.41-.1-.84-.18-1.27-.25a6.14,6.14,0,0,1-3.43-1.33,4.18,4.18,0,0,1-1-4,5.57,5.57,0,0,1,10.25-1.56,10.91,10.91,0,0,1,1.09,4.78,9.9,9.9,0,0,0,1.06,4.54.37.37,0,1,1-.64.39,10.5,10.5,0,0,1-1.16-4.87,10.4,10.4,0,0,0-1-4.46,4.82,4.82,0,0,0-8.87,1.35,3.47,3.47,0,0,0,.77,3.25,5.54,5.54,0,0,0,3,1.13c.45.08.9.16,1.34.27,2.1.53,4.44,1.32,5.49,3.87a.38.38,0,0,1-.21.49A.32.32,0,0,1,213,116.64Z"/><path class="cls-1" d="M203.92,105.18a.38.38,0,0,1-.17,0,7.22,7.22,0,0,1-3.44-5.5,4.65,4.65,0,0,1,.44-3.28,3.73,3.73,0,0,1,4.47-1.19,6.54,6.54,0,0,1,3.2,3.4,8.44,8.44,0,0,1,.78,4.67.36.36,0,0,1-.42.32.38.38,0,0,1-.32-.43,7.63,7.63,0,0,0-.73-4.25,5.75,5.75,0,0,0-2.8-3,2.94,2.94,0,0,0-3.54.89,3.89,3.89,0,0,0-.34,2.76,6.5,6.5,0,0,0,3,5,.39.39,0,0,1,.16.51A.38.38,0,0,1,203.92,105.18Z"/><path class="cls-1" d="M212.45,107.34h0a.37.37,0,0,1-.35-.34v-.13a.36.36,0,0,1,.06-.25l.72-3.85a3,3,0,0,0,0-1.42,1.72,1.72,0,0,0-.85-.88,2.23,2.23,0,0,0-1.85-.11c-.17.07-.34.12-.49.17-.45.14-.5.17-.53.48a.38.38,0,0,1-.75-.07c.07-.82.6-1,1.06-1.13.13,0,.27-.08.42-.14a3,3,0,0,1,2.49.14,2.38,2.38,0,0,1,1.2,1.29,3.54,3.54,0,0,1,0,1.8l-.77,4.13A.38.38,0,0,1,212.45,107.34Z"/><path class="cls-1" d="M212.88,109.92h0a.38.38,0,0,1-.36-.39c0-.49,0-1,0-1.38-.06-.86-.1-1.48.29-1.8a2.39,2.39,0,0,1,1.72-.36,21.14,21.14,0,0,0,6.34-.63,5,5,0,0,0,2.67-1.39,3.4,3.4,0,0,0-.67-4.5,5.66,5.66,0,0,0-5-.89,15.66,15.66,0,0,0-4.7,2.21.37.37,0,1,1-.39-.64,16.52,16.52,0,0,1,4.91-2.3,6.45,6.45,0,0,1,5.66,1.05,4.12,4.12,0,0,1,.75,5.55,5.61,5.61,0,0,1-3.06,1.63,21.64,21.64,0,0,1-6.56.66,1.84,1.84,0,0,0-1.2.18,3.56,3.56,0,0,0,0,1.18c0,.43.06.93,0,1.46A.38.38,0,0,1,212.88,109.92Z"/><path class="cls-1" d="M216.27,99a.38.38,0,0,1-.37-.34,9,9,0,0,0-6-7.37,5,5,0,0,0-3,0,2.86,2.86,0,0,0-1.87,2c-.2,1,.75,2,1.34,2.56a.38.38,0,0,1,0,.53.37.37,0,0,1-.53,0c-.86-.78-1.83-2-1.57-3.27a3.6,3.6,0,0,1,2.36-2.57,5.74,5.74,0,0,1,3.42,0,9.61,9.61,0,0,1,6.58,8,.38.38,0,0,1-.34.41Z"/><path class="cls-1" d="M223.16,99.52a.37.37,0,0,1-.31-.17.38.38,0,0,1,.11-.52,3.38,3.38,0,0,0,0-5.65c-1.25-.82-2.91-.74-4.64-.58a4.79,4.79,0,0,0-1.94.45,2.31,2.31,0,0,0-1,1.81.36.36,0,0,1-.28.44.38.38,0,0,1-.45-.28A3,3,0,0,1,216,92.4a5.39,5.39,0,0,1,2.24-.55c1.87-.17,3.67-.25,5.12.71a4.12,4.12,0,0,1,0,6.9A.42.42,0,0,1,223.16,99.52Z"/><path class="cls-1" d="M224.64,102.37a.38.38,0,0,1-.37-.32.39.39,0,0,1,.31-.43,11.58,11.58,0,0,0,4.08-1.32,4.69,4.69,0,0,0,2.54-3.44,1.94,1.94,0,0,0-.43-1.57,2.79,2.79,0,0,0-1.45-.63,24.72,24.72,0,0,0-5-.57.38.38,0,0,1-.37-.38.37.37,0,0,1,.38-.37h0a25.49,25.49,0,0,1,5.15.59,3.38,3.38,0,0,1,1.83.84,2.67,2.67,0,0,1,.64,2.17,5.46,5.46,0,0,1-2.92,4,12.33,12.33,0,0,1-4.32,1.4Z"/><path class="cls-1" d="M210.67,91.46a.36.36,0,0,1-.32-.18,5.57,5.57,0,0,1-1.06-3.16,4.74,4.74,0,0,1,3-4,.38.38,0,0,1,.27.7A4,4,0,0,0,210,88.18a4.92,4.92,0,0,0,1,2.71.37.37,0,0,1-.12.51A.39.39,0,0,1,210.67,91.46Z"/><path class="cls-1" d="M210.52,86.12a.38.38,0,0,1-.37-.31,4,4,0,0,0-2-2.64c-.21-.16-.44-.33-.67-.52-1.31-1.07-2.94-2.39-3.38-4.29a5.07,5.07,0,0,1,2.37-5.25,7,7,0,0,1,5.78-.58,7,7,0,0,1,3.56,2.35,5.62,5.62,0,0,1,.78,4.66.36.36,0,0,1-.47.24.37.37,0,0,1-.24-.47,4.87,4.87,0,0,0-.68-4,6.13,6.13,0,0,0-3.16-2.08,6.42,6.42,0,0,0-5.18.5,4.3,4.3,0,0,0-2,4.44c.38,1.65,1.9,2.88,3.12,3.88l.66.51a4.69,4.69,0,0,1,2.24,3.1.36.36,0,0,1-.3.43Z"/><path class="cls-1" d="M216.29,76.43l-.13,0a.39.39,0,0,1-.22-.49,4.78,4.78,0,0,1,3-2.84A3.87,3.87,0,0,1,221,73a2.84,2.84,0,0,1,1.77,1.27.38.38,0,0,1-.13.51.38.38,0,0,1-.52-.13,2.06,2.06,0,0,0-1.3-.92,3.07,3.07,0,0,0-1.71.1,4.12,4.12,0,0,0-2.5,2.4A.37.37,0,0,1,216.29,76.43Z"/><path class="cls-1" d="M228.51,94.21a.38.38,0,0,1-.36-.28.38.38,0,0,1,.27-.46c1.28-.34,2.57-.73,3.82-1.17s2.82-1.13,3.29-2.4a3,3,0,0,0-.57-2.83,5.17,5.17,0,0,0-2.68-1.6,15.85,15.85,0,0,0-3.3-.41.38.38,0,0,1-.35-.4.38.38,0,0,1,.39-.35,16.88,16.88,0,0,1,3.45.43,5.83,5.83,0,0,1,3.07,1.86,3.74,3.74,0,0,1,.7,3.56c-.59,1.56-2.23,2.32-3.76,2.85-1.27.44-2.57.84-3.87,1.18Z"/><path class="cls-1" d="M244.05,97.72a.39.39,0,0,1-.25-.1,9.33,9.33,0,0,0-12-.59.38.38,0,0,1-.53-.07.39.39,0,0,1,.07-.53,10.07,10.07,0,0,1,12.44.22,6.37,6.37,0,0,0-.2-1.8,6.22,6.22,0,0,1-.15-2.47,4.7,4.7,0,0,1,2.08-2.73h-1.7a.36.36,0,0,1-.27-.12.37.37,0,0,1-.11-.27l.06-2.78c-2.1,2-5.19,3.84-7.62,3.92h0a.38.38,0,0,1-.37-.37.36.36,0,0,1,.36-.38c2.48-.09,5.86-2.3,7.77-4.35a.38.38,0,0,1,.65.26l-.07,3.34h2.58a.37.37,0,0,1,.2.69c-1.26.78-2.52,1.65-2.8,3a5.37,5.37,0,0,0,.15,2.16,5.31,5.31,0,0,1,.06,2.77.41.41,0,0,1-.27.24Z"/><path class="cls-1" d="M233.24,83.52a4.42,4.42,0,0,1-1.47-.26.38.38,0,0,1-.22-.48.37.37,0,0,1,.48-.23,3.71,3.71,0,0,0,3.84-.87,4.92,4.92,0,0,0,1.45-4,4.27,4.27,0,0,0-1-2.5,4.83,4.83,0,0,0-2.69-1.34,15,15,0,0,0-3.21-.11.36.36,0,0,1-.39-.36.37.37,0,0,1,.36-.39,15.92,15.92,0,0,1,3.37.12,5.58,5.58,0,0,1,3.11,1.58,5,5,0,0,1,1.24,2.93,5.68,5.68,0,0,1-1.69,4.64A4.64,4.64,0,0,1,233.24,83.52Z"/><path class="cls-1" d="M179.82,193.21a.4.4,0,0,1-.31-.16.38.38,0,0,1,.1-.52c3.64-2.53,4.35-3.17,5.38-4.93a9.69,9.69,0,0,0,.85-2,6.68,6.68,0,0,1,1.48-2.81c1.58-1.71,4.89-2.76,7.06-2.76h0c2.42,0,4.39.15,5.92,1.83a4,4,0,0,1,1.09,2.43,6.47,6.47,0,0,1-.92,3.31c-1.2,1.5-3.31,1.58-5.17,1.64l-.61,0c-.87,0-1.74,0-2.59,0a23.2,23.2,0,0,0-3.23,0c-.53,0-1,0-1.53,0-1.29,0-2.3-.05-3.28,1.05a.38.38,0,0,1-.41.1,41,41,0,0,1-3.64,2.71A.36.36,0,0,1,179.82,193.21Zm14.56-12.46c-2,0-5.07,1-6.51,2.52a6.06,6.06,0,0,0-1.32,2.53,10.17,10.17,0,0,1-.91,2.18c-.16.27-.32.52-.47.75a6.64,6.64,0,0,1,2.21-.2,14,14,0,0,0,1.44,0,24.86,24.86,0,0,1,3.34,0c.83,0,1.68.07,2.52,0l.62,0c1.79-.07,3.63-.14,4.62-1.37a5.84,5.84,0,0,0,.75-2.79,3.28,3.28,0,0,0-.89-2c-1.33-1.45-3.14-1.57-5.37-1.58Z"/><path class="cls-1" d="M187,184.08a.25.25,0,0,1-.12,0,.36.36,0,0,1-.23-.47,5.57,5.57,0,0,0-.56-3.86c-.57-.92-1.44-2.3-1.05-3.69a3.15,3.15,0,0,1,1.49-1.83,6.58,6.58,0,0,1,2.13-.71A4,4,0,0,1,192,174a5.52,5.52,0,0,1,1.69,3.5c.14,1.73.52,2.47,1.28,2.47a.38.38,0,0,1,0,.75c-1.78,0-2-2.29-2-3.16a4.86,4.86,0,0,0-1.43-3,3.25,3.25,0,0,0-2.75-.37,5.61,5.61,0,0,0-1.88.62,2.4,2.4,0,0,0-1.15,1.37c-.27,1,.3,2,1,3.1a6.27,6.27,0,0,1,.64,4.5A.39.39,0,0,1,187,184.08Z"/><path class="cls-1" d="M201.61,183.32a3.49,3.49,0,0,1-.76-.09.37.37,0,1,1,.16-.73c1.21.27,2-.19,2.84-1.59a3.45,3.45,0,0,0-.44-3.91,5.28,5.28,0,0,0-3.55-1.4,6.35,6.35,0,0,0-3.77.84,3.53,3.53,0,0,0-1.68,3.15.39.39,0,0,1-.33.42.37.37,0,0,1-.41-.34,4.23,4.23,0,0,1,2-3.86,7,7,0,0,1,4.22-.95,5.92,5.92,0,0,1,4.06,1.63,4.19,4.19,0,0,1,.54,4.8A3.41,3.41,0,0,1,201.61,183.32Z"/><path class="cls-1" d="M243.16,184.42a.38.38,0,0,1-.24-.09,80.78,80.78,0,0,0-34-16.94c-9.45-2.08-23.17-3.07-34.89,4a.37.37,0,1,1-.38-.64c11.93-7.24,25.85-6.24,35.43-4.14a81.69,81.69,0,0,1,34.37,17.11.39.39,0,0,1,0,.53A.37.37,0,0,1,243.16,184.42Z"/></svg>