<svg id="Camada_1" data-name="Camada 1" xmlns="http://www.w3.org/2000/svg" viewBox="0 0 249.19 294.63"><defs><style>.cls-1{fill:#745d79;}</style></defs><path class="cls-1" d="M108.5,257.93a.57.57,0,0,1-.35-.12A.59.59,0,0,1,108,257c.28-.39,28-39.35,26.87-121a.61.61,0,0,1,.59-.61h0a.59.59,0,0,1,.6.59c.59,42.87-6.8,73.66-13.1,91.93-6.84,19.84-13.93,29.68-14,29.77A.59.59,0,0,1,108.5,257.93Z"/><path class="cls-1" d="M146.75,134.48c-9.52,0-11.74-21.32-11.83-22.24a140.82,140.82,0,0,0-6-35.5.6.6,0,0,1,.8-.74c7.57,3.21,9.63,2.45,9.65,2.45a.62.62,0,0,1,.75.21c14.2,21.56,16.92,42.78,12.26,51.81-1.31,2.54-3.18,3.93-5.39,4ZM130.44,77.59a145.22,145.22,0,0,1,5.67,34.57c0,.18,2.2,21.12,10.65,21.12h.18c2.22-.08,3.6-1.87,4.37-3.36,3.83-7.43,2.63-27.89-12-50.24C138.35,79.85,135.89,79.78,130.44,77.59Z"/><path class="cls-1" d="M134.85,136a5.61,5.61,0,0,1-3.79-1.65c-4.18-3.79-5.89-16.11-4.36-31.39a160,160,0,0,0,.65-25.8L127.28,76a.61.61,0,0,1,.8-.6l1.6.57a.6.6,0,0,1-.41,1.13l-.74-.26,0,.21a161.23,161.23,0,0,1-.66,26c-1.47,14.68.13,26.9,4,30.39a4.2,4.2,0,0,0,3.58,1.28c2.94-.5,5.15-4.5,5.17-4.54a.61.61,0,0,1,.82-.24.6.6,0,0,1,.24.81c-.1.19-2.51,4.55-6,5.15A4.4,4.4,0,0,1,134.85,136Z"/><path class="cls-1" d="M125.8,137.81a5.87,5.87,0,0,1-2.21-.44c-4.86-1.94-3.61-12.75-3.55-13.21l7.25-48.27a.6.6,0,1,1,1.18.18l-7.24,48.25c-.35,2.86-.52,10.6,2.8,11.93,3.94,1.58,6.49-2.51,6.59-2.68a.61.61,0,0,1,.83-.2.6.6,0,0,1,.2.82C130.79,135.62,128.64,137.81,125.8,137.81Z"/><path class="cls-1" d="M113.16,135.05h-.37c-2.73-.12-4.49-3-5.22-8.47a36.9,36.9,0,0,1,.67-13c1.92-8.55,6.63-25,16.61-39.21a.6.6,0,0,1,1,.69c-9.86,14-14.53,30.32-16.43,38.78a35.48,35.48,0,0,0-.65,12.54c.44,3.33,1.51,7.32,4.08,7.43,5.26.24,7-5,7.07-5.2a.6.6,0,1,1,1.14.36C121,129.08,119,135.05,113.16,135.05Z"/><path class="cls-1" d="M103.69,132.56a4.46,4.46,0,0,1-1.68-.32c-2.13-.86-3.66-3.87-2.52-7.45a11.65,11.65,0,0,1,3.31-5c1.68-1.58,6.25-9.6,6.29-9.68a.6.6,0,0,1,1,.6c-.19.33-4.7,8.25-6.52,10a10.47,10.47,0,0,0-3,4.44c-.92,2.9.2,5.31,1.82,6,2.81,1.12,5.56-2.15,5.59-2.19a.6.6,0,1,1,.92.77C108.85,129.83,106.57,132.56,103.69,132.56Z"/><path class="cls-1" d="M97.69,125.08a7.65,7.65,0,0,1-5.48-1.89c-2.54-2.44-2.08-6.28-2.06-6.44,3.17-26.2,29-46.46,29.29-46.66a.6.6,0,0,1,.84.11.59.59,0,0,1-.11.84c-.25.2-25.72,20.16-28.83,45.86,0,0-.4,3.42,1.71,5.43,1.49,1.43,3.91,1.87,7.18,1.31a.6.6,0,0,1,.69.49.59.59,0,0,1-.49.69A16,16,0,0,1,97.69,125.08Z"/><path class="cls-1" d="M84.66,114.63a5.74,5.74,0,0,1-4.19-1.5c-3.55-3.55,1.25-11.4,1.46-11.74.11-.19,12.63-22,34.57-33.56a.6.6,0,0,1,.56,1.07C95.43,80.24,83.08,101.79,83,102s-4.53,7.39-1.64,10.27,9.89-.6,10-.63a.6.6,0,0,1,.55,1.07A18.36,18.36,0,0,1,84.66,114.63Z"/><path class="cls-1" d="M76.47,106.41c-2,0-4.17-.43-5.56-2-3-3.49,5.32-12.78,6.28-13.82.17-.18,16.13-17.18,36.46-25.26a.59.59,0,0,1,.78.33.61.61,0,0,1-.33.78c-20.08,8-35.87,24.79-36,25-3.36,3.65-8,10.2-6.26,12.22,2.48,2.84,8.67,1.06,8.74,1a.59.59,0,0,1,.74.4.6.6,0,0,1-.4.75A17.62,17.62,0,0,1,76.47,106.41Z"/><path class="cls-1" d="M75.19,94A.57.57,0,0,1,75,94c-.13,0-3.15-1.27-4-3.47s-.94-7.06,8.44-13.9c10.77-7.86,19.45-11.4,33.15-13.52a.62.62,0,0,1,.69.51.6.6,0,0,1-.51.68c-13.48,2.08-22,5.56-32.63,13.3-9,6.61-8.62,10.94-8,12.49s2.59,2.5,3.32,2.79a.6.6,0,0,1,.34.78A.59.59,0,0,1,75.19,94Z"/><path class="cls-1" d="M78.12,79H78a3.65,3.65,0,0,1-3-4.27c.37-3.56,1.84-5.47,6.58-8.49s21.56-9.28,31.61-5.56a.6.6,0,0,1,.35.77.6.6,0,0,1-.77.36c-9.65-3.58-26,2.52-30.55,5.44-4.83,3.09-5.73,4.77-6,7.61a2.45,2.45,0,0,0,1.93,3A.6.6,0,0,1,78.12,79Z"/><path class="cls-1" d="M163.37,131.2c-4.47,0-9.51-9.71-10.09-10.86a.6.6,0,0,1,1.07-.54c1.51,3,6.13,10.64,9.28,10.18a3.43,3.43,0,0,0,2.75-2.31,6.29,6.29,0,0,0-.49-5.65c-3.27-5.52-14.48-25-21.58-43.23a.6.6,0,1,1,1.12-.43c7.06,18.17,18.24,37.54,21.5,43.05a7.56,7.56,0,0,1,.56,6.73,4.65,4.65,0,0,1-3.69,3A3.11,3.11,0,0,1,163.37,131.2Z"/><path class="cls-1" d="M172.74,126.45c-3.17,0-6-2.68-6.07-2.79a.6.6,0,1,1,.84-.86s2.63,2.49,5.33,2.45a4.16,4.16,0,0,0,3-1.43c1.59-1.69,1.86-3.79.79-6.22a7.44,7.44,0,0,0-2.37-2.92c-1.41-1.08-9.35-8-27.08-37.35a.6.6,0,0,1,1-.62c18,29.83,25.93,36.37,26.78,37a8.67,8.67,0,0,1,2.74,3.4,6.55,6.55,0,0,1-1,7.52,5.34,5.34,0,0,1-3.87,1.81Z"/><path class="cls-1" d="M179.33,117.43a4.39,4.39,0,0,1-3.64-1.4.6.6,0,1,1,1-.71c.07.09,1.59,1.91,6.21.17h0s2.9-1.55.56-8.71a42.84,42.84,0,0,0-3.13-7c-.09-.17-8.65-16.06-25.51-25.26a.62.62,0,0,1-.24-.82.61.61,0,0,1,.82-.24c17.18,9.39,25.9,25.59,26,25.75a43.22,43.22,0,0,1,3.22,7.16c2.71,8.28-1.08,10.12-1.24,10.19A11.38,11.38,0,0,1,179.33,117.43Z"/><path class="cls-1" d="M190.79,109.41c-2.94,0-6.57-2-7.1-2.29a.6.6,0,0,1,.59-1.05c1.74,1,6.63,3.18,8.35,1.57a5,5,0,0,0,1.3-3.56c.07-2.44-.92-7.66-8.2-15.23-9.67-10-26.48-17.31-26.65-17.39a.59.59,0,0,1-.32-.78.6.6,0,0,1,.79-.32c.17.07,17.2,7.43,27,17.66,7.58,7.88,8.6,13.46,8.53,16.09a6.09,6.09,0,0,1-1.68,4.4A3.76,3.76,0,0,1,190.79,109.41Z"/><path class="cls-1" d="M197.94,101.89a8.13,8.13,0,0,1-4.48-1.55.58.58,0,0,1-.13-.83.59.59,0,0,1,.83-.14c.17.12,4.07,2.88,6.48.1,1.22-1.42.22-4.08-.85-6.07a21.58,21.58,0,0,0-5.12-6.26c-4.74-4-17.34-14-31.71-18.65a.6.6,0,0,1-.38-.76.58.58,0,0,1,.75-.38c14.58,4.75,27.32,14.78,32.12,18.88a22.87,22.87,0,0,1,5.4,6.6c1.8,3.38,2,5.87.69,7.42A4.6,4.6,0,0,1,197.94,101.89Z"/><path class="cls-1" d="M195.88,88a.6.6,0,0,1-.09-1.2s1.51-.26,1.83-1.4-.15-3.59-6.45-9c-11.66-10-27.31-10.32-27.47-10.32a.61.61,0,0,1-.59-.61.6.6,0,0,1,.61-.59c.16,0,16.23.33,28.23,10.61,5.2,4.45,7.49,7.9,6.83,10.23A3.55,3.55,0,0,1,196,88Z"/><path class="cls-1" d="M142.9,79.54a6.47,6.47,0,0,1-.76-.05l-5.2-.7a4.51,4.51,0,0,1-.53-.1l-6.87-1.6a5.61,5.61,0,0,1-2-.92l-4.8-3.48-.29-.19-6-3.62a5.52,5.52,0,0,1-1.77-1.73l-1.37-2.1a5.47,5.47,0,0,1-.87-3V60.82a5.5,5.5,0,0,1,1.72-4l4.2-4a5.55,5.55,0,0,1,1.77-1.12l7-2.8L132,47.21a5.76,5.76,0,0,1,2.44-.32L146.58,48a5.68,5.68,0,0,1,2.61.91l6.92,4.58a5.41,5.41,0,0,1,.83.67l4.6,4.51a5.46,5.46,0,0,1,.82,1l1.13,1.82h0a5.46,5.46,0,0,1-.94,6.88L159.71,71l-3.24,2.81a5.49,5.49,0,0,1-1.73,1l-5.09,1.88a5.69,5.69,0,0,0-.56.26l-3.52,1.89A5.58,5.58,0,0,1,142.9,79.54Zm-9-31.47a4.4,4.4,0,0,0-1.53.27l-4.81,1.76-7,2.78a4.41,4.41,0,0,0-1.39.89L115,57.72a4.28,4.28,0,0,0-1.35,3.1v1.27a4.3,4.3,0,0,0,.68,2.31l1.36,2.1a4.37,4.37,0,0,0,1.39,1.35l6,3.63a2.92,2.92,0,0,1,.37.24l4.81,3.48a4.36,4.36,0,0,0,1.58.72l6.87,1.6a3.1,3.1,0,0,0,.42.08l5.2.7a4.52,4.52,0,0,0,2.7-.49l3.52-1.9a6.43,6.43,0,0,1,.71-.32l5.1-1.88a4.46,4.46,0,0,0,1.36-.81l3.22-2.8,2.83-2.62a4.25,4.25,0,0,0,.73-5.36l-1.13-1.82a4.5,4.5,0,0,0-.64-.8L156.1,55a4.7,4.7,0,0,0-.65-.53l-6.92-4.58a4.55,4.55,0,0,0-2.06-.72l-12.15-1.07Z"/><path class="cls-1" d="M141.34,95.23a.25.25,0,0,1-.25-.23c-1-13.16-6.71-16.38-6.77-16.41a.24.24,0,0,1-.1-.34.26.26,0,0,1,.34-.1c.24.13,6,3.34,7,16.81a.25.25,0,0,1-.23.27Z"/><path class="cls-1" d="M160.18,89.18a.25.25,0,0,1-.24-.18c-3.59-12.4-11.07-12.3-11.13-12.31a.24.24,0,0,1-.26-.24.25.25,0,0,1,.24-.26c.07,0,7.92-.12,11.63,12.67a.25.25,0,0,1-.17.31Z"/><path class="cls-1" d="M112.65,87.67h0a.26.26,0,0,1-.22-.28c1-7.63,10.12-15.06,10.51-15.38a.25.25,0,0,1,.32.39c-.1.08-9.38,7.62-10.33,15A.26.26,0,0,1,112.65,87.67Z"/><path class="cls-1" d="M98.68,117a.25.25,0,0,1-.25-.22c-1-10.24,5.5-18.59,5.56-18.67a.26.26,0,0,1,.36,0,.26.26,0,0,1,0,.35c-.07.08-6.46,8.28-5.46,18.31a.25.25,0,0,1-.22.27Z"/><path class="cls-1" d="M75.65,102.25l-.11,0a.25.25,0,0,1-.11-.33A43.84,43.84,0,0,1,89.06,85.63a.25.25,0,0,1,.35.07.26.26,0,0,1-.08.35,43.25,43.25,0,0,0-13.45,16.06A.26.26,0,0,1,75.65,102.25Z"/><path class="cls-1" d="M114.52,128.66a.25.25,0,0,1-.25-.23c-1.3-21.05,7.43-38.51,7.51-38.68a.25.25,0,0,1,.34-.11.25.25,0,0,1,.11.33c-.09.18-8.75,17.52-7.46,38.43a.24.24,0,0,1-.23.26Z"/><path class="cls-1" d="M134.44,130.34a.27.27,0,0,1-.24-.17A53.5,53.5,0,0,1,132,110.43a.25.25,0,0,1,.27-.22.24.24,0,0,1,.22.27A53.23,53.23,0,0,0,134.68,130a.26.26,0,0,1-.16.32Z"/><path class="cls-1" d="M163.15,125.23h-.07c-3.85-1-7-12.48-7.17-13a.25.25,0,0,1,.18-.31.24.24,0,0,1,.3.18c0,.11,3.24,11.69,6.82,12.61a.26.26,0,0,1,.18.31A.26.26,0,0,1,163.15,125.23Z"/><path class="cls-1" d="M179.23,110.71a.25.25,0,0,1-.24-.2C176.11,97.23,163.67,86.13,163.55,86a.24.24,0,0,1,0-.35.26.26,0,0,1,.36,0c.12.11,12.69,11.31,15.6,24.76a.25.25,0,0,1-.2.29Z"/><path class="cls-1" d="M189.36,103.83a.25.25,0,0,1-.23-.15c-5-11.76-12.26-16-12.33-16.05a.25.25,0,1,1,.25-.43c.07,0,7.44,4.38,12.54,16.28a.24.24,0,0,1-.13.33A.16.16,0,0,1,189.36,103.83Z"/><path class="cls-1" d="M198.29,98.4a.27.27,0,0,1-.24-.17,21.77,21.77,0,0,0-9.9-12.17.25.25,0,0,1-.11-.33.24.24,0,0,1,.33-.12,22.36,22.36,0,0,1,10.16,12.46.26.26,0,0,1-.16.32Z"/><path class="cls-1" d="M187.77,77.27a.26.26,0,0,1-.18-.07c-3.21-3.39-11.78-6.37-11.87-6.4a.24.24,0,0,1-.15-.32.24.24,0,0,1,.32-.15c.35.12,8.76,3,12.07,6.52a.26.26,0,0,1,0,.36A.28.28,0,0,1,187.77,77.27Z"/><path class="cls-1" d="M78.94,83.68a.22.22,0,0,1-.17-.07.24.24,0,0,1,0-.35c4.86-5.11,13.9-9.64,14-9.69A.25.25,0,1,1,93,74c-.09,0-9.06,4.54-13.86,9.58A.27.27,0,0,1,78.94,83.68Z"/><path class="cls-1" d="M82.43,70.82h-.06a.25.25,0,0,1-.19-.3c.2-.81,4.91-2.87,6.92-3.72a.25.25,0,0,1,.33.14.25.25,0,0,1-.13.32c-3.1,1.31-6.43,2.93-6.63,3.38A.24.24,0,0,1,82.43,70.82Z"/><path class="cls-1" d="M130,59.15a.71.71,0,0,1-.31-.08l-.16-.07-.13-.2a1,1,0,0,1-.13-.28.68.68,0,0,1,.06-.49l.15-.26a.85.85,0,0,1,1-.32.8.8,0,0,1,.53.81,1,1,0,0,1-.09.3.68.68,0,0,1-.34.42,1,1,0,0,1-.48.15Zm.21-.63h0v0Zm-.07-.14a.23.23,0,0,0,.11,0,.22.22,0,0,0,0-.09.29.29,0,0,0-.14-.11h0l0,0a.26.26,0,0,0,.09.19Z"/><path class="cls-1" d="M127.18,66a.71.71,0,0,1-.27-.07l-.15-.07-.11-.18a.52.52,0,0,1-.09-.21l0-.19.1-.25h0l.09-.16a.7.7,0,0,1,.87-.27.66.66,0,0,1,.44.69.6.6,0,0,1-.06.23.59.59,0,0,1-.3.35.67.67,0,0,1-.39.12Zm-.06-.52.07,0a.28.28,0,0,0,.25,0l-.16-.09v.08l-.08-.13Zm0,0s0,0,0,0v0Zm-.06-.1a.2.2,0,0,0,.06.09l0-.11Zm0-.09a.29.29,0,0,0,0,.09l.08,0-.07,0h.08V65a.25.25,0,0,0-.1.12.08.08,0,0,0,0,0v.08h0Z"/><path class="cls-1" d="M132.57,61.88a.66.66,0,0,1-.27-.06l-.15-.07-.11-.18a.77.77,0,0,1-.1-.22l0-.18.19-.41a.71.71,0,0,1,.87-.28.67.67,0,0,1,.44.7.6.6,0,0,1-.06.23.64.64,0,0,1-.29.35.76.76,0,0,1-.4.11S132.62,61.88,132.57,61.88Zm-.06-.52.07,0a.32.32,0,0,0,.26,0l-.17-.09v.08l0-.11Zm.37,0Zm-.21-.12.17.1Zm-.18,0,0,0v0Zm-.08-.26a.4.4,0,0,0,.07.26l0-.13-.08,0,.08,0-.08,0h.08v-.24a.25.25,0,0,0-.1.12A.06.06,0,0,0,132.41,61.07Zm.21.19h0Z"/><path class="cls-1" d="M139.9,53.62a.68.68,0,0,1-.31-.07l-.15-.07-.13-.21a.85.85,0,0,1-.13-.27.68.68,0,0,1,.06-.49h0l.14-.26a.84.84,0,0,1,1-.32.8.8,0,0,1,.54.81,1,1,0,0,1-.09.3.7.7,0,0,1-.34.41,1,1,0,0,1-.49.15Zm.21-.63h0Zm-.06-.13a.19.19,0,0,0,.11,0s0-.06,0-.08-.05-.08-.14-.12h0l0,0a.22.22,0,0,0,.09.19Z"/><path class="cls-1" d="M137.11,59.09a.63.63,0,0,1-.27-.06l-.15-.07-.11-.18a.57.57,0,0,1-.1-.22l0-.18.18-.41a.72.72,0,0,1,.88-.28.67.67,0,0,1,.44.7.65.65,0,0,1-.07.23.6.6,0,0,1-.29.35.67.67,0,0,1-.39.11S137.16,59.09,137.11,59.09Zm-.06-.52a.15.15,0,0,0,.07,0,.26.26,0,0,0,.25,0l-.17-.09v.08l0-.1Zm.36,0Zm-.21-.11.18.09Zm-.18,0,0,0v0Zm-.08-.26a.34.34,0,0,0,.08.26l0-.12-.08-.05.08,0-.08,0h.08v-.25a.33.33,0,0,0-.1.12A.06.06,0,0,1,136.94,58.28Zm.22.19h0Z"/><path class="cls-1" d="M142.5,57.73a.67.67,0,0,1-.27-.07l-.15-.07-.12-.18a1.16,1.16,0,0,1-.09-.21l-.05-.19.11-.25h0l.08-.16a.71.71,0,0,1,.88-.27.67.67,0,0,1,.44.69.65.65,0,0,1-.07.23.58.58,0,0,1-.29.35.67.67,0,0,1-.39.11S142.55,57.73,142.5,57.73Zm-.06-.52.07,0a.32.32,0,0,0,.25,0l-.17-.09v.07l-.07-.12Zm0,0,0,0v-.05Zm0-.1a.19.19,0,0,0,0,.09l0-.11Zm0-.09,0,.09.07,0-.07,0h.08v-.25a.48.48,0,0,0-.1.12.06.06,0,0,1,0,0V57h0Zm0-.17Z"/><path class="cls-1" d="M135.52,67.35h0a.71.71,0,0,1-.45-.19l-.21-.22a.84.84,0,0,1,0-1.09.78.78,0,0,1,.93-.27.7.7,0,0,1,.26.16.72.72,0,0,1,.31.45,1,1,0,0,1,0,.51.66.66,0,0,1-.18.41l-.12.13-.24.07A1,1,0,0,1,135.52,67.35Zm-.14-.84a.26.26,0,0,0,.22,0,.18.18,0,0,0,0-.11l-.08,0a.31.31,0,0,0-.16.11l0,0Zm.36-.07v0Z"/><path class="cls-1" d="M125.78,68.16h-.22l-.34-.3a.71.71,0,0,1,0-.92.67.67,0,0,1,.79-.22.61.61,0,0,1,.2.13.56.56,0,0,1,.25.38.79.79,0,0,1,0,.41h0a.48.48,0,0,1-.15.31l-.11.13-.21.06A.77.77,0,0,1,125.78,68.16Zm-.17-.53a.33.33,0,0,0,.17,0l0-.08-.05.06v-.08l-.23-.07a.33.33,0,0,0,.08.13Zm.17-.06v.08l.1,0Zm.09,0v0l0,0Zm0,0,.07.06s0,0,.06,0a.29.29,0,0,0,0-.25l-.13.13.07,0h-.1l0,0Z"/><path class="cls-1" d="M138.06,63.25h-.23l-.33-.3a.71.71,0,0,1,0-.92.67.67,0,0,1,.79-.22.52.52,0,0,1,.2.13.6.6,0,0,1,.26.38.72.72,0,0,1,0,.41.51.51,0,0,1-.15.32l-.11.13-.21,0A.61.61,0,0,1,138.06,63.25Zm-.17-.53a.36.36,0,0,0,.27,0l-.12-.06-.06.06,0-.08-.24-.07a.33.33,0,0,0,.09.13Zm.26,0v0h0Zm0,0,0,.05.06-.05a.35.35,0,0,0,.05-.26l-.14.14.08,0h-.12Z"/><path class="cls-1" d="M128.64,54.48h0a.72.72,0,0,1-.45-.2l-.21-.22a.83.83,0,0,1,0-1.08.77.77,0,0,1,.93-.28.86.86,0,0,1,.26.17.66.66,0,0,1,.3.44.88.88,0,0,1,0,.51.7.7,0,0,1-.18.42l-.11.12-.24.07A1,1,0,0,1,128.64,54.48Zm-.14-.85a.21.21,0,0,0,.22,0,.13.13,0,0,0,0-.11h-.08s-.08,0-.15.09,0,0,0,0Zm.36-.06h0Zm-.38-.06Z"/><path class="cls-1" d="M133.87,55.84h-.23l-.21-.17h0l-.12-.13a.7.7,0,0,1,0-.91.67.67,0,0,1,.79-.22.78.78,0,0,1,.21.12.65.65,0,0,1,.25.39.72.72,0,0,1,0,.41h0a.5.5,0,0,1-.15.31l-.11.13-.21.05A.47.47,0,0,1,133.87,55.84Zm-.1-.5a.44.44,0,0,0,.2,0l-.11-.07-.07.07,0-.08-.24-.07a.42.42,0,0,0,.09.13l0,0,.07,0,0,0Zm.19-.05v0l0,0Zm0,0,0,0s.05,0,.06,0a.33.33,0,0,0,.05-.25l-.14.13.08,0h-.12Z"/><path class="cls-1" d="M131.17,53.11h-.23l-.33-.3a.71.71,0,0,1,0-.92.66.66,0,0,1,.79-.22.61.61,0,0,1,.2.13.59.59,0,0,1,.25.38.7.7,0,0,1,0,.41h0a.51.51,0,0,1-.15.32l-.11.12-.21.06A.77.77,0,0,1,131.17,53.11Zm-.1-.51a.26.26,0,0,0,.2,0l-.11-.06-.06.06V52.5l-.23-.07a.28.28,0,0,0,.08.13l0,0,.07,0,0,0Zm.2-.05v0l0,0Zm0,0,.05,0a.1.1,0,0,0,.06-.05.27.27,0,0,0,0-.24l-.13.13.07,0-.11,0Z"/><path class="cls-1" d="M139.23,69.52a.69.69,0,0,1-.36-.1.9.9,0,0,1-.17-.17.57.57,0,0,1-.18-.42.74.74,0,0,1,.08-.4h0a.49.49,0,0,1,.2-.28l.14-.11h.21a.62.62,0,0,1,.23,0l.19,0,.28.35a.7.7,0,0,1-.16.9A.69.69,0,0,1,139.23,69.52Zm-.12-1-.07,0a.28.28,0,0,0-.09.24l.16-.11-.07,0,.1,0h0v-.09Zm.19.1.22.11a.62.62,0,0,0-.06-.14l0,0a.37.37,0,0,0-.26,0l.09.09.08-.05Zm-.18-.1,0,0v0Z"/><path class="cls-1" d="M136.53,73.63a.58.58,0,0,1-.35-.11.63.63,0,0,1-.18-.16.68.68,0,0,1-.18-.42.87.87,0,0,1,.08-.41.58.58,0,0,1,.21-.28l.13-.1.22,0a1,1,0,0,1,.23,0l.19,0,.27.35a.72.72,0,0,1-.15.91A.73.73,0,0,1,136.53,73.63Zm-.11-1-.07,0a.32.32,0,0,0-.1.24l.16-.1-.07,0,.1,0,0,0Zm.18.09.22.12a.29.29,0,0,0-.06-.15l0,0a.4.4,0,0,0-.16-.06v.08l.06,0Zm-.1,0,.05,0,0-.08h-.11Zm-.08,0,.05,0v0Z"/><path class="cls-1" d="M147.46,64.05h-.1a.81.81,0,0,1-.75-.94.71.71,0,0,1,.21-.49.9.9,0,0,1,.42-.29.71.71,0,0,1,.45-.07l.17,0,.18.16a.86.86,0,0,1,.2.22.71.71,0,0,1,.09.49l-.06.29A.85.85,0,0,1,147.46,64.05Zm-.11-.95a.24.24,0,0,0,0,.07s.08.06.17.08h0l0,0a.24.24,0,0,0-.15-.16A.15.15,0,0,0,147.35,63.1Zm0-.16h0Z"/><path class="cls-1" d="M150,57.21h-.08a.68.68,0,0,1-.62-.54.88.88,0,0,1,0-.24.7.7,0,0,1,.18-.42.75.75,0,0,1,.35-.22.51.51,0,0,1,.35,0l.16,0,.16.15a.53.53,0,0,1,.16.17l.09.17-.06.44A.71.71,0,0,1,150,57.21Zm.16-.77.06.24a.34.34,0,0,0,.07-.15.43.43,0,0,1,0-.05.31.31,0,0,0-.15-.22v.06l0,.07.09,0-.09,0,.09,0Zm-.15-.08h0Zm0,0h0l.08-.12-.08,0a.33.33,0,0,0-.24.1l.19,0,0-.08Zm-.23,0,.19,0Zm0,0Zm.36-.06v0l0,0Z"/><path class="cls-1" d="M141.93,60h-.08a.65.65,0,0,1-.62-.53.61.61,0,0,1,0-.24.57.57,0,0,1,.18-.42.77.77,0,0,1,.34-.23.59.59,0,0,1,.35-.05l.17,0,.16.14a1,1,0,0,1,.15.17l.1.17-.07.45A.71.71,0,0,1,141.93,60Zm.15-.78.07.24a.31.31,0,0,0,.06-.15v0a.19.19,0,0,1,0-.07h0a.56.56,0,0,0-.05-.08l-.07.06h.08Zm0-.11v0l.08,0s0-.06-.08-.07Zm-.12,0h0l0-.14L142,59a.29.29,0,0,0-.24.1l.19,0,0-.08ZM142,59l0,.05,0,0Z"/><path class="cls-1" d="M124.12,68.84a.69.69,0,0,1-.42-.15h0l-.24-.19a.85.85,0,0,1-.13-1.08.8.8,0,0,1,.89-.38.9.9,0,0,1,.28.14.68.68,0,0,1,.36.4,1,1,0,0,1,.06.51.69.69,0,0,1-.13.43l-.1.14-.23.1a.77.77,0,0,1-.29.07ZM124,68a.21.21,0,0,0,.21-.06.23.23,0,0,0,0-.11s-.07,0-.09,0-.08,0-.14.12a0,0,0,0,0,0,0Zm.34-.11h0Z"/><path class="cls-1" d="M130.34,72.71l-.37-.26a.7.7,0,0,1-.12-.91.68.68,0,0,1,.76-.31l.22.1a.64.64,0,0,1,.29.35.72.72,0,0,1,0,.41h0a.49.49,0,0,1-.11.33l-.09.14-.2.08a.83.83,0,0,1-.23.06Zm0-.52a.31.31,0,0,0,.26,0l-.12,0,0,.07V72.1l-.24,0a.4.4,0,0,0,.1.13Zm.26-.06v0l0,0Zm0,0,0,0,.05-.06a.29.29,0,0,0,0-.26l-.12.15.08,0-.11,0Z"/><path class="cls-1" d="M127.23,66.69l-.36-.26a.71.71,0,0,1-.13-.91.69.69,0,0,1,.76-.31.52.52,0,0,1,.22.1.66.66,0,0,1,.3.35.73.73,0,0,1,0,.41h0a.49.49,0,0,1-.11.33l-.1.14-.19.08a.83.83,0,0,1-.23.06Zm0-.52a.39.39,0,0,0,.27,0l-.12,0-.06.07v-.08l-.24,0a.31.31,0,0,0,.1.12A.05.05,0,0,0,127.23,66.17Zm.26-.06v0l0,0Zm0,0,0,0,.06-.06a.32.32,0,0,0,0-.26l-.12.15.08,0-.11,0Z"/><path class="cls-1" d="M120.41,58.1A.74.74,0,0,1,120,58l-.23-.19a.85.85,0,0,1-.13-1.08.8.8,0,0,1,.89-.39.9.9,0,0,1,.28.14.69.69,0,0,1,.35.41.83.83,0,0,1,.06.51.65.65,0,0,1-.13.43l-.09.14-.23.09a.88.88,0,0,1-.3.08Zm-.16-.83a.24.24,0,0,0,.22-.05.17.17,0,0,0,0-.11h-.08a.35.35,0,0,0-.14.11l0,0Zm.35-.1h0Zm-.38,0h0Z"/><path class="cls-1" d="M125.27,61.74l-.22-.15h0l-.14-.11a.7.7,0,0,1-.12-.91.66.66,0,0,1,.76-.31.55.55,0,0,1,.21.1.62.62,0,0,1,.3.35.73.73,0,0,1,0,.41.5.5,0,0,1-.11.33l-.09.14-.2.08a.61.61,0,0,1-.23,0Zm.07-.51a.4.4,0,0,0,.2,0l-.12,0-.06.07v-.08l-.24-.05a.31.31,0,0,0,.1.12l0,0h.07l0,0Zm.19-.07v0l0,0Zm0,0,0,0,0,0a.28.28,0,0,0,0-.25l-.11.14.07,0-.11,0Z"/><path class="cls-1" d="M124.87,56.19l-.37-.26a.69.69,0,0,1-.12-.9.67.67,0,0,1,.76-.32.86.86,0,0,1,.21.11.6.6,0,0,1,.3.34.73.73,0,0,1,0,.41h0a.49.49,0,0,1-.11.33l-.09.14-.2.08a.83.83,0,0,1-.23.06Zm0-.52a.34.34,0,0,0,.27,0l-.12,0-.06.07v-.08l-.24,0a.4.4,0,0,0,.1.12Zm.26-.06v0l0,0Zm0,0,.06,0,0-.06a.26.26,0,0,0,0-.25l-.12.15h.08l-.11,0Z"/><path class="cls-1" d="M133,64.92a.82.82,0,0,1-.63-.3.77.77,0,0,1-.11-1,.81.81,0,0,1,.21-.23.73.73,0,0,1,.49-.22.86.86,0,0,1,.5.09.71.71,0,0,1,.38.25l.1.13,0,.24a.82.82,0,0,1,0,.31.7.7,0,0,1-.27.41l-.25.17A1,1,0,0,1,133,64.92Zm0-1,0,.07s0,.1.07.17v0l.05,0a.28.28,0,0,0,0-.21Zm.11-.12h0Z"/><path class="cls-1" d="M132.27,74.53a.7.7,0,0,1-.52-.25.68.68,0,0,1-.09-.82,1.31,1.31,0,0,1,.17-.18.63.63,0,0,1,.41-.18.76.76,0,0,1,.41.08.49.49,0,0,1,.29.2l.1.13,0,.22a.9.9,0,0,1,0,.22l-.05.2-.2.17h0l-.15.1A.73.73,0,0,1,132.27,74.53Zm.18-.65-.12.22a.51.51,0,0,0,.15-.06l0,0,0-.06,0,0,0,0a.51.51,0,0,0,0-.09h-.08l0,.07Zm0,0,.08,0a.37.37,0,0,0,0-.11Zm-.09-.11,0,0,.12-.07a.16.16,0,0,0,0-.07.31.31,0,0,0-.23-.09l.1.16,0-.07Zm.15,0,0,0h0S132.55,73.71,132.54,73.7Z"/><path class="cls-1" d="M129.57,61.58a.68.68,0,0,1-.52-.24.66.66,0,0,1-.08-.82.79.79,0,0,1,.16-.18.65.65,0,0,1,.42-.18.73.73,0,0,1,.4.08.47.47,0,0,1,.29.2l.1.13,0,.21a.68.68,0,0,1,0,.24l0,.19-.35.27A.7.7,0,0,1,129.57,61.58Zm.18-.64-.11.22a.62.62,0,0,0,.14-.06l0,0a.38.38,0,0,0,.05-.26l-.09.1,0,.07,0-.07,0,.07Zm-.06-.16h0Zm0,0h0l.14,0a.16.16,0,0,0,0-.06.3.3,0,0,0-.24-.1l.1.16,0-.07Zm.15,0v0h0A0,0,0,0,0,129.84,60.76Zm-.28-.17.11.16Zm0,0Z"/><path class="cls-1" d="M116.55,62.08a.82.82,0,0,1-.63-.3.77.77,0,0,1-.11-1,.7.7,0,0,1,.21-.23.69.69,0,0,1,.49-.22.85.85,0,0,1,.5.09.58.58,0,0,1,.38.25l.1.13,0,.24a.82.82,0,0,1,0,.31.73.73,0,0,1-.27.41L117,62A.93.93,0,0,1,116.55,62.08Zm0-.91a.3.3,0,0,0,.08.16l0,0,0,0a.23.23,0,0,0,0-.22.18.18,0,0,0-.1,0,.13.13,0,0,0,0,.08Zm0,.17Zm.14-.37h0Z"/><path class="cls-1" d="M121.55,64.42a.68.68,0,0,1-.52-.24.66.66,0,0,1-.08-.82.79.79,0,0,1,.16-.18.65.65,0,0,1,.42-.18.73.73,0,0,1,.4.08.44.44,0,0,1,.29.2l.1.13,0,.22a1,1,0,0,1,0,.23l0,.19-.2.17h0l-.15.1A.7.7,0,0,1,121.55,64.42Zm.18-.64-.11.22a.43.43,0,0,0,.14-.07l0,0,0-.07,0,0,0,0a.25.25,0,0,0,0-.19l-.08.09,0,.08Zm-.06-.16h0l.13,0,0-.07a.31.31,0,0,0-.24-.09l.1.16,0-.07Zm.15,0,0,0h0A0,0,0,0,0,121.82,63.6Z"/><path class="cls-1" d="M118.39,66.6a.67.67,0,0,1-.52-.24.68.68,0,0,1-.09-.82,1.22,1.22,0,0,1,.16-.18.59.59,0,0,1,.43-.18.72.72,0,0,1,.4.07.63.63,0,0,1,.29.21l.1.13,0,.22a.9.9,0,0,1,0,.22l0,.19-.36.28A.75.75,0,0,1,118.39,66.6Zm.17-.64-.11.22a.56.56,0,0,0,.15-.07s0,0,0,0a.35.35,0,0,0,.06-.16h-.09l0,.07,0-.07,0,.07Zm0-.06.09,0a.41.41,0,0,0,0-.11Zm-.08-.1,0,0Zm0,0,0,0,.12-.07a.16.16,0,0,0,0-.07.31.31,0,0,0-.24-.09l.11.16,0-.07Zm.15,0,0,0h0A.08.08,0,0,0,118.66,65.77Zm-.29-.16.12.16Zm0,0Z"/><path class="cls-1" d="M136,61.51h-.09a.66.66,0,0,1-.39-.15.49.49,0,0,1-.24-.25l-.08-.15,0-.21a.6.6,0,0,1,.05-.23l.08-.18.4-.2a.71.71,0,0,1,.86.31.66.66,0,0,1-.07.81.84.84,0,0,1-.54.26Zm-.28-.65a.34.34,0,0,0,0,.08.27.27,0,0,0,.21.13l-.07-.17,0,.06,0-.09v0l-.09,0Zm0,0v0l0,0Zm.05-.19a.34.34,0,0,0-.05.19l.1-.08,0-.08.07,0,.15-.19a.37.37,0,0,0-.15,0l0,0,0,.06v0Z"/><path class="cls-1" d="M139.6,64.88h-.09a.81.81,0,0,1-.38-.15h0a.48.48,0,0,1-.25-.25l-.08-.15,0-.21a1,1,0,0,1,.06-.23l.08-.18.39-.21a.71.71,0,0,1,.86.31.67.67,0,0,1-.07.82.84.84,0,0,1-.54.26Zm-.27-.65a.19.19,0,0,0,0,.08.29.29,0,0,0,.22.13l-.08-.17-.05.06,0-.1h0l-.09,0Zm0,0v0l0,0Zm.05-.2a.39.39,0,0,0-.05.2l.1-.08,0-.09.06,0,.16-.2a.3.3,0,0,0-.16,0l0,0,0,.05,0,0Z"/><path class="cls-1" d="M132,52.59a1.28,1.28,0,0,1-.28-.05.76.76,0,0,1-.46-.29,1,1,0,0,1-.2-.47.7.7,0,0,1,0-.45l0-.16.19-.16a.82.82,0,0,1,.26-.16.69.69,0,0,1,.49,0l.28.12a.83.83,0,0,1,.44,1,.79.79,0,0,1-.74.63S132,52.59,132,52.59Zm-.2-.89a.27.27,0,0,0,0,.11l.08,0s.07-.06.1-.15v0l0,0A.27.27,0,0,0,131.79,51.7Zm-.13.08h0Z"/><path class="cls-1" d="M133.52,71l-.22,0a.65.65,0,0,1-.38-.25.67.67,0,0,1-.16-.38h0a.47.47,0,0,1,0-.35l0-.16.17-.14a.64.64,0,0,1,.2-.12l.18-.06.42.14a.69.69,0,0,1,.38.83.66.66,0,0,1-.63.52Zm-.27-.86,0,.07a.29.29,0,0,0,.06.25l.07-.17h-.08l.11-.08Zm0,0s0,0,0,0h.05Zm0,0,.05,0h.06l0-.08A.27.27,0,0,0,133.28,70.11Zm.16-.07v.08l.25,0a.4.4,0,0,0-.13-.09h0a.42.42,0,0,0-.16,0l0,.08Z"/><path class="cls-1" d="M127.11,57.2a.64.64,0,0,1-.22,0,.63.63,0,0,1-.39-.25.71.71,0,0,1-.16-.37h0a.67.67,0,0,1,0-.36l.06-.16.17-.13a.64.64,0,0,1,.2-.12l.18-.06.42.13a.71.71,0,0,1,.38.84A.63.63,0,0,1,127.11,57.2Zm-.28-.86a.11.11,0,0,0,0,.07.3.3,0,0,0,0,.25l.07-.18h-.08l.1-.06Zm0,0,0,0h0Zm0,0,.06,0H127l0-.08,0,.07.25,0a.48.48,0,0,0-.14-.09h0A.36.36,0,0,0,126.86,56.3Z"/><path class="cls-1" d="M145.4,58.2h0a.93.93,0,0,1-.5-.14.65.65,0,0,1-.35-.28l-.09-.14V57.4a.85.85,0,0,1,0-.31.71.71,0,0,1,.3-.38l.27-.15a.86.86,0,0,1,1,.28.79.79,0,0,1,0,1,1.24,1.24,0,0,1-.23.21A.73.73,0,0,1,145.4,58.2Zm-.15-.62Zm0-.15a.2.2,0,0,0,.1,0l0-.08h0a.24.24,0,0,0-.06-.17v0h-.05A.27.27,0,0,0,145.26,57.43Z"/><path class="cls-1" d="M139.27,62.5h0a.86.86,0,0,1-.39-.11.57.57,0,0,1-.27-.23l-.1-.14V61.8a.73.73,0,0,1,0-.22l.06-.2.22-.15h0l.16-.09a.71.71,0,0,1,.89.23.67.67,0,0,1,0,.82.58.58,0,0,1-.18.16A.6.6,0,0,1,139.27,62.5Zm-.28-.62a.11.11,0,0,0,0,.07.34.34,0,0,0,.22.12l-.09-.17,0,.07,0-.1v0H139Zm0,0a.06.06,0,0,0,0,0l0,0Zm0-.2a.36.36,0,0,0,0,.2l.09-.09,0-.08.07,0,.13-.2a.29.29,0,0,0-.15,0s0,0,0,0l0,.06,0,0Z"/><path class="cls-1" d="M146,61.84h0a.67.67,0,0,1-.39-.11.46.46,0,0,1-.27-.22l-.1-.15v-.21a.67.67,0,0,1,0-.22l.05-.19.38-.25a.72.72,0,0,1,.89.22.66.66,0,0,1,0,.82.67.67,0,0,1-.17.17A.64.64,0,0,1,146,61.84Zm0-.39Zm-.12-.21.1.17Zm-.17,0,0,.07a.3.3,0,0,0,.23.11l-.09-.17-.05.07,0-.1h-.1Zm0,0s0,0,0,0l0,0Zm.16,0h0Zm-.09-.28a.35.35,0,0,0-.07.26l.09-.09,0-.08,0,.08,0-.08.07,0,.13-.21a.35.35,0,0,0-.15,0Z"/><path class="cls-1" d="M156.75,58.72h0a.91.91,0,0,1-.5-.13.64.64,0,0,1-.35-.28l-.09-.14v-.25a.83.83,0,0,1,0-.3.66.66,0,0,1,.3-.39l.27-.14a.84.84,0,0,1,1,.27.79.79,0,0,1,0,1,1.1,1.1,0,0,1-.69.39Zm-.15-.62h0Zm0-.14a.15.15,0,0,0,.1,0l0-.07a.33.33,0,0,0-.06-.18l0,0h0A.25.25,0,0,0,156.61,58Z"/><path class="cls-1" d="M151.33,61.86h0a.72.72,0,0,1-.4-.12s-.15,0-.27-.22l-.09-.14v-.21a.81.81,0,0,1,0-.24l.06-.18.22-.16h0l.16-.09a.72.72,0,0,1,.89.23.67.67,0,0,1,0,.82.73.73,0,0,1-.18.16A.63.63,0,0,1,151.33,61.86Zm-.28-.62a.24.24,0,0,0,0,.07.36.36,0,0,0,.23.12l-.09-.17,0,.07,0-.1v0h-.09Zm0,0v0l0,0Zm0-.2a.38.38,0,0,0,0,.2l.1-.09,0-.08.07,0,.13-.2a.29.29,0,0,0-.14,0s0,0,0,0a.21.21,0,0,0,0,.06v0Z"/><path class="cls-1" d="M156.64,63.53h0a.78.78,0,0,1-.4-.11.52.52,0,0,1-.26-.23l-.1-.14v-.21a.55.55,0,0,1,0-.23l.06-.19.37-.24a.7.7,0,0,1,.89.22.67.67,0,0,1,0,.82.58.58,0,0,1-.18.16A.55.55,0,0,1,156.64,63.53Zm0-.4Zm-.11-.2.09.17Zm-.17,0a.19.19,0,0,0,0,.08.33.33,0,0,0,.23.11l-.09-.17-.05.07,0-.1h-.1Zm0,0s0,0,0,0l0,0Zm.15,0h0Zm-.08-.28a.35.35,0,0,0-.07.26l.09-.09,0-.08,0,.08,0-.08.07,0,.13-.21a.29.29,0,0,0-.15,0Z"/><path class="cls-1" d="M145.62,68.07l-.24-.06a1.14,1.14,0,0,1-.28-.13.66.66,0,0,1-.27-.4h0l-.07-.3a.84.84,0,0,1,.57-.92.78.78,0,0,1,.93.25.8.8,0,0,1,.14.28.67.67,0,0,1,0,.54.88.88,0,0,1-.27.44.62.62,0,0,1-.37.25Zm.18-.82h0Zm-.34-.14a.25.25,0,0,0,.2.09.13.13,0,0,0,.07-.08.17.17,0,0,0-.06-.06s-.08,0-.18,0h0Zm0-.11Z"/><path class="cls-1" d="M136.82,63.6l-.2-.06a.69.69,0,0,1-.21-.09l-.17-.12-.09-.25h0l0-.18a.71.71,0,0,1,.48-.78.66.66,0,0,1,.79.22.93.93,0,0,1,.1.22.62.62,0,0,1,0,.45.75.75,0,0,1-.23.35.46.46,0,0,1-.29.19Zm0-.53h.08a.27.27,0,0,0,.18-.19l-.19.05,0,.06-.09-.06h0l0,.08Zm0,0h0l0,0Zm-.18-.09a.38.38,0,0,0,.18.09l-.06-.12-.09,0,.06-.06-.16-.18a.27.27,0,0,0,0,.16l0,0,.05.06h0Z"/><path class="cls-1" d="M149.84,65.89l-.21-.07a.64.64,0,0,1-.21-.09l-.16-.11-.09-.25h0l0-.18a.72.72,0,0,1,.47-.79.69.69,0,0,1,.8.23,1,1,0,0,1,.1.21.6.6,0,0,1,0,.46.74.74,0,0,1-.22.35.51.51,0,0,1-.29.19Zm0-.53h.08a.31.31,0,0,0,.18-.19l-.19,0,.05.06-.09-.05,0,.06Zm0,0h0l0,0Zm-.1,0a.19.19,0,0,0,.1,0l-.05-.1Zm-.08-.06.08.06,0-.08-.08,0,.06-.06-.16-.19a.28.28,0,0,0,0,.16.08.08,0,0,0,0,0l0,.05h0Z"/><path class="cls-1" d="M146.54,53.5l-.24-.07a.7.7,0,0,1-.27-.12.66.66,0,0,1-.28-.4l-.07-.3a.84.84,0,0,1,.57-.92.78.78,0,0,1,.93.25.8.8,0,0,1,.14.28.67.67,0,0,1,0,.54.86.86,0,0,1-.26.43.7.7,0,0,1-.38.26Zm.18-.83v0Zm-.34-.13a.25.25,0,0,0,.2.09.24.24,0,0,0,.08-.09l-.06,0a.27.27,0,0,0-.19,0l0,0Z"/><path class="cls-1" d="M150.17,57.39l-.21-.07a.64.64,0,0,1-.21-.09l-.16-.12-.08-.25h0l0-.17a.71.71,0,0,1,.47-.79.66.66,0,0,1,.79.23.83.83,0,0,1,.1.21.6.6,0,0,1,0,.46.83.83,0,0,1-.22.35.57.57,0,0,1-.3.19Zm0-.54h.08a.32.32,0,0,0,.17-.19l-.19,0,.06.06-.09,0-.06.06Zm0,0h0l0,0Zm-.11,0,.1,0,0-.11Zm-.08-.06.08.06,0-.08-.08,0,.06-.06-.16-.19a.27.27,0,0,0,0,.16s0,0,0,0l.05,0h0Z"/><path class="cls-1" d="M149.32,53.64l-.21-.06a.63.63,0,0,1-.21-.1l-.16-.11-.13-.43a.72.72,0,0,1,.47-.78.69.69,0,0,1,.8.22.93.93,0,0,1,.1.22.6.6,0,0,1,0,.46.67.67,0,0,1-.22.34.51.51,0,0,1-.29.19Zm0-.53h.08a.31.31,0,0,0,.18-.19l-.19,0,0,.07-.09-.06h0l0,.08Zm0,0h0l0,0Zm-.23-.15a.44.44,0,0,0,.23.15l-.06-.12-.09,0,.06-.06-.16-.18a.27.27,0,0,0,0,.16Z"/><path class="cls-1" d="M147.51,71.8a.65.65,0,0,1-.61-.38.57.57,0,0,1-.07-.23.62.62,0,0,1,.07-.45.77.77,0,0,1,.28-.3.57.57,0,0,1,.33-.14l.17,0,.19.11a.41.41,0,0,1,.18.13l.14.14.05.44a.71.71,0,0,1-.61.69Zm.16-.82.12.22a.45.45,0,0,0,0-.16.08.08,0,0,0,0,0l0-.06h0a.46.46,0,0,0-.07-.07l0,.07h.08Zm-.16-.18h0a.32.32,0,0,0-.2.15h.19l0-.08.08.07.06,0v-.1Zm.1.08,0,.05.06-.06-.09-.05Zm0-.07,0,0v0Z"/><path class="cls-1" d="M143.06,73.87a.64.64,0,0,1-.61-.38.57.57,0,0,1-.07-.23.62.62,0,0,1,.07-.45.74.74,0,0,1,.29-.3.45.45,0,0,1,.32-.13l.16,0,.19.09a.92.92,0,0,1,.2.14l.13.14,0,.44a.71.71,0,0,1-.61.69Zm.16-.81.12.21a.4.4,0,0,0,0-.16l0,0a.21.21,0,0,0,0-.06h0a.31.31,0,0,0-.16-.12l0,.12h.09Zm.16.1Zm-.32-.29h0a.32.32,0,0,0-.2.15H143l0-.07.08.07h0l.05-.08v-.06Zm.06,0,0,0v0Z"/><path class="cls-1" d="M157.46,71.5a.84.84,0,0,1-.52-.18.78.78,0,0,1-.3-.92.81.81,0,0,1,.16-.27.69.69,0,0,1,.43-.31.87.87,0,0,1,.51,0,.61.61,0,0,1,.42.17l.13.11.08.23a1.25,1.25,0,0,1,0,.3.65.65,0,0,1-.18.45l-.21.22A.87.87,0,0,1,157.46,71.5Zm0-.74Zm0-.17a.28.28,0,0,0,.1.15l0,0,0,0a.23.23,0,0,0,0-.22.13.13,0,0,0-.11,0,.25.25,0,0,0,0,.08Zm.1-.22h0Z"/><path class="cls-1" d="M163.15,67a.7.7,0,0,1-.42-.15.68.68,0,0,1-.25-.79.94.94,0,0,1,.12-.2.62.62,0,0,1,.37-.27.74.74,0,0,1,.42,0,.5.5,0,0,1,.32.14l.13.1.06.21a.57.57,0,0,1,0,.22v.19l-.29.36A.79.79,0,0,1,163.15,67Zm.18-.69-.07.24a.34.34,0,0,0,.14-.09s0,0,0,0a.36.36,0,0,0,0-.27l-.07.12.07.06-.07-.06.07.06Zm-.09-.13h0Zm0,0h0l.12-.07,0-.06a.3.3,0,0,0-.25,0l.14.13,0-.07Zm.15-.06v0h0S163.39,66.14,163.39,66.12Zm-.32-.1.15.14Zm0,0Z"/><path class="cls-1" d="M154.83,65.08a.72.72,0,0,1-.42-.15.67.67,0,0,1-.25-.78.86.86,0,0,1,.13-.21.58.58,0,0,1,.37-.26.69.69,0,0,1,.41,0,.47.47,0,0,1,.32.14l.13.1.06.21a.59.59,0,0,1,0,.23v.2l-.16.21h0l-.12.13A.81.81,0,0,1,154.83,65.08Zm.19-.68-.07.23a.25.25,0,0,0,.13-.09l0,0a.64.64,0,0,0,0-.07l0,0,0,0a.44.44,0,0,0,0-.2l-.06.12.06.06Zm-.09-.15h0l.13-.06,0-.06a.33.33,0,0,0-.25,0l.13.13,0-.07Zm.14,0v0h0Z"/></svg>