<svg id="Camada_1" data-name="Camada 1" xmlns="http://www.w3.org/2000/svg" viewBox="0 0 253.58 241.31"><defs><style>.cls-1{fill:#745d79;}</style></defs><path class="cls-1" d="M163.62,177.94A28.28,28.28,0,0,1,151,175c-26.6-13.27-28.26-53.38-28.28-53.79A18.33,18.33,0,0,1,126.83,107c6.14-7.63,18-11.67,35.31-12,18.15-.37,31.15,3.13,38.64,10.4,5.81,5.63,5.94,11.4,5.94,11.64,4.77,42.07-19.92,55.5-35.06,59.75A29.6,29.6,0,0,1,163.62,177.94Zm.95-81.74-2.41,0c-16.9.33-28.47,4.22-34.38,11.54a17.56,17.56,0,0,0-3.89,13.29c0,.49,1.67,39.89,27.63,52.85h0a27.56,27.56,0,0,0,19.81,1.75c14.78-4.15,38.87-17.27,34.19-58.52,0-.11-.15-5.61-5.61-10.89C195.1,101.62,185.09,96.2,164.57,96.2Z"/><path class="cls-1" d="M163.19,135.94a56.47,56.47,0,0,1-21-4.05A58.49,58.49,0,0,1,122.7,119.3a.61.61,0,0,1,0-.85.6.6,0,0,1,.85,0c.28.29,28.27,29.65,69,8.66a48.19,48.19,0,0,0,8.66-6.19c1.44-1.19,2.92-2.42,4.6-3.7a.6.6,0,0,1,.84.11.59.59,0,0,1-.12.84c-1.65,1.27-3.13,2.49-4.55,3.67a49.32,49.32,0,0,1-8.88,6.34C182,133.93,171.93,135.94,163.19,135.94Z"/><path class="cls-1" d="M163.6,127.16c-16.74,0-29.85-5.57-29.85-12.67,0-6.76,12.56-11.67,29.85-11.67,14.9,0,31,3.72,31,9.72C194.59,119.92,179.24,127.16,163.6,127.16Zm0-23.14c-16.33,0-28.65,4.5-28.65,10.47,0,6.22,13.12,11.47,28.65,11.47,13.41,0,29.79-6.19,29.79-13.42C193.39,108,179.47,104,163.6,104Z"/><path class="cls-1" d="M108.9,178.59c-10.22,0-20.84-5.43-29.11-14.9C69.86,152.33,63.36,135.54,61,115.14c-1.91-16.42,2.7-31.84,13-43.41A47.07,47.07,0,0,1,108.9,55.57c9.4,0,19.12,4.33,28.1,12.52a80.42,80.42,0,0,1,19.27,27.63.6.6,0,0,1-1.11.47c-11.43-27.09-32-39.42-46.26-39.42a45.86,45.86,0,0,0-34,15.75C64.81,83.84,60.3,98.92,62.17,115c2.35,20.16,8.76,36.72,18.52,47.9,8,9.21,18.33,14.49,28.21,14.49a47.77,47.77,0,0,0,31-11.63.6.6,0,0,1,.78.91A49,49,0,0,1,108.9,178.59Z"/><path class="cls-1" d="M87.8,107.93a5.75,5.75,0,1,1,5.75-5.75A5.76,5.76,0,0,1,87.8,107.93Zm0-10.29a4.55,4.55,0,1,0,4.55,4.54A4.55,4.55,0,0,0,87.8,97.64Z"/><path class="cls-1" d="M92.71,87.85a5.75,5.75,0,1,1,5.74-5.74A5.75,5.75,0,0,1,92.71,87.85Zm0-10.29a4.55,4.55,0,1,0,4.55,4.55A4.55,4.55,0,0,0,92.71,77.56Z"/><path class="cls-1" d="M105.72,101.37a5.75,5.75,0,1,1,5.74-5.74A5.75,5.75,0,0,1,105.72,101.37Zm0-10.29a4.55,4.55,0,1,0,4.55,4.55A4.55,4.55,0,0,0,105.72,91.08Z"/></svg>