<svg id="Camada_1" data-name="Camada 1" xmlns="http://www.w3.org/2000/svg" viewBox="0 0 262.38 332.74"><defs><style>.cls-1{fill:#745d79;}</style></defs><path class="cls-1" d="M132.67,294a.45.45,0,0,1-.16,0,.6.6,0,0,1-.41-.74c.07-.24,6.7-24.24-4.95-72.48a274.54,274.54,0,0,1-7.81-64c0-25.05.39-40.44,1.32-45.74a.59.59,0,0,1,.69-.49.6.6,0,0,1,.49.69c-.9,5.16-1.35,20.91-1.31,45.53a274.38,274.38,0,0,0,7.78,63.76c11.74,48.59,5,72.86,4.94,73.09A.61.61,0,0,1,132.67,294Z"/><path class="cls-1" d="M134.06,258.94a.63.63,0,0,1-.61-.57c-.08-1,6-25.3,9.23-30.2,15.22-23,25.42-72.47,30.89-99q.63-3.07,1.17-5.66a.6.6,0,0,1,.71-.46.59.59,0,0,1,.47.71c-.36,1.72-.75,3.61-1.17,5.65-5.5,26.65-15.72,76.26-31.07,99.46-3,4.58-9,28.44-9,29.48a.59.59,0,0,1-.55.63Z"/><path class="cls-1" d="M134.66,270.85a.2.2,0,0,1-.11,0,120.07,120.07,0,0,1-25.2-15.29.25.25,0,0,1-.08-.28.26.26,0,0,1,.23-.17h.6c8,0,15.61,5.09,21.74,9.2,1,.67,1.94,1.3,2.84,1.88a.26.26,0,0,1,.08.35.26.26,0,0,1-.35.07c-.9-.58-1.85-1.22-2.84-1.88-6-4.05-13.54-9.07-21.36-9.12a120,120,0,0,0,24.55,14.8.24.24,0,0,1,.12.33A.24.24,0,0,1,134.66,270.85Z"/><path class="cls-1" d="M133.65,262.17c-2.51,0-5.25-3.92-8.41-8.41-3.51-5-7.48-10.66-11.68-11.5a54.08,54.08,0,0,1,3.57,6.86c1.63,3.54,3.17,6.89,5.92,9.64a.25.25,0,0,1,0,.36.24.24,0,0,1-.35,0c-2.82-2.82-4.38-6.21-6-9.79a49.72,49.72,0,0,0-3.84-7.26.25.25,0,0,1,.23-.39c4.64.46,8.86,6.48,12.59,11.79,3.11,4.43,6,8.6,8.35,8.17a.25.25,0,0,1,.3.2.26.26,0,0,1-.2.29A2.28,2.28,0,0,1,133.65,262.17Z"/><path class="cls-1" d="M133.85,256.32a.26.26,0,0,1-.25-.22c-.48-4-5.54-11.09-8.67-14a25.57,25.57,0,0,0-10.09-5.2,66.22,66.22,0,0,1-12.59-5.41c-4.74-2.65-8.36-5.41-10.62-10.27a.26.26,0,0,1,.29-.35c8.71,2,13,4.52,19.51,8.3,1,.56,2,1.15,3.06,1.76,5,2.84,14.24,8.13,17.88,12.94a.24.24,0,0,1,0,.35.25.25,0,0,1-.35,0c-3.59-4.72-12.79-10-17.74-12.8l-3.06-1.77c-6.34-3.68-10.57-6.13-18.87-8.12,2.21,4.45,5.68,7.06,10.19,9.57A65.49,65.49,0,0,0,115,236.43a26.06,26.06,0,0,1,10.29,5.31c3.19,2.95,8.34,10.16,8.83,14.3a.25.25,0,0,1-.22.28Z"/><path class="cls-1" d="M131.88,243a.25.25,0,0,1-.21-.12c-5.36-8.68-11.41-18.47-20.65-24.28.54.72,1.09,1.44,1.64,2.15,3.62,4.74,7,9.22,9.51,14.65a.25.25,0,0,1-.12.33.26.26,0,0,1-.34-.12c-2.44-5.38-5.84-9.84-9.45-14.55-.81-1.06-1.62-2.11-2.42-3.19a.26.26,0,0,1,0-.32.27.27,0,0,1,.31,0c10,5.77,16.32,16,21.92,25.12a.25.25,0,0,1-.08.35A.28.28,0,0,1,131.88,243Z"/><path class="cls-1" d="M129.29,227.62l-.11,0c-9.4-4.5-16.47-9.44-24.19-15.47C89.46,200,74.83,187.56,66.48,168.59a.25.25,0,0,1,.15-.34c1.7-.56,9.07,7.78,9.15,7.86,16.54,19.58,29.1,33.31,51.93,45.38a.26.26,0,0,1,.11.34.25.25,0,0,1-.34.1c-22.91-12.11-35.5-25.88-52.09-45.5-1.55-1.84-6.71-7.17-8.29-7.68,8.33,18.66,22.82,31,38.2,43,7.7,6,14.74,10.92,24.1,15.41a.25.25,0,0,1,.12.33A.27.27,0,0,1,129.29,227.62Z"/><path class="cls-1" d="M123.46,199.67a.22.22,0,0,1-.2-.1c-1.75-2.5-3.9-5.53-6.27-8.9C106.6,176,92.39,155.88,86,144.73c-2.88-5-2.41-8.55-2-9a.22.22,0,0,1,.19-.09.24.24,0,0,1,.19.08c10.35,11.64,17.14,23.69,24.32,36.44,4,7.14,9.54,16.93,14,21.24a.24.24,0,0,1,0,.35.25.25,0,0,1-.35,0c-4.48-4.36-10-14.18-14-21.36-7.11-12.61-13.83-24.53-24-36-.2,1-.28,3.89,2.16,8.16,6.36,11.13,20.57,31.23,30.94,45.9,2.38,3.37,4.53,6.4,6.28,8.9a.26.26,0,0,1-.07.35A.23.23,0,0,1,123.46,199.67Z"/><path class="cls-1" d="M121.94,218.82a.3.3,0,0,1-.15,0c-9.88-7.31-16.34-17-23.17-27.21L86,172.73a.25.25,0,0,1,.36-.33c8.39,6.45,17.37,16.64,24.64,27.95,5.49,8.54,11.81,15.23,16.1,17a.23.23,0,0,1,.13.32.25.25,0,0,1-.32.14c-5.32-2.24-12.12-10.68-16.32-17.23-6.89-10.71-15.31-20.4-23.3-26.85L99,191.28c6.8,10.2,13.23,19.83,23,27.09a.24.24,0,0,1,0,.35A.23.23,0,0,1,121.94,218.82Z"/><path class="cls-1" d="M122.27,191.21a.24.24,0,0,1-.22-.14c-3.91-7.64-7.42-13.62-10.51-18.9-6.33-10.77-10.9-18.55-13.79-31.72a.25.25,0,0,1,.42-.23c6.52,6.11,9.43,13.24,11.61,20.05,1.54,4.78,4.44,10.3,7.24,15.63,1.79,3.4,3.48,6.61,4.77,9.53a.24.24,0,0,1-.13.33.25.25,0,0,1-.33-.13c-1.28-2.9-3-6.11-4.75-9.5-2.82-5.35-5.73-10.88-7.27-15.71-2.1-6.53-4.87-13.36-10.89-19.27,2.88,12.6,7.37,20.26,13.55,30.77,3.1,5.28,6.61,11.26,10.52,18.92a.25.25,0,0,1-.1.34Z"/><path class="cls-1" d="M120,161.29a.24.24,0,0,1-.21-.12c-2.55-4.14-4.8-7.51-7-10.77-2.92-4.39-5.69-8.54-8.49-13.59-2.62-4.72-5.46-9.77-8.47-14.78-3.59-6-5.33-11.27-5.33-16.2a.25.25,0,0,1,.17-.23.25.25,0,0,1,.28.08c6.65,8.37,10.86,16.11,15.14,25.16a233.59,233.59,0,0,0,14,25.33.25.25,0,0,1-.43.27,236.38,236.38,0,0,1-14-25.39c-4.16-8.81-8.26-16.37-14.61-24.48.16,4.62,1.88,9.61,5.24,15.21,3,5,5.85,10.06,8.47,14.79,2.8,5,5.56,9.17,8.48,13.55,2.17,3.27,4.42,6.64,7,10.79a.25.25,0,0,1-.08.35A.31.31,0,0,1,120,161.29Z"/><path class="cls-1" d="M120.26,121.59a.25.25,0,0,1-.22-.13c-2.05-3.72-4-7.53-5.88-11.21a211,211,0,0,0-12.5-22.2.24.24,0,0,1,0-.31.23.23,0,0,1,.3,0c5,2.7,8.59,6.79,12.49,14.13,1,2,2,4,2.94,5.92,1.12,2.31,2.27,4.7,3.54,7a.26.26,0,0,1-.1.34.25.25,0,0,1-.34-.09c-1.27-2.31-2.43-4.71-3.55-7-.93-1.94-1.9-4-2.93-5.9-3.61-6.78-7-10.75-11.37-13.4a220.46,220.46,0,0,1,12,21.37c1.88,3.68,3.82,7.49,5.87,11.2a.26.26,0,0,1-.1.34A.27.27,0,0,1,120.26,121.59Z"/><path class="cls-1" d="M119.88,156.55a.24.24,0,0,1-.22-.14c-2.84-5.95-5.65-16-8.13-24.88-2.37-8.46-5-18-6.33-17.73a.47.47,0,0,0-.28.29c-1.17,2.49,3,16.62,6.07,23.1,2.48,5.33,2.64,6,3,7.93.1.45.21,1,.37,1.61a.25.25,0,0,1-.49.12c-.16-.66-.27-1.18-.37-1.62-.39-1.86-.54-2.55-3-7.83-2.88-6.18-7.42-20.66-6.07-23.53a1,1,0,0,1,.61-.56c1.69-.4,3.53,5.93,6.93,18.08,2.47,8.86,5.28,18.9,8.1,24.8a.25.25,0,0,1-.12.34Z"/><path class="cls-1" d="M121.28,112a.26.26,0,0,1-.24-.16,81.29,81.29,0,0,1-3.14-12.21c-1.59-7.81-3.24-15.87-9-22.07a121.56,121.56,0,0,0,4.87,18.4c1.16,3.61,2.36,7.34,3.4,11.31a.24.24,0,0,1-.18.3.24.24,0,0,1-.3-.18c-1-4-2.24-7.67-3.4-11.27-2-6.36-4-12.36-5-19.26a.24.24,0,0,1,.14-.26.26.26,0,0,1,.29,0c6.32,6.38,8,14.77,9.69,22.89a80.81,80.81,0,0,0,3.12,12.13.25.25,0,0,1-.14.32Z"/><path class="cls-1" d="M120.31,122.49h0a.25.25,0,0,1-.19-.3c3.14-13.63,8.11-21.81,12.92-29.73a105.87,105.87,0,0,0,8.48-16c-9.93,10.19-17.27,23.37-20.21,36.35a.25.25,0,0,1-.3.18.25.25,0,0,1-.19-.3c3-13.42,10.77-27.07,21.19-37.45a.27.27,0,0,1,.32,0,.26.26,0,0,1,.09.3c-2.56,6.73-5.67,11.84-9,17.26-4.78,7.88-9.73,16-12.85,29.58A.26.26,0,0,1,120.31,122.49Z"/><path class="cls-1" d="M121.62,111.29h0a.25.25,0,0,1-.2-.29c1.78-10,6.52-22.39,13.74-35.8-4.49,2.56-8.22,5.91-10.08,9.08A41.42,41.42,0,0,0,120.39,97a.26.26,0,0,1-.3.2.25.25,0,0,1-.19-.3A42,42,0,0,1,124.61,84c2-3.41,6.12-7,11-9.68a.25.25,0,0,1,.29,0,.23.23,0,0,1,0,.29c-7.41,13.66-12.29,26.25-14.09,36.41A.25.25,0,0,1,121.62,111.29Z"/><path class="cls-1" d="M121.25,111.29a.25.25,0,0,1-.25-.2c-2.48-13.44-.2-25.43,1.16-32.59.36-1.89.66-3.45.79-4.61a24.15,24.15,0,0,0-6,18.93.25.25,0,0,1-.21.28.25.25,0,0,1-.29-.21A24.6,24.6,0,0,1,123.08,73a.22.22,0,0,1,.27-.05.23.23,0,0,1,.15.24,47,47,0,0,1-.84,5.36C121.3,85.72,119,97.65,121.49,111a.25.25,0,0,1-.2.29Z"/><path class="cls-1" d="M120.29,148.59a.24.24,0,0,1-.23-.16l-.32-.78a.25.25,0,1,1,.47-.19l0,.08A95.34,95.34,0,0,1,131.84,121c1.37-2.18,2.92-4.64,2.54-7.12-2.76,1.15-4.21,4.19-5.46,7.21l-8.23,20a.26.26,0,0,1-.33.14.25.25,0,0,1-.14-.33l8.24-20c1.27-3.08,2.89-6.47,6-7.6a.26.26,0,0,1,.33.18c.6,2.79-1.08,5.44-2.56,7.78a95.29,95.29,0,0,0-11.73,27.12.27.27,0,0,1-.23.19Z"/><path class="cls-1" d="M120,159.37a.22.22,0,0,1-.13,0,.24.24,0,0,1-.08-.34,244.53,244.53,0,0,0,20-41.24c1-2.67,4.13-13.53,3.34-16.82-2.71,5.94-5,11.53-7.17,16.94-4.46,11-8.67,21.39-15.61,31.78a.24.24,0,0,1-.35.07.25.25,0,0,1-.06-.35c6.91-10.34,11.11-20.71,15.56-31.69,2.26-5.58,4.6-11.35,7.43-17.5a.24.24,0,0,1,.21-.14.27.27,0,0,1,.23.12c1.57,2.75-2.19,15.28-3.12,17.76a243.29,243.29,0,0,1-20,41.33A.22.22,0,0,1,120,159.37Z"/><path class="cls-1" d="M122.17,190.85l-.1,0a.26.26,0,0,1-.13-.33c.74-1.7,1.51-3.43,2.29-5.18,4.88-11,10.42-23.42,9.82-36.23-1.75,1.19-4.84,10.46-5.84,14.23-.85,3.16-1.63,6.79-2.37,10.31-1.41,6.57-2.62,12.24-4,14a.25.25,0,0,1-.39-.32c1.34-1.65,2.6-7.54,3.93-13.78.75-3.52,1.52-7.16,2.37-10.33,0-.14,4-14.3,6.52-14.71a.26.26,0,0,1,.19.05.27.27,0,0,1,.1.19c.73,13-4.89,25.67-9.85,36.8q-1.17,2.63-2.28,5.18A.25.25,0,0,1,122.17,190.85Z"/><path class="cls-1" d="M123.8,202.34a.25.25,0,0,1-.25-.25c0-4.44,2.86-10.16,5.4-15.2.39-.77.77-1.53,1.13-2.27,1.28-2.58,2.76-5.3,4.33-8.17a134.43,134.43,0,0,0,7.34-14.81c2.6-6.73,4.36-11.83,4.79-19.94-2.25,3.94-4.39,9.51-6.46,14.91-1.25,3.27-2.54,6.64-3.87,9.67-.79,1.82-1.79,4.27-2.86,6.87-3.5,8.56-7.87,19.21-10.45,21.68a.23.23,0,0,1-.35,0,.24.24,0,0,1,0-.35c2.51-2.4,7-13.45,10.34-21.51,1.06-2.6,2.07-5.05,2.87-6.87,1.32-3,2.61-6.4,3.86-9.66,2.23-5.82,4.54-11.85,7-15.84a.26.26,0,0,1,.29-.11.25.25,0,0,1,.18.25c-.34,8.77-2.15,14-4.88,21.09a131.92,131.92,0,0,1-7.36,14.87c-1.57,2.87-3,5.58-4.32,8.15-.36.74-.74,1.5-1.13,2.27-2.52,5-5.36,10.66-5.35,15a.25.25,0,0,1-.25.25Z"/><path class="cls-1" d="M134.67,274.94a.24.24,0,0,1-.25-.24c-.27-7.17,3.19-11.41,7.19-16.32a49.2,49.2,0,0,0,7.46-11.25c.78-1.74,2.31-6.3,2.18-8.22a73.54,73.54,0,0,1-5.65,7.61c-4,4.95-8.14,10.07-10.61,17.29a.24.24,0,0,1-.32.15.24.24,0,0,1-.15-.32c2.5-7.3,6.85-12.68,10.69-17.43a68.63,68.63,0,0,0,5.94-8.09.26.26,0,0,1,.23-.13.25.25,0,0,1,.21.15c.77,1.69-1.43,7.79-2.06,9.2A50.46,50.46,0,0,1,142,258.7c-3.93,4.83-7.33,9-7.07,16a.25.25,0,0,1-.24.26Z"/><path class="cls-1" d="M142.21,230.61a.27.27,0,0,1-.25-.21c-1.61-9.57.15-19.15,3.31-30.59a.24.24,0,0,1,.26-.18.26.26,0,0,1,.23.22,69.14,69.14,0,0,1-.24,15.59c-.38,3.63-.68,6.5,0,9.54a.24.24,0,0,1-.18.3.24.24,0,0,1-.3-.18c-.75-3.13-.44-6-.05-9.71a70.48,70.48,0,0,0,.36-14.12c-2.91,10.79-4.47,19.93-2.93,29a.26.26,0,0,1-.21.29Z"/><path class="cls-1" d="M145.51,225a.25.25,0,0,1-.16-.45c8.17-6.81,16-13.87,21.53-25.12L165,201.2c-5.63,5.28-11.45,10.73-15.71,17.28a.25.25,0,0,1-.34.08.26.26,0,0,1-.08-.35c4.29-6.61,10.14-12.08,15.79-17.37l2.9-2.73a.24.24,0,0,1,.31,0,.25.25,0,0,1,.08.31c-5.62,12-13.73,19.42-22.24,26.51A.27.27,0,0,1,145.51,225Z"/><path class="cls-1" d="M139.27,238.85a.27.27,0,0,1-.16-.06.25.25,0,0,1,0-.35c10.48-12.84,21.84-20.07,35-28.32a30.39,30.39,0,0,0-9.51,3.56,109.39,109.39,0,0,0-10.87,8.06,106.39,106.39,0,0,1-10.91,8.09.26.26,0,0,1-.35-.07.26.26,0,0,1,.08-.35,106.34,106.34,0,0,0,10.87-8.06,107.88,107.88,0,0,1,10.91-8.09,30,30,0,0,1,10.88-3.8.25.25,0,0,1,.26.17.24.24,0,0,1-.11.29l-.47.3c-13.31,8.37-24.8,15.59-35.36,28.54A.27.27,0,0,1,139.27,238.85Z"/><path class="cls-1" d="M151.57,212.49a.23.23,0,0,1-.17-.07.25.25,0,0,1,0-.35l24-25.17a104.41,104.41,0,0,0,11.08-13,35.09,35.09,0,0,0,6.11-14.7c-11.61,15.41-24.06,30.46-37,44.76a.24.24,0,0,1-.06.09l-.61.64a.24.24,0,0,1-.35,0,.25.25,0,0,1,0-.35c13.41-14.73,26.27-30.28,38.24-46.2a.23.23,0,0,1,.29-.08.25.25,0,0,1,.16.25,35,35,0,0,1-6.31,15.86,105.67,105.67,0,0,1-11.14,13l-24,25.17A.24.24,0,0,1,151.57,212.49Z"/><path class="cls-1" d="M156,201a.24.24,0,0,1-.16-.05.25.25,0,0,1,0-.35c8.38-10.59,15.34-22,18.84-30.75-5.57,6.09-10.54,11.89-14.73,19.66a.25.25,0,0,1-.34.1.26.26,0,0,1-.1-.34c4.44-8.23,9.74-14.26,15.7-20.73a.23.23,0,0,1,.31,0,.26.26,0,0,1,.11.3c-3.34,9-10.59,21-19.4,32.11A.25.25,0,0,1,156,201Z"/><path class="cls-1" d="M153.46,221.84a.25.25,0,0,1-.19-.09.25.25,0,0,1,0-.35c3.56-3,6.74-5.49,9.82-7.9s6.25-4.9,9.8-7.9l.64-.54c7.27-6.12,13.59-11.45,18.85-19.43a212,212,0,0,0-20.89,16.15c-1.72,1.49-3.16,2.89-4.55,4.24a50.48,50.48,0,0,1-8.59,7.17.26.26,0,0,1-.35-.08.25.25,0,0,1,.08-.34,50.31,50.31,0,0,0,8.51-7.1c1.4-1.37,2.84-2.77,4.57-4.27a215.73,215.73,0,0,1,21.95-16.88.26.26,0,0,1,.31,0,.24.24,0,0,1,0,.31c-5.42,8.63-12,14.17-19.6,20.59l-.65.54c-3.56,3-6.74,5.49-9.81,7.9s-6.25,4.89-9.81,7.89A.23.23,0,0,1,153.46,221.84Z"/><path class="cls-1" d="M147,222.24h-.07a.25.25,0,0,1-.17-.31l.08-.28c3.44-12.18,4.73-16.73.62-38.79a.24.24,0,0,1,.13-.26.24.24,0,0,1,.29,0c4.32,4.19,5.84,11.58,6.9,22.15a.25.25,0,1,1-.5.05c-1-10-2.4-17.07-6.18-21.25,3.95,21.47,2.64,26.09-.78,38.19l-.08.29A.25.25,0,0,1,147,222.24Z"/><path class="cls-1" d="M156.7,187.7h-.07a.27.27,0,0,1-.18-.31c2.57-9.45,3.2-17.59,2.25-29-.22-2.74-.52-5.55-.8-8.28-.81-7.75-1.65-15.77-1-22.74a.24.24,0,0,1,.2-.22.25.25,0,0,1,.27.13c4.55,8.34,4.9,22,5.18,32.9.17,6.45.31,12,1.21,15.59a.25.25,0,0,1-.19.3.24.24,0,0,1-.3-.18c-.91-3.61-1.05-9.22-1.22-15.7-.27-10.56-.61-23.62-4.72-31.92-.52,6.72.28,14.38,1.06,21.79.28,2.73.58,5.55.8,8.29,1,11.51.32,19.69-2.26,29.2A.26.26,0,0,1,156.7,187.7Z"/><path class="cls-1" d="M157.87,195.35a.26.26,0,0,1-.25-.2c-.82-4.11-1.73-12-2.78-21.11-1.2-10.35-2.55-22-4.05-30.31-2,13.3-.51,24.43.91,35.2.66,5.07,1.35,10.31,1.64,15.63a.24.24,0,0,1-.23.26.26.26,0,0,1-.27-.23c-.29-5.31-1-10.54-1.64-15.6-1.47-11.19-3-22.76-.67-36.79a.26.26,0,0,1,.24-.21h0a.26.26,0,0,1,.25.21c1.6,8.37,3,20.81,4.31,31.78,1.06,9.11,2,17,2.78,21.07a.24.24,0,0,1-.19.29Z"/><path class="cls-1" d="M166.36,164.91h0a.25.25,0,0,1-.21-.28c1.26-9.54,1.33-29.35-.39-38-.68-3.43-1.61-6.91-2.51-10.29a101.7,101.7,0,0,1-3.5-16.78.23.23,0,0,1,.07-.19.23.23,0,0,1,.18-.08c4.3,0,6.17,12.31,8,24.21,1.15,7.59,2.24,14.76,3.84,17.91a.24.24,0,0,1-.11.34.25.25,0,0,1-.33-.11c-1.64-3.22-2.74-10.43-3.89-18.06-1.65-10.88-3.52-23.18-7.2-23.77a104.58,104.58,0,0,0,3.45,16.41c.9,3.38,1.83,6.87,2.52,10.31,1.73,8.72,1.66,28.61.4,38.19A.26.26,0,0,1,166.36,164.91Z"/><path class="cls-1" d="M164.92,170.6a.27.27,0,0,1-.18-.08.25.25,0,0,1,0-.35l28.12-27.29c5.29-5.13,9.19-9.6,12-15.62-13.82,11.37-24.6,21.35-37.42,33.67a.25.25,0,0,1-.35,0,.24.24,0,0,1,0-.35c13.07-12.57,24-22.71,38.27-34.38a.24.24,0,0,1,.31,0,.25.25,0,0,1,.08.29c-2.88,6.61-6.94,11.31-12.55,16.76L165.1,170.53A.24.24,0,0,1,164.92,170.6Z"/><path class="cls-1" d="M168.82,153.85a.25.25,0,0,1-.24-.18.25.25,0,0,1,.17-.31c1.9-.55,4.31-4,7.11-8a68.6,68.6,0,0,1,7.94-10,.24.24,0,0,1,.3,0,.26.26,0,0,1,.11.29c-3.28,10.05-3.91,11.28-7.32,16.29a.25.25,0,0,1-.35.07.25.25,0,0,1-.06-.35c3.26-4.79,4-6.09,6.93-15.18a75,75,0,0,0-7.14,9.16c-2.85,4.06-5.31,7.56-7.38,8.16Z"/><path class="cls-1" d="M174.42,128.24a.33.33,0,0,1-.13,0,.24.24,0,0,1-.08-.34c2.83-4.78,6-9.63,9-14.33s6.18-9.55,9-14.32a3.39,3.39,0,0,0,.65-1.79,1.19,1.19,0,0,0-.47-.86.69.69,0,0,0-.57-.13,12.82,12.82,0,0,0-2.43,1.7c-8.43,11.25-13,19.7-14.06,25.85a.24.24,0,0,1-.28.21.25.25,0,0,1-.21-.29c1-6.23,5.67-14.76,14.15-26.07a12.06,12.06,0,0,1,2.71-1.89,1.17,1.17,0,0,1,1,.22,1.72,1.72,0,0,1,.67,1.23,3.79,3.79,0,0,1-.72,2.07c-2.83,4.79-6,9.64-9,14.34s-6.17,9.55-9,14.31A.26.26,0,0,1,174.42,128.24Z"/><path class="cls-1" d="M174.42,127.6a.24.24,0,0,1-.25-.24c-.18-11.15,1.44-27,6.5-38.1a.27.27,0,0,1,.26-.14.24.24,0,0,1,.22.2c1,5.57-.53,12.65-1.87,18.9-.65,3.07-1.27,6-1.56,8.48a.25.25,0,0,1-.28.22.26.26,0,0,1-.22-.28c.3-2.53.92-5.45,1.58-8.53,1.25-5.89,2.67-12.53,2-17.86-4.75,11-6.28,26.27-6.11,37.1a.25.25,0,0,1-.25.25Z"/><path class="cls-1" d="M173.06,134.83h0a.25.25,0,0,1-.21-.28c1-6.24-.13-15.74-1.2-24.94a158.73,158.73,0,0,1-1.41-16.69.23.23,0,0,1,.18-.24.26.26,0,0,1,.29.12c3,5.66,3.91,12.71,4.73,18.93l0,.32a.24.24,0,0,1-.21.28.25.25,0,0,1-.28-.21l0-.33c-.77-5.83-1.64-12.39-4.2-17.79.09,4.37.73,9.81,1.39,15.56,1.08,9.22,2.19,18.76,1.21,25.06A.26.26,0,0,1,173.06,134.83Z"/><path class="cls-1" d="M169.35,150.35a.3.3,0,0,1-.16,0,.26.26,0,0,1,0-.36c2.71-3.33,4.77-6,6.77-8.62s4.06-5.3,6.77-8.63l1.79-2.15c2.54-3,6-7.15,7.3-9.8,1.4-2.88,2.6-5.75,2.13-9-1.13,3.36-4.09,7.61-6.65,10.66-5.45,6.47-13.12,16.52-15.85,21.17a.28.28,0,0,1-.35.09.27.27,0,0,1-.08-.35c2.75-4.67,10.44-14.75,15.9-21.23,2.79-3.32,6.05-8.07,6.83-11.47a.26.26,0,0,1,.24-.19h0a.26.26,0,0,1,.25.19c1,3.84-.45,7.22-2,10.35-1.31,2.71-4.81,6.87-7.37,9.9-.67.81-1.29,1.53-1.78,2.14-2.71,3.33-4.77,6-6.76,8.63s-4.07,5.29-6.78,8.63A.25.25,0,0,1,169.35,150.35Z"/><path class="cls-1" d="M130.07,231.32l-.11,0a.25.25,0,0,1-.12-.33c.82-1.83,1.86-4.06,3-6.43,2-4.3,4.3-9.17,5.67-12.62a156.43,156.43,0,0,0,7.74-23.8,69.56,69.56,0,0,0,1.38-23.77,95.25,95.25,0,0,0-3.11,15.72c-.3,2.15-.62,4.38-1,6.56A115.5,115.5,0,0,1,129,226.35a.25.25,0,1,1-.43-.25A115,115,0,0,0,143,186.55c.37-2.17.68-4.4,1-6.55.79-5.6,1.6-11.39,3.47-16.83a.26.26,0,0,1,.26-.17.25.25,0,0,1,.22.22,68.82,68.82,0,0,1-1.24,25A155.54,155.54,0,0,1,139,212.1c-1.38,3.47-3.67,8.35-5.69,12.66-1.1,2.36-2.15,4.58-3,6.41A.26.26,0,0,1,130.07,231.32Z"/><path class="cls-1" d="M128.7,225a.2.2,0,0,1-.11,0,.25.25,0,0,1-.11-.33,60.54,60.54,0,0,0,5.6-16.31c.45-2.05.94-4.08,1.46-6.24,2-8.05,4-16.36,3-24.41-2.81,6.88-4.48,16.28-6,24.61-1.33,7.48-2.59,14.53-4.47,19a.23.23,0,0,1-.32.13.25.25,0,0,1-.14-.32c1.86-4.38,3.11-11.41,4.43-18.85,1.55-8.7,3.3-18.57,6.36-25.57a.25.25,0,0,1,.26-.15.27.27,0,0,1,.22.21c1.28,8.43-.83,17.11-2.87,25.51-.52,2.15-1,4.19-1.46,6.22a61.37,61.37,0,0,1-5.65,16.43A.24.24,0,0,1,128.7,225Z"/></svg>