<svg id="Camada_1" data-name="Camada 1" xmlns="http://www.w3.org/2000/svg" viewBox="0 0 138.94 286.32"><defs><style>.cls-1{fill:#745d79;}</style></defs><path class="cls-1" d="M69.15,53.13a.38.38,0,0,1-.37-.28l-3.19-11.4a.37.37,0,0,1,.26-.46.37.37,0,0,1,.46.26l3.2,11.4a.37.37,0,0,1-.26.46Z"/><path class="cls-1" d="M90,244.05H90a.38.38,0,0,1-.32-.43c1.23-8.54,7.31-18,12.59-24,1.28-1.44,2.49-2.77,3.65-4a106.08,106.08,0,0,0,10.69-13.16c.58-.87,1.22-1.76,1.88-2.68a36,36,0,0,0,4.79-8,5.48,5.48,0,0,0,.39-3.73,3.58,3.58,0,0,0-3.24-2,8.85,8.85,0,0,0-4.09,1.1c-6.58,3.15-10.33,9.84-14,16.3l-.88,1.57a94,94,0,0,0-9,22.25,33.77,33.77,0,0,1-1.24,3.55c-.94,2.42-1.83,4.7-1.46,7.18a.38.38,0,0,1-.31.43.37.37,0,0,1-.43-.32c-.4-2.67.57-5.16,1.51-7.56a32.31,32.31,0,0,0,1.2-3.47,95,95,0,0,1,9.13-22.43l.88-1.56c3.68-6.57,7.49-13.37,14.28-16.62a9.62,9.62,0,0,1,4.45-1.17,4.34,4.34,0,0,1,3.91,2.49,6.05,6.05,0,0,1-.39,4.26,36.19,36.19,0,0,1-4.88,8.17c-.65.91-1.29,1.8-1.87,2.66a106.77,106.77,0,0,1-10.75,13.24c-1.16,1.28-2.37,2.61-3.64,4-5.21,5.89-11.21,15.18-12.42,23.56A.38.38,0,0,1,90,244.05Z"/><path class="cls-1" d="M89.71,241.72a.34.34,0,0,1-.36-.3v-.15c0-3-1.4-13.17-19-19.11-16.63-5.61-35.87-17.91-38-27.27-.61-2.68-.36-4.56.76-5.59,1.51-1.39,4-.65,4.07-.61,36.82,13.87,51.81,44.7,52,45a.38.38,0,0,1-.68.32c-.14-.31-15-30.87-51.53-44.62h0s-2.13-.65-3.31.45c-.91.83-1.09,2.47-.54,4.87,1.67,7.36,17.15,19.86,37.51,26.73,18.08,6.1,19.51,16.71,19.52,19.82a.42.42,0,0,1-.34.45Z"/><path class="cls-1" d="M87.46,233.69a.38.38,0,0,1-.34-.21c-1.8-3.69-8.46-9.49-10.46-11.18-4.54-3.84-10.52-6.83-16.29-9.73-1.54-.77-3-1.52-4.49-2.27a61.1,61.1,0,0,1-22.64-20.46.37.37,0,0,1,.11-.52.38.38,0,0,1,.52.11,60.32,60.32,0,0,0,22.36,20.2c1.44.75,2.94,1.5,4.47,2.27,5.82,2.92,11.83,5.93,16.45,9.83,2.59,2.19,8.83,7.7,10.64,11.42a.37.37,0,0,1-.17.5A.32.32,0,0,1,87.46,233.69Z"/><path class="cls-1" d="M83.82,209.23a.38.38,0,0,1-.36-.27c-1.6-5.75-6.64-12.69-10.57-16.29a52.24,52.24,0,0,0-14.38-9c-9.84-4.38-21.2-10-30.87-18.06C22,160.8,15.13,145.23,16.91,141.06a1.82,1.82,0,0,1,2-1.17c3.25.36,4.74,2.84,7,6.6a55.52,55.52,0,0,0,17.64,19,64.51,64.51,0,0,0,10.77,5.79c7.72,3.49,15,6.79,25.48,22.35a.37.37,0,0,1-.62.42C68.85,178.68,61.65,175.43,54,172a64.64,64.64,0,0,1-10.88-5.87,56,56,0,0,1-17.86-19.25c-2.21-3.69-3.55-5.91-6.43-6.23a1.1,1.1,0,0,0-1.26.71c-1.52,3.58,4.72,18.78,10.52,23.64,9.6,8,20.91,13.59,30.7,17.95a53.55,53.55,0,0,1,14.58,9.17c4,3.68,9.15,10.77,10.78,16.65a.37.37,0,0,1-.26.46Z"/><path class="cls-1" d="M71.93,188.77a.37.37,0,0,1-.32-.17C68,183,61.73,180,55.63,177.05l-1.26-.61A104.68,104.68,0,0,1,33.6,163.75,55.29,55.29,0,0,1,18.2,145c-1-2-.95-3.62.05-4.52a.38.38,0,0,1,.53,0,.37.37,0,0,1,0,.53c-1,.89-.34,2.66.13,3.64a54.57,54.57,0,0,0,15.19,18.55,104,104,0,0,0,20.63,12.6l1.26.6c6.19,3,12.59,6,16.28,11.82a.38.38,0,0,1-.11.52A.41.41,0,0,1,71.93,188.77Z"/><path class="cls-1" d="M83.08,206.94a.38.38,0,0,1-.37-.31c-1.43-7.85,1.65-15.51,4.49-20.56a106.38,106.38,0,0,1,8.08-11.8c1.36-1.82,2.78-3.7,4.11-5.58a109.71,109.71,0,0,0,13.85-26.93,5.2,5.2,0,0,0,.35-3.62c-.72-1.67-3-2-5-1.55-4,1-7,4.35-9.51,7.47a99.74,99.74,0,0,0-17.59,34.36c-1.4,4.92-2.77,11.31-1,17.15a.38.38,0,0,1-.25.47.38.38,0,0,1-.47-.25c-1.87-6-.47-12.56,1-17.58A100.49,100.49,0,0,1,98.51,143.6c2.55-3.22,5.72-6.66,9.91-7.73,2.25-.58,5-.08,5.86,2A5.8,5.8,0,0,1,114,142a110.56,110.56,0,0,1-14,27.12c-1.33,1.89-2.75,3.78-4.12,5.6a106.86,106.86,0,0,0-8,11.72c-2.77,4.94-5.79,12.43-4.41,20.06a.36.36,0,0,1-.3.43Z"/><path class="cls-1" d="M81.3,200.05a.38.38,0,0,1-.38-.37c-.13-9.31,1.42-12.37,4-17.44l.31-.6A153.87,153.87,0,0,1,95,165.74c1.36-2,2.77-4.12,4.11-6.21,4.25-6.6,8.82-14.56,10.57-23.5a.38.38,0,1,1,.74.14c-1.78,9.07-6.4,17.1-10.68,23.77-1.34,2.09-2.75,4.19-4.11,6.22A152,152,0,0,0,85.89,182l-.31.61c-2.52,5-4,8-3.91,17.09a.38.38,0,0,1-.37.38Z"/><path class="cls-1" d="M60.22,149a.36.36,0,0,1-.34-.22C58.6,146,58,146.05,57,146.11a6.11,6.11,0,0,1-1.05,0,11.52,11.52,0,0,0-3.73.43l-1.29.27c-2.29.43-4.07.14-5.28-.84a2.93,2.93,0,0,1-1.09-1.71,2.06,2.06,0,0,1,.7-2,3,3,0,0,1,.8-.39,2.8,2.8,0,0,0,.55-.26,7.45,7.45,0,0,0,.93-.77,4.68,4.68,0,0,1,1.66-1.16,2.09,2.09,0,0,1,2.31.27,19.37,19.37,0,0,0,3.19,1.8A20.66,20.66,0,0,1,58,143.63a.37.37,0,0,1,.07.53.38.38,0,0,1-.52.07,19.37,19.37,0,0,0-3.19-1.8,20.66,20.66,0,0,1-3.31-1.88,1.36,1.36,0,0,0-1.6-.16,4.18,4.18,0,0,0-1.41,1,8.79,8.79,0,0,1-1,.85,3.69,3.69,0,0,1-.7.33,2.09,2.09,0,0,0-.6.29,1.27,1.27,0,0,0-.42,1.26,2.18,2.18,0,0,0,.82,1.27c1,.84,2.61,1.07,4.67.68l1.27-.26a12.34,12.34,0,0,1,4-.45,4.71,4.71,0,0,0,.92,0c1.32-.07,2.2,0,3.62,3.11a.37.37,0,0,1-.19.49A.28.28,0,0,1,60.22,149Z"/><path class="cls-1" d="M59.5,147.88a.37.37,0,0,1-.33-.21c-.81-1.65.34-2.42,1.46-3.17a11.35,11.35,0,0,0,1.22-.91,18,18,0,0,1,2.84-2A21.42,21.42,0,0,0,67,140.12a2.37,2.37,0,0,0,.82-2.62,2.58,2.58,0,0,0-1.69-1.29h0a7.2,7.2,0,0,0-2.52.51,10.19,10.19,0,0,0-4.78,5,.38.38,0,0,1-.7-.27,18.36,18.36,0,0,0,1.06-5.22,5.83,5.83,0,0,0-1.86-4.6,6.64,6.64,0,0,0-4.21-1.29,1.81,1.81,0,0,0-1.49.47,1.44,1.44,0,0,0-.23,1.22c.19,1.07.1,1.79-.29,2.19l0,0a2.81,2.81,0,0,1,1.58,2.44c-.18,1.7-.58,2-1.39,2.48a7.23,7.23,0,0,0-.87.58.38.38,0,0,1-.52-.07.37.37,0,0,1,.06-.52,7.52,7.52,0,0,1,1-.64c.65-.38.87-.51,1-1.91.07-.62-.58-1.39-1.69-2l-.15-.09a.48.48,0,0,1-.26-.48.44.44,0,0,1,.44-.26.37.37,0,0,0,.31-.07c.09-.1.29-.45.1-1.55a2.11,2.11,0,0,1,.4-1.85,2.56,2.56,0,0,1,2.07-.72,7.37,7.37,0,0,1,4.67,1.46,6.6,6.6,0,0,1,2.13,5.18,12.49,12.49,0,0,1-.36,2.8,11.19,11.19,0,0,1,3.69-3,7.94,7.94,0,0,1,2.85-.59h0a3.26,3.26,0,0,1,2.37,1.73,3.1,3.1,0,0,1-1,3.52,21,21,0,0,1-2.37,1.56,19.57,19.57,0,0,0-2.72,1.87,11.65,11.65,0,0,1-1.3,1c-1.2.81-1.7,1.2-1.21,2.22a.38.38,0,0,1-.17.5A.47.47,0,0,1,59.5,147.88Z"/><path class="cls-1" d="M45.53,142.32a2,2,0,0,1-.6-.08,2.38,2.38,0,0,1-1.57-1.44h0a2.28,2.28,0,0,1-.06-.83,1.71,1.71,0,0,0,0-.52,2,2,0,0,0-.5.18,1.85,1.85,0,0,1-.4.15,2.32,2.32,0,0,1-1.78-.25,2.2,2.2,0,0,1-.49-2.89,3.39,3.39,0,0,1,1.65-1.34,2.36,2.36,0,0,1-.32-.48,2.1,2.1,0,0,1-.07-1.63,2.58,2.58,0,0,1,2.34-1.57,3.82,3.82,0,0,1,2.25.7,4.55,4.55,0,0,1,1.63-1.54,2.81,2.81,0,0,1,2.74,0,2.39,2.39,0,0,1,1.15,1.85,2.34,2.34,0,0,1-.44,1.54,2.88,2.88,0,0,1,1.48,1.77,3.27,3.27,0,0,1-.55,2.79,3.88,3.88,0,0,1-2.42,1.44,2,2,0,0,1-1.24-.14,3.3,3.3,0,0,1-.91,1.56A2.74,2.74,0,0,1,45.53,142.32Zm-1.46-1.78a1.58,1.58,0,0,0,1.06,1,1.89,1.89,0,0,0,1.76-.51,2.86,2.86,0,0,0,.82-1.83.38.38,0,0,1,.34-.33.35.35,0,0,1,.39.25c.09.28.57.37,1,.29a3.15,3.15,0,0,0,2-1.15,2.5,2.5,0,0,0,.43-2.13,2,2,0,0,0-1.5-1.44.38.38,0,0,1-.29-.28.35.35,0,0,1,.13-.38,1.61,1.61,0,0,0-.19-2.63,2.12,2.12,0,0,0-2,.06,4.21,4.21,0,0,0-1.56,1.62.38.38,0,0,1-.56.09,3.2,3.2,0,0,0-2.08-.78,1.86,1.86,0,0,0-1.67,1.09,1.39,1.39,0,0,0,.05,1,1.13,1.13,0,0,0,.6.58.37.37,0,0,1,.26.37.38.38,0,0,1-.29.35A3.07,3.07,0,0,0,40.76,137,1.46,1.46,0,0,0,41,138.9a1.52,1.52,0,0,0,1.19.15,1.55,1.55,0,0,0,.27-.1c.37-.17,1-.44,1.37,0a1.43,1.43,0,0,1,.19,1,1.74,1.74,0,0,0,0,.53Z"/><path class="cls-1" d="M46.06,137.83a1.89,1.89,0,0,1-.67-.12,1.39,1.39,0,0,1-.77-.71,1.18,1.18,0,0,1,.06-1,1.83,1.83,0,0,1,1-1,2.94,2.94,0,0,1,1.22,0,1.25,1.25,0,0,1,.7.29,1,1,0,0,1,.25.8,1.86,1.86,0,0,1-.84,1.43A1.89,1.89,0,0,1,46.06,137.83Zm.18-2.11a1.24,1.24,0,0,0-.33,0,1.06,1.06,0,0,0-.55.56.56.56,0,0,0-.06.38h0a.65.65,0,0,0,.37.31,1.14,1.14,0,0,0,1-.09,1.13,1.13,0,0,0,.49-.85.29.29,0,0,0,0-.22.67.67,0,0,0-.27-.07A3.94,3.94,0,0,0,46.24,135.72Z"/><path class="cls-1" d="M59.55,137.6a.38.38,0,0,1-.25-.09.38.38,0,0,1,0-.53l4.12-4.74a5,5,0,0,0,1.46-2.54,2.6,2.6,0,0,0-1.51-2.52,3.35,3.35,0,0,0-3.09.26,4.67,4.67,0,0,0-2,2.62,2.3,2.3,0,0,0-.12,1.05,2.17,2.17,0,0,0,.28.49,2.29,2.29,0,0,1,.41.77.37.37,0,0,1-.72.18,1.9,1.9,0,0,0-.3-.52,2.14,2.14,0,0,1-.4-.78,2.89,2.89,0,0,1,.14-1.42,5.39,5.39,0,0,1,2.27-3,4.07,4.07,0,0,1,3.79-.3,3.35,3.35,0,0,1,1.94,3.27,5.57,5.57,0,0,1-1.63,3l-4.13,4.75A.38.38,0,0,1,59.55,137.6Z"/><path class="cls-1" d="M49.4,124.62a.38.38,0,0,1-.36-.26c-.24-.76-.88-1-1.62-1.19a5,5,0,0,1-.91-.34,9,9,0,0,0-4.31-.62l-.4,0a12.67,12.67,0,0,1-4.29-.34,4.37,4.37,0,0,1-3.18-3.53,3.74,3.74,0,0,1,.92-2.64,5,5,0,0,1,2.29-1.48,4.8,4.8,0,0,1,3.47.07,7.29,7.29,0,0,1,2.25,1.87l.41.44a8.59,8.59,0,0,0,2.83,1.73c.44.2.89.4,1.33.63a.38.38,0,0,1-.34.67c-.43-.23-.87-.42-1.3-.62a9.05,9.05,0,0,1-3.06-1.9l-.42-.44a6.5,6.5,0,0,0-2-1.69,4,4,0,0,0-2.93,0,4.32,4.32,0,0,0-2,1.26,3,3,0,0,0-.74,2.09,3.6,3.6,0,0,0,2.66,2.87,11.78,11.78,0,0,0,4,.31l.4,0a9.68,9.68,0,0,1,4.68.7,4.83,4.83,0,0,0,.79.3,2.72,2.72,0,0,1,2.12,1.67.38.38,0,0,1-.25.47Z"/><path class="cls-1" d="M48,120.3h-.1a.37.37,0,0,1-.26-.46c.48-1.83.83-3.46.24-4.91-.07-.16-.14-.31-.22-.47a3.5,3.5,0,0,1-.45-1.4,3.61,3.61,0,0,1,.24-1.29c.05-.15.1-.3.14-.45a3.75,3.75,0,0,0-1.51-4,2.31,2.31,0,0,0-1.88-.39,3.57,3.57,0,0,0-1.5,1.12,5.12,5.12,0,0,0-1.17,1.6,5.26,5.26,0,0,0-.19,2.12,5.43,5.43,0,0,1-.3,2.55.37.37,0,0,1-.68-.31,4.73,4.73,0,0,0,.23-2.21,4.57,4.57,0,0,1,1.57-4.27A4.35,4.35,0,0,1,44,106.21a3.06,3.06,0,0,1,2.5.5,4.53,4.53,0,0,1,1.83,4.79l-.15.49a2.78,2.78,0,0,0-.21,1,2.91,2.91,0,0,0,.37,1.11,4.9,4.9,0,0,1,.24.52c.74,1.8.19,3.87-.21,5.38A.36.36,0,0,1,48,120.3Z"/><path class="cls-1" d="M48.42,115.27a.38.38,0,0,1-.38-.37.37.37,0,0,1,.37-.38,3.2,3.2,0,0,0,2.8-1.89.36.36,0,0,1,.3-.22.36.36,0,0,1,.34.15,2,2,0,0,0,2.19.6,3.11,3.11,0,0,0,1.76-1.78,2.14,2.14,0,0,0,.14-1.51,2.43,2.43,0,0,0-1.48-1.26.38.38,0,0,1-.22-.45.37.37,0,0,1,.42-.27.81.81,0,0,0,.7-.34,2.93,2.93,0,0,0,.45-1,2.17,2.17,0,0,0,.08-1.87,2.15,2.15,0,0,0-1.35-.63,4.92,4.92,0,0,0-1.46-.16,1.32,1.32,0,0,0-1,.6.39.39,0,0,1-.31.2.38.38,0,0,1-.33-.16,2.45,2.45,0,0,0-3.07-.61,3.56,3.56,0,0,0-1.76,3,.38.38,0,0,1-.4.35.37.37,0,0,1-.35-.4A4.35,4.35,0,0,1,48,103.27a3.26,3.26,0,0,1,3.72.47,2.16,2.16,0,0,1,1.29-.57,5.29,5.29,0,0,1,1.71.17,2.21,2.21,0,0,1,1.82,3.47A4,4,0,0,1,56,108a2.31,2.31,0,0,1-.36.34,2.53,2.53,0,0,1,1.06,1.26,2.86,2.86,0,0,1-.15,2,3.79,3.79,0,0,1-2.22,2.2,2.78,2.78,0,0,1-2.64-.45,3.94,3.94,0,0,1-3.22,1.85Z"/><path class="cls-1" d="M51.05,109.79a2,2,0,0,1-.74-.13,1.13,1.13,0,0,1-.78-1c0-.2.11-.57.7-.76a2.37,2.37,0,0,1,1-.07l.17,0a1.1,1.1,0,0,1,.84.79h0a.88.88,0,0,1-.29.88A1.44,1.44,0,0,1,51.05,109.79Zm-.17-1.24a1.59,1.59,0,0,0-.43.06.41.41,0,0,0-.18.09.63.63,0,0,0,.33.27,1.1,1.1,0,0,0,.86,0s0,0,0-.16-.13-.16-.29-.21l-.1,0Z"/><path class="cls-1" d="M49,123.38h0a.37.37,0,0,1-.36-.39,7.68,7.68,0,0,1,2.29-4.79,14.48,14.48,0,0,1,3-2.16,9.67,9.67,0,0,0,3.46-2.89,2.84,2.84,0,0,0,.46-2.14,1.48,1.48,0,0,0-1.46-1.14.37.37,0,0,1-.42-.32.38.38,0,0,1,.32-.42,2.21,2.21,0,0,1,2.28,1.68,3.5,3.5,0,0,1-.54,2.74,10.4,10.4,0,0,1-3.71,3.13,13.72,13.72,0,0,0-2.82,2,7,7,0,0,0-2.07,4.3A.38.38,0,0,1,49,123.38Z"/><path class="cls-1" d="M48.68,121.76h-.1a.37.37,0,0,1-.26-.46,17.55,17.55,0,0,1,1.16-3.43A6.23,6.23,0,0,1,52,115.11a.37.37,0,1,1,.36.65,5.59,5.59,0,0,0-2.18,2.44A17.94,17.94,0,0,0,49,121.49.37.37,0,0,1,48.68,121.76Z"/><path class="cls-1" d="M37.4,114.78a.45.45,0,0,1-.16,0,25.32,25.32,0,0,1-3.62-2,4.58,4.58,0,0,1-2-2.23,3.83,3.83,0,0,1,.23-2.6,5.47,5.47,0,0,1,7.42-3.15A10.44,10.44,0,0,1,43,107.3a.37.37,0,1,1-.53.53A9.81,9.81,0,0,0,39,105.42a5.17,5.17,0,0,0-4,0,5.05,5.05,0,0,0-2.47,2.73,3.11,3.11,0,0,0-.22,2.09,3.91,3.91,0,0,0,1.7,1.84,24.27,24.27,0,0,0,3.52,2,.38.38,0,0,1,.18.5A.37.37,0,0,1,37.4,114.78Z"/><path class="cls-1" d="M39.85,105.64a.38.38,0,0,1-.36-.25,5.65,5.65,0,0,1-.37-3.93,5.05,5.05,0,0,1,1-1.49,19.25,19.25,0,0,1,2.24-2.09,7.58,7.58,0,0,1,4-1.86,3.77,3.77,0,0,1,3.87,2.15,4.22,4.22,0,0,1-.17,3,10.62,10.62,0,0,1-.52,1.14,8.46,8.46,0,0,0-.48,1,.38.38,0,0,1-.49.21.37.37,0,0,1-.21-.48,9,9,0,0,1,.51-1.1,9.08,9.08,0,0,0,.49-1.07,3.61,3.61,0,0,0,.17-2.51,3.05,3.05,0,0,0-3.1-1.66,6.76,6.76,0,0,0-3.61,1.7,17.69,17.69,0,0,0-2.15,2,4.23,4.23,0,0,0-.88,1.27,5,5,0,0,0,.38,3.4.37.37,0,0,1-.23.48Z"/><path class="cls-1" d="M40.6,114.43a.29.29,0,0,1-.16,0A3.53,3.53,0,0,1,38.73,112q-.12-.47-.21-.93a7.52,7.52,0,0,0-.47-1.63,2,2,0,0,0-1.7-1.29.38.38,0,1,1,0-.75,2.7,2.7,0,0,1,2.42,1.72,7.85,7.85,0,0,1,.52,1.8c.06.29.13.59.2.88a3,3,0,0,0,1.31,1.92.38.38,0,0,1,.18.5A.39.39,0,0,1,40.6,114.43Z"/><path class="cls-1" d="M36.65,93.92a31.6,31.6,0,0,1-5-.39h0a6.88,6.88,0,0,1-3-1,3.77,3.77,0,0,1-1.5-3.9,3.32,3.32,0,0,1,3.35-2.46,5.67,5.67,0,0,1,3,1.62l.55.46a21.71,21.71,0,0,0,5.61,2.87c.21.08.32.3.59.89a3.52,3.52,0,0,0,.16.33l.15.19a.85.85,0,0,1,.31.68.62.62,0,0,1-.32.45,2.58,2.58,0,0,1-1.29.19h-.35c-.48,0-1,.06-1.44.07ZM31.8,92.79a30.76,30.76,0,0,0,5.68.37c.47,0,.94,0,1.41-.07h.4a4.14,4.14,0,0,0,.78,0l0,0c-.07-.09-.15-.17-.21-.26a4.81,4.81,0,0,1-.22-.45c-.07-.15-.19-.42-.26-.53a22,22,0,0,1-5.72-3L33,88.34a5,5,0,0,0-2.56-1.44,2.51,2.51,0,0,0-2.55,1.89,3.06,3.06,0,0,0,1.21,3.11,6.18,6.18,0,0,0,2.66.89Z"/><path class="cls-1" d="M39.61,91.87a.36.36,0,0,1-.32-.18A3.6,3.6,0,0,1,39,89.27l.09-.44a5.16,5.16,0,0,0,.14-1.64,5.27,5.27,0,0,0-.8-1.92l-2.11-3.63a4.45,4.45,0,0,0-1.08-1.4,2.5,2.5,0,0,0-3.06.32,3.88,3.88,0,0,0-1,3.24,8.18,8.18,0,0,0,1.62,3c.24.34.47.66.65.94a.38.38,0,0,1-.12.52.37.37,0,0,1-.51-.12c-.18-.27-.4-.57-.63-.9a8.25,8.25,0,0,1-1.75-3.34A4.57,4.57,0,0,1,31.7,80a3.22,3.22,0,0,1,4-.38A5.18,5.18,0,0,1,37,81.26l2.11,3.63a6.15,6.15,0,0,1,.9,2.2A5.89,5.89,0,0,1,39.85,89l-.08.43a3,3,0,0,0,.16,1.91.36.36,0,0,1-.13.51A.34.34,0,0,1,39.61,91.87Z"/><path class="cls-1" d="M41.06,94.82a.25.25,0,0,1-.12,0,.37.37,0,0,1-.24-.47,6.47,6.47,0,0,1,2.71-3.18c.52-.35,1.06-.66,1.59-1a21.24,21.24,0,0,0,1.82-1.13A5.41,5.41,0,0,0,49,86.14a2.3,2.3,0,0,0-.34-2,2.73,2.73,0,0,0-1.85-.83,6.23,6.23,0,0,0-5,2,8,8,0,0,0-2,5.1.38.38,0,0,1-.39.36.37.37,0,0,1-.36-.39,8.69,8.69,0,0,1,2.26-5.58,6.86,6.86,0,0,1,5.59-2.2,3.41,3.41,0,0,1,2.36,1.1,3.08,3.08,0,0,1,.49,2.63,6,6,0,0,1-2.51,3.35,21,21,0,0,1-1.89,1.17c-.51.29-1,.6-1.54.93a5.75,5.75,0,0,0-2.42,2.8A.38.38,0,0,1,41.06,94.82Z"/><path class="cls-1" d="M40,86.73a.39.39,0,0,1-.37-.3,8.24,8.24,0,0,1,.31-4,23.65,23.65,0,0,1,1.53-3.58A8,8,0,0,1,42.63,77a8,8,0,0,1,2.23-1.56,4.94,4.94,0,0,1,3.4-.85,3.2,3.2,0,0,1,2.33,2.62,5.17,5.17,0,0,1-.73,3.39A13.18,13.18,0,0,1,48,83a.38.38,0,0,1,0,.51.37.37,0,0,1-.53,0l-.22-.23a.38.38,0,0,1,0-.52,13.94,13.94,0,0,0,2-2.46,4.4,4.4,0,0,0,.64-2.89,2.49,2.49,0,0,0-1.75-2,4.4,4.4,0,0,0-2.89.78,7.37,7.37,0,0,0-2,1.4,7.62,7.62,0,0,0-1,1.71,23.58,23.58,0,0,0-1.49,3.46,7.46,7.46,0,0,0-.28,3.6.37.37,0,0,1-.3.44Z"/><path class="cls-1" d="M40.46,86.43h0a.38.38,0,0,1-.37-.38,4.65,4.65,0,0,1,1-2.65,13.83,13.83,0,0,1,1.87-2L46.73,78a.39.39,0,0,1,.53,0,.37.37,0,0,1,0,.53L43.43,82a11.84,11.84,0,0,0-1.77,1.84,4,4,0,0,0-.83,2.21A.37.37,0,0,1,40.46,86.43Z"/><path class="cls-1" d="M39.06,74.58h0a.37.37,0,0,1-.35-.4,4.89,4.89,0,0,0,0-1v0h0c-.32-2.67-2.35-5.43-3.88-7.51-.54-.74-1-1.37-1.31-1.88a8.22,8.22,0,0,1-1.33-3.31,4.42,4.42,0,0,1,1.65-3.8,2.76,2.76,0,0,1,3.49-.14,3.4,3.4,0,0,1,.82,1.42,29.22,29.22,0,0,1,1.14,3.88c0,.13.07.28.11.43a.83.83,0,0,0,0,.15,12.88,12.88,0,0,1,3.12-3.89,6,6,0,0,1,3.78-1.64h0a3.16,3.16,0,0,1,3.19,2.62c.15,1.65-1.32,3-2.2,3.73a72.28,72.28,0,0,0-7,7.14c-.09.11-.19.21-.28.31-.41.42-.74.75-.67,2.39v0a5.92,5.92,0,0,1,0,1.19A.38.38,0,0,1,39.06,74.58Zm.51-10.86v0a3.94,3.94,0,0,1-.32,1,5.65,5.65,0,0,0-.22.61,13.25,13.25,0,0,0,.08,4.72l.06.44a5.27,5.27,0,0,1,.37-.42l.25-.26a72.73,72.73,0,0,1,7-7.22c1-.93,2.06-1.93,2-3.11a2.44,2.44,0,0,0-2.45-1.93A5.38,5.38,0,0,0,43,59,12.22,12.22,0,0,0,39.57,63.72Zm-3.8-7.07a2.56,2.56,0,0,0-1.52.54,3.63,3.63,0,0,0-1.36,3.14,7.61,7.61,0,0,0,1.23,3,21.71,21.71,0,0,0,1.26,1.81,32.08,32.08,0,0,1,2.91,4.48,12.18,12.18,0,0,1,0-4.47,5.59,5.59,0,0,1,.26-.71,4.66,4.66,0,0,0,.23-.61.31.31,0,0,1,0-.21l0-.08a4.76,4.76,0,0,0-.21-1.16c0-.16-.08-.32-.11-.46a30.9,30.9,0,0,0-1.11-3.78A2.75,2.75,0,0,0,36.77,57,1.45,1.45,0,0,0,35.77,56.65Z"/><path class="cls-1" d="M39.36,63.53a.38.38,0,0,1-.37-.35c-.11-1.78.81-3.34,1.7-4.84.22-.38.45-.76.66-1.14a29.52,29.52,0,0,0,2.12-5.77,3.55,3.55,0,0,0-.19-3,2.42,2.42,0,0,0-2.78-.69,4.2,4.2,0,0,0-2.24,2.28,13.75,13.75,0,0,0-.88,3.36,8.33,8.33,0,0,0-.18,1.92,8.35,8.35,0,0,0,.89,2.5.38.38,0,1,1-.68.32,8.7,8.7,0,0,1-.95-2.76,8.18,8.18,0,0,1,.18-2.11,14.37,14.37,0,0,1,.94-3.54,5,5,0,0,1,2.66-2.67,3.15,3.15,0,0,1,3.65.95,4.1,4.1,0,0,1,.3,3.59A29.63,29.63,0,0,1,42,57.55c-.22.39-.44.78-.68,1.17-.83,1.41-1.69,2.87-1.59,4.41a.39.39,0,0,1-.35.4Z"/><path class="cls-1" d="M38.47,70a.38.38,0,0,1-.25-.09c-1-.86-1.08-2.58-1.14-4.09,0-.57,0-1.1-.12-1.53a11.3,11.3,0,0,0-2-4.55.38.38,0,0,1,.61-.44,12,12,0,0,1,2.13,4.87,12.92,12.92,0,0,1,.12,1.62c.06,1.36.13,2.9.89,3.55a.37.37,0,0,1,0,.53A.39.39,0,0,1,38.47,70Z"/><path class="cls-1" d="M74.28,103.44a2.78,2.78,0,0,1-1.12-.26A11.17,11.17,0,0,1,69,99.74a3.56,3.56,0,0,1,.12-3.2,7.14,7.14,0,0,1,1.13-1.78c-2-.33-3.4-3.43-3.58-5.12a3.23,3.23,0,0,1,.92-2.92,4,4,0,0,1,2.74-.64,4.79,4.79,0,0,1,3.39,1,2.77,2.77,0,0,1,.67,1.62,3.13,3.13,0,0,0,.32,1.06l.14.24A2.15,2.15,0,0,1,75.22,92a9.2,9.2,0,0,1,1-.06,4.39,4.39,0,0,1,3.53,1.54c2.23,3-1.5,6.86-3.3,8.71A3.16,3.16,0,0,1,74.28,103.44Zm-3.2-8.73A.37.37,0,0,1,71,95a6.66,6.66,0,0,0-1.2,1.8,3,3,0,0,0-.15,2.53,10.65,10.65,0,0,0,3.83,3.12c1,.46,1.6.12,2.5-.8C77.73,99.87,81,96.47,79.19,94a3.67,3.67,0,0,0-3-1.23,6.87,6.87,0,0,0-2.75.56,5.86,5.86,0,0,0-.94.59A5.34,5.34,0,0,1,71.08,94.71ZM70,86.82a3,3,0,0,0-1.94.47,2.65,2.65,0,0,0-.65,2.27c.16,1.53,1.53,4.47,3.17,4.48h0a3.18,3.18,0,0,0,1.53-.78,6.17,6.17,0,0,1,1.09-.67,7.66,7.66,0,0,1,1.14-.39,1.5,1.5,0,0,0-.15-1.85L74,90.1a3.63,3.63,0,0,1-.4-1.3,2.18,2.18,0,0,0-.46-1.22,4.13,4.13,0,0,0-2.88-.75Z"/><path class="cls-1" d="M79.91,97.89a.37.37,0,0,1-.08-.74,29.67,29.67,0,0,0,4.91-1.75,9.23,9.23,0,0,0,2-1.24c.23-.18.48-.37.74-.55a5.59,5.59,0,0,0,2-2.28,7.24,7.24,0,0,0-4.61-1c-2,.18-3.62,1.65-5.32,3.22l-.09.09a.38.38,0,0,1-.53,0,.36.36,0,0,1,0-.53L79,93c1.78-1.66,3.47-3.22,5.76-3.42s3.25.24,5.31,1.24a.38.38,0,0,1,.19.45,6.11,6.11,0,0,1-2.35,3l-.72.54A9.69,9.69,0,0,1,85,96.09,29.57,29.57,0,0,1,80,97.89Z"/><path class="cls-1" d="M75.48,90.36a.37.37,0,0,1-.37-.37,3.38,3.38,0,0,1,1-2.12,13.56,13.56,0,0,1,3.17-3.05A6.9,6.9,0,0,1,84.37,84a1.6,1.6,0,0,1,1,.61,1.73,1.73,0,0,1,.12,1.33,17.2,17.2,0,0,1-1.43,4,.37.37,0,0,1-.5.17.38.38,0,0,1-.17-.5,15.9,15.9,0,0,0,1.36-3.83,1.09,1.09,0,0,0,0-.76,1,1,0,0,0-.6-.29,6.17,6.17,0,0,0-4.52.73,12.57,12.57,0,0,0-3,2.89A2.69,2.69,0,0,0,75.86,90a.37.37,0,0,1-.37.38Z"/><path class="cls-1" d="M72.9,74.4h0c-2,0-2.71-5-2.72-5.05a10.31,10.31,0,0,1,1.12-6.24.36.36,0,0,1,.32-.2.34.34,0,0,1,.33.17A2.37,2.37,0,0,0,76.3,62a.36.36,0,0,1,.29-.34,2.74,2.74,0,0,1,3.07,2,4.6,4.6,0,0,1-.75,3.63,14.51,14.51,0,0,1-1.73,2.06q-.32.32-.6.63a20,20,0,0,0-1.77,2.22,5.26,5.26,0,0,0-.3.53C74.12,73.46,73.63,74.4,72.9,74.4ZM71.7,64a9.58,9.58,0,0,0-.78,5.28h0c.21,1.53,1.07,4.39,2,4.4h0c.28,0,.75-.91.95-1.29s.24-.46.34-.61A21.56,21.56,0,0,1,76,69.45l.6-.64a13.48,13.48,0,0,0,1.65-1.94,3.85,3.85,0,0,0,.65-3A2.1,2.1,0,0,0,77,62.3,3.1,3.1,0,0,1,71.7,64Z"/><path class="cls-1" d="M70.81,71l-.11,0c-1-.3-2-.53-2.88-.76s-1.9-.46-2.91-.77A4.35,4.35,0,0,1,62.47,68a2.81,2.81,0,0,1-.25-2.58,4.29,4.29,0,0,1,1.59-2,6.43,6.43,0,0,1,7.58.21.38.38,0,0,1-.48.58,5.68,5.68,0,0,0-6.67-.19,3.67,3.67,0,0,0-1.32,1.61,2,2,0,0,0,.17,1.88,3.61,3.61,0,0,0,2,1.12c1,.31,1.95.54,2.88.76s1.9.46,2.91.77a.38.38,0,0,1,.25.47A.36.36,0,0,1,70.81,71Z"/><path class="cls-1" d="M67.62,63a.36.36,0,0,1-.29-.13l-3-3.64A5.46,5.46,0,0,1,63,56.74a3.75,3.75,0,0,1,1.12-3.1,4.92,4.92,0,0,1,5.21-1.24A4.35,4.35,0,0,1,72,57a.37.37,0,0,1-.43.3.37.37,0,0,1-.31-.43A3.57,3.57,0,0,0,69,53.1a4.18,4.18,0,0,0-4.4,1,3,3,0,0,0-.92,2.47,4.75,4.75,0,0,0,1.23,2.15l3,3.64a.38.38,0,0,1,0,.53A.43.43,0,0,1,67.62,63Z"/><path class="cls-1" d="M73.76,65.09a2.9,2.9,0,0,1-2.69-1.52A2.06,2.06,0,0,1,71,62.12,3.5,3.5,0,0,1,68.35,62,2.91,2.91,0,0,1,67,58.84a3.32,3.32,0,0,1,2.39-2.44,3.71,3.71,0,0,1,2,.06c0-.11,0-.23,0-.34,0-1.11.1-2.36,1.26-3a3.08,3.08,0,0,1,3.14-.29,3.22,3.22,0,0,1,2,1.68,2,2,0,0,1-.08,1.65,1.93,1.93,0,0,1-.13.21,5.37,5.37,0,0,1,1.78.64,2.6,2.6,0,0,1,1.27,2.64,3.61,3.61,0,0,1-1.24,1.72,3.88,3.88,0,0,1-1.12.79,1.67,1.67,0,0,1-1,.11,3.19,3.19,0,0,1-1,1.9,3.77,3.77,0,0,1-2.47.93Zm-1.69-3.34a1,1,0,0,0-.24.31,1.36,1.36,0,0,0-.08,1.19,2.21,2.21,0,0,0,2,1.09,3,3,0,0,0,2-.74,2.38,2.38,0,0,0,.8-1.87.38.38,0,0,1,.2-.35.38.38,0,0,1,.41,0,.84.84,0,0,0,.81,0,3.31,3.31,0,0,0,.9-.66,3,3,0,0,0,1-1.33A1.85,1.85,0,0,0,79,57.64,6.08,6.08,0,0,0,76.56,57a.37.37,0,0,1-.32-.36.37.37,0,0,1,.29-.38.77.77,0,0,0,.5-.42,1.23,1.23,0,0,0,.06-1,2.56,2.56,0,0,0-1.6-1.26,2.36,2.36,0,0,0-2.53.24c-.79.44-.83,1.34-.87,2.38l0,.55a.13.13,0,0,1,0,.06,4.81,4.81,0,0,1,.6.4.38.38,0,0,1-.47.59,3.07,3.07,0,0,0-2.65-.62A2.53,2.53,0,0,0,67.68,59a2.16,2.16,0,0,0,1,2.3,3.66,3.66,0,0,0,3-.2,1.56,1.56,0,0,1,.72-.28.38.38,0,0,1,.19.72Z"/><path class="cls-1" d="M74.39,60.5a1.26,1.26,0,0,1-.73-.22,1.22,1.22,0,0,1-.44-1.45.57.57,0,0,1-.08-.13.38.38,0,0,1,.21-.49,2.35,2.35,0,0,1,2.26.31.3.3,0,0,1,.14.22,1.5,1.5,0,0,1-.51,1.46A1.34,1.34,0,0,1,74.39,60.5Zm-.12-1.6h-.09a.38.38,0,0,0-.25.17.48.48,0,0,0,.16.59.59.59,0,0,0,.68-.05A.78.78,0,0,0,75,59l-.16-.09a.38.38,0,0,1-.44,0A.27.27,0,0,0,74.27,58.9Z"/><path class="cls-1" d="M65.81,41.75h0c-.57,0-1.08-.54-1.49-1a3.2,3.2,0,0,0-.32-.32,25.44,25.44,0,0,0-2.34-1.75l-.39-.26a11.75,11.75,0,0,1-2.55-2.07,4.07,4.07,0,0,1-1-3.75,3,3,0,0,1,1.09-1.5,3.72,3.72,0,0,1-.41-.4,9.7,9.7,0,0,1-2.26-3.39,4.14,4.14,0,0,1,1.28-4.75,3.79,3.79,0,0,1,2.78-.48,6.46,6.46,0,0,1,2.48,1.15,4.51,4.51,0,0,1,1.79,2.08,5.63,5.63,0,0,1,.28,1.55c0,.25,0,.51.08.76A8.83,8.83,0,0,0,65.22,29c.11.37.23.74.31,1.11a3.72,3.72,0,0,1-.19,2.5,7.46,7.46,0,0,1,1.22,2.59,11.71,11.71,0,0,1,.35,3.16c0,.12,0,.27,0,.45,0,1.11,0,2.14-.44,2.62A.94.94,0,0,1,65.81,41.75Zm-6.1-10.37a.38.38,0,0,1-.15.18,2.33,2.33,0,0,0-1.1,1.31,3.32,3.32,0,0,0,.82,3,11.3,11.3,0,0,0,2.4,1.93l.39.26a29.05,29.05,0,0,1,2.41,1.81,4.27,4.27,0,0,1,.37.37c.26.27.7.72,1,.73a.19.19,0,0,0,.14-.08c.28-.28.24-1.49.22-2.07,0-.19,0-.35,0-.48a11.47,11.47,0,0,0-.32-3,6.78,6.78,0,0,0-1.12-2.36l-.08,0a.41.41,0,0,1-.15-.25A4.66,4.66,0,0,0,62,31.17a3.58,3.58,0,0,0-1.76.09Zm1.62-1a3.86,3.86,0,0,1,.84.09A5.34,5.34,0,0,1,64.8,32a3.49,3.49,0,0,0,0-1.7c-.08-.35-.19-.7-.3-1a9.89,9.89,0,0,1-.38-1.47c0-.27-.07-.54-.09-.82a5.22,5.22,0,0,0-.23-1.35,3.92,3.92,0,0,0-1.52-1.73,5.67,5.67,0,0,0-2.2-1,3,3,0,0,0-2.22.36,3.45,3.45,0,0,0-1,3.89A8.86,8.86,0,0,0,59,30.23c.43.47.43.47,1.07.3A4.93,4.93,0,0,1,61.33,30.35Z"/><path class="cls-1" d="M66.06,42.12H66a.38.38,0,0,1-.32-.43A5.66,5.66,0,0,1,67.41,39c.27-.29.53-.56.75-.84s.53-.65.81-1a17.17,17.17,0,0,0,1.57-2,17.73,17.73,0,0,0,2-6.18,2.42,2.42,0,0,0,.06-1.13c-.2-.73-1.11-1.05-1.49-1.15a5.23,5.23,0,0,0-3.89.52c-1,.57-1.26,1.52-1.59,2.72l-.11.37a.37.37,0,0,1-.46.26.37.37,0,0,1-.26-.46l.1-.36c.35-1.26.68-2.46,1.95-3.18A6,6,0,0,1,71.3,26a2.61,2.61,0,0,1,2,1.67,3.18,3.18,0,0,1,0,1.48,18.63,18.63,0,0,1-2.11,6.43,20.18,20.18,0,0,1-1.63,2.12c-.27.31-.54.63-.8,1s-.5.58-.79.88a4.93,4.93,0,0,0-1.52,2.29A.38.38,0,0,1,66.06,42.12Z"/><path class="cls-1" d="M64.78,32.72a.39.39,0,0,1-.29-.13l-1.27-1.51A9,9,0,0,1,61.94,29a4.32,4.32,0,0,0-1.86-2.21.38.38,0,0,1,.4-.64,5.11,5.11,0,0,1,2.14,2.53A7.92,7.92,0,0,0,63.8,30.6l1.27,1.5a.38.38,0,0,1,0,.53A.36.36,0,0,1,64.78,32.72Z"/><path class="cls-1" d="M90.42,267.6a.55.55,0,0,1-.18,0,.65.65,0,0,1-.43-.55.59.59,0,0,1,.06-.32c.32-2.62,5-54.5-31.12-119.76a.61.61,0,0,1,.24-.82.6.6,0,0,1,.81.24c19,34.45,26.57,65.29,29.52,85.1,3.24,21.71,1.94,35.45,1.57,35.91A.62.62,0,0,1,90.42,267.6Z"/><path class="cls-1" d="M78.8,191.85h0a.61.61,0,0,1-.59-.61c0-.72,1.22-72.28-2.73-88.41a.6.6,0,0,1,1.17-.29c4,16.29,2.82,85.77,2.76,88.72A.59.59,0,0,1,78.8,191.85Z"/><path class="cls-1" d="M75.91,92.77a.61.61,0,0,1-.59-.5l-3-17.88a.6.6,0,0,1,1.19-.2l3,17.88a.6.6,0,0,1-.5.69Z"/><path class="cls-1" d="M51.44,130.63a.61.61,0,0,1-.57-.4l-3.78-10.71a.6.6,0,1,1,1.14-.4L52,129.83a.6.6,0,0,1-.37.76A.48.48,0,0,1,51.44,130.63Z"/><path class="cls-1" d="M43.79,106.82a.6.6,0,0,1-.58-.47l-2.86-12.7a.6.6,0,0,1,1.17-.27l2.86,12.71a.61.61,0,0,1-.45.72Z"/><path class="cls-1" d="M39.77,87.55a.59.59,0,0,1-.6-.56L38.26,70.6a.59.59,0,0,1,.56-.63.62.62,0,0,1,.64.57l.91,16.38a.61.61,0,0,1-.57.63Z"/></svg>