<svg id="Camada_1" data-name="Camada 1" xmlns="http://www.w3.org/2000/svg" viewBox="0 0 184.69 248.21"><defs><style>.cls-1{fill:#745d79;}</style></defs><path class="cls-1" d="M89.43,233.31a.61.61,0,0,1-.46-.22c-.1-.11-2.28-2.82-2.67-8.84-.26-4.09-.1-9,.09-14.74.17-5.52.38-11.78.23-18.62-.12-6.25-.33-13-.53-19.49-.59-19.36-1.2-39.39.06-51.16a99.73,99.73,0,0,0,.43-16.68c-.5-8.14.46-15.08,2.85-20.64C90.79,79.78,92,77.4,93,75.3c2.72-5.46,4.36-8.75,4.93-17.81a.6.6,0,0,1,.17-.38s2.16-2.32,3.32-10.9A89.06,89.06,0,0,1,105,31.26a36.34,36.34,0,0,0,1.56-7.47,5.25,5.25,0,0,1,.13-1,.6.6,0,0,1,1.13.39s0,.34-.07.77a36.8,36.8,0,0,1-1.61,7.72,88.74,88.74,0,0,0-3.52,14.74c-1.06,7.82-2.93,10.69-3.5,11.4-.59,9.15-2.27,12.51-5,18.06-1,2.09-2.22,4.45-3.56,7.57-2.32,5.38-3.25,12.14-2.76,20.09a101.07,101.07,0,0,1-.44,16.88c-1.25,11.69-.64,31.67,0,51,.2,6.52.41,13.25.53,19.51.15,6.86-.06,13.14-.23,18.68s-.35,10.59-.09,14.62c.36,5.6,2.37,8.13,2.39,8.16a.6.6,0,0,1-.08.84A.62.62,0,0,1,89.43,233.31Z"/><path class="cls-1" d="M87.09,206.71H87a.58.58,0,0,1-.53-.65c0-.07.2-3.12-3.8-6.94l-1.81-1.68c-5.61-5.18-17.21-15.87-21.45-27a3.33,3.33,0,0,1-2.63-1.62,3.67,3.67,0,0,1-.63-3.08,2,2,0,0,1,1.24-1.23,3,3,0,0,1,3.89,1.74c.55,1.39-.35,3-.79,3.66,4.12,10.93,15.63,21.55,21.19,26.67.71.66,1.33,1.23,1.82,1.7,4.49,4.28,4.17,7.78,4.16,7.93A.6.6,0,0,1,87.09,206.71Zm-28.6-41.22a2,2,0,0,0-.68.12.74.74,0,0,0-.5.49,2.6,2.6,0,0,0,.51,2,2.16,2.16,0,0,0,1.71,1.07,3.33,3.33,0,0,0,.67-2.55A1.78,1.78,0,0,0,58.49,165.49Z"/><path class="cls-1" d="M87.4,193.85a.92.92,0,0,1-.71-.33.6.6,0,0,1,.11-.84.58.58,0,0,1,.63-.07c.32-.23,1.48-1.57,3.45-9,3-11.21,12.19-24.54,22.48-27.43a.6.6,0,0,1,.33,1.15c-9.88,2.78-18.77,15.7-21.65,26.58-2.53,9.52-3.92,9.8-4.44,9.9Zm.24-1.07h0Z"/><path class="cls-1" d="M87.05,211.71a.88.88,0,0,1-.36-.07.6.6,0,0,1,.38-1.13c.24,0,2.64-.58,10.1-11.79,3.68-5.53,11.21-9.46,22.38-11.68a92.57,92.57,0,0,1,15.62-1.69h0a.6.6,0,0,1,.6.6.59.59,0,0,1-.59.6c-.29,0-28.64.26-37,12.83C91.07,210.06,88.16,211.71,87.05,211.71Zm.13-1.16Zm0,0h0Zm0,0Z"/><path class="cls-1" d="M86.22,155.2a.6.6,0,0,1-.58-.44A70.71,70.71,0,0,0,79.84,141c-3.6-6.47-9.72-14.66-18.47-16.87a.6.6,0,1,1,.29-1.16c7.27,1.83,13.92,7.88,19.24,17.47a71.55,71.55,0,0,1,5.89,14,.59.59,0,0,1-.41.73Z"/><path class="cls-1" d="M86,137.79a.59.59,0,0,1-.56-.38A157.74,157.74,0,0,1,78.77,115C75.94,100.85,70.59,90.4,60.31,79a.61.61,0,0,1,0-.85.6.6,0,0,1,.85,0C71.64,89.77,77.07,100.38,80,114.79A155.94,155.94,0,0,0,86.57,137a.6.6,0,0,1-.56.82Z"/><path class="cls-1" d="M87.17,113.46a.46.46,0,0,1-.23,0,.59.59,0,0,1-.32-.78c.1-.25,10.88-25.06,45.66-32.6h0a10.91,10.91,0,0,1,4.9-2.76c2.16-.4,3.15.06,3.53,1.61a2.16,2.16,0,0,1-.55,2A5,5,0,0,1,135.77,82a16.7,16.7,0,0,1-3.41-.78c-17.71,3.88-28.88,12.28-35.14,18.67a48.26,48.26,0,0,0-9.5,13.18A.59.59,0,0,1,87.17,113.46ZM133.7,80.4c.5.12,1.23.28,2.26.44a3.8,3.8,0,0,0,3.34-.74,1,1,0,0,0,.27-.93c-.15-.62-.26-1.06-2.16-.72A8.86,8.86,0,0,0,133.7,80.4Z"/><path class="cls-1" d="M87.06,98.83h0a.6.6,0,0,1-.54-.65c0-.32.8-7.85,6.78-11.33,4.19-2.45,17.25-15.55,17.38-15.68a.6.6,0,0,1,.85,0,.61.61,0,0,1,0,.85c-.54.54-13.3,13.34-17.63,15.86-5.44,3.17-6.18,10.34-6.19,10.41A.6.6,0,0,1,87.06,98.83Z"/><path class="cls-1" d="M90,83.76a.59.59,0,0,1-.59-.55L88.21,67.52a.61.61,0,0,1,.56-.64.59.59,0,0,1,.64.55l1.17,15.69a.59.59,0,0,1-.55.64Z"/><path class="cls-1" d="M71.88,130.05a.6.6,0,0,1-.57-.41c-.06-.18-6-18-18.3-21.19l-16.29-7.26c-.06,0-3.09-1.58-6.8-3.64-2.75-1.51-3.62-1.49-3.77-1.47a.6.6,0,0,1-.72-1c.61-.61,2.32-.15,5.07,1.37,3.69,2,6.71,3.59,6.74,3.61l16.17,7.22C58.67,108.7,63.68,113,67.8,119.6a49.77,49.77,0,0,1,4.65,9.66.6.6,0,0,1-.38.76ZM26.28,96Zm0,0Z"/><path class="cls-1" d="M57,134.7a.59.59,0,0,1-.51-.29.6.6,0,0,1,.21-.83c.47-.27,11.6-6.71,19.37-.41a.6.6,0,0,1-.75.94c-7.13-5.78-17.91.44-18,.51A.68.68,0,0,1,57,134.7Z"/><path class="cls-1" d="M87.1,186.08a.58.58,0,0,1-.49-.26L83,180.64c-1.37,0-6-.95-10.15-11-4.71-11.47-2.82-15.21-2.74-15.37a.64.64,0,0,1,.44-.31c.26,0,6.49-.82,12.41,13,3.52,8.26,1.91,11.9,1.1,13l3.55,5.08a.6.6,0,0,1-.49.94Zm-16-30.89c-.28,1.07-.81,5,2.89,14,3.87,9.44,8.12,10.18,9.07,10.22.51-.67,2.28-3.84-1.18-11.94C77.12,156.45,72.34,155.3,71.05,155.19Z"/><path class="cls-1" d="M66.66,182.17h-.08c-1.11-.16-10.87-1.64-13.11-4.53a.6.6,0,0,1,.11-.84.59.59,0,0,1,.84.11c1.52,2,8.32,3.42,11.6,4l-.67-11a3.58,3.58,0,0,1-2.14-4,2.74,2.74,0,0,1,2.91-2.31,2.63,2.63,0,0,1,2.28,1.27,3.61,3.61,0,0,1-.17,3.33,4.17,4.17,0,0,1-1.68,1.64l.71,11.73a.59.59,0,0,1-.19.47A.57.57,0,0,1,66.66,182.17Zm-.74-17.41a1.6,1.6,0,0,0-1.54,1.36,2.38,2.38,0,0,0,1.53,2.67,3,3,0,0,0,1.26-1.18,2.43,2.43,0,0,0,.18-2.18,1.47,1.47,0,0,0-1.3-.66Z"/><path class="cls-1" d="M73.48,190a.58.58,0,0,1-.26-.05c-.11-.06-11-5.09-22.65-2.83a.6.6,0,0,1-.7-.48.59.59,0,0,1,.47-.7c12.07-2.34,22.93,2.71,23.39,2.92a.6.6,0,0,1,.29.8A.59.59,0,0,1,73.48,190Z"/><path class="cls-1" d="M55.28,193.1a.6.6,0,0,1-.59-.51c-.77-4.69,4.86-7,5.1-7.07a.6.6,0,1,1,.44,1.12s-5,2-4.36,5.76a.59.59,0,0,1-.49.69Z"/><path class="cls-1" d="M62.75,192.84a.57.57,0,0,1-.36-.13.6.6,0,0,1-.11-.84l3.91-5.07a.59.59,0,0,1,.84-.11.6.6,0,0,1,.11.84l-3.91,5.07A.6.6,0,0,1,62.75,192.84Z"/><path class="cls-1" d="M67.29,194.43a.66.66,0,0,1-.27-.06,1.77,1.77,0,0,1-.88-1.05,1.71,1.71,0,0,1,.32-1.42,2.16,2.16,0,0,1,2-1L70.1,188a.6.6,0,0,1,1,.6l-1.67,2.9a1.52,1.52,0,0,1,.22.68,2,2,0,0,1-.59,1.47,2.82,2.82,0,0,1-1.77.77Zm1-2.34a1,1,0,0,0-.83.49.57.57,0,0,0-.14.44.35.35,0,0,0,.13.19,1.5,1.5,0,0,0,.78-.36.91.91,0,0,0,.28-.56.54.54,0,0,0-.07-.19Z"/><path class="cls-1" d="M95.18,175a.52.52,0,0,1-.27-.07.59.59,0,0,1-.26-.8c.23-.47,6.15-11.43,31.45-7.44a.6.6,0,0,1-.19,1.19c-12.76-2-20.3,0-24.38,2-4.38,2.15-5.8,4.81-5.82,4.83A.58.58,0,0,1,95.18,175Z"/><path class="cls-1" d="M83.25,180.64h-.09c-.45-.07-1.2-.19-5.06-11.89s-7.68-13.58-7.72-13.59a.6.6,0,0,1,.48-1.11c.17.08,4.3,1.94,8.38,14.32,2.94,8.92,4,10.75,4.26,11.11l.14.08a.59.59,0,0,1,.13.84A.67.67,0,0,1,83.25,180.64Z"/><path class="cls-1" d="M105.76,161.61h-.05a.6.6,0,0,1-.55-.65c0-.55,1.18-13.56,6.89-17.69,5.39-3.9,11.49-14.37,11.55-14.48a.6.6,0,0,1,.82-.22.6.6,0,0,1,.22.82c-.25.44-6.29,10.8-11.88,14.85-5.27,3.81-6.39,16.69-6.4,16.82A.6.6,0,0,1,105.76,161.61Z"/><path class="cls-1" d="M108.46,150a.57.57,0,0,1-.5-.27c-.15-.21-3.45-5.45,5.13-14.75,7.42-8.07,9.5-9.5,10-9.75.28-.19,1.53-1,2.47-.37.71.45.92,1.48.63,3.13,0,.26-.08.53-.13.81-.71,4.42-2,12.65-17.3,21.13A.59.59,0,0,1,108.46,150Zm16.29-24.17a2.23,2.23,0,0,0-1,.41l-.13.07s-1.74.92-9.63,9.48c-6.39,6.94-5.73,11.33-5.24,12.77,14.24-8.08,15.47-15.78,16.14-19.95,0-.29.09-.57.13-.83.23-1.31,0-1.82-.1-1.91A.22.22,0,0,0,124.75,125.83Z"/><path class="cls-1" d="M114.41,157.91a5,5,0,0,1-1.92-.33.72.72,0,0,1-.2-.14c-.29-.3-1.16-1.21,4.38-6.57,6.19-6,9.55-8.05,16.38-10l6.19-2.33c.3-.08,2.41-.56,3.3.6.6.79.44,2-.49,3.63C139.75,146.83,122.05,157.91,114.41,157.91Zm-1-1.3C119,158,138.56,146.49,141,142.15c.92-1.65.68-2.19.58-2.32-.29-.39-1.36-.34-2-.18L133.43,142c-6.64,1.95-9.91,3.95-15.93,9.78C114.4,154.74,113.58,156.1,113.36,156.61Z"/><path class="cls-1" d="M113,157.37a.59.59,0,0,1-.35-1.08c.76-.56,18.81-13.64,22.37-14.53a7.15,7.15,0,0,0,4.31-2.6.6.6,0,0,1,1,.61,8.12,8.12,0,0,1-5.05,3.16c-2.77.69-16.79,10.58-22,14.33A.58.58,0,0,1,113,157.37Z"/><path class="cls-1" d="M137.14,171.47c-10.3,0-12.9-3.88-13-4.07a.59.59,0,0,1,.16-.81c11.21-7.66,19-5.89,19.34-5.8.07,0,6.29,1.58,11.81,2.76,2.51.53,3,1.5,3,2.22-.12,2.27-6.17,4.33-15.81,5.38A50.2,50.2,0,0,1,137.14,171.47Zm-11.61-4.28c1.23,1.14,5.53,4,16.92,2.77,11-1.21,14.69-3.39,14.74-4.25,0-.16-.34-.63-2-1-5.54-1.18-11.78-2.75-11.85-2.77S136,160.31,125.53,167.19Zm-.91-.11h0Z"/><path class="cls-1" d="M127.11,168.05a8.09,8.09,0,0,1-2.68-.4.59.59,0,0,1-.37-.76.58.58,0,0,1,.76-.37c2.14.74,5.09.09,7.7-.47a21.13,21.13,0,0,1,4-.63,49.93,49.93,0,0,1,7.57.82l13.62-.82a.61.61,0,0,1,.63.56.59.59,0,0,1-.56.63l-13.69.83h-.14a52.94,52.94,0,0,0-7.36-.83h-.06a21.24,21.24,0,0,0-3.74.61A27.34,27.34,0,0,1,127.11,168.05Z"/><path class="cls-1" d="M33.21,148.79a2.79,2.79,0,0,1-1.91-.56c-.84-.72-.79-2-.62-3.26.41-2.94,8-8.62,15.36-11.45,4-1.55,9.44-2.84,12.6-.21a.59.59,0,0,1,.21.42c0,.32.42,7.92-13,12C38.94,147.76,35.28,148.79,33.21,148.79ZM53.75,133a20.87,20.87,0,0,0-7.28,1.63c-7.15,2.76-14.29,8.25-14.6,10.5-.17,1.23-.11,1.91.21,2.18,1,.88,5.75-.48,13.38-2.77,11.27-3.39,12.14-9.19,12.19-10.49A6.53,6.53,0,0,0,53.75,133Z"/><path class="cls-1" d="M31.3,147.76a.6.6,0,0,1-.29-.08.6.6,0,0,1-.24-.81,4.38,4.38,0,0,1,3.14-2.18,26,26,0,0,0,5.66-2l4.14-3,.1-.06,15.06-7a.6.6,0,0,1,.51,1.09l-15,7-4.14,3-.1.06c-.18.08-4.36,2-6.13,2.13a3.2,3.2,0,0,0-2.18,1.56A.59.59,0,0,1,31.3,147.76Z"/><path class="cls-1" d="M61.93,124.24h0C45.67,124,39,117,38.37,116.28a1.63,1.63,0,0,1-.78-1.79c.35-.92,1.81-1.74,9.95-.85,13.21,1.43,14.91,9.54,15,9.89a.58.58,0,0,1-.13.5A.61.61,0,0,1,61.93,124.24Zm-20.14-9.78c-2.65,0-3,.41-3.09.48a3.29,3.29,0,0,0,.42.41.52.52,0,0,1,.11.1c.06.07,6.27,7.06,21.89,7.57-.73-1.94-3.58-7.09-13.71-8.19A52.26,52.26,0,0,0,41.79,114.46Z"/><path class="cls-1" d="M50.22,109.62c-.41,0-.85,0-1.32-.05a27.19,27.19,0,0,1-10.71-3c-8.11-4.17-12.51-7.44-13.09-9.71a1.92,1.92,0,0,1,.26-1.59.55.55,0,0,1,.21-.19c.15-.08,3.82-2,14,1.12,8.22,2.5,12.73,6.6,14.1,9.36a3.39,3.39,0,0,1,.36,2.65C53.65,109.15,52.43,109.62,50.22,109.62ZM26.28,96a.72.72,0,0,0,0,.49c.46,1.84,5,5.1,12.47,8.94A26.08,26.08,0,0,0,49,108.37c3.41.23,3.85-.48,3.91-.62a2.42,2.42,0,0,0-.31-1.71c-1.36-2.74-6-6.51-13.38-8.75C30.69,94.71,27,95.75,26.28,96Z"/><path class="cls-1" d="M102.09,195.12H102a.6.6,0,0,1-.49-.7c.07-.34,1.48-7.48,10.66-10.92.61-1.65,2.58-4.58,4.47-4.79a2,2,0,0,1,1.92,1,2.36,2.36,0,0,1,.33,2.3,3.23,3.23,0,0,1-2.36,1.48c-12.06,2.39-13.77,10.77-13.84,11.13A.59.59,0,0,1,102.09,195.12Zm14.76-15.23h-.09c-.93.1-2.26,1.61-3.06,3.07.82-.24,1.68-.46,2.61-.64.32,0,1.24-.3,1.47-.81a1.27,1.27,0,0,0-.26-1.15C117.27,180,117,179.89,116.85,179.89Z"/><path class="cls-1" d="M124.62,187.4a.57.57,0,0,1-.4-.16.6.6,0,0,1,0-.85l4.79-5.22a.59.59,0,0,1,.25-.17c.21-.93.84-3.17,2.2-3.66a2.38,2.38,0,0,1,2.79,2.51c-.44,1.51-3.48,2.12-4.5,2.28l-4.64,5.07A.62.62,0,0,1,124.62,187.4Zm7.34-9a.41.41,0,0,0-.14,0c-.52.19-1,1.29-1.29,2.28,1.27-.31,2.4-.79,2.53-1.24.05-.17-.13-.45-.49-.76A1,1,0,0,0,132,178.45Z"/><path class="cls-1" d="M137.26,186.94a28,28,0,0,1-4.13-.34.59.59,0,0,1-.41-.27l-.16.11a.59.59,0,0,1-.83-.14.6.6,0,0,1,.14-.84c.64-.45,6.32-4.36,9.13-3.39a2.2,2.2,0,0,1,1.43,1.54,2.05,2.05,0,0,1-.37,2.06C141.18,186.67,139.16,186.94,137.26,186.94ZM134,185.52c2.53.33,6.24.41,7.17-.64a.87.87,0,0,0,.12-.93,1,1,0,0,0-.67-.75C139.13,182.69,136,184.27,134,185.52Z"/><path class="cls-1" d="M136.85,195.28a4.58,4.58,0,0,1-1.24-.18c-1.67-.47-2.27-2.26-2.46-3.06l-12.88-3.78a.6.6,0,0,1-.41-.74.61.61,0,0,1,.75-.41L133.74,191l1.4-.09c2.14,0,3.42.42,3.94,1.32a1.92,1.92,0,0,1,0,1.81A2.21,2.21,0,0,1,136.85,195.28Zm-2.43-3.16a2.56,2.56,0,0,0,1.51,1.82c1.64.46,2-.3,2-.38a.37.37,0,0,1,.05-.11h0a.78.78,0,0,0,0-.67c-.13-.22-.7-.71-2.85-.71Z"/><path class="cls-1" d="M125.18,201a2.86,2.86,0,0,1-.53-.06,3.9,3.9,0,0,1-2.46-2.39,5.22,5.22,0,0,1-.11-3.18l0,0c-10.28-6.18-13.7-3.69-13.74-3.66a.6.6,0,0,1-.77-.91c.15-.13,3.92-3.16,15,3.48a8.1,8.1,0,0,1,3.81,1.27,3.46,3.46,0,0,1,1.51,2.51,2.82,2.82,0,0,1-1,2.28A2.4,2.4,0,0,1,125.18,201Zm-1.9-5.44a4.08,4.08,0,0,0,0,2.56,2.78,2.78,0,0,0,1.62,1.65,1.16,1.16,0,0,0,1.1-.35,1.63,1.63,0,0,0,.64-1.32,2.24,2.24,0,0,0-1-1.61A6.18,6.18,0,0,0,123.28,195.52Z"/><path class="cls-1" d="M53.76,178.17a3.7,3.7,0,0,1-2.38-.89c-1.54-1.28-.61-3.37-.57-3.46a1,1,0,0,1,.15-.2,3.72,3.72,0,0,1,2.65-1,2.07,2.07,0,0,1,1.48,1.11,3.6,3.6,0,0,1-.47,4.16.58.58,0,0,1-.3.18A2.34,2.34,0,0,1,53.76,178.17Zm.42-.63h0Zm0,0h0Zm-2.32-3.1a1.74,1.74,0,0,0,.28,1.92,2.5,2.5,0,0,0,1.72.61,2.36,2.36,0,0,0,.19-2.6.9.9,0,0,0-.64-.52A2.52,2.52,0,0,0,51.86,174.44Z"/><path class="cls-1" d="M49,188.29a3.24,3.24,0,0,1-2.25-1,.45.45,0,0,1-.11-.19,1.84,1.84,0,0,1,.13-1.48,2.69,2.69,0,0,1,2-1.17,2.56,2.56,0,0,1,2.18.41,2.19,2.19,0,0,1,.76,1.55.6.6,0,0,1-.11.34,3.54,3.54,0,0,1-2.44,1.53Zm-1.26-1.69a2,2,0,0,0,1.34.49,2.15,2.15,0,0,0,1.37-.82.8.8,0,0,0-.29-.48,1.56,1.56,0,0,0-1.2-.15,1.69,1.69,0,0,0-1.14.57A.67.67,0,0,0,47.75,186.6Z"/><path class="cls-1" d="M54,196.47a3.93,3.93,0,0,1-.63-.05,1.56,1.56,0,0,1-1-.76,2.77,2.77,0,0,1,.07-2.32c.75-2,2.2-2.25,2.87-2.12a.71.71,0,0,1,.26.13,3.36,3.36,0,0,1,1,3.31A2.46,2.46,0,0,1,54,196.47ZM55,192.4c-.29,0-.93.21-1.37,1.37-.3.78-.22,1.15-.14,1.29a.37.37,0,0,0,.19.19c.13,0,1.56.23,1.82-.87A2.15,2.15,0,0,0,55,192.4Z"/><path class="cls-1" d="M61.9,195.87a1.78,1.78,0,0,1-1-.28,1.93,1.93,0,0,1-.75-1.76A2.46,2.46,0,0,1,60.9,192a3.25,3.25,0,0,1,2.22-.78.62.62,0,0,1,.48.28,3.4,3.4,0,0,1,.62,3,2,2,0,0,1-1.31,1.19A2.62,2.62,0,0,1,61.9,195.87Zm.86-3.45a1.84,1.84,0,0,0-1,.43,1.28,1.28,0,0,0-.37,1c0,.23,0,.62.21.75a1.29,1.29,0,0,0,1-.05,1,1,0,0,0,.59-.51A2.14,2.14,0,0,0,62.76,192.42Z"/><path class="cls-1" d="M60,79.55a4.15,4.15,0,0,1-1.83-.47c-1.68-.83-4.13-3.2-6.27-9.78A69.27,69.27,0,0,0,47.5,59c-2.29-4.53-3.81-7.52-1.65-10.54a2.29,2.29,0,0,1,2.21-1.15c3.11.42,6.26,8.51,6.77,9.88a26.27,26.27,0,0,1,4.31,7,18.65,18.65,0,0,1,1,4.9c.07.66.14,1.33.25,2s.33,1.7.55,2.59c.61,2.56,1.13,4.78,0,5.6a.8.8,0,0,1-.16.08A2.34,2.34,0,0,1,60,79.55Zm.57-.68h0ZM47.78,48.52c-.23,0-.56.11-1,.66-1.74,2.44-.43,5,1.74,9.3a71,71,0,0,1,4.5,10.45c2,6.18,4.19,8.35,5.66,9.08a2.77,2.77,0,0,0,1.57.32c.37-.52-.19-2.86-.53-4.29-.22-.92-.44-1.86-.57-2.69s-.18-1.37-.26-2A17.39,17.39,0,0,0,58,64.72a25.87,25.87,0,0,0-4.17-6.79.62.62,0,0,1-.12-.19c-1.26-3.43-4-9-5.84-9.21Z"/><path class="cls-1" d="M63.46,92c-2.59,0-6.62-.6-13.31-3.39-7.37-3.07-14.5-6.39-13.64-10.19a2.82,2.82,0,0,1,1.43-1.94c2.38-1.32,6.79.18,7,.25L57.23,82.6c.58.15,4.89,1.42,7.4,4.55a10.66,10.66,0,0,0,5.91,3.58.61.61,0,0,1,.49.67.59.59,0,0,1-.65.52,32.28,32.28,0,0,0-5.24,0A16.06,16.06,0,0,1,63.46,92Zm-23-14.86a4.13,4.13,0,0,0-2,.39,1.64,1.64,0,0,0-.84,1.15c-.71,3.14,8.51,7,12.94,8.82C58.71,90.89,62.71,91,65,90.73c.63-.07,1.28-.1,1.9-.11a11.33,11.33,0,0,1-3.23-2.72c-2.38-3-6.77-4.15-6.82-4.16l-.11,0-12.3-5.86A14.21,14.21,0,0,0,40.49,77.15Z"/><path class="cls-1" d="M71.09,93a.66.66,0,0,1-.33-.09.6.6,0,0,1-.23-.73l.16-.38c.08-.7-.15-3.15-3-11.73a46.35,46.35,0,0,1-1.59-9.23c-.07-.26-2-8.56.52-11.8a3.31,3.31,0,0,1,2.62-1.34c5.33-.22,5.83,7.55,6.12,12.19,0,.61.08,1.17.12,1.64a32.78,32.78,0,0,1-.71,8.69,33.25,33.25,0,0,1-1.94,9.47l-1,2.41a1.19,1.19,0,0,1-.34.72A.58.58,0,0,1,71.09,93Zm-.46-1ZM69.44,58.9H69.3a2.12,2.12,0,0,0-1.7.88c-1.78,2.32-.82,8.65-.29,10.89a46.23,46.23,0,0,0,1.54,9,88.72,88.72,0,0,1,2.79,9.79l.1-.25a33.42,33.42,0,0,0,1.86-9.19,32.22,32.22,0,0,0,.71-8.41c0-.48-.08-1.05-.12-1.67C73.92,65.82,73.48,58.9,69.44,58.9Z"/><path class="cls-1" d="M71.49,91h0a.59.59,0,0,1-.59-.61c0-.05.1-5.83,0-8.45a29.88,29.88,0,0,1,.19-4,30.43,30.43,0,0,0,.2-3.88,44.66,44.66,0,0,0-1.08-5.71c-.84-3.78-1.8-8.07-1.51-10.16a.6.6,0,0,1,.67-.51.61.61,0,0,1,.52.68c-.26,1.87.71,6.23,1.5,9.72a43.94,43.94,0,0,1,1.1,5.94,32.46,32.46,0,0,1-.2,4,28.37,28.37,0,0,0-.19,3.8c.1,2.64,0,8.46,0,8.52A.6.6,0,0,1,71.49,91Z"/><path class="cls-1" d="M68.43,91.74a.44.44,0,0,1-.16,0c-.29-.08-7-2-9.8-4.72-3.21-3.15-18.8-9.2-20.91-8.61a.6.6,0,1,1-.33-1.15c3.22-.93,19.48,6.35,22.08,8.9s9.21,4.41,9.28,4.43a.6.6,0,0,1,.42.74A.61.61,0,0,1,68.43,91.74Z"/><path class="cls-1" d="M88.92,69.52a.58.58,0,0,1-.49-.26c-.28-.4-6.91-9.83-8.19-13.89-1.34-4.22.82-17,1.55-18.06a38.35,38.35,0,0,0,1.79-5.76.59.59,0,0,1,.53-.45.61.61,0,0,1,.6.36c6.34,15,6,26,5.85,31.28a17.62,17.62,0,0,0,0,2.73c.54,3.18-1.36,4-1.44,4A.57.57,0,0,1,88.92,69.52ZM84.28,33.59A23.36,23.36,0,0,1,82.78,38c-.5.89-2.64,13.09-1.4,17,1.07,3.35,6.24,11,7.67,13a2.94,2.94,0,0,0,.34-2.38,19.24,19.24,0,0,1,0-3A68,68,0,0,0,84.28,33.59Z"/><path class="cls-1" d="M88.81,68.58a.61.61,0,0,1-.57-.42c-.07-.21-6.71-21.36-4.76-36.23a.6.6,0,0,1,.68-.51.59.59,0,0,1,.51.67c-1.91,14.6,4.65,35.5,4.71,35.71a.6.6,0,0,1-.39.75A.57.57,0,0,1,88.81,68.58Z"/><path class="cls-1" d="M98.49,58.9h-.13a1.85,1.85,0,0,1-1.18-1.22c-1.32-3-1.4-12.71,3.13-20.52a37,37,0,0,0,4.3-10,11.69,11.69,0,0,1,1.65-3.94c.29-.41,1.16-1.66,2.27-1.42s1.53,1.94,1.59,2.27C110.8,49,103,55.34,102.67,55.6l-3.79,3.17A.61.61,0,0,1,98.49,58.9ZM108.25,23c-.13,0-.48.19-1,.94a10.56,10.56,0,0,0-1.47,3.57,38.17,38.17,0,0,1-4.43,10.25c-4.24,7.32-4.17,16.17-3.2,19.08a2.81,2.81,0,0,0,.33.71l3.44-2.87c.09-.08,7.67-6.39,7-30.45-.1-.48-.41-1.18-.65-1.23Z"/><path class="cls-1" d="M109.88,73.7a.58.58,0,0,1-.39-.15,1.23,1.23,0,0,1-.43-.89c0-1.08,1.19-2.41,3.08-4.43,2.2-2.35,4.94-5.29,6.34-8.65,2.89-7,10.42-13.43,13.81-15.35,1.27-.72,2.26-.83,2.94-.35,1.06.74.79,2.53.76,2.73-4.2,19.41-20.45,24.45-21.7,24.81l-4.12,2.21A.73.73,0,0,1,109.88,73.7Zm24.37-28.92a3.19,3.19,0,0,0-1.37.49c-3.26,1.85-10.51,8.08-13.29,14.77-1.48,3.56-4.43,6.71-6.58,9a22.64,22.64,0,0,0-2.59,3.08l3.36-1.8.13-.06c.17,0,16.72-4.57,20.9-23.89.08-.47.05-1.3-.27-1.52A.5.5,0,0,0,134.25,44.78Z"/><path class="cls-1" d="M110.11,73.13a.61.61,0,0,1-.47-.23.6.6,0,0,1,.1-.84c.12-.09,11.51-9.1,16.45-17a23.22,23.22,0,0,1,3.68-4.57c3.61-3.43,4.58-5.35,4.3-5.95a.6.6,0,0,1,.3-.79.59.59,0,0,1,.79.29c.24.52,1,2.08-4.57,7.32a22.15,22.15,0,0,0-3.48,4.34C122.15,63.77,111,72.63,110.48,73A.56.56,0,0,1,110.11,73.13Z"/><path class="cls-1" d="M105.7,105.7a4.76,4.76,0,0,1-.72-.06,4.2,4.2,0,0,1-3-2.76c-6.24-2.19-7.27-.25-7.28-.23a.6.6,0,0,1-1.11-.46c.13-.32,1.43-3,8.8-.44a6.12,6.12,0,0,1,3.23-.35,2.55,2.55,0,0,1,2,1,2.34,2.34,0,0,1,.21,1.94C107.76,104.83,107.2,105.7,105.7,105.7Zm-2.52-3a2.87,2.87,0,0,0,2,1.73c1.07.17,1.45-.16,1.51-.38a1.25,1.25,0,0,0-.07-1,1.5,1.5,0,0,0-1.14-.48A6.09,6.09,0,0,0,103.18,102.72Z"/><path class="cls-1" d="M110.59,100.33a2.7,2.7,0,0,1-1.2-.31,4,4,0,0,1-1.85-2.91c-4.81-2.42-6.87-.51-7-.42a.62.62,0,0,1-.85,0,.6.6,0,0,1,0-.84c.11-.11,2.74-2.68,8.48.27a5.41,5.41,0,0,1,3.45.8,2,2,0,0,1,.93,1.45,1.62,1.62,0,0,1-.42,1.18A1.93,1.93,0,0,1,110.59,100.33Zm-1.78-3A2.55,2.55,0,0,0,109.93,99c.82.41,1.18,0,1.28-.11l.07-.1h0a.43.43,0,0,0,.11-.3c0-.17-.17-.37-.44-.57A3.87,3.87,0,0,0,108.81,97.29Z"/><path class="cls-1" d="M119.23,93.06a4.7,4.7,0,0,1-.63,0,10.71,10.71,0,0,1-2.49-.67c-7.51,1.68-9.49-.55-9.7-.81a.6.6,0,0,1,.94-.75c.05.06,1.79,1.86,8.35.42a3.7,3.7,0,0,1,3.46-2.33,2.57,2.57,0,0,1,2.4.75,2,2,0,0,1,.21,1.76A2.63,2.63,0,0,1,119.23,93.06Zm-2.3-1.68a13.13,13.13,0,0,0,1.87.44,1.51,1.51,0,0,0,1.84-.85.82.82,0,0,0,0-.63c-.18-.23-.67-.33-1.36-.28A2.53,2.53,0,0,0,116.93,91.38Z"/><path class="cls-1" d="M132.24,87h-.36c-2-.14-2.82-.62-3.17-1h-.12a17.19,17.19,0,0,1-5.35-.8,6.12,6.12,0,0,0-3.6,0,.61.61,0,0,1-.75-.39.6.6,0,0,1,.39-.76,7.2,7.2,0,0,1,4.45,0,15.41,15.41,0,0,0,4.89.69h.2a4.67,4.67,0,0,1,3.29-1.23c2.33.08,2.65,1.38,2.67,1.52a.38.38,0,0,1,0,.15,1.84,1.84,0,0,1-.64,1.21A2.82,2.82,0,0,1,132.24,87Zm-2.31-1.62a5.51,5.51,0,0,0,2,.41c1.19.09,1.52-.36,1.61-.58-.11-.13-.46-.46-1.5-.49A3.45,3.45,0,0,0,129.93,85.34Z"/><path class="cls-1" d="M110.22,89.68a.61.61,0,0,1-.31-.09.6.6,0,0,1-.2-.82,29.14,29.14,0,0,1,4.6-5.59.28.28,0,0,1,0-.09c.49-4.27,2.25-5.53,3.25-5.89a1.93,1.93,0,0,1,2,.22c1.14,1.08,1,2.43-.39,4.13a5.38,5.38,0,0,1-3.68,2.21,27.49,27.49,0,0,0-4.74,5.63A.6.6,0,0,1,110.22,89.68Zm8.23-11.45a1.57,1.57,0,0,0-.56.13c-.54.23-1.78,1.1-2.28,4.18a4.52,4.52,0,0,0,2.63-1.76c1.37-1.66.79-2.2.48-2.49A.43.43,0,0,0,118.45,78.23Z"/><path class="cls-1" d="M119,85.51a.62.62,0,0,1-.32-.09.59.59,0,0,1-.19-.82,38.42,38.42,0,0,1,6.79-7.87,7.43,7.43,0,0,1,1.41-3.33c1.83-2,3.37-1.22,3.95-.78a1.52,1.52,0,0,1,.6,1.44,3.73,3.73,0,0,1-2.47,2.57c-.88.37-2,.74-2.49.9a.62.62,0,0,1-.35.22,37.82,37.82,0,0,0-6.42,7.48A.6.6,0,0,1,119,85.51ZM129.14,73.3a2.26,2.26,0,0,0-1.56.9,5.16,5.16,0,0,0-.93,1.94c.51-.18,1.13-.4,1.66-.62a2.68,2.68,0,0,0,1.74-1.61.32.32,0,0,0-.13-.33A1.27,1.27,0,0,0,129.14,73.3Z"/></svg>