<svg id="Camada_1" data-name="Camada 1" xmlns="http://www.w3.org/2000/svg" viewBox="0 0 268.24 245.71"><defs><style>.cls-1{fill:#745d79;}</style></defs><path class="cls-1" d="M41.93,153.37a.24.24,0,0,1-.12-.46c26.46-14.56,46.69-19.61,59-21.28,13.36-1.81,20.57-.15,20.64-.14a.26.26,0,0,1,.19.31.24.24,0,0,1-.3.18c-.29-.07-28.83-6.4-79.29,21.36A.27.27,0,0,1,41.93,153.37Z"/><path class="cls-1" d="M157.35,194.74h0a.25.25,0,0,1-.25-.25c0-.21-.09-21.22-9.93-33.83s-14.42-32.15-14.46-32.35a.25.25,0,1,1,.48-.11c.05.2,4.51,19.52,14.37,32.15,5.21,6.67,7.66,15.6,8.8,21.91a75.76,75.76,0,0,1,1.24,12.23A.25.25,0,0,1,157.35,194.74Z"/><path class="cls-1" d="M224.8,127.05h0c-.25,0-24.91-1.85-44-4.65a64.76,64.76,0,0,0-33.7,4,.25.25,0,0,1-.21-.46,65.29,65.29,0,0,1,34-4c19,2.8,43.7,4.63,43.94,4.65a.25.25,0,0,1,0,.5Z"/><path class="cls-1" d="M130.82,114.34a.25.25,0,0,1-.22-.13c-.07-.12-6.28-12.15-3.52-32.89s2.6-33.32,2.6-33.45a.24.24,0,0,1,.24-.25h0a.26.26,0,0,1,.25.25c0,.12.16,12.84-2.6,33.52S131,113.85,131,114a.26.26,0,0,1-.1.34A.27.27,0,0,1,130.82,114.34Z"/><path class="cls-1" d="M91.25,164.66a.23.23,0,0,1-.17-.07.25.25,0,0,1,0-.35c17.13-19.46,15.51-32.82,15.49-33a.25.25,0,1,1,.5-.06c0,.13,1.68,13.7-15.61,33.35A.25.25,0,0,1,91.25,164.66Z"/><path class="cls-1" d="M76.65,164.94a.2.2,0,0,1-.15-.05.24.24,0,0,1,0-.35c11.52-15.32,8.78-29.33,8.75-29.47a.25.25,0,0,1,.49-.1c0,.14,2.82,14.36-8.84,29.87A.25.25,0,0,1,76.65,164.94Z"/><path class="cls-1" d="M61.8,163.16a.21.21,0,0,1-.17-.07.24.24,0,0,1,0-.35c8.93-9.62,8.62-22.75,8.62-22.88a.25.25,0,0,1,.24-.26.26.26,0,0,1,.26.24c0,.14.31,13.47-8.75,23.24A.27.27,0,0,1,61.8,163.16Z"/><path class="cls-1" d="M47.35,156.86a.25.25,0,0,1-.08-.49,15.78,15.78,0,0,0,11-11.59.26.26,0,0,1,.28-.21.26.26,0,0,1,.21.29,16.24,16.24,0,0,1-11.3,12Z"/><path class="cls-1" d="M62.54,143.28a.27.27,0,0,1-.17-.06s-3.84-3.28-16.27-3.12h0a.25.25,0,1,1,0-.5c12.64-.16,16.45,3.11,16.6,3.25a.24.24,0,0,1,0,.35A.24.24,0,0,1,62.54,143.28Z"/><path class="cls-1" d="M81.21,136.47a.24.24,0,0,1-.18-.07c-.11-.12-11-11.27-24.17-7.23a.26.26,0,0,1-.32-.16.27.27,0,0,1,.17-.32c13.42-4.13,24.57,7.25,24.68,7.36a.25.25,0,0,1,0,.35A.23.23,0,0,1,81.21,136.47Z"/><path class="cls-1" d="M98.14,132.53a.23.23,0,0,1-.2-.1c-.1-.13-9.93-13-25.26-13a.6.6,0,0,0-.19,0,.25.25,0,0,1-.25-.25.24.24,0,0,1,.24-.25c15.72-.08,25.76,13,25.86,13.15a.25.25,0,0,1,0,.35A.3.3,0,0,1,98.14,132.53Z"/><path class="cls-1" d="M113.16,131.28a.25.25,0,0,1-.24-.18c0-.12-3.46-11.61-19.24-15.61a.25.25,0,0,1-.18-.31.25.25,0,0,1,.3-.18c16.08,4.08,19.57,15.84,19.6,16a.25.25,0,0,1-.17.31Z"/><path class="cls-1" d="M128.72,108.58h0a28.54,28.54,0,0,1-7.77-2.71A39.31,39.31,0,0,1,106,92.65a.26.26,0,0,1,.07-.35.25.25,0,0,1,.35.07,38.82,38.82,0,0,0,14.66,13,28.69,28.69,0,0,0,7.64,2.68.25.25,0,0,1,.22.28A.26.26,0,0,1,128.72,108.58Z"/><path class="cls-1" d="M126.62,91.7a.27.27,0,0,1-.12,0,23.82,23.82,0,0,1-6.08-5,39.52,39.52,0,0,1-9.06-18.06.25.25,0,0,1,.19-.3.26.26,0,0,1,.3.19,39.1,39.1,0,0,0,8.92,17.82,24.07,24.07,0,0,0,6,4.92.25.25,0,0,1,.11.33A.24.24,0,0,1,126.62,91.7Z"/><path class="cls-1" d="M128.58,71a.27.27,0,0,1-.17-.06,15.93,15.93,0,0,1-3.15-4.4,26.12,26.12,0,0,1-2.58-13.63.26.26,0,0,1,.27-.24.26.26,0,0,1,.23.27c-.72,12,5.5,17.57,5.56,17.63a.24.24,0,0,1,0,.35A.24.24,0,0,1,128.58,71Z"/><path class="cls-1" d="M127.6,103.61a.25.25,0,0,1-.11-.47c.15-.07,15-7.45,20-22.74a.25.25,0,0,1,.48.16c-5.12,15.49-20.14,23-20.3,23A.18.18,0,0,1,127.6,103.61Z"/><path class="cls-1" d="M127.28,82a.25.25,0,0,1-.13-.46c.14-.09,14.53-8.93,15.41-16.94a.22.22,0,0,1,.27-.22.24.24,0,0,1,.22.28c-.9,8.25-15,16.94-15.64,17.31Z"/><path class="cls-1" d="M129.35,64.42a.27.27,0,0,1-.25-.21.26.26,0,0,1,.21-.29A8.5,8.5,0,0,0,132.9,62c1.71-1.46,3.88-4.31,4.53-9.66a.24.24,0,0,1,.28-.22.26.26,0,0,1,.22.28c-1.29,10.6-8.46,12-8.54,12Z"/><path class="cls-1" d="M178.78,145h-.08c-18.91-6.25-22.39-21.68-22.42-21.84a.25.25,0,0,1,.49-.1c0,.15,3.46,15.31,22.09,21.46a.26.26,0,0,1,.16.32A.27.27,0,0,1,178.78,145Z"/><path class="cls-1" d="M198.1,141.72H198a54,54,0,0,1-20.38-12.5,38.52,38.52,0,0,1-6.15-7.62.26.26,0,0,1,.1-.34.25.25,0,0,1,.34.09,37.67,37.67,0,0,0,6.08,7.53,53.37,53.37,0,0,0,20.17,12.37.25.25,0,0,1-.08.48Z"/><path class="cls-1" d="M162.1,122.37l-.12,0a.25.25,0,0,1-.1-.34,28.31,28.31,0,0,1,22.3-13.5.22.22,0,0,1,.26.23.25.25,0,0,1-.23.27,27.78,27.78,0,0,0-21.89,13.24A.25.25,0,0,1,162.1,122.37Z"/><path class="cls-1" d="M181.32,122.37a.25.25,0,0,1-.21-.12.26.26,0,0,1,.08-.35c.13-.07,13.15-8,21.63-8.74a.26.26,0,0,1,.28.22.25.25,0,0,1-.23.27c-8.37.77-21.29,8.6-21.42,8.68A.2.2,0,0,1,181.32,122.37Z"/><path class="cls-1" d="M206.05,125.4a.25.25,0,0,1-.19-.09.25.25,0,0,1,0-.35c.29-.24,7.19-6,12.66-6.26a.25.25,0,1,1,0,.5c-5.3.23-12.28,6.08-12.35,6.14A.27.27,0,0,1,206.05,125.4Z"/><path class="cls-1" d="M214.28,136.86l-.07,0c-.82-.25-20.16-6.4-22.36-13.13a.25.25,0,0,1,.47-.15c2.13,6.48,21.84,12.75,22,12.81a.25.25,0,0,1-.08.49Z"/><path class="cls-1" d="M117.71,149.68l-.1,0a.26.26,0,0,1-.13-.33c6-13.7,16.11-18.05,16.21-18.09a.26.26,0,0,1,.33.13.25.25,0,0,1-.14.33,24.86,24.86,0,0,0-5.73,3.79,38.44,38.44,0,0,0-10.21,14A.25.25,0,0,1,117.71,149.68Z"/><path class="cls-1" d="M125.39,166.38a.26.26,0,0,1-.25-.2c-1.5-7.44,1.69-14.1,4.63-18.37a39.33,39.33,0,0,1,6.8-7.56.25.25,0,0,1,.35,0,.24.24,0,0,1,0,.35,39,39,0,0,0-6.7,7.46c-2.88,4.2-6,10.72-4.55,18a.25.25,0,0,1-.19.3Z"/><path class="cls-1" d="M136.73,181a.25.25,0,0,1-.25-.21A54.17,54.17,0,0,1,136.2,170c.61-7.64,3.05-13,7-15.55a.25.25,0,0,1,.35.07.26.26,0,0,1-.08.35c-9.36,5.92-6.57,25.72-6.54,25.92a.25.25,0,0,1-.21.28Z"/><path class="cls-1" d="M147,186.9h0a.38.38,0,0,1-.37-.38c0-.69.41-16.9,5.26-18.49a.36.36,0,0,1,.47.24.37.37,0,0,1-.24.47c-3.61,1.18-4.64,13.24-4.74,17.79A.37.37,0,0,1,147,186.9Z"/><path class="cls-1" d="M164.46,169.51a.27.27,0,0,1-.19-.08c-4.87-5.2-9.2-7.28-12-8.11a11.67,11.67,0,0,0-4.89-.57.24.24,0,0,1-.29-.2.25.25,0,0,1,.2-.29c.31-.06,7.79-1.34,17.32,8.83a.25.25,0,0,1,0,.35A.23.23,0,0,1,164.46,169.51Z"/><path class="cls-1" d="M164.63,161a.23.23,0,0,1-.2-.11c-9.3-13.41-24.42-12.75-24.58-12.74a.25.25,0,0,1-.26-.24.25.25,0,0,1,.23-.26c.15,0,15.56-.69,25,13a.24.24,0,0,1-.07.34A.24.24,0,0,1,164.63,161Z"/><path class="cls-1" d="M160.22,145.4a.23.23,0,0,1-.16-.06,37.54,37.54,0,0,0-17.37-8.62,21.57,21.57,0,0,0-7.4-.25.24.24,0,0,1-.29-.2.25.25,0,0,1,.19-.29,22.19,22.19,0,0,1,7.57.24c4.2.76,10.66,2.89,17.62,8.74a.25.25,0,0,1,0,.35A.25.25,0,0,1,160.22,145.4Z"/><path class="cls-1" d="M163.8,185a.24.24,0,0,1-.21-.13s-2.27-3.92-8.64-7.23a.25.25,0,0,1,.23-.45c6.51,3.39,8.75,7.27,8.84,7.43a.24.24,0,0,1-.09.34A.28.28,0,0,1,163.8,185Z"/><path class="cls-1" d="M140.17,110.68a.25.25,0,0,1-.13-.47c.06,0,6.25-3.68,9.6-14.48a.26.26,0,0,1,.32-.17.25.25,0,0,1,.16.32c-3.42,11-9.77,14.73-9.83,14.76A.28.28,0,0,1,140.17,110.68Z"/><path class="cls-1" d="M159.2,201.18a.67.67,0,0,1-.4-.14l-8.43-6.6-1.07,2.46a.59.59,0,0,1-.36.33.61.61,0,0,1-.48,0,32.26,32.26,0,0,1-8.8-8l-1.55,1.61a.61.61,0,0,1-.8.06,26.85,26.85,0,0,1-6.47-8.6l-.52,1.12a.61.61,0,0,1-.47.35.6.6,0,0,1-.54-.21c-.21-.26-4.84-5.84-6.54-10l-.47.72a.65.65,0,0,1-.49.27.6.6,0,0,1-.5-.25,21.13,21.13,0,0,1-3.49-9.56l-.27.36a.63.63,0,0,1-.51.24.6.6,0,0,1-.48-.28c-.2-.33-4.66-7.68-2.44-15.32l-.73.3a.57.57,0,0,1-.6-.08.58.58,0,0,1-.22-.56c.06-.4,1.51-9.24,6.06-13.55l-1.07-.19a.61.61,0,0,1-.47-.41.63.63,0,0,1,.16-.61c.28-.28,7-6.92,10.75-6.92a.6.6,0,0,1,0,1.2c-2.33,0-6.75,3.63-9.06,5.77l1.17.2a.64.64,0,0,1,.48.46.6.6,0,0,1-.24.62c-4,2.86-5.81,9.85-6.39,12.54l.93-.39a.61.61,0,0,1,.65.13.62.62,0,0,1,.14.65c-2.41,6.13.35,12.54,1.47,14.74l.74-1a.62.62,0,0,1,.68-.21.59.59,0,0,1,.4.59,19.2,19.2,0,0,0,2.83,9.82l.63-1a.6.6,0,0,1,.6-.26.61.61,0,0,1,.48.43c.88,3.2,4.64,8.15,6.12,10l.64-1.4a.63.63,0,0,1,.55-.35h0a.61.61,0,0,1,.54.35,28.72,28.72,0,0,0,6.28,9l1.64-1.71a.55.55,0,0,1,.47-.18.56.56,0,0,1,.44.24,33.13,33.13,0,0,0,8.29,7.87l1.1-2.54a.65.65,0,0,1,.41-.35.62.62,0,0,1,.51.11l8.27,6.48a25,25,0,0,1,1.88-3.24c.74-1.16,1.57-2.47,2.18-3.65a12.48,12.48,0,0,0,1.44-4.75.61.61,0,0,1,.76-.56l1.48.4c.87-5.53-1.37-8.81-1.4-8.84a.6.6,0,0,1,0-.68.59.59,0,0,1,.64-.25l1.7.41c.94-8.21-2.32-10.48-2.54-10.62h0a.6.6,0,0,1,.6-1l.06,0,3.34,2c.49-5.29-3.6-12.48-3.64-12.56a.61.61,0,0,1,0-.66.61.61,0,0,1,.63-.22l2.06.55c.07-5.15-4.45-9.5-4.5-9.55a.59.59,0,0,1-.14-.65.6.6,0,0,1,.56-.38h1c-2.52-4.58-9.7-9-9.78-9.07a.61.61,0,0,1-.28-.43.62.62,0,0,1,.16-.49l.85-.91a14,14,0,0,0-8.69-4.85.59.59,0,0,1-.56-.63.58.58,0,0,1,.64-.56,15,15,0,0,1,9.88,5.67.62.62,0,0,1,0,.8l-.73.77c2,1.31,8.18,5.63,10,10.07a.6.6,0,0,1-.55.83h-.58c1.54,1.79,4.31,5.71,3.86,10.21a.59.59,0,0,1-.25.43.64.64,0,0,1-.5.09l-1.44-.38c1.29,2.55,3.92,8.51,3,13a.61.61,0,0,1-.35.43.6.6,0,0,1-.55,0l-1.37-.83c.88,1.89,1.54,5,.89,9.76a.59.59,0,0,1-.73.51l-1.06-.26a15.24,15.24,0,0,1,.81,9.15.6.6,0,0,1-.27.4.66.66,0,0,1-.48.07l-1.44-.39a14.54,14.54,0,0,1-1.49,4.52c-.64,1.23-1.49,2.56-2.23,3.74a15.07,15.07,0,0,0-1.93,3.51.57.57,0,0,1-.21.68A.54.54,0,0,1,159.2,201.18Z"/><path class="cls-1" d="M82.17,173.75a20.79,20.79,0,0,1-3.65-.33.59.59,0,0,1-.44-.33.57.57,0,0,1,0-.54l.62-1.15c-2.85,1.29-8.59,3.4-12.42,1.66a.57.57,0,0,1-.35-.48.62.62,0,0,1,.24-.55l.45-.33c-2.41.05-6.46-.12-8.92-1.57a.6.6,0,0,1,.09-1.08l1.75-.68a27.94,27.94,0,0,1-12.17-3.47.6.6,0,0,1-.3-.48.59.59,0,0,1,.22-.51l.72-.58c-3,0-9.16-.31-12-2.35a.61.61,0,0,1-.25-.51A.63.63,0,0,1,36,160l2.35-1.4a56.82,56.82,0,0,0-10.1-1.23.6.6,0,0,1-.48-1c.82-1.14,7.21-9.93,11.38-12.2l-2-.82a.6.6,0,0,1-.34-.34.69.69,0,0,1,0-.49c.15-.29,3.37-6.5,8-8.13l-1.71-.8a.61.61,0,0,1-.33-.4.6.6,0,0,1,.11-.5c.21-.29,4.83-6.25,11.57-7.08l-2-.9a.59.59,0,0,1-.34-.49.6.6,0,0,1,.24-.54,28.51,28.51,0,0,1,13.13-4.85l-2.63-1.63a.61.61,0,0,1-.28-.53.6.6,0,0,1,.31-.51c.31-.17,7.22-3.88,14.7-2.33l-1.47-2.18a.61.61,0,0,1-.06-.56.62.62,0,0,1,.43-.36c.39-.08,8.45-1.76,13.53.11a.62.62,0,0,1,0-.5.59.59,0,0,1,.51-.31c.34,0,7.45-.2,12.37,3.78l-.4-1a.6.6,0,0,1,.13-.65.59.59,0,0,1,.64-.13c.26.1,6.39,2.54,9.24,4.89a.6.6,0,1,1-.77.93,37.12,37.12,0,0,0-7.61-4.16l1,2.51a.6.6,0,0,1-.27.75.6.6,0,0,1-.77-.17c-3.39-4.59-9.91-5.38-12.46-5.51l.49.8a.6.6,0,0,1-.11.75.6.6,0,0,1-.77,0c-3.43-2.57-11-1.54-13.64-1.1l1.84,2.73a.59.59,0,0,1,0,.69.57.57,0,0,1-.65.22c-6-1.85-12.07.36-14.37,1.38l3.34,2.07a.63.63,0,0,1,.26.68.6.6,0,0,1-.58.43h0A26.86,26.86,0,0,0,54,124.09l3.37,1.55a.61.61,0,0,1,.33.7.59.59,0,0,1-.64.44c-6.26-.59-11.2,4.36-12.72,6.08L47,134.09a.61.61,0,0,1,.34.66.59.59,0,0,1-.56.48c-4.06.21-7.45,5.51-8.48,7.28l3,1.19a.61.61,0,0,1,.36.69.62.62,0,0,1-.63.47h-.07c-2.25,0-7.89,6.56-11.41,11.31a63.45,63.45,0,0,1,10.68,1.55.62.62,0,0,1,.46.5.6.6,0,0,1-.29.6l-2.78,1.66c4,2,12.14,1.63,12.23,1.63a.59.59,0,0,1,.58.39.6.6,0,0,1-.18.68l-1.38,1.1a26.89,26.89,0,0,0,14,2.84.6.6,0,0,1,.29,1.15l-3.55,1.39c3.51,1.24,8.92.75,9,.75a.59.59,0,0,1,.61.38.59.59,0,0,1-.2.7l-1.13.83c4.72,1.13,12-2.76,12-2.8a.6.6,0,0,1,.81.81l-1.1,2a17,17,0,0,0,14.8-5,.58.58,0,0,1,.68-.18.6.6,0,0,1,.38.59l-.16,3c4-.22,10-5.79,10-5.85a.59.59,0,0,1,.65-.11.6.6,0,0,1,.36.55v1.45c5.25-.4,8.09-7.18,8.12-7.25a.6.6,0,1,1,1.11.46c-.13.33-3.38,8.1-9.84,8a.59.59,0,0,1-.59-.6v-.72c-2.1,1.79-7,5.58-10.54,5.26a.61.61,0,0,1-.55-.63l.11-2.08A17.89,17.89,0,0,1,82.17,173.75Z"/><path class="cls-1" d="M108.83,115.84a.58.58,0,0,1-.33-.1c-4.52-3.07-7.15-10.07-7.26-10.37a.58.58,0,0,1,.58-.8l.66,0c-4-4.87-3.74-11.51-3.73-11.81a.6.6,0,0,1,.26-.47.62.62,0,0,1,.53-.08l.68.23c-2.07-5.65.41-12.73.53-13a.62.62,0,0,1,.37-.37.63.63,0,0,1,.52.07l.73.48A19.36,19.36,0,0,1,104.9,66.2a.65.65,0,0,1,.52-.25.62.62,0,0,1,.49.29l.65,1.08c.78-6.73,5.74-12,6-12.22a.59.59,0,0,1,.53-.18.59.59,0,0,1,.45.34l.28.6A28.31,28.31,0,0,1,120,45.48a.74.74,0,0,1,.43-.18.61.61,0,0,1,.42.19l1,1.1c1.13-3.24,5.7-8.51,6.29-9.18a.59.59,0,0,1,.56-.19.58.58,0,0,1,.45.37c2.49,6.42,5.83,9.14,7.23,10l.44-2.07a.62.62,0,0,1,.28-.39.56.56,0,0,1,.47-.06c3.41,1,6.31,6.76,7.53,9.54l.23-.67a.6.6,0,0,1,.44-.39.61.61,0,0,1,.56.16c3.71,3.82,4.28,10.17,4.33,13l.94-.85a.65.65,0,0,1,.55-.14.61.61,0,0,1,.42.38,28.84,28.84,0,0,1,1.55,13.45l1.16-.79a.6.6,0,0,1,.94.44c.7,7.38-.41,11.06-1.17,12.65h1.42a.6.6,0,0,1,.59.54c.5,5.26-3.1,11.46-3.25,11.72a.6.6,0,1,1-1-.61s3.31-5.68,3.13-10.45H154a.6.6,0,0,1-.55-.36.62.62,0,0,1,.11-.65s2.25-2.67,1.57-11.71l-1.48,1a.6.6,0,0,1-.68,0,.6.6,0,0,1-.24-.63,27.28,27.28,0,0,0-1-13.35l-1.28,1.16a.58.58,0,0,1-.66.1.6.6,0,0,1-.35-.57c0-.09.38-8-3.32-12.73l-.42,1.19a.63.63,0,0,1-.56.41.66.66,0,0,1-.57-.39c-.9-2.4-3.76-8.54-6.73-10l-.46,2.18a.61.61,0,0,1-.83.43c-.2-.09-4.79-2.18-8.16-10.17-2,2.38-5.6,7-5.6,8.88a.6.6,0,0,1-.37.56.62.62,0,0,1-.66-.14l-1.4-1.46a28.51,28.51,0,0,0-6,10.91.6.6,0,0,1-.53.44.58.58,0,0,1-.59-.35l-.54-1.17c-1.49,1.79-5.25,6.91-5.16,12.7a.6.6,0,0,1-.43.59.61.61,0,0,1-.68-.27l-1.14-1.9a19.32,19.32,0,0,0-1.61,13,.59.59,0,0,1-.25.62.57.57,0,0,1-.66,0l-1.23-.81c-.62,2.1-2.09,8.25.19,12.62a.57.57,0,0,1-.07.66.61.61,0,0,1-.65.19L100,93.63c.08,2.05.66,7.54,4.34,11.18a.58.58,0,0,1,.13.66.59.59,0,0,1-.57.36l-1.15,0c.83,1.94,3.14,6.7,6.46,9a.6.6,0,0,1,.16.83A.61.61,0,0,1,108.83,115.84Z"/><path class="cls-1" d="M146.69,131.14a.78.78,0,0,1-.59-.29,5.89,5.89,0,0,0-2.33-1,15.82,15.82,0,0,1-5.41-2.56c-2.79-2.19-3-6.37-3-6.55a.61.61,0,0,1,.57-.63.59.59,0,0,1,.63.57s.23,3.82,2.58,5.67a14.82,14.82,0,0,0,5,2.35,10.05,10.05,0,0,1,2.37.94,10.27,10.27,0,0,0-1.3-6.1c-1.42-2.34-3.74-3.39-6.85-3.13a.59.59,0,0,1-.65-.55.61.61,0,0,1,.55-.65c6.09-.52,8.26,3.58,9,6,.69,2.26.75,5.29-.19,5.81A.8.8,0,0,1,146.69,131.14Z"/><path class="cls-1" d="M180.53,159.77A31.6,31.6,0,0,1,167.72,157a.61.61,0,0,1-.28-.8.61.61,0,0,1,.81-.28c.1.05,9.88,4.75,19.84,1.49l-3.22-1.83a.61.61,0,0,1-.26-.73.59.59,0,0,1,.67-.38c.08,0,8.51,1.44,16.25-1.48l-3-1.57a.6.6,0,0,1,.28-1.13h0a23.37,23.37,0,0,0,10-2.64l-1.6-1a.6.6,0,0,1,.3-1.1,19,19,0,0,0,12-6h-1.8a.61.61,0,0,1-.58-.46.59.59,0,0,1,.3-.67c.07,0,6.35-3.36,9.1-6.38l-2.15-1a.61.61,0,0,1-.34-.52.59.59,0,0,1,.31-.55l7.28-4-9.82-5.23a.62.62,0,0,1-.3-.68.61.61,0,0,1,.59-.45H224c-1.67-1.68-5.24-4.94-8.39-5.63a.6.6,0,0,1-.09-1.15l.85-.33c-2.22-1.34-7.52-4.38-10.26-4.38H206a.61.61,0,0,1-.58-.42.6.6,0,0,1,.25-.68l.92-.6A21,21,0,0,0,193.71,103a.61.61,0,0,1-.61-.37.59.59,0,0,1,.18-.69l1.25-1c-2.71-1.07-10.83-3.94-16-2.42a.6.6,0,0,1-.61-1l1.17-1.22a31,31,0,0,0-13.72,3.36.62.62,0,0,1-.59,0,.57.57,0,0,1-.29-.5l0-1.73c-1.67.71-5.57,2.67-7.31,6l0,1,6.51-1.72a.6.6,0,0,1,.75.49,10.24,10.24,0,0,1-2.57,8.81h.26a.58.58,0,0,1,.46.22.6.6,0,0,1,.13.5c-.62,3.21-3.62,4.51-5.8,5a.65.65,0,0,1,.22.34.63.63,0,0,1-.14.54c-2.62,2.92-12.41,3.48-12.83,3.51a.65.65,0,0,1-.63-.57.6.6,0,0,1,.57-.63c2.42-.14,8.65-.83,11.26-2.51l-1-.37a.6.6,0,0,1,.19-1.16c.06,0,5.47-.24,6.8-3.69h-1.09a.6.6,0,0,1-.32-1.11c.16-.1,3.85-2.48,3.39-8.06l-6.57,1.74a.6.6,0,0,1-.75-.57l0-1.91A.46.46,0,0,1,156,103c2.4-4.81,8.57-7,8.83-7a.61.61,0,0,1,.54.08.59.59,0,0,1,.25.47l0,1.65a31.63,31.63,0,0,1,14.86-3,.6.6,0,0,1,.51.39.61.61,0,0,1-.13.63l-.8.83c6.64-.78,15.43,3,15.84,3.22a.61.61,0,0,1,.35.47.58.58,0,0,1-.21.54l-.65.53A22.17,22.17,0,0,1,208,105.93a.63.63,0,0,1,.23.5.59.59,0,0,1-.27.47l-.3.2c4.07.94,10.06,4.8,10.35,5a.6.6,0,0,1-.1,1.06l-.41.16c4.13,1.75,8.15,6.26,8.34,6.47a.64.64,0,0,1,.1.65.62.62,0,0,1-.55.35h-.91l8.67,4.62a.6.6,0,0,1,0,1.06l-7.22,4,1.78.84a.63.63,0,0,1,.33.4.6.6,0,0,1-.11.5c-1.74,2.29-5.58,4.76-7.95,6.16h.81a.6.6,0,0,1,.47,1,20.19,20.19,0,0,1-12,7.19l1.07.7a.6.6,0,0,1,.28.52.63.63,0,0,1-.3.5,25.08,25.08,0,0,1-9.35,3.14l2.25,1.18a.61.61,0,0,1,.31.56.57.57,0,0,1-.35.52A33.57,33.57,0,0,1,188,156l1.83,1a.61.61,0,0,1,.3.57.57.57,0,0,1-.38.51A24.89,24.89,0,0,1,180.53,159.77Z"/><path class="cls-1" d="M140.36,114.69a.48.48,0,0,1-.2,0,.61.61,0,0,1-.37-.76,17.33,17.33,0,0,1,6.19-8,.6.6,0,0,1,.89.3l.27.74c1-1.43,2.87-3.86,5-4.34a.6.6,0,0,1,.73.59v.26a5.65,5.65,0,0,1,3.73-.86.59.59,0,0,1,.56.63.61.61,0,0,1-.63.57c-3.1-.18-3.66,1.43-3.68,1.5a.62.62,0,0,1-.67.4.61.61,0,0,1-.51-.59v-1c-1.78.92-3.52,3.5-4.11,4.55a.58.58,0,0,1-.57.3.61.61,0,0,1-.52-.39l-.42-1.17a16.52,16.52,0,0,0-5.08,6.92A.61.61,0,0,1,140.36,114.69Z"/><path class="cls-1" d="M136.45,121.29a2.81,2.81,0,0,1-1.69-.56c-2.65-2-3.91-7.45-4-7.68a.58.58,0,0,1,.18-.57.57.57,0,0,1,.58-.13l.77.23a11.32,11.32,0,0,1,5.26-9c.49-.24.87-.23,1.13,0a.76.76,0,0,1,.17.87c-.25.66,0,2.78.38,4.46l.3-.18a.58.58,0,0,1,.53,0,.56.56,0,0,1,.36.39c1.61,5.78-.38,9.42-1.7,11.08A3,3,0,0,1,136.45,121.29Zm-4.2-7.47c.48,1.61,1.57,4.7,3.23,6h0a1.7,1.7,0,0,0,2.34-.35c1.12-1.41,2.77-4.44,1.68-9.25l-.33.2a.6.6,0,0,1-.54,0,.59.59,0,0,1-.35-.42,22.29,22.29,0,0,1-.68-5,10.07,10.07,0,0,0-4,8.39.62.62,0,0,1-.23.52.6.6,0,0,1-.55.1Z"/><path class="cls-1" d="M127.56,130.2c-.3,0-.61,0-.92,0a.59.59,0,0,1-.55-.57l0-1.49c-2.47.43-10.74,1.51-15.62-2.48a.59.59,0,0,1-.2-.61.58.58,0,0,1,.45-.44l1.2-.27-5.22-2.6a.61.61,0,0,1-.11-1,36.73,36.73,0,0,1,7.25-4.48l-.89-.42a.62.62,0,0,1-.34-.59.6.6,0,0,1,.43-.53c.34-.1,7.38-2.13,11.83-1.5l-.32-.51a.6.6,0,0,1,0-.62.58.58,0,0,1,.55-.3c.17,0,4.29.18,6.75,2.3a.6.6,0,0,1-.79.91,9.88,9.88,0,0,0-4.82-1.88l.45.7a.62.62,0,0,1,0,.7.6.6,0,0,1-.68.18c-2.78-1-8.29.1-11,.76l.88.42a.58.58,0,0,1,.33.65.6.6,0,0,1-.54.49c-1.9.16-5.57,2.63-7.52,4.08l5.87,2.93a.58.58,0,0,1,.33.6.61.61,0,0,1-.47.52l-1.53.34c5.4,3.25,14.14,1.37,14.24,1.35a.58.58,0,0,1,.49.11.6.6,0,0,1,.24.45l0,1.65c5.41.16,9.54-4.22,9.58-4.26a.6.6,0,1,1,.88.81C137.55,125.75,133.35,130.2,127.56,130.2Z"/><path class="cls-1" d="M135.92,121.72l-.08,0c-.1,0-9.5-3.4-22.63-.77a.24.24,0,0,1-.29-.19.25.25,0,0,1,.19-.3c13.28-2.66,22.8.76,22.9.79a.26.26,0,0,1,.15.32A.27.27,0,0,1,135.92,121.72Z"/><path class="cls-1" d="M121.49,123.86a.3.3,0,0,1-.15,0,.26.26,0,0,1,0-.36c.11-.15,2.93-3.79,6.28-3.79a.26.26,0,0,1,.27.25.27.27,0,0,1-.25.25h0c-3.1,0-5.86,3.56-5.89,3.6A.26.26,0,0,1,121.49,123.86Z"/><path class="cls-1" d="M133.51,121l-.11,0a10,10,0,0,1-4.28-4.78.25.25,0,0,1,.13-.33.24.24,0,0,1,.33.13,9.66,9.66,0,0,0,4,4.53.26.26,0,0,1,.11.34A.25.25,0,0,1,133.51,121Z"/><path class="cls-1" d="M143.9,126.49a.25.25,0,0,1-.21-.12,13.77,13.77,0,0,0-7.45-5.34.25.25,0,0,1-.19-.3.25.25,0,0,1,.31-.18,14,14,0,0,1,7.75,5.56.24.24,0,0,1-.08.34A.2.2,0,0,1,143.9,126.49Z"/><path class="cls-1" d="M136.73,120.82a.26.26,0,0,1-.25-.19c-.06-.25-1.49-6.07-.34-9.26a.26.26,0,0,1,.32-.15.25.25,0,0,1,.15.32c-1.1,3,.34,8.91.36,9a.25.25,0,0,1-.18.3Z"/><path class="cls-1" d="M138.61,119.61a.27.27,0,0,1-.17-.06.25.25,0,0,1,0-.36c.23-.24,5.7-6.08,10-7.09s11.33-5.47,11.4-5.52a.26.26,0,0,1,.35.08.27.27,0,0,1-.08.35c-.3.18-7.33,4.57-11.56,5.58s-9.65,6.88-9.71,6.94A.22.22,0,0,1,138.61,119.61Z"/><path class="cls-1" d="M143.16,118.57a11,11,0,0,1-3.13-.45.24.24,0,0,1-.17-.31.25.25,0,0,1,.31-.17c5.41,1.62,10-1.79,10.06-1.83a.25.25,0,0,1,.3.4A13.5,13.5,0,0,1,143.16,118.57Z"/><path class="cls-1" d="M147.73,112.8a.24.24,0,0,1-.25-.22c-.13-1.45,4.79-4.8,5.77-5.46a.25.25,0,0,1,.28.42c-2.35,1.56-5.63,4.15-5.55,5a.25.25,0,0,1-.23.27Z"/></svg>