<svg id="Camada_1" data-name="Camada 1" xmlns="http://www.w3.org/2000/svg" viewBox="0 0 206.19 259.94"><defs><style>.cls-1{fill:#745d79;}</style></defs><path class="cls-1" d="M111,245.05a.6.6,0,0,1-.59-.47c-.22-1-21.1-99.66,15.59-165.07a.6.6,0,1,1,1,.59c-36.46,65-15.67,163.24-15.46,164.22a.6.6,0,0,1-.46.72Z"/><path class="cls-1" d="M106,152.83a.6.6,0,0,1-.6-.59c0-.25-.5-25-19.45-39.37a.6.6,0,0,1-.12-.84.61.61,0,0,1,.85-.11c19.43,14.77,19.92,40.05,19.92,40.3a.59.59,0,0,1-.59.61Z"/><path class="cls-1" d="M88.12,114.18a.37.37,0,0,1-.29-.13c0-.07-1.36-1.67-.07-5.9,0-.18.12-.4.21-.67,6.71-21,2.56-39.9-12-54.79a.37.37,0,0,1,0-.53.38.38,0,0,1,.53,0c14.58,14.88,18.91,34.6,12.2,55.54l-.2.65c-1.16,3.79-.08,5.2-.07,5.21a.38.38,0,0,1-.06.53A.4.4,0,0,1,88.12,114.18Z"/><path class="cls-1" d="M57.33,122.5c-8.32,0-18.67-2.08-31.12-8.36a.37.37,0,0,1,.33-.67c31.19,15.7,48.33,5.24,54.78,1.3l.93-.56c2.18-1.29,4-1.7,5.38-1.24a2.78,2.78,0,0,1,1.67,1.42.37.37,0,1,1-.69.29,2.08,2.08,0,0,0-1.24-1c-1.15-.37-2.79,0-4.74,1.18l-.92.56A44.26,44.26,0,0,1,57.33,122.5Z"/><path class="cls-1" d="M90.62,116.46a.39.39,0,0,1-.28-.12c-7.13-7.63-42.82-35.24-43.18-35.52a.36.36,0,0,1-.07-.52.37.37,0,0,1,.53-.07c.36.28,36.09,27.92,43.27,35.6a.38.38,0,0,1,0,.53A.35.35,0,0,1,90.62,116.46Z"/><path class="cls-1" d="M88.12,114.18a.42.42,0,0,1-.21-.06,32.51,32.51,0,0,0-6-3.16c-1.57-.59-3.19-1.29-4.83-2.07A153.84,153.84,0,0,1,47.14,89.73a.38.38,0,0,1,0-.53.37.37,0,0,1,.53,0,153.08,153.08,0,0,0,29.77,19c1.62.77,3.23,1.46,4.77,2a33.59,33.59,0,0,1,6.15,3.24.38.38,0,0,1-.2.69Z"/><path class="cls-1" d="M88.12,114.18a.39.39,0,0,1-.27-.11A19.42,19.42,0,0,1,85,109.74a95.65,95.65,0,0,0-9-13.59A95.56,95.56,0,0,0,55.36,76.81a.38.38,0,0,1,.41-.63A96.57,96.57,0,0,1,76.51,95.69a96.28,96.28,0,0,1,9.11,13.69,18.64,18.64,0,0,0,2.77,4.17.37.37,0,0,1,0,.53A.35.35,0,0,1,88.12,114.18Z"/><path class="cls-1" d="M86,111.17a.38.38,0,0,1-.37-.31c-3-17.6-21.24-34.94-21.42-35.11a.38.38,0,1,1,.51-.55c.19.18,18.61,17.68,21.65,35.54a.37.37,0,0,1-.31.43Z"/><path class="cls-1" d="M86.68,111.17a.37.37,0,0,1-.37-.29C80.87,87.64,73.09,78.78,73,78.7a.39.39,0,0,1,0-.53.38.38,0,0,1,.53,0c.08.09,8,9.06,13.47,32.52a.37.37,0,0,1-.28.45Z"/><path class="cls-1" d="M86,110.63H85.9a.38.38,0,0,1-.29-.44c5.7-25.84-18.3-44.48-18.54-44.66A.37.37,0,0,1,67,65a.37.37,0,0,1,.52-.07c.25.19,24.63,19.11,18.83,45.42A.38.38,0,0,1,86,110.63Z"/><path class="cls-1" d="M86.35,111.81l-.1,0a.37.37,0,0,1-.26-.46C93.75,83.63,76.1,61,75.92,60.75a.38.38,0,1,1,.59-.47c.18.23,18.06,23.18,10.2,51.25A.36.36,0,0,1,86.35,111.81Z"/><path class="cls-1" d="M80.36,112.11c-18.14,0-34.94-12.25-35.12-12.39a.37.37,0,0,1,.44-.6c.2.14,19.83,14.46,39.4,11.94a.37.37,0,0,1,.42.32.37.37,0,0,1-.32.42A37.26,37.26,0,0,1,80.36,112.11Z"/><path class="cls-1" d="M72.25,113.93c-20.16,0-37.75-12.81-38-13a.38.38,0,0,1-.08-.52.38.38,0,0,1,.53-.08c.26.19,26.1,19,50.82,10.72a.37.37,0,0,1,.47.23.38.38,0,0,1-.24.48A42.6,42.6,0,0,1,72.25,113.93Z"/><path class="cls-1" d="M60.31,117.46c-14.52,0-23.21-5.32-23.34-5.41a.36.36,0,0,1-.12-.51.37.37,0,0,1,.52-.12c.19.12,19.74,12.06,49.36-.33a.37.37,0,1,1,.29.69A69.06,69.06,0,0,1,60.31,117.46Z"/><path class="cls-1" d="M73.3,62.16a4.12,4.12,0,0,1-3.91-3.11,2.74,2.74,0,0,1-.35-1.2,3.58,3.58,0,0,1,1-2.61,4.4,4.4,0,0,1,5-.91,4.27,4.27,0,0,1,2.22,4.58,4.23,4.23,0,0,1-3.92,3.25Zm-2.5-2a3.38,3.38,0,0,0,2.55,1.21,3.46,3.46,0,0,0,3.2-2.66A3.55,3.55,0,0,0,74.72,55a3.61,3.61,0,0,0-4.13.76,2.79,2.79,0,0,0-.81,2,2,2,0,0,0,1.14,1.68.37.37,0,0,1-.12.72Z"/><path class="cls-1" d="M74.43,53.45a5.66,5.66,0,0,1-3.13-1.24,2,2,0,0,1-.91-1.62,3.09,3.09,0,0,1,1.23-2.36,4.4,4.4,0,0,1,3.92-.69,2.18,2.18,0,0,1,1.13.68,2.59,2.59,0,0,1,.38,1.69,4,4,0,0,1-.82,2.79h0A2.41,2.41,0,0,1,74.43,53.45Zm-.2-5.34a3.36,3.36,0,0,0-2.14.71,2.33,2.33,0,0,0-1,1.74,1.31,1.31,0,0,0,.6,1c1,.72,2.84,1.74,3.94.59h0a3.43,3.43,0,0,0,.62-2.3,1.92,1.92,0,0,0-.22-1.21,1.42,1.42,0,0,0-.75-.42A4.16,4.16,0,0,0,74.23,48.11Z"/><path class="cls-1" d="M65.71,66.1a6.79,6.79,0,0,1-1.7-.28,1.93,1.93,0,0,1-.7-.31,3.78,3.78,0,0,1-1-3A3.58,3.58,0,0,1,64.21,60a3.65,3.65,0,0,1,3.16,0,2.46,2.46,0,0,1,1.29,1.25,3.35,3.35,0,0,1-.12,2.14A4,4,0,0,1,67,65.76,2.49,2.49,0,0,1,65.71,66.1Zm.1-5.77a2.92,2.92,0,0,0-1.27.29,2.8,2.8,0,0,0-1.51,2,3,3,0,0,0,.77,2.33h0a1,1,0,0,0,.4.16,3.32,3.32,0,0,0,2.46,0,3.25,3.25,0,0,0,1.16-2A2.73,2.73,0,0,0,68,61.44a1.76,1.76,0,0,0-.91-.84A2.91,2.91,0,0,0,65.81,60.33Z"/><path class="cls-1" d="M72.45,79.18A2.84,2.84,0,0,1,71,78.65a12,12,0,0,1-2.69-2.35,2.74,2.74,0,0,1-.61-2.17,2.44,2.44,0,0,1,1.12-1.73c1.2-.75,2.94.07,3.76.76a4.75,4.75,0,0,1,1.62,3.89,2.21,2.21,0,0,1-1.28,2.06A1.49,1.49,0,0,1,72.45,79.18Zm-2.51-6.33a1.37,1.37,0,0,0-.73.19,1.69,1.69,0,0,0-.77,1.2,2,2,0,0,0,.44,1.57h0A11.55,11.55,0,0,0,71.41,78c.57.36,1,.48,1.28.37.51-.16.73-.85.76-1.39a4,4,0,0,0-1.35-3.27A3.87,3.87,0,0,0,69.94,72.85Z"/><path class="cls-1" d="M61.85,76.56A5.4,5.4,0,0,1,59.49,76a3.71,3.71,0,0,1-2.32-3.75A4,4,0,0,1,60.25,69a4.39,4.39,0,0,1,4.58,1.74,4,4,0,0,1-.45,4.85h0A3.52,3.52,0,0,1,61.85,76.56Zm-.61-6.93a3.59,3.59,0,0,0-.81.09,3.36,3.36,0,0,0-2.52,2.62,3.06,3.06,0,0,0,1.92,3c1.2.6,3,.77,4-.26h0a3.19,3.19,0,0,0,.35-3.91A3.6,3.6,0,0,0,61.24,69.63Zm2.87,5.69h0Z"/><path class="cls-1" d="M52,78.8A3.54,3.54,0,0,1,49.76,78a3.39,3.39,0,0,1-1.34-2.52,4.37,4.37,0,0,1,1-2.78,4.61,4.61,0,0,1,3.55-1.84h0a3.56,3.56,0,0,1,3.32,2.23,4.3,4.3,0,0,1-1.42,4.39,4.7,4.7,0,0,1-2.25,1.24h0A3.47,3.47,0,0,1,52,78.8Zm1-7.17a3.89,3.89,0,0,0-3,1.55,3.59,3.59,0,0,0-.81,2.29,2.63,2.63,0,0,0,1,2,2.73,2.73,0,0,0,2.22.57h0a4,4,0,0,0,1.89-1,3.59,3.59,0,0,0,1.23-3.59,2.81,2.81,0,0,0-2.62-1.73Z"/><path class="cls-1" d="M44.77,81.49h-.2a4.57,4.57,0,0,1-3.63-2,4,4,0,0,1,0-4,3,3,0,0,1,1.14-1.16,3.48,3.48,0,0,1,3.12,0,4.83,4.83,0,0,1,2.52,2.41,3.66,3.66,0,0,1-.31,3.51A3.15,3.15,0,0,1,44.77,81.49Zm-1.26-6.8a2.23,2.23,0,0,0-1.07.26,2.38,2.38,0,0,0-.86.89,3.27,3.27,0,0,0,0,3.22,3.81,3.81,0,0,0,3,1.67,2.49,2.49,0,0,0,2.2-.94h0A2.88,2.88,0,0,0,47,77a4.06,4.06,0,0,0-2.13-2A3.47,3.47,0,0,0,43.51,74.69Z"/><path class="cls-1" d="M44.24,90.93A4.72,4.72,0,0,1,42,90.42a2.21,2.21,0,0,1-1.21-2.3,4.15,4.15,0,0,1,2.61-3.37A3.6,3.6,0,0,1,47.47,86,3.16,3.16,0,0,1,47,90.14h0A4.46,4.46,0,0,1,44.24,90.93Zm.36-5.64a2.77,2.77,0,0,0-.94.16,3.4,3.4,0,0,0-2.12,2.76,1.46,1.46,0,0,0,.82,1.56,4.39,4.39,0,0,0,4.12-.21h0a2.43,2.43,0,0,0,.38-3.17A2.77,2.77,0,0,0,44.6,85.29Zm2.12,4.56h0Z"/><path class="cls-1" d="M42.69,101.4h-.37a4.77,4.77,0,0,1-4.63-5,2.54,2.54,0,0,1,1-2c1.44-1.1,3.83-.7,4.53-.55,1.21.25,2.52.67,3,1.82a3.8,3.8,0,0,1,0,2.38,4.7,4.7,0,0,1-1.36,2.68A3.43,3.43,0,0,1,42.69,101.4Zm-1.28-7a3.77,3.77,0,0,0-2.28.59,1.77,1.77,0,0,0-.69,1.42,4,4,0,0,0,3.93,4.21h0a3,3,0,0,0,2-.49,4,4,0,0,0,1.1-2.26,3.13,3.13,0,0,0,0-1.91c-.36-.84-1.45-1.17-2.47-1.39A8.34,8.34,0,0,0,41.41,94.42Z"/><path class="cls-1" d="M32.07,102.44a3.55,3.55,0,0,1-.89-.11,3.56,3.56,0,0,1-1.6-6,3.69,3.69,0,0,1,3.84-.74A3.38,3.38,0,0,1,35.26,100,3.45,3.45,0,0,1,32.07,102.44Zm0-6.36a2.79,2.79,0,0,0-2.67,3.79,2.83,2.83,0,0,0,1.93,1.73,2.61,2.61,0,0,0,3.19-1.88,2.66,2.66,0,0,0-1.42-3.44h0A2.59,2.59,0,0,0,32.1,96.08Z"/><path class="cls-1" d="M34.83,113a4.37,4.37,0,0,1-2.07-.51,4.19,4.19,0,0,1-2.18-3.69,3.8,3.8,0,0,1,2.49-3.47,4.77,4.77,0,0,1,2.66,0,4.51,4.51,0,0,1,2.48,1.37,3.69,3.69,0,0,1,.83,2.77h0a3.91,3.91,0,0,1-2.13,3.06A4.5,4.5,0,0,1,34.83,113Zm-.43-7.13a3.46,3.46,0,0,0-1.09.17,3.09,3.09,0,0,0-2,2.78,3.44,3.44,0,0,0,1.78,3,3.72,3.72,0,0,0,3.45,0,3.15,3.15,0,0,0,1.74-2.47h0a2.94,2.94,0,0,0-.66-2.2A3.74,3.74,0,0,0,35.56,106,4.93,4.93,0,0,0,34.4,105.86Z"/><path class="cls-1" d="M22.92,116.12a2.57,2.57,0,0,1-1.4-.4,2.84,2.84,0,0,1-1.15-2.5,5.86,5.86,0,0,1,.82-2.51,3.61,3.61,0,0,1,1.25-1.45,4,4,0,0,1,2.85-.12A2.51,2.51,0,0,1,27,110a2.22,2.22,0,0,1,.3,1.17h0a4.53,4.53,0,0,1-2.82,4.55A3.5,3.5,0,0,1,22.92,116.12Zm.86-6.43a2,2,0,0,0-1,.22,2.9,2.9,0,0,0-1,1.16,5.31,5.31,0,0,0-.73,2.18,2.12,2.12,0,0,0,.82,1.85,2.24,2.24,0,0,0,2.16,0,3.79,3.79,0,0,0,2.4-3.84h0a1.61,1.61,0,0,0-.18-.79,1.86,1.86,0,0,0-1.19-.56A6.09,6.09,0,0,0,23.78,109.69Z"/><path class="cls-1" d="M125.89,81.76a.38.38,0,0,1-.3-.6c0-.06,1.13-1.38,4.71-1l.55.06c17.56,1.89,31.77-4.44,41.11-18.31a.37.37,0,1,1,.62.42c-9.36,13.91-24.22,20.53-41.81,18.64l-.54-.06c-3.12-.29-4,.75-4,.76A.37.37,0,0,1,125.89,81.76Z"/><path class="cls-1" d="M125.46,82.54a.37.37,0,0,1-.31-.17.36.36,0,0,1,.09-.51,1.57,1.57,0,0,0,.56-1.09c.1-1-.48-2.15-1.68-3.48l-.58-.63c-3.82-4.09-15.42-16.51-8-44a.37.37,0,0,1,.46-.26.37.37,0,0,1,.26.46C109,59.94,120,71.71,124.09,76.15l.59.64c1.38,1.52,2,2.9,1.86,4.09a2.27,2.27,0,0,1-.87,1.59A.35.35,0,0,1,125.46,82.54Z"/><path class="cls-1" d="M124.5,84.1a.33.33,0,0,1-.21-.07.37.37,0,0,1-.09-.52c4.84-6.85,20.79-39.41,21-39.74a.37.37,0,0,1,.5-.17.38.38,0,0,1,.17.5c-.16.33-16.13,32.94-21,39.84A.38.38,0,0,1,124.5,84.1Z"/><path class="cls-1" d="M125.89,81.76l-.14,0a.38.38,0,0,1-.21-.49A25.14,25.14,0,0,0,127.05,76c.21-1.33.5-2.72.85-4.15A122.87,122.87,0,0,1,138.14,45.2a.37.37,0,0,1,.51-.15.37.37,0,0,1,.14.51,123.5,123.5,0,0,0-10.16,26.5c-.35,1.4-.63,2.78-.83,4.08a26.54,26.54,0,0,1-1.56,5.38A.38.38,0,0,1,125.89,81.76Z"/><path class="cls-1" d="M125.89,81.76a.36.36,0,0,1-.22-.07.37.37,0,0,1-.09-.52,15.64,15.64,0,0,1,3-3,76.93,76.93,0,0,0,9.23-9.32,76.91,76.91,0,0,0,11.87-19.29.39.39,0,0,1,.49-.21.38.38,0,0,1,.21.49A79.11,79.11,0,0,1,129,78.76a15.06,15.06,0,0,0-2.82,2.84A.37.37,0,0,1,125.89,81.76Z"/><path class="cls-1" d="M127.91,79.59a.38.38,0,0,1-.35-.24.37.37,0,0,1,.22-.48c13.34-5.21,24-22.35,24.12-22.52a.39.39,0,0,1,.52-.13.37.37,0,0,1,.12.52c-.11.17-10.91,17.53-24.49,22.83A.34.34,0,0,1,127.91,79.59Z"/><path class="cls-1" d="M128,80.14a.38.38,0,0,1-.34-.22.37.37,0,0,1,.19-.49C145.29,71.37,151,63.84,151,63.76a.37.37,0,0,1,.52-.07.36.36,0,0,1,.08.52c-.23.31-5.85,7.76-23.44,15.9A.41.41,0,0,1,128,80.14Z"/><path class="cls-1" d="M128.77,79.51h-.44a.39.39,0,0,1-.37-.38.38.38,0,0,1,.38-.37h0c21.17.27,32-21.58,32.08-21.8a.38.38,0,1,1,.68.33C161,57.51,150.17,79.51,128.77,79.51Z"/><path class="cls-1" d="M130.48,80.09c-1,0-2,0-3-.1a.38.38,0,0,1-.35-.4.37.37,0,0,1,.4-.35c23,1.62,38-15.92,38.12-16.1a.38.38,0,0,1,.53,0,.37.37,0,0,1,0,.53C166.05,63.79,152.16,80.09,130.48,80.09Z"/><path class="cls-1" d="M127.27,79a.37.37,0,0,1-.35-.26c-5.24-15.25,3-33.27,3-33.45a.38.38,0,1,1,.68.32c-.08.17-8.15,17.92-3,32.89a.38.38,0,0,1-.23.48Z"/><path class="cls-1" d="M127.36,79.45a.37.37,0,0,1-.32-.19c-10.7-18.42.06-42.12.17-42.36a.36.36,0,0,1,.49-.18.38.38,0,0,1,.19.5c-.11.23-10.7,23.58-.2,41.66a.39.39,0,0,1-.14.52A.41.41,0,0,1,127.36,79.45Z"/><path class="cls-1" d="M127.56,80.4a.38.38,0,0,1-.31-.16c-7.71-11.29-9.57-21.39-9.77-27.88a32.49,32.49,0,0,1,1.43-11.54.37.37,0,0,1,.7.26c-.06.17-6.27,17.46,8.26,38.73a.38.38,0,0,1-.1.52A.35.35,0,0,1,127.56,80.4Z"/><path class="cls-1" d="M167.36,64h0a3.43,3.43,0,0,1-3.26-2.61,3.39,3.39,0,0,1,1.84-3.71,2.35,2.35,0,0,1,.91-.48,3,3,0,0,1,2.27.37,3.6,3.6,0,0,1,1.56,3.88A3.51,3.51,0,0,1,167.36,64Zm-2.1-4.82a2.55,2.55,0,0,0,2.09,4.07h0a2.78,2.78,0,0,0,2.58-2,2.83,2.83,0,0,0-1.24-3A2.18,2.18,0,0,0,167,58a1.48,1.48,0,0,0-1.08,1.11.38.38,0,0,1-.44.3A.38.38,0,0,1,165.26,59.21Z"/><path class="cls-1" d="M173.3,62.51a2.41,2.41,0,0,1-1.28-.32h0c-1.11-.7-1.27-2.18-.44-4a1.69,1.69,0,0,1,1.18-1,2.5,2.5,0,0,1,2.12.6,3.56,3.56,0,0,1,1.2,3,1.82,1.82,0,0,1-.36,1,2.2,2.2,0,0,1-1.32.59A6.85,6.85,0,0,1,173.3,62.51Zm-.1-4.69a1.09,1.09,0,0,0-.26,0,.94.94,0,0,0-.67.59c-.4.88-.9,2.45.15,3.11h0a2.72,2.72,0,0,0,1.85.1,1.48,1.48,0,0,0,.87-.34,1.1,1.1,0,0,0,.2-.62,2.83,2.83,0,0,0-.94-2.39A1.94,1.94,0,0,0,173.2,57.82Z"/><path class="cls-1" d="M163,57.9a5,5,0,0,1-.58,0,2.53,2.53,0,0,1-2.78-3.23,1.57,1.57,0,0,1,.14-.63,3.09,3.09,0,0,1,2.29-1.34A3,3,0,0,1,165,56.34a2,2,0,0,1-.81,1.26A2.11,2.11,0,0,1,163,57.9Zm-.87-4.49h0a2.39,2.39,0,0,0-1.65,1h0a.87.87,0,0,0,0,.31,2.61,2.61,0,0,0,.36,1.88,2.59,2.59,0,0,0,1.73.57A2.08,2.08,0,0,0,163.8,57a1.32,1.32,0,0,0,.49-.8,2.38,2.38,0,0,0-.41-1.92A2.22,2.22,0,0,0,162.17,53.41Zm-2,.77h0Z"/><path class="cls-1" d="M152.2,64.58a1.69,1.69,0,0,1-1.52-.74,1.93,1.93,0,0,1,0-1.65,9.66,9.66,0,0,1,1.42-2.52h0a2.27,2.27,0,0,1,1.67-.86,2,2,0,0,1,1.59.62c.82.85.45,2.4,0,3.18a3.89,3.89,0,0,1-2.86,1.94A2.13,2.13,0,0,1,152.2,64.58Zm.54-4.45a9.14,9.14,0,0,0-1.32,2.33,1.33,1.33,0,0,0-.09,1c.18.31.7.39,1.14.34a3.12,3.12,0,0,0,2.3-1.56c.35-.64.57-1.8.09-2.3a1.26,1.26,0,0,0-1-.39,1.48,1.48,0,0,0-1.11.57Z"/><path class="cls-1" d="M153.76,57.06a3,3,0,0,1-1.68-.49A3.51,3.51,0,0,1,151,52.71a3,3,0,0,1,2.64-2.49,3.28,3.28,0,0,1,3.12,1.94,3.6,3.6,0,0,1-.65,4A3.27,3.27,0,0,1,153.76,57.06Zm0-6.1h-.13a2.39,2.39,0,0,0-2,1.94,2.81,2.81,0,0,0,.83,3h0a2.5,2.5,0,0,0,3-.34,2.82,2.82,0,0,0,.5-3.12A2.61,2.61,0,0,0,153.77,51Z"/><path class="cls-1" d="M151.37,50.17a4.24,4.24,0,0,1-2.34-.8,3.93,3.93,0,0,1-1.36-1.6h0a2.91,2.91,0,0,1,.1-2.41,2.83,2.83,0,0,1,1.82-1.5,3.56,3.56,0,0,1,2.39.32,3.75,3.75,0,0,1,2.07,2.55,2.9,2.9,0,0,1-1.25,3.05A2.75,2.75,0,0,1,151.37,50.17Zm-3-2.7a3.11,3.11,0,0,0,1.11,1.29,2.82,2.82,0,0,0,2.94.38,2.18,2.18,0,0,0,.91-2.26,3.07,3.07,0,0,0-1.67-2,2.81,2.81,0,0,0-1.88-.26,2.05,2.05,0,0,0-1.32,1.1,2.1,2.1,0,0,0-.09,1.78Z"/><path class="cls-1" d="M146.8,44.2a2.79,2.79,0,0,1-1.11-.23,2.64,2.64,0,0,1-1.49-2.09,3.72,3.72,0,0,1,1.05-3.25,3.3,3.3,0,0,1,3.2-.67,2.64,2.64,0,0,1,1.13.73,2.91,2.91,0,0,1,.51,2.53,3.93,3.93,0,0,1-1.52,2.42A3.12,3.12,0,0,1,146.8,44.2Zm.64-5.65a2.56,2.56,0,0,0-1.69.64,3,3,0,0,0-.81,2.57A2,2,0,0,0,146,43.28h0a2.19,2.19,0,0,0,2.14-.26,3.16,3.16,0,0,0,1.22-2,2.27,2.27,0,0,0-.34-1.87,1.79,1.79,0,0,0-.81-.51A2.19,2.19,0,0,0,147.44,38.55Z"/><path class="cls-1" d="M139.35,45.74a2.41,2.41,0,0,1-1.55-.53h0a4.21,4.21,0,0,1-1.05-3.94,1.85,1.85,0,0,1,1.68-1.37,3.43,3.43,0,0,1,3.15,1.54,3,3,0,0,1-.31,3.49A2.65,2.65,0,0,1,139.35,45.74Zm-1.08-1.11a1.89,1.89,0,0,0,2.46-.21,2.2,2.2,0,0,0,.21-2.59,2.66,2.66,0,0,0-2.45-1.18,1.08,1.08,0,0,0-1,.85,3.45,3.45,0,0,0,.8,3.13Z"/><path class="cls-1" d="M131.8,45.92h-.31a3.73,3.73,0,0,1-2.37-.65,3,3,0,0,1-1-1.93h0a3.9,3.9,0,0,1,3.25-4.54,2.09,2.09,0,0,1,1.77.47c1.12,1,1.2,2.95,1.2,3.53a3.19,3.19,0,0,1-1,2.73A2.76,2.76,0,0,1,131.8,45.92Zm-2.89-2.68a2.32,2.32,0,0,0,.69,1.45,3.07,3.07,0,0,0,1.91.48,2.39,2.39,0,0,0,1.47-.26c.57-.4.65-1.29.66-2.11a4.24,4.24,0,0,0-.94-3,1.36,1.36,0,0,0-1.17-.3,3.18,3.18,0,0,0-2.62,3.7Z"/><path class="cls-1" d="M128.61,37.63a2.55,2.55,0,0,1-.39,0,2.78,2.78,0,0,1-2.6-2.9,2.94,2.94,0,1,1,5.82.68h0A2.73,2.73,0,0,1,128.61,37.63Zm-.06-5a2.2,2.2,0,0,0-1.17.33,2.24,2.24,0,0,0-1,1.74,2,2,0,0,0,1.94,2.13,2.07,2.07,0,0,0,2.39-1.62h0a2.22,2.22,0,0,0-.92-2.21A2.14,2.14,0,0,0,128.55,32.67Z"/><path class="cls-1" d="M121.09,42.14a3.21,3.21,0,0,1-2.51-1.23,3.66,3.66,0,0,1-.69-3.33,3.47,3.47,0,0,1,2.61-2.37,3.14,3.14,0,0,1,3.21,1.43,4,4,0,0,1,.48,2.13,3.74,3.74,0,0,1-.7,2.22,3,3,0,0,1-2.1,1.13h0Zm.27-.39h0ZM121,35.91a2.71,2.71,0,0,0-.4,0,2.68,2.68,0,0,0-2,1.84,2.9,2.9,0,0,0,.55,2.65,2.47,2.47,0,0,0,2.16.93h0a2.24,2.24,0,0,0,1.58-.84,3,3,0,0,0,.54-1.78,3.13,3.13,0,0,0-.38-1.72A2.37,2.37,0,0,0,121,35.91Z"/><path class="cls-1" d="M117,33.27a3.76,3.76,0,0,1-3-1.65,2.45,2.45,0,0,1-.46-2.37,2.35,2.35,0,0,1,1.84-1.35,4.73,4.73,0,0,1,2.14.24,2.94,2.94,0,0,1,1.38.77,3.2,3.2,0,0,1,.57,2.27,2.07,2.07,0,0,1-.45,1.5,1.86,1.86,0,0,1-.91.45h0A4.71,4.71,0,0,1,117,33.27Zm1-.51h0Zm-2.11-4.15-.41,0a1.61,1.61,0,0,0-1.26.89,1.71,1.71,0,0,0,.35,1.62,3,3,0,0,0,3.34,1.25,1.25,1.25,0,0,0,.56-.25,1.48,1.48,0,0,0,.23-1,2.62,2.62,0,0,0-.38-1.77,2.27,2.27,0,0,0-1-.55A4.92,4.92,0,0,0,115.89,28.61Z"/></svg>