<svg id="Camada_1" data-name="Camada 1" xmlns="http://www.w3.org/2000/svg" viewBox="0 0 256.52 250.73"><defs><style>.cls-1{fill:#745d79;}</style></defs><path class="cls-1" d="M81.52,195a8.94,8.94,0,0,1-4.73-1.25c-3-1.81-5.31-4.47-7.56-7a41.58,41.58,0,0,0-6.2-6.17,14.2,14.2,0,0,1-1.76-21.25L81.45,138.4a7.9,7.9,0,0,0,.46-10.52C66.1,108.82,71,89.39,71.3,88.23a68.4,68.4,0,0,1,3.24-13.64c3.32-9.32,8.22-14.9,14.16-16.14a12.47,12.47,0,0,1,11.5,3.15c5.6,5.12,6.49,14,2.06,20.57A24.38,24.38,0,0,0,98.21,92c-.67,4.57,2.33,9.35,5,12.54a4.34,4.34,0,0,0,7.43-1.22c3.68-9.77,9.51-14.59,13.75-16.91a12.14,12.14,0,0,0,5.92-7.34c2.06-7.22,9.17-16.52,14.77-23.05,6.95-8.11,20-7.17,38.85,2.79,10.95,5.8,13.36,15.2,13.45,22.06a37.44,37.44,0,0,1-2.45,13.55.57.57,0,0,1-.08.13c0,.08-5.91,7.91-11.4,14.36-3.38,4-11.87,6-18.4,6.91a11.6,11.6,0,0,0-9.29,7.76c-5.34,15.41-14.49,21.73-21.23,24.32a2.13,2.13,0,0,0,.1,4c7,2.29,15,.88,23.61-4.19a20.22,20.22,0,1,1,20,35.16,75.39,75.39,0,0,1-15.9,6.34c-20.14,5.7-36.6-2.34-44.62-7.64a11.25,11.25,0,0,0-13.69.89C94.65,190.82,87.13,195,81.52,195ZM91.6,59.34a12.91,12.91,0,0,0-2.65.28c-13.42,2.81-16.44,28.54-16.47,28.8a.44.44,0,0,1,0,.1c0,.19-5.42,19.54,10.37,38.6a9.08,9.08,0,0,1-.52,12.12h0L62.13,160.12a12.94,12.94,0,0,0-3.59,10,13.11,13.11,0,0,0,5.21,9.43,43.07,43.07,0,0,1,6.39,6.34c2.28,2.62,4.44,5.09,7.27,6.8,5.19,3.14,14.1-.71,25.76-11.11a12.44,12.44,0,0,1,15.15-1c9.59,6.33,24.94,12.77,43.63,7.49a73.56,73.56,0,0,0,15.65-6.24,19,19,0,1,0-18.78-33.08c-8.94,5.26-17.22,6.71-24.59,4.3a3.33,3.33,0,0,1-.16-6.28c6.5-2.5,15.34-8.62,20.53-23.59a12.8,12.8,0,0,1,10.25-8.56c6.32-.92,14.51-2.8,17.66-6.49,5.2-6.12,10.74-13.49,11.31-14.24a37.25,37.25,0,0,0,2.33-13c-.14-9.49-4.45-16.55-12.82-21-18.26-9.67-30.83-10.7-37.37-3.07-5.52,6.44-12.52,15.59-14.52,22.6a13.33,13.33,0,0,1-6.5,8.06c-4.07,2.22-9.66,6.86-13.2,16.29a5.55,5.55,0,0,1-9.49,1.56c-4.06-4.93-5.82-9.46-5.22-13.49a25.37,25.37,0,0,1,4.24-10.34c4.1-6.12,3.29-14.29-1.88-19A11.28,11.28,0,0,0,91.6,59.34Zm-9.72,79.48h0Z"/><path class="cls-1" d="M97.17,90c-4.58,0-8.3-7.19-8.47-7.51a.26.26,0,0,1,.11-.34.26.26,0,0,1,.34.11c0,.08,4.25,8.21,8.9,7.14a.25.25,0,0,1,.11.49A4.17,4.17,0,0,1,97.17,90Z"/><path class="cls-1" d="M88.8,110.23a20.73,20.73,0,0,1-4.23-.46.25.25,0,0,1-.19-.3.26.26,0,0,1,.3-.19c12.25,2.56,16-6.64,16.06-6.73a.25.25,0,0,1,.47.18A13.21,13.21,0,0,1,88.8,110.23Z"/><path class="cls-1" d="M98.1,160.91h0c-16.85-.32-18.79-19.46-18.8-19.65a.25.25,0,0,1,.49,0c0,.19,1.92,18.88,18.32,19.2a.25.25,0,0,1,.24.26A.25.25,0,0,1,98.1,160.91Z"/><path class="cls-1" d="M86,174.27h0c-16.84-.33-18.78-19.46-18.8-19.66a.25.25,0,0,1,.23-.27.25.25,0,0,1,.27.23c0,.19,1.92,18.88,18.31,19.2a.25.25,0,0,1,.25.25A.25.25,0,0,1,86,174.27Z"/><path class="cls-1" d="M175.5,171.66a.31.31,0,0,1-.13,0c-11.9-7.33-15.49-13.66-16.4-17.69a8.9,8.9,0,0,1,.65-6.51.26.26,0,0,1,.35-.08.26.26,0,0,1,.07.35,8.58,8.58,0,0,0-.58,6.15c.9,3.93,4.43,10.13,16.17,17.35a.25.25,0,0,1-.13.46Z"/><path class="cls-1" d="M152.3,130.41l-.1,0a67.5,67.5,0,0,1-10.35-6c-6.86-4.94-10.19-9.78-9.92-14.38a.25.25,0,0,1,.27-.24.26.26,0,0,1,.23.27c-.63,10.58,19.77,19.84,20,19.93a.25.25,0,0,1,.13.33A.25.25,0,0,1,152.3,130.41Z"/><path class="cls-1" d="M181.34,110.23c-1.18,0-17.91-.45-31.78-24a.24.24,0,0,1,.08-.34A.26.26,0,0,1,150,86c7.4,12.57,15.54,18.36,21.07,21,6,2.87,10.29,2.76,10.33,2.76a.28.28,0,0,1,.26.24.25.25,0,0,1-.24.26Z"/><path class="cls-1" d="M195.07,92.39h0c-.2,0-19.8-1.47-36.33-25.4a.24.24,0,0,1,.07-.34.24.24,0,0,1,.34.06C167.69,79.1,177,85.29,183.32,88.3a35.85,35.85,0,0,0,11.76,3.59.25.25,0,0,1,.23.26A.24.24,0,0,1,195.07,92.39Z"/></svg>