<svg id="Camada_1" data-name="Camada 1" xmlns="http://www.w3.org/2000/svg" viewBox="0 0 206.19 201.39"><defs><style>.cls-1{fill:#745d79;}</style></defs><path class="cls-1" d="M43.34,135.44c-4.49,0-9-2.73-13.46-8.13A17.52,17.52,0,0,1,26,117.19a15.39,15.39,0,0,1,4.63-12l65.8-65.05a12.67,12.67,0,0,1,6.62-3.52c4-.73,10.26-.26,16.94,6.13,5,4.79,7.16,9.77,6.39,14.79A9.31,9.31,0,0,1,123,63.3l-.05.06L51.93,131.5a11.81,11.81,0,0,1-8.58,3.94Zm62.6-97.88a14.44,14.44,0,0,0-2.66.24,11.37,11.37,0,0,0-6,3.18L31.49,106a14.14,14.14,0,0,0-4.28,11.08,16.16,16.16,0,0,0,3.59,9.44c4.21,5.1,8.43,7.69,12.54,7.69h0a10.86,10.86,0,0,0,7.71-3.55l68.29-65.5a9.72,9.72,0,0,1-3.11.32,14.73,14.73,0,0,1-9.56-5.36c-3.06-3.92-3.06-6.56-2.07-9.55a5.65,5.65,0,0,1,5.63-3.9c2.84.15,7.68,1.5,8.28,9a.59.59,0,0,1-.55.64.6.6,0,0,1-.65-.55c-.49-6.22-4.16-7.71-7.14-7.86A4.44,4.44,0,0,0,105.74,51c-.89,2.67-.87,4.91,1.87,8.43a13.37,13.37,0,0,0,8.69,4.9,8.48,8.48,0,0,0,8.9-7c.71-4.61-1.32-9.24-6-13.75C114.2,38.85,109.54,37.56,105.94,37.56Z"/><path class="cls-1" d="M43.14,111.89a.58.58,0,0,1-.42-.18.6.6,0,0,1,0-.85L106.1,48.24a.6.6,0,1,1,.85.85L43.56,111.71A.58.58,0,0,1,43.14,111.89Z"/><path class="cls-1" d="M130.61,96.24a.57.57,0,0,1-.44-.2.6.6,0,0,1,0-.84l31-27.76a.6.6,0,1,1,.8.89L131,96.09A.59.59,0,0,1,130.61,96.24Z"/><path class="cls-1" d="M155.73,70.66c-.25,0-.51,0-.77,0a13.93,13.93,0,0,1-9.42-5.12c-2.92-3.75-3.88-7.23-2.85-10.34a6.64,6.64,0,0,1,6.15-4.27c2.84.14,7.68,1.5,8.28,9a.6.6,0,0,1-.55.65.6.6,0,0,1-.65-.55c-.49-6.22-4.15-7.71-7.14-7.86a5.53,5.53,0,0,0-4.95,3.45c-.9,2.7,0,5.81,2.66,9.23A12.8,12.8,0,0,0,155,69.44c4.45.26,7.36-1.93,8-6a19.12,19.12,0,0,0-6-15.83c-6-5.78-15.38-6.87-20-2.34-.69.67-1,1-1.78,1.85-1.12,1.21-3.21,3.46-8.77,9.23a.6.6,0,1,1-.86-.84c5.55-5.76,7.63-8,8.75-9.2.77-.83,1.12-1.21,1.82-1.9,5.05-5,15.18-3.87,21.66,2.34A20.38,20.38,0,0,1,164.2,63.6C163.52,68.07,160.37,70.66,155.73,70.66Z"/><path class="cls-1" d="M70.41,144.54a.64.64,0,0,1-.2,0c-17.22-5.93-14-18.57-14-18.69a.6.6,0,1,1,1.15.31c-.12.47-2.88,11.54,12.87,17.13l16.79-14.91a.6.6,0,0,1,.85.05.61.61,0,0,1-.06.85l-17,15.14A.58.58,0,0,1,70.41,144.54Z"/><path class="cls-1" d="M139.62,174a.62.62,0,0,1-.32-.09c-.57-.35-14-8.81-15-21.31a.59.59,0,0,1,.55-.64.58.58,0,0,1,.64.55c.83,10.37,11.1,18.1,13.79,20a32,32,0,0,0-7.92-33,.6.6,0,0,1-.06-.85.61.61,0,0,1,.85-.06,33.32,33.32,0,0,1,8,35,.62.62,0,0,1-.37.37A.69.69,0,0,1,139.62,174Z"/><path class="cls-1" d="M110,173.66a.48.48,0,0,1-.2,0,.6.6,0,0,1-.37-.36c-.22-.64-5.36-15.66,1.72-26a.59.59,0,0,1,.83-.15.59.59,0,0,1,.16.83c-5.88,8.6-2.74,21.06-1.81,24.19a32,32,0,0,0,14.54-30.62.6.6,0,0,1,.48-.7.61.61,0,0,1,.7.49,33.29,33.29,0,0,1-15.73,32.27A.55.55,0,0,1,110,173.66Z"/><path class="cls-1" d="M92.36,154.5a38.19,38.19,0,0,1-5.22-.36.64.64,0,0,1-.44-.29.6.6,0,0,1,0-.52c.24-.63,6-15.42,18.1-18.74a.6.6,0,0,1,.74.42.6.6,0,0,1-.42.73c-10,2.77-15.69,14.32-17,17.31a32,32,0,0,0,30.87-14,.6.6,0,0,1,.82-.21.59.59,0,0,1,.22.82A33.21,33.21,0,0,1,92.36,154.5Z"/><path class="cls-1" d="M107.23,135.66a33,33,0,0,1-25.51-11.91.6.6,0,0,1,.17-.93c.6-.31,14.69-7.63,26-2.17a.6.6,0,1,1-.52,1.08c-9.37-4.53-21.23.43-24.19,1.82a32.05,32.05,0,0,0,32.44,9.81.6.6,0,0,1,.39,1.13A30.56,30.56,0,0,1,107.23,135.66Z"/><path class="cls-1" d="M116,127a.52.52,0,0,1-.21,0A33.27,33.27,0,0,1,96.14,96.93a.6.6,0,0,1,.22-.47.57.57,0,0,1,.5-.13c.66.13,16.19,3.44,21.43,14.83a.59.59,0,0,1-.29.79.6.6,0,0,1-.8-.29c-4.35-9.45-16.66-13.17-19.83-14a32,32,0,0,0,18.81,28.2.61.61,0,0,1,.35.78A.59.59,0,0,1,116,127Z"/><path class="cls-1" d="M121.05,122.64a.6.6,0,0,1-.52-.3,33.28,33.28,0,0,1,3.62-35.72.61.61,0,0,1,.47-.23.65.65,0,0,1,.47.22c.43.51,10.44,12.84,7.37,25a.61.61,0,0,1-.73.44.61.61,0,0,1-.44-.73c2.56-10.1-4.7-20.71-6.65-23.33a32,32,0,0,0-3.07,33.76.6.6,0,0,1-.22.82A.64.64,0,0,1,121.05,122.64Z"/><path class="cls-1" d="M127.39,122.48h-.1a.59.59,0,0,1-.49-.69,33.25,33.25,0,0,1,25.83-24.93.59.59,0,0,1,.51.12.6.6,0,0,1,.22.47c0,.67-.33,16.55-10.52,23.84a.61.61,0,0,1-.84-.14.59.59,0,0,1,.14-.83c8.47-6.07,9.79-18.85,10-22.12A32,32,0,0,0,128,122,.59.59,0,0,1,127.39,122.48Z"/><path class="cls-1" d="M146.59,135.52c-.61,0-1.23,0-1.85-.09a.58.58,0,0,1-.53-.65.59.59,0,0,1,.65-.54c10.36,1,19.78-7.74,22.08-10.06a32,32,0,0,0-33.84,2,.6.6,0,1,1-.75-.93,33.26,33.26,0,0,1,35.86-1.74.61.61,0,0,1,.16.93C167.94,124.9,158.26,135.52,146.59,135.52Z"/><path class="cls-1" d="M157.91,154.54c-5.51,0-14.42-1-20.27-7a.59.59,0,0,1,0-.84.6.6,0,0,1,.85,0c7.3,7.42,20.14,6.73,23.4,6.42A32,32,0,0,0,134.63,133a.6.6,0,0,1-.59-.61.62.62,0,0,1,.61-.59,33.28,33.28,0,0,1,28.66,21.63.6.6,0,0,1-.48.81A37.07,37.07,0,0,1,157.91,154.54Z"/><path class="cls-1" d="M124.9,137.4a6,6,0,1,1,6-6A6,6,0,0,1,124.9,137.4Zm0-10.87a4.84,4.84,0,1,0,4.83,4.84A4.84,4.84,0,0,0,124.9,126.53Z"/></svg>