<svg id="Camada_1" data-name="Camada 1" xmlns="http://www.w3.org/2000/svg" viewBox="0 0 191.53 172.14"><defs><style>.cls-1{fill:#745d79;}</style></defs><path class="cls-1" d="M124,143.31a46.27,46.27,0,0,1-22.92-6.08.61.61,0,0,1-.17-.83.6.6,0,0,1,.83-.18c.19.13,20,12.62,42.45.82a3.21,3.21,0,0,1,3.48.37c2.6,2.08,7.69,4.9,12.68.46,6-5.36,2.7-11,.18-13.83a3.22,3.22,0,0,1-.47-3.53c3.23-6.7,12.22-30.69-7.71-57.85l-.31-.42c-32.42-42.67-72.9-23-73.3-22.79A3.21,3.21,0,0,1,75.23,39c-2.91-2.47-8.57-5.69-13.82.43-4.35,5-1.45,10.1.67,12.66a3.22,3.22,0,0,1,.43,3.48,41,41,0,0,0-4.72,17.2.64.64,0,0,1-.63.58.6.6,0,0,1-.57-.63,42.17,42.17,0,0,1,4.85-17.69,2,2,0,0,0-.28-2.17c-1.9-2.3-5.77-8.28-.66-14.22,6.15-7.16,12.89-2.77,15.51-.55a2,2,0,0,0,2.22.26c.41-.21,41.78-20.33,74.8,23.14l.31.43c20.34,27.7,11.13,52.23,7.83,59.08a2,2,0,0,0,.3,2.22c2.26,2.57,6.76,9.24-.29,15.52-5.85,5.2-11.9,1.44-14.23-.42a2,2,0,0,0-2.17-.24A44.28,44.28,0,0,1,124,143.31Z"/><path class="cls-1" d="M76.35,143.67a47.66,47.66,0,0,1-32-11.73C33,121.94,27,109.13,26.52,93.87,25.82,72,41.69,57.2,41.85,57.05a.6.6,0,0,1,.83,0L112.2,128.2a.6.6,0,0,1,0,.81,43.29,43.29,0,0,1-18.41,11.83A55.28,55.28,0,0,1,76.35,143.67ZM42.24,58.34C39.76,60.82,27.1,74.47,27.72,93.83,28.19,108.75,34,121.27,45.11,131c15.08,13.32,34.85,13.21,48.32,8.67A43.76,43.76,0,0,0,111,128.64Z"/><path class="cls-1" d="M76.3,134.48a39,39,0,0,1-26.43-9.81c-11.93-10.53-13.79-22.37-14.08-31.5a41,41,0,0,1,12.06-30,.59.59,0,0,1,.84,0,.6.6,0,0,1,0,.85A39.77,39.77,0,0,0,37,93.13c.28,8.89,2.09,20.41,13.67,30.64,15.77,13.93,34.92,9,40.41,7.12,9.64-3.25,13.91-9,14-9a.6.6,0,0,1,1,.7c-.18.25-4.54,6.1-14.54,9.47A48.77,48.77,0,0,1,76.3,134.48Z"/><path class="cls-1" d="M68.46,84.91a.57.57,0,0,1-.22,0l-20.5-8.08a.66.66,0,0,1-.35-.38.61.61,0,0,1,.07-.51l5-7.73a.6.6,0,0,1,1,.66l-4.64,7.11,19.81,7.81a.61.61,0,0,1,.34.78A.59.59,0,0,1,68.46,84.91Z"/><path class="cls-1" d="M94.33,122.67l-.17,0a.62.62,0,0,1-.37-.32l-9.57-21.08a.6.6,0,0,1,1.09-.5l9.29,20.45,5.93-3.74a.6.6,0,0,1,.83.18.59.59,0,0,1-.19.83l-6.52,4.12A.57.57,0,0,1,94.33,122.67Z"/><path class="cls-1" d="M140.77,62.52a.62.62,0,0,1-.48-.23,56,56,0,0,0-42.9-19.06.59.59,0,0,1-.61-.59.6.6,0,0,1,.59-.61,57.48,57.48,0,0,1,43.87,19.53.6.6,0,0,1-.1.84A.63.63,0,0,1,140.77,62.52Z"/><path class="cls-1" d="M76.9,127.86a17.15,17.15,0,0,1-8.38-2.09.6.6,0,0,1-.26-.76l8.32-20a.59.59,0,0,1,.54-.37.66.66,0,0,1,.56.36l8.82,20a.6.6,0,0,1-.28.78A22.76,22.76,0,0,1,76.9,127.86ZM69.57,125c6.57,3.32,13.64.79,15.59,0l-8-18.2Z"/><path class="cls-1" d="M60.9,122.21a.39.39,0,0,1-.15,0c-9.22-2.36-12.75-11.72-12.9-12.12a.6.6,0,0,1,.33-.76l20.15-8.53a.59.59,0,0,1,.79.76l-7.66,20.28A.6.6,0,0,1,60.9,122.21Zm-11.7-12c.86,1.94,4.29,8.63,11.33,10.71l7-18.46Z"/><path class="cls-1" d="M45.32,102.63a.62.62,0,0,1-.54-.34c-.19-.38-4.55-9.38.1-17.7a.6.6,0,0,1,.75-.26l20,8.42a.6.6,0,0,1,0,1.1l-20.06,8.73A.69.69,0,0,1,45.32,102.63Zm.35-17c-3.35,6.54-.85,13.64,0,15.59l18.23-7.93Z"/></svg>