<svg id="Camada_1" data-name="Camada 1" xmlns="http://www.w3.org/2000/svg" viewBox="0 0 210.86 217.92"><defs><style>.cls-1{fill:#745d79;}</style></defs><path class="cls-1" d="M120.16,170.82c-1,0-1.9,0-2.86-.07-23.29-1-37.65-19-37.79-19.2a.6.6,0,0,1,.08-.83l81-68a.59.59,0,0,1,.8,0,46.13,46.13,0,0,1,11.07,20.47c3.82,15,2.3,36.47-13.42,51.76A54.09,54.09,0,0,1,120.16,170.82ZM80.82,151.25c2.37,2.76,15.85,17.39,36.53,18.31,15.87.7,29.64-4.51,40.91-15.47,15.35-14.93,16.83-35.93,13.09-50.6A46.46,46.46,0,0,0,161,84Z"/><path class="cls-1" d="M120.59,160.94c-1.13,0-2.23,0-3.29-.08a43.57,43.57,0,0,1-30.81-15.19.6.6,0,0,1,.11-.84.59.59,0,0,1,.84.12,42.36,42.36,0,0,0,29.92,14.71c9.47.42,21.84-.57,33.63-12,16.06-15.63,12.34-36.35,10.81-42.33-2.66-10.48-8.41-15.5-8.47-15.55a.61.61,0,0,1-.07-.85.6.6,0,0,1,.85-.06c.25.21,6.09,5.3,8.86,16.16,1.56,6.14,5.38,27.41-11.15,43.49C141,159,129.77,160.94,120.59,160.94Z"/><path class="cls-1" d="M88.63,68.92h0a.59.59,0,0,1-.59-.6c0-.24.07-23.55-6.81-30.9a.6.6,0,0,1,0-.85.61.61,0,0,1,.85,0c7.2,7.7,7.13,30.75,7.13,31.73A.6.6,0,0,1,88.63,68.92Z"/><path class="cls-1" d="M88.63,66a.59.59,0,0,1-.29-.07.6.6,0,0,1-.26-.77l6-13.44c16-32.31,51.87-15.37,52.23-15.2a.63.63,0,0,1,.32.38.57.57,0,0,1-.08.49c-13,19.51-26.74,20.21-37.81,20.77-1.5.08-2.92.15-4.29.27-11.18.94-15.26,7.23-15.3,7.29A.58.58,0,0,1,88.63,66ZM125.09,33c-13.58,0-23.65,6.45-29.95,19.18L90.63,62.34c2.41-2,6.75-4.58,13.7-5.16,1.39-.12,2.82-.19,4.33-.27,10.69-.54,24-1.21,36.48-19.64A54.1,54.1,0,0,0,126.22,33Z"/><path class="cls-1" d="M120.72,127.13a10.46,10.46,0,0,1-7.84-3.55.6.6,0,0,1,.06-.85.59.59,0,0,1,.84.06,9.22,9.22,0,0,0,16.15-6.07,9.11,9.11,0,0,0-2-5.78.6.6,0,1,1,.93-.75,10.41,10.41,0,0,1-8.11,16.94Z"/><path class="cls-1" d="M100.46,156.47a.66.66,0,0,1-.27-.06.61.61,0,0,1-.26-.81L115.4,125a.6.6,0,1,1,1.07.54L101,156.14A.61.61,0,0,1,100.46,156.47Z"/><path class="cls-1" d="M133.93,159.14a.61.61,0,0,1-.57-.42l-10.54-32.38a.61.61,0,0,1,.39-.76.6.6,0,0,1,.75.39l10.55,32.38a.61.61,0,0,1-.39.76A.58.58,0,0,1,133.93,159.14Z"/><path class="cls-1" d="M159.15,137.75a.72.72,0,0,1-.28-.07l-29.8-15.77a.61.61,0,0,1-.25-.81.6.6,0,0,1,.81-.25l29.8,15.77a.6.6,0,0,1-.28,1.13Z"/><path class="cls-1" d="M130.11,114.5a.6.6,0,0,1-.57-.42.6.6,0,0,1,.39-.75l31.8-10a.6.6,0,1,1,.36,1.14l-31.8,10Z"/><path class="cls-1" d="M88.63,171.25c-29.52,0-53.53-23.22-53.53-51.76s24-51.77,53.53-51.77c22.49,0,42.73,13.74,50.36,34.19a.6.6,0,0,1-1.13.42c-7.45-20-27.24-33.41-49.23-33.41-28.86,0-52.33,22.69-52.33,50.57s23.47,50.56,52.33,50.56a54.1,54.1,0,0,0,16.51-2.57.59.59,0,0,1,.75.39.6.6,0,0,1-.38.75A54.94,54.94,0,0,1,88.63,171.25Z"/><path class="cls-1" d="M66.77,105.85a1.15,1.15,0,0,1-.48-.1.77.77,0,0,1-.37-.38l-.06-.11a1.12,1.12,0,0,1-.19-.41,1,1,0,0,1,.07-.68h0l.38-.67a1.35,1.35,0,0,1,1.67-.47,1.24,1.24,0,0,1,.89,1.27,1.5,1.5,0,0,1-.18.57,1,1,0,0,1-.5.66l-.09,0a1.83,1.83,0,0,1-.77.23A2.21,2.21,0,0,1,66.77,105.85Zm-.13-1.24a.45.45,0,0,0,.06.12l.07.12h0l.08,0a1.89,1.89,0,0,1,.31,0,.69.69,0,0,0,.25-.11l.11,0,.06-.2a.67.67,0,0,0,.09-.22c0-.09-.05-.19-.27-.28A.35.35,0,0,0,67,104Zm0,0Z"/><path class="cls-1" d="M59.63,123.32a.79.79,0,0,1-.36-.09.67.67,0,0,1-.32-.31,1.19,1.19,0,0,1-.17-.36.8.8,0,0,1,.06-.55l.23-.4a1,1,0,0,1,1.25-.37,1,1,0,0,1,.66,1,1.17,1.17,0,0,1-.12.4.84.84,0,0,1-.39.5,1.19,1.19,0,0,1-.62.19A1.06,1.06,0,0,1,59.63,123.32Zm.1-.84v0Zm.17-.33-.07.14h.06l.06-.11Zm.09.07,0,0Z"/><path class="cls-1" d="M73.39,112.84a.91.91,0,0,1-.36-.08.67.67,0,0,1-.32-.31,1.24,1.24,0,0,1-.17-.37.8.8,0,0,1,.06-.55l.23-.4a1,1,0,0,1,1.25-.37,1,1,0,0,1,.66,1,1.11,1.11,0,0,1-.12.4.81.81,0,0,1-.39.5,1.19,1.19,0,0,1-.62.19A.65.65,0,0,1,73.39,112.84Zm.1-.83h0Zm.17-.33-.07.14h.06l.06-.1Zm.09.06,0,0Z"/><path class="cls-1" d="M92.11,91.75a1,1,0,0,1-.48-.11.72.72,0,0,1-.37-.37l-.07-.11a2,2,0,0,1-.19-.41,1,1,0,0,1,.08-.68l.37-.68a1.36,1.36,0,0,1,1.68-.46A1.25,1.25,0,0,1,94,90.19a1.45,1.45,0,0,1-.18.57,1,1,0,0,1-.5.66l-.09,0a1.74,1.74,0,0,1-.77.24A2.21,2.21,0,0,1,92.11,91.75ZM92,90.51a.67.67,0,0,0,.06.12l.07.12h.09a1.89,1.89,0,0,1,.31,0s.09,0,.25-.11l.11-.06.06-.19a.67.67,0,0,0,.09-.23c0-.08-.06-.18-.27-.27a.38.38,0,0,0-.46.08Zm.07.22ZM92,90.55Z"/><path class="cls-1" d="M85,105.72a.91.91,0,0,1-.36-.08.67.67,0,0,1-.32-.31,1.18,1.18,0,0,1-.17-.36.82.82,0,0,1,.06-.56l.23-.4a1,1,0,0,1,1.25-.37,1,1,0,0,1,.66,1,1.11,1.11,0,0,1-.12.4.81.81,0,0,1-.39.5,1.3,1.3,0,0,1-.62.2Zm.09-.83h0Zm.18-.33-.07.14h0l0,0,.05-.1Zm.09.06,0,0Z"/><path class="cls-1" d="M98.73,102.23a.91.91,0,0,1-.36-.08.72.72,0,0,1-.32-.31,1.12,1.12,0,0,1-.17-.37.8.8,0,0,1,.06-.55l.23-.4a1,1,0,0,1,1.25-.37,1,1,0,0,1,.66,1,1.17,1.17,0,0,1-.12.4.81.81,0,0,1-.39.5,1.37,1.37,0,0,1-.62.19A1.17,1.17,0,0,1,98.73,102.23Zm.09-.83h0Zm.18-.33-.07.13H99l0-.1Zm.09.06,0,0Z"/><path class="cls-1" d="M80.92,126.81h0a1,1,0,0,1-.63-.27L79.7,126a1.37,1.37,0,0,1,0-1.74,1.25,1.25,0,0,1,1.47-.49,1.59,1.59,0,0,1,.5.34,1,1,0,0,1,.48.67l0,.1a1.44,1.44,0,0,1,0,.8,1.26,1.26,0,0,1-.31.79.75.75,0,0,1-.46.25l-.13,0A1.89,1.89,0,0,1,80.92,126.81Zm0-1,.13,0,.13,0h0a.17.17,0,0,0,0-.08,1.51,1.51,0,0,1,.06-.31s0-.1,0-.28l0-.11-.17-.12a.54.54,0,0,0-.2-.15c-.07,0-.18,0-.33.18a.34.34,0,0,0-.05.46Z"/><path class="cls-1" d="M56.05,128.86h0a.78.78,0,0,1-.51-.23l-.32-.33a1,1,0,0,1,0-1.3.93.93,0,0,1,1.1-.35,1.05,1.05,0,0,1,.35.22.82.82,0,0,1,.37.52,1.3,1.3,0,0,1,0,.65.84.84,0,0,1-.23.54.63.63,0,0,1-.38.22A1.59,1.59,0,0,1,56.05,128.86Zm.16-.93h0Zm-.23-.31,0,0,.11.11s0,0,0,0v0Zm.18.12h0Zm-.13-.15a.43.43,0,0,0,0,0Z"/><path class="cls-1" d="M87.39,116.33h0a.77.77,0,0,1-.51-.22l-.33-.33a1,1,0,0,1,0-1.31,1,1,0,0,1,1.11-.35,1.12,1.12,0,0,1,.35.23.82.82,0,0,1,.36.52,1.1,1.1,0,0,1,0,.65.87.87,0,0,1-.22.54.65.65,0,0,1-.39.21A1.07,1.07,0,0,1,87.39,116.33Zm.15-.93h0Zm-.23-.3,0,0,.11.11s0,0,0,0v0Zm.18.12Zm-.13-.15s0,0,0,0Z"/><path class="cls-1" d="M63.34,93.94h-.05a1,1,0,0,1-.63-.27l-.54-.55a1.36,1.36,0,0,1,0-1.74,1.23,1.23,0,0,1,1.47-.48,1.56,1.56,0,0,1,.49.33,1,1,0,0,1,.49.67l0,.11a1.36,1.36,0,0,1,0,.8,1.25,1.25,0,0,1-.3.79.77.77,0,0,1-.47.25l-.12,0A1.37,1.37,0,0,1,63.34,93.94Zm0-1c.07,0,.1,0,.14,0l.13,0h0a.28.28,0,0,1,0-.08.83.83,0,0,1,.06-.31.73.73,0,0,0,0-.27l0-.12L63.46,92a.76.76,0,0,0-.19-.16c-.08,0-.19,0-.34.18a.37.37,0,0,0,0,.46Z"/><path class="cls-1" d="M76.69,97.43h0a.82.82,0,0,1-.51-.22l-.32-.33a1,1,0,0,1,0-1.31.93.93,0,0,1,1.1-.35,1.05,1.05,0,0,1,.35.22.82.82,0,0,1,.37.52,1.3,1.3,0,0,1,0,.65.82.82,0,0,1-.23.54.63.63,0,0,1-.38.22A1.59,1.59,0,0,1,76.69,97.43Zm.16-.93h0Zm-.23-.31,0,0,.11.11s0,0,0,0v0Zm.18.12h0Zm-.13-.15a.43.43,0,0,0,0,0Z"/><path class="cls-1" d="M69.81,90.44h0a.79.79,0,0,1-.51-.22l-.32-.33a1,1,0,0,1,0-1.31.94.94,0,0,1,1.1-.35,1.12,1.12,0,0,1,.35.23.8.8,0,0,1,.37.52,1.26,1.26,0,0,1,0,.64.84.84,0,0,1-.23.55.61.61,0,0,1-.38.21A1.18,1.18,0,0,1,69.81,90.44Zm.16-.93h0Zm-.23-.3,0,0,.11.11,0,0v0Zm.18.12Zm-.13-.15s0,0,0,0Z"/><path class="cls-1" d="M90.38,132.35a.85.85,0,0,1-.47-.14,1,1,0,0,1-.3-.28.84.84,0,0,1-.27-.58,1.14,1.14,0,0,1,.12-.64.86.86,0,0,1,.31-.49.65.65,0,0,1,.43-.14,1.27,1.27,0,0,1,.39,0,.84.84,0,0,1,.46.31h0l.26.38a1,1,0,0,1-.25,1.28A1,1,0,0,1,90.38,132.35Zm0-1.07v0Zm0-.07.07.1,0,0-.09-.13s0,0,0,0Zm-.11-.25Z"/><path class="cls-1" d="M83.5,142.83a.85.85,0,0,1-.47-.14,1,1,0,0,1-.3-.29.8.8,0,0,1-.27-.58,1.11,1.11,0,0,1,.12-.63.84.84,0,0,1,.31-.49.65.65,0,0,1,.43-.14,1.27,1.27,0,0,1,.39,0,.79.79,0,0,1,.46.31h0l.26.39a1,1,0,0,1-.25,1.28A1,1,0,0,1,83.5,142.83Zm0-1.07v0Zm0-.07.07.1,0,0-.09-.13,0,0Zm-.11-.25Z"/><path class="cls-1" d="M111.39,118.38h-.17a1.23,1.23,0,0,1-1.21-1,1.64,1.64,0,0,1,0-.6,1,1,0,0,1,.29-.78l.08-.07a1.38,1.38,0,0,1,.66-.45,1.3,1.3,0,0,1,.83-.18.84.84,0,0,1,.46.24l.1.1a1.41,1.41,0,0,1,.3.33,1,1,0,0,1,.12.68l-.16.75A1.36,1.36,0,0,1,111.39,118.38Zm.28-2-.08,0a2.35,2.35,0,0,1-.29.12s-.08,0-.21.17l-.08.09,0,.11,0,.09a.79.79,0,0,0,0,.25c0,.08.11.15.34.18a.35.35,0,0,0,.41-.21l.14-.64a.47.47,0,0,0-.1-.1l-.1-.09Z"/><path class="cls-1" d="M117.9,100.92h-.12a.94.94,0,0,1-.9-.72,1.15,1.15,0,0,1,0-.42.82.82,0,0,1,.23-.59,1.13,1.13,0,0,1,.53-.37.94.94,0,0,1,.58-.11.63.63,0,0,1,.39.21,1.06,1.06,0,0,1,.27.29.8.8,0,0,1,.1.54l-.1.46A1,1,0,0,1,117.9,100.92Zm0-1h0l0-.16-.06,0h0l0,.11Zm0-.06,0,0Zm0-.16Zm.13-.14Z"/><path class="cls-1" d="M97.26,107.9h-.12a.94.94,0,0,1-.9-.73,1.13,1.13,0,0,1,0-.42.82.82,0,0,1,.23-.59,1.19,1.19,0,0,1,.53-.36.87.87,0,0,1,.58-.11.56.56,0,0,1,.39.2,1.45,1.45,0,0,1,.27.29.78.78,0,0,1,.1.55l-.1.46A1,1,0,0,1,97.26,107.9Zm0-1h0l0-.15h0s0,0,0,0l0,.1Zm0-.08Zm.13-.3v0Z"/></svg>