<svg id="Camada_1" data-name="Camada 1" xmlns="http://www.w3.org/2000/svg" viewBox="0 0 231.01 294.63"><defs><style>.cls-1{fill:#745d79;}</style></defs><path class="cls-1" d="M81.61,165.42c-2.8,0-12.59-.41-21.16-5.72-9.65-6-14.55-15.89-14.55-29.46,0-28.9,34.92-65.47,35.27-65.84a.64.64,0,0,1,.43-.18h0a.6.6,0,0,1,.42.18c.35.36,34.69,35.89,34.69,66.55C116.72,163.76,87.47,165.42,81.61,165.42Zm0-99.73c-4,4.3-34.51,37.87-34.51,64.55,0,32.34,28.74,34,34.51,34,31.46,0,33.91-25.47,33.91-33.27C115.52,102.64,85.58,69.91,81.61,65.69Z"/><path class="cls-1" d="M78.78,155.65h0c-7.49-.18-13.35-2.73-17.43-7.57-8.74-10.39-6.3-27.49-6.19-28.22a.61.61,0,0,1,.68-.5.6.6,0,0,1,.51.68c0,.17-2.47,17.3,5.92,27.27,3.84,4.57,9.41,7,16.54,7.14a.6.6,0,0,1,0,1.2Z"/><path class="cls-1" d="M150.71,170.55c-3.61,0-21.59-1-21.59-21.2,0-9.82,5.76-20.35,10.6-27.46a107.08,107.08,0,0,1,10.56-13.17.58.58,0,0,1,.43-.18.55.55,0,0,1,.43.18,119.36,119.36,0,0,1,10.74,13.36c7.15,10.38,10.78,19.41,10.78,26.84,0,8.34-3,14.43-9,18.12A25.64,25.64,0,0,1,150.71,170.55Zm0-60.54c-3,3.2-20.39,22.57-20.39,39.34,0,4.69,1.47,20,20.39,20,3.46,0,20.75-1,20.75-20.43C171.46,133.12,153.72,113.27,150.71,110Z"/><path class="cls-1" d="M147.4,160.56c-.47,0-1,0-1.45,0a.6.6,0,0,1-.57-.63.63.63,0,0,1,.63-.57c5.34.28,9.29-1,11.77-3.87,4.27-4.93,2.76-12.93,2.74-13a.6.6,0,0,1,1.18-.23c.07.35,1.64,8.65-3,14C156.19,159.11,152.4,160.56,147.4,160.56Z"/><path class="cls-1" d="M116.25,210.17a19,19,0,0,1-9.64-2.61c-4.42-2.74-6.67-7.27-6.67-13.46,0-13.07,15.23-29,15.88-29.69a.51.51,0,0,1,.43-.19.62.62,0,0,1,.43.18c.64.66,15.61,16.16,15.61,30C132.29,209.41,118.93,210.17,116.25,210.17Zm0-44.47c-2.51,2.73-15.11,17-15.11,28.4,0,14.15,12.59,14.87,15.11,14.87,3.48,0,14.84-1.05,14.84-14.56C131.09,182.33,118.74,168.38,116.25,165.7Z"/><path class="cls-1" d="M115.86,202.82h-.08c-9-1.14-7.8-13-7.79-13.14a.6.6,0,1,1,1.19.13c-.05.45-1.13,10.82,6.75,11.82a.6.6,0,0,1-.07,1.19Z"/></svg>