<svg id="Camada_1" data-name="Camada 1" xmlns="http://www.w3.org/2000/svg" viewBox="0 0 192.51 184.84"><defs><style>.cls-1{fill:#745d79;}</style></defs><path class="cls-1" d="M61.75,157.41l-1.38,0c-26-.68-32.24-22.71-33.54-29.44a8.41,8.41,0,0,1,1.45-6.74A7.42,7.42,0,0,1,37,118.8c1.33.47,2.79,1.16,4.48,2,8.87,4.15,22.28,10.42,43.25-.85a10.2,10.2,0,0,1,5.56-1.28,6.59,6.59,0,0,1,4.9,2.28c1.33,1.65,1.78,4.12,1.33,7.34C96.45,129,92.85,157.41,61.75,157.41ZM34.12,119.48a6.22,6.22,0,0,0-4.89,2.46A7.22,7.22,0,0,0,28,127.72c1.26,6.51,7.32,27.81,32.4,28.47,31.52.84,34.82-26.91,34.95-28.09v0c.4-2.88,0-5-1.08-6.42a5.42,5.42,0,0,0-4-1.85,9.13,9.13,0,0,0-4.9,1.15c-21.51,11.55-35.8,4.87-44.33.87-1.66-.77-3.1-1.45-4.37-1.9A7.57,7.57,0,0,0,34.12,119.48Z"/><path class="cls-1" d="M107.91,57.18a.6.6,0,0,1-.6-.6c0-23.58,20-36.55,20.17-36.67a.59.59,0,0,1,.82.18.6.6,0,0,1-.18.83c-.2.12-19.61,12.75-19.61,35.66A.6.6,0,0,1,107.91,57.18Z"/><path class="cls-1" d="M150.67,67.32a.6.6,0,0,1-.48-.24L120.29,27.6c-10.86,7.53-33,10.22-33.94,10.33a.6.6,0,0,1-.66-.53.59.59,0,0,1,.52-.66c.24,0,23.44-2.85,33.85-10.45a.59.59,0,0,1,.83.12l30.25,40a.6.6,0,0,1-.11.84A.62.62,0,0,1,150.67,67.32Z"/><path class="cls-1" d="M88.05,46.45c-11,0-21.59-5.47-21.72-5.54a.35.35,0,0,1-.2-.27.41.41,0,0,1,.1-.32c24-24.88,43.27-8.67,43.46-8.5a.39.39,0,0,1,.1.43C107.06,38.66,102.72,43,96.91,45A26.56,26.56,0,0,1,88.05,46.45Zm-20.92-6c2.77,1.34,17.65,8.07,29.54,3.84,5.52-2,9.66-6,12.32-12.1C106.87,30.56,89.15,18,67.13,40.48Z"/><path class="cls-1" d="M168.72,89.08c-.85,0-22.54-.18-35.3-15-8.32-9.68-11.11-23.35-8.31-40.66a.34.34,0,0,1,.38-.31c.23,0,23.51.95,36.35,16.88,7.77,9.63,10.22,22.69,7.27,38.81a.37.37,0,0,1-.36.3ZM125.8,33.86c-2.68,16.91.08,30.27,8.18,39.71,11.9,13.84,31.74,14.71,34.45,14.76,2.82-15.75.4-28.49-7.17-37.88C149.46,35.81,128.66,34,125.8,33.86Z"/><path class="cls-1" d="M59.71,127.09a.6.6,0,0,1-.55-.35,47.94,47.94,0,0,1-4.3-19.89c0-27.87,24-50.54,53.42-50.54a56.22,56.22,0,0,1,18.21,3,.61.61,0,0,1,.37.77.6.6,0,0,1-.76.37,54.69,54.69,0,0,0-17.82-3c-28.79,0-52.22,22.14-52.22,49.34a46.66,46.66,0,0,0,4.19,19.39.6.6,0,0,1-.3.8A.69.69,0,0,1,59.71,127.09Z"/><path class="cls-1" d="M108.28,157.39a55.87,55.87,0,0,1-25.69-6.22.6.6,0,1,1,.55-1.06,54.71,54.71,0,0,0,25.14,6.08c28.8,0,52.22-22.13,52.22-49.34a46.65,46.65,0,0,0-4.23-19.49.6.6,0,0,1,.29-.8.61.61,0,0,1,.8.3,47.9,47.9,0,0,1,4.34,20C161.7,134.72,137.74,157.39,108.28,157.39Z"/><path class="cls-1" d="M46,144.22a.25.25,0,0,1-.12,0,.38.38,0,0,1-.24-.47l2.6-8a.37.37,0,0,1,.71.23l-2.59,8A.38.38,0,0,1,46,144.22Z"/><path class="cls-1" d="M62.05,146.33a.37.37,0,0,1-.37-.37v-8.37a.38.38,0,0,1,.75,0V146A.37.37,0,0,1,62.05,146.33Z"/><path class="cls-1" d="M78.12,144a.37.37,0,0,1-.35-.25l-2.6-8a.38.38,0,0,1,.72-.23l2.59,8a.38.38,0,0,1-.24.48Z"/></svg>