<svg id="Camada_1" data-name="Camada 1" xmlns="http://www.w3.org/2000/svg" viewBox="0 0 285.88 299.02"><defs><style>.cls-1{fill:#745d79;}</style></defs><path class="cls-1" d="M149.85,263.9a1.44,1.44,0,0,1-.77-.21,1.28,1.28,0,0,1-.22-.17l-.05,0-.14-.14-.42-.51a16.05,16.05,0,0,1-3-4.7,18.49,18.49,0,0,1-1-6.66,90.69,90.69,0,0,1,1.35-12.84c.14-.94.29-1.89.42-2.84a87.4,87.4,0,0,0,.85-16.58c0-.45,0-1.13,0-2a135.06,135.06,0,0,0-3.05-29c-.27-1.19-.58-2.4-.89-3.57-.39-1.48-.8-3-1.11-4.56a25.36,25.36,0,0,0-4.52-8.82l-.13-.17c-4.11-5.51-9.6-9.71-15.05-11.51a17.61,17.61,0,0,0-9.46-.67,28.68,28.68,0,0,0-9,4.26c-5.73,3.69-11.65,7.5-18.3,9.3-7,1.9-13.33,1.55-18.82-1.06l-.28-.13-.15-.5a1,1,0,0,1,.15-.54l.16-.27.32,0c.77,0,1.53,0,2.28,0s1.44,0,2.15,0a23.17,23.17,0,0,0,4.76-.73c6.08-1.62,11.43-5.91,16.61-10.06l1.79-1.43,1-.77c5-4,10.16-8.09,16.29-8.88a22.6,22.6,0,0,1,16.43,4.15,47.09,47.09,0,0,1,8.07,8.18c-1-1.94-2.2-3.91-3.52-5.94a101.07,101.07,0,0,0-9.55-12c-1.13-1.28-2.28-2.57-3.43-3.92-1.45-1.69-2.92-3.34-4.38-5-2.85-3.22-5.8-6.55-8.54-10.08a125.3,125.3,0,0,1-11.77-18.14c-3.63-6.89-6.72-13.93-10.1-21.76C84,81.86,83.24,80,82.53,78.16c-1.83-4.72-3.73-9.6-6.47-13.44l-.09-.2a1.08,1.08,0,0,1,0-.43l0-.26.25-.25a.62.62,0,0,1,.5-.1l.24.05.16.09a35.78,35.78,0,0,1,6.19,6.05,90.09,90.09,0,0,1,6.14,8.7c2.24,3.55,4.36,7.29,6.4,10.9,1.52,2.68,3.09,5.45,4.69,8.13,4.64,7.72,10.27,14.78,15.72,21.62,3.09,3.86,6.28,7.86,9.25,11.94,2.33,3.18,4.29,6,6,8.7.56.88,1.1,1.79,1.63,2.69-3.69-12.68-4.91-27.15-3.73-44.17l.19-2.6c-1.38-2.17-2.79-4.24-4.2-6.15-2.47-3.36-16.61-17.82-17.67-18.78-2.39-2.17-2.64-2.8-2.28-3.34a1,1,0,0,1,1.25-.2l0,0c.52.18,1.48.66,3.42,1.63l.58.29a60.44,60.44,0,0,1,10.06,6.65,91.57,91.57,0,0,1,9.19,8.12l.61.63.39-4.28c.24-2.54.47-5.09.69-7.63.45-5.06.78-9.14,1-12.86.13-1.9.3-3.8.46-5.69.12-1.38.24-2.75.34-4.13l0-.17a8.79,8.79,0,0,1,.15-.87,1.09,1.09,0,0,1,.84-.84.89.89,0,0,1,.87.45l.07.19a80.32,80.32,0,0,1,1.34,12.19l0,.47c.26,4.43.43,9.19.51,14.54.07,4.48.06,9,0,13.44v3.24A75.39,75.39,0,0,1,144.73,105a129,129,0,0,1,11.11,42,125.59,125.59,0,0,1,.2,21.45,82.88,82.88,0,0,0,1.72-8.39,103.53,103.53,0,0,0,.39-24.21c-.7-8-2-16-3.33-23.8l-.41-2.39c-1.24-7.42-2.53-15.1-2.68-22.83-.18-9.21.82-18.46,1.78-27.39.65-6,1.32-12.23,1.62-18.37l0-.17c.15-1,.3-1.65.84-1.83a.78.78,0,0,1,.77.2c.06.06.13.15.21.25l.07.11,0,.12c1.36,7.6,1.52,15.49,1.68,23.11.11,5.26.22,10.71.73,16a151.91,151.91,0,0,0,2.64,15.83c.54,2.68,1.1,5.45,1.58,8.2a225.48,225.48,0,0,1,3,23.94c.07,1,.13,2,.18,3a78.35,78.35,0,0,1,3.69-10.91c1.83-4.36,4.06-8.55,6.22-12.6,1.38-2.59,2.81-5.27,4.12-8C184,92,187.05,85,190.29,76.8c2.39-6,4.71-12.15,7-18.1l1.62-4.28c.21-.55.42-1.11.62-1.67a44.53,44.53,0,0,1,3.63-8.09A22.51,22.51,0,0,1,209.24,38l.41-.29.45.45a1,1,0,0,1,.12.92l-.3.59c-2.54,4.37-4,9.47-5.49,14.4l-.9,3c-2,6.61-3.57,13.29-5,19.52l-.1.43a223.88,223.88,0,0,1-5.65,21.92,119.64,119.64,0,0,1-9.38,20.72c-1.13,2-2.28,4.05-3.42,6.08-5.17,9.13-10.51,18.58-14.56,28.58l-.12.5c8-11.15,18.39-19.68,28.41-27.93l.32-.26,2.34-1.92a152.77,152.77,0,0,0,13-11.49,63.84,63.84,0,0,0,11-15.28l.13-.23h0c.13-.31.24-.55.54-.64l.25-.08.24.13c.68.43.58,1.38.52,2,0,.13,0,.25,0,.32v.23c-3.05,15.86-14.56,27-26.55,36.71l-3.2,2.57c-8.31,6.65-16.9,13.53-23.36,22.86a90.87,90.87,0,0,0-9.85,18.63h0c-.31.78-.6,1.56-.88,2.34a74.8,74.8,0,0,1,4.59-7.37c1.91-2.71,4.14-5.83,6.17-8.39s3.73-4.42,6-6.79a41.87,41.87,0,0,1,6.64-5.9c1.24-.86,3.13-2,5-1.82,3.47-.22,7.67,2.16,12.36,7.1,3.92,4.12,8,9.26,8.25,16.17.24,5.73-1.29,12-4.68,19.08a85.88,85.88,0,0,1-10.9,17,.76.76,0,0,1-1,.15.84.84,0,0,1-.28-1.11l.32-1c.4-1.29,1-3.25,1.42-4.35l.56-1.52c.42-1.15.84-2.29,1.24-3.45,1.27-3.72,2.26-6.74,3.1-9.52,1.54-5.08,2.82-11,.66-16.27a32.15,32.15,0,0,0-3.57-6.09l-.4-.57c-1.34-2-3.26-4.38-4.6-6-1,0-7.25,1.26-13.73,9.07l-1.25,1.52a111,111,0,0,0-9.55,12.66,75.2,75.2,0,0,0-8,16.54,56.8,56.8,0,0,0-2.07,9.05c-.25,1.74-.43,3.51-.53,5.26,0,.42,0,.85,0,1.28,0,.78-.05,1.59-.14,2.4l0,.89c0,.74,0,1.47.05,2.21.1,4.09.21,8.08.61,12,.11,1.1.23,2.2.35,3.3.29,2.77.6,5.63.79,8.47.31,4.54.82,12.15-3.47,16a4.17,4.17,0,0,1-1,.72A2.87,2.87,0,0,1,149.85,263.9Zm-.32-1.38.07.06.12.1c.07,0,.35.05.86-.22a3.19,3.19,0,0,0,.74-.54c3.87-3.47,3.38-10.71,3.09-15-.19-2.81-.49-5.67-.79-8.42-.11-1.11-.23-2.21-.34-3.31-.4-4-.52-8-.62-12.09,0-.74,0-1.48,0-2.21l0-1c.09-.83.12-1.62.14-2.38,0-.44,0-.88.06-1.31.1-1.78.28-3.58.53-5.36a57.31,57.31,0,0,1,2.12-9.24,75.89,75.89,0,0,1,8.11-16.81,113,113,0,0,1,9.64-12.8l1.26-1.51c6.41-7.73,12.84-9.5,14.59-9.51a1.14,1.14,0,0,1,.87.3c1.37,1.6,3.37,4.14,4.78,6.19l.4.57a34,34,0,0,1,3.69,6.31c2.3,5.64,1,11.8-.62,17.08-.85,2.79-1.84,5.83-3.11,9.56-.4,1.16-.83,2.32-1.26,3.48l-.56,1.51c-.31.86-.78,2.32-1.14,3.49a82.61,82.61,0,0,0,9.41-15.13c3.31-6.92,4.8-13,4.57-18.51-.26-6.51-4.15-11.43-7.92-15.39-4.37-4.6-8.34-6.94-11.51-6.73a7,7,0,0,0-4.35,1.6,41.43,41.43,0,0,0-6.44,5.74c-2.22,2.35-4,4.29-5.9,6.72s-4.23,5.64-6.13,8.34a70.65,70.65,0,0,0-8.15,15l-1.14-.36.07-.29A91.82,91.82,0,0,1,158,180h0a91.79,91.79,0,0,1,10-18.87c6.55-9.48,15.21-16.41,23.59-23.11l3.2-2.58c11.74-9.49,23-20.39,26.07-35.73A66.17,66.17,0,0,1,210.3,114a153,153,0,0,1-13.13,11.58l-2.34,1.91-.32.27c-10,8.23-20.33,16.74-28.28,27.83-.67.94-1.33,1.9-1.94,2.86l-2.49,3.88,1.41-4.39c.41-1.27.79-2.64,1.11-4,4.11-10.17,9.47-19.64,14.65-28.81,1.15-2,2.29-4.05,3.42-6.08a117.28,117.28,0,0,0,9.29-20.51,224.94,224.94,0,0,0,5.62-21.8l.1-.43c1.39-6.26,3-13,5-19.61l.9-3a74.24,74.24,0,0,1,4.86-13.32,23.92,23.92,0,0,0-4,4.94,43,43,0,0,0-3.52,7.87L200,54.85l-1.62,4.27c-2.25,6-4.58,12.12-7,18.13-3.26,8.19-6.33,15.24-9.4,21.55-1.32,2.72-2.75,5.41-4.14,8-2.14,4-4.36,8.18-6.18,12.5a74,74,0,0,0-4.61,15.21l-1,5.65-.15-5.75c-.07-2.4-.19-4.87-.37-7.54a225.56,225.56,0,0,0-3-23.81c-.47-2.73-1-5.5-1.58-8.17a155.31,155.31,0,0,1-2.66-16c-.51-5.32-.62-10.79-.73-16.07a165.48,165.48,0,0,0-1.28-20.6c-.32,5.76-1,11.61-1.56,17.28-1,8.9-2,18.1-1.78,27.23.15,7.65,1.43,15.28,2.67,22.66l.4,2.4c1.3,7.79,2.64,15.84,3.35,23.88a105.44,105.44,0,0,1-.4,24.5,103.79,103.79,0,0,1-2.74,12.22c-.32,1.2-1.5,5.8-1.83,7.09l-1.17-.22c.11-.86.35-2.22.6-3.7.39-2.33.84-5,1-6.32a123.54,123.54,0,0,0-.13-22.2,127.49,127.49,0,0,0-11-41.62,73.65,73.65,0,0,0-7.45-12.39l-.12-.16V89.28c0-4.4,0-9-.05-13.41-.08-5.34-.25-10.08-.5-14.49l0-.47a98.23,98.23,0,0,0-.95-10.14c-.09,1.1-.19,2.23-.28,3.35-.17,1.89-.33,3.78-.46,5.67-.27,3.73-.6,7.82-1,12.88l-.69,7.64c-.17,1.87-.35,3.74-.51,5.61l-.12,1.35-.92-1c-.5-.54-1-1.07-1.51-1.59a89.18,89.18,0,0,0-9.07-8,59,59,0,0,0-9.85-6.52l-.59-.3-1.93-1c.25.24.55.53.92.86,1.07,1,15.33,15.56,17.83,19,1.46,2,2.93,4.13,4.35,6.38l.11.17-.22,3c-1.21,17.45.12,32.17,4,45,.47,1.5,1,3,1.52,4.49l-1.08.51c-.5-.87-1-1.74-1.47-2.61-1-1.78-2-3.63-3.13-5.36-1.68-2.65-3.63-5.48-5.94-8.65-3-4-6.14-8-9.21-11.89-5.48-6.87-11.14-14-15.82-21.76-1.61-2.68-3.18-5.46-4.71-8.15-2-3.6-4.14-7.32-6.37-10.86a90.13,90.13,0,0,0-6-8.58,35.55,35.55,0,0,0-3.81-4,79.68,79.68,0,0,1,5.09,11.34c.7,1.81,1.43,3.68,2.17,5.42C89.19,91,92.27,98,95.88,104.82a123.71,123.71,0,0,0,11.66,18c2.72,3.51,5.65,6.82,8.49,10,1.47,1.66,2.93,3.32,4.39,5,1.15,1.34,2.29,2.63,3.42,3.91a101.33,101.33,0,0,1,9.65,12.11,73.34,73.34,0,0,1,5.32,9.55c.53,1.17,1.1,2.41,1.61,3.69l-1.08.52a49.37,49.37,0,0,0-12.13-14.4,21.38,21.38,0,0,0-15.54-3.91c-5.8.75-10.84,4.75-15.71,8.63l-1,.77-1.79,1.43c-5.28,4.22-10.73,8.59-17,10.28a24.13,24.13,0,0,1-5,.77c-.74,0-1.48,0-2.19,0,4.75,1.71,10.12,1.76,16,.16,6.46-1.75,12.31-5.51,18-9.15a30.71,30.71,0,0,1,9.34-4.42,18.83,18.83,0,0,1,10.12.7c5.68,1.88,11.37,6.23,15.63,11.93l.13.18a26.45,26.45,0,0,1,4.73,9.27c.31,1.53.71,3.05,1.1,4.52.31,1.18.63,2.4.9,3.61A136,136,0,0,1,148,217.2c0,.87,0,1.53,0,2a89,89,0,0,1-.86,16.81c-.14,1-.28,1.9-.43,2.86a90.08,90.08,0,0,0-1.33,12.66,17,17,0,0,0,1,6.23,15,15,0,0,0,2.83,4.35ZM189,162h0Zm-38.32,20.89h-.09l-.6,0v-.58c-.63-2.37-1.82-7.7-2.62-11.25-.33-1.49-.62-2.78-.66-2.93a210.93,210.93,0,0,1-5.41-21.26c-.25-1.16-.51-2.33-.76-3.5a.94.94,0,0,1,0-.37,64.63,64.63,0,0,1-2.69-15.57c-.19-2.31-.39-4.69-.74-7.42l-.28-2.35a19.61,19.61,0,0,1-.16-2v-.19c-.16-1.38-.19-2.3-.25-3.7v-.11c0-.72-.06-1.44-.1-2.17,0-.58-.07-1.18-.09-1.78,0-1.08.48-1.29.71-1.34s.71-.07,1,.75h0a1,1,0,0,1,.08.11,24.12,24.12,0,0,1,2.59,5.52c.35.94.71,1.92,1.12,2.85l.07.14a23.72,23.72,0,0,1,1.74,4.25A35.54,35.54,0,0,1,147,131.27c.33,1.84.67,3.75,1.25,6.06a8.7,8.7,0,0,1,.46,2.87c.22,1.31.34,2.3.46,3.23.16,1.3.32,2.53.69,4.43h0a14.27,14.27,0,0,1,.77,3.64c.12,1,.24,1.87.34,2.67.44,3.27.7,5.24.93,9.32a81.68,81.68,0,0,1-.18,9.14c-.1,1.6-.19,3.26-.23,4.89h0C151.36,182.64,151.22,182.91,150.67,182.91ZM138,117.31h0l.26,2.23c0,.33,0,.37,0,.38.35,2.69.55,5.08.74,7.4a63.57,63.57,0,0,0,2.69,15.46l.06.19-.07.19c.26,1.11.52,2.28.77,3.45a214.19,214.19,0,0,0,5.38,21.15c0,.12.18.72.7,3,.46,2.08,1.12,5,1.71,7.53,0-.39,0-.69,0-.84h0c0-1.65.13-3.32.23-4.93a81.86,81.86,0,0,0,.18-9c-.23-4-.49-6-.92-9.22-.1-.8-.22-1.68-.34-2.68,0-.32-.42-2.5-.61-3.2l-.07,0-.06-.33c-.39-1.94-.55-3.19-.71-4.51-.12-1-.25-2-.48-3.38l-.07-.44.09,0c-.06-.48-.27-1.45-.43-2.1-.6-2.35-1-4.36-1.27-6.14a34,34,0,0,0-3.44-11.08l-.23-.44.11-.08c-.14-.39-.51-1.34-1.56-3.61l-.07-.16c-.43-1-.8-2-1.16-2.92a26,26,0,0,0-2.05-4.65c0,.3,0,.6,0,.9,0,.73.08,1.46.11,2.18v.11c0,1.37.09,2.28.24,3.64l0,.22C137.91,116.66,138,117.12,138,117.31Zm-1.2-9.85Z"/><path class="cls-1" d="M141.67,174.08c-.09-.18-8.92-17.59-23.29-21.68-10.47-3-31.45,15-31.62,15.17l-.18-.15-.25.11,0-.28c.17-.2,21.37-18.4,32.13-15.33,14.6,4.15,23.52,21.76,23.61,21.94Z"/><path class="cls-1" d="M142.34,169c-1-4.3-6.18-20.24-29-44.85a53.08,53.08,0,0,1-5.65-7.61,27,27,0,0,0-2.18-3.13c-6.08-6.78-14.8-25.71-14.88-25.9l.45-.21c.09.19,8.78,19,14.8,25.77a27.75,27.75,0,0,1,2.23,3.19,52,52,0,0,0,5.6,7.55c23,24.7,28.13,40.74,29.16,45.07Z"/><path class="cls-1" d="M152.65,214.42h-.5c0-15.74-4.74-39.82-13.36-67.82a141.37,141.37,0,0,1-6.26-37.66,89.92,89.92,0,0,1,.7-15.08l.49.08c0,.23-3.59,22.85,5.55,52.52C147.9,174.5,152.65,198.64,152.65,214.42Z"/><path class="cls-1" d="M152.84,157.33a141.89,141.89,0,0,0-7.31-37.67A86.48,86.48,0,0,0,139.67,106l.43-.25a84.78,84.78,0,0,1,5.9,13.7,142.77,142.77,0,0,1,7.34,37.82Z"/><path class="cls-1" d="M161.19,165.05l-.48-.13c5.57-20.92,1.68-50.1-1.64-61.07-3.42-11.28-3.54-36.13-3.54-36.38h.5c0,.25.12,25,3.51,36.23C162.88,114.72,166.79,144,161.19,165.05Z"/><path class="cls-1" d="M165.75,146.25l-.49-.1c0-.22,4.5-22.23,13.23-33.36S194,76.32,194.06,76.07l.48.13c-.07.25-6.94,25.77-15.66,36.89S165.79,146,165.75,146.25Z"/><path class="cls-1" d="M156,180.74l-.48-.11c3.17-14.38,21.39-39,41-50.47,18.79-11,24.12-31.83,24.17-32l.49.12c-.05.21-5.43,21.26-24.41,32.35C177.29,142,159.18,166.46,156,180.74Z"/><path class="cls-1" d="M190.9,211.46a.25.25,0,0,1-.17-.07l.34-.37-.17.19-.12-.22c.67-.52,11.3-15.91,11.84-31.05.28-7.78-2.18-14.11-7.3-18.8l.33-.37c9.59,8.78,8.21,21.6,5.36,30.81-3.09,10-8.65,18.43-9.8,19.69A.46.46,0,0,1,190.9,211.46Z"/><path class="cls-1" d="M153.33,199.94l-.49-.13c0-.15,1.09-4,14.72-26,6.76-10.9,13.32-15.66,17.21-16.48,4.4-.91,9.37,2.32,10.78,3.33l.07.05-.27.42-.09-.06c-1.37-1-6.19-4.13-10.38-3.25-3.8.8-10.22,5.49-16.89,16.25C154.46,195.93,153.37,199.78,153.33,199.94Z"/><path class="cls-1" d="M149.76,190.76c-.07-.29-6.62-29.37-16.83-47l.44-.25c10.24,17.68,16.81,46.84,16.88,47.13Z"/><path class="cls-1" d="M142.84,183.42v-.07c-.56-2.22-2.2-10,.11-16.62l.47.16c-2.27,6.51-.65,14.15-.1,16.34l0,.07Z"/><path class="cls-1" d="M137.15,117.56a279.9,279.9,0,0,1-.71-30.21l.5,0a278.79,278.79,0,0,0,.71,30.15Z"/><rect class="cls-1" x="120.19" y="90.74" width="20.84" height="0.75" transform="translate(29.26 213.95) rotate(-85.37)"/><path class="cls-1" d="M164,158.2l-.49-.1A145.37,145.37,0,0,0,166.15,132h.5A147,147,0,0,1,164,158.2Z"/><path class="cls-1" d="M191.3,164.29c0-.08-3.89-7.82-11.16-7.89v-.5c7.58.07,11.56,8.09,11.6,8.17Z"/><path class="cls-1" d="M150.73,245.93c0-.54-.73-54.78-7.31-77.61l.48-.14c6.6,22.89,7.33,77.2,7.33,77.75Z"/><path class="cls-1" d="M151.52,203.28c0-.15-1.3-14.49,2.15-24.7l.48.16c-3.42,10.11-2.15,24.35-2.13,24.49Z"/><path class="cls-1" d="M150.85,197.8a137.15,137.15,0,0,1-.29-18l.5,0a134.17,134.17,0,0,0,.29,17.87Z"/></svg>