<svg id="Camada_1" data-name="Camada 1" xmlns="http://www.w3.org/2000/svg" viewBox="0 0 272.64 294.02"><defs><style>.cls-1{fill:#745d79;}</style></defs><path class="cls-1" d="M155.55,273.54a.63.63,0,0,1-.53-.31c-.22-.39-21.91-39.51-24.28-63.15a67.87,67.87,0,0,0-8.21-25.57.6.6,0,0,1,1-.59,67.88,67.88,0,0,1,8.36,26c2.35,23.4,23.92,62.29,24.14,62.68a.61.61,0,0,1-.52.9Z"/><path class="cls-1" d="M133.72,222.7a.62.62,0,0,1-.36-.12.6.6,0,0,1-.12-.84c.35-.46,34.13-45.86,19.81-80.8-.05-.14-5-13.22-5.07-23.77a.6.6,0,0,1,.6-.6h0a.6.6,0,0,1,.6.6c0,10.32,4.94,23.2,5,23.33,14.57,35.56-19.62,81.5-20,82A.6.6,0,0,1,133.72,222.7Z"/><path class="cls-1" d="M157.22,163.59a.35.35,0,0,1-.35-.25.36.36,0,0,1,.22-.48c.27-.1,26.36-10.2,25.46-41.5-1.47,4.15-5.63,13.65-13.83,17.57-10.23,4.9-11.18,18.32-11.19,18.46a.38.38,0,0,1-.4.35.39.39,0,0,1-.35-.4c0-.14,1-14,11.62-19.08,10.27-4.92,14-18.94,14.06-19.08a.39.39,0,0,1,.4-.28.37.37,0,0,1,.34.35c1.14,17.49-5.94,28.61-12.09,34.86a42.92,42.92,0,0,1-13.76,9.46Z"/><path class="cls-1" d="M132.16,218.47v-.41l-.16.34a18.18,18.18,0,0,1-9.22-9.83c-3.87-9.6-7.84-13.88-7.88-13.92a.38.38,0,0,1,0-.47.37.37,0,0,1,.44-.14c12.43,4.89,15.71,11.68,15.84,12a.37.37,0,0,1-.18.5.38.38,0,0,1-.5-.18c0-.07-3.06-6.3-14-11a55.42,55.42,0,0,1,7.06,13,17.46,17.46,0,0,0,8.83,9.43v.41Z"/><path class="cls-1" d="M142.67,247a.37.37,0,0,1-.29-.14.38.38,0,0,1,.05-.53,19.82,19.82,0,0,0,6.08-14c.26-6.79-2-12.82-3.15-16-.35-1-.58-1.6-.69-2-1.81,1.89-8.23,11.24-7.51,17a.37.37,0,0,1-.33.42.36.36,0,0,1-.41-.32c-.79-6.3,6.79-17.09,8.2-18a.45.45,0,0,1,.52,0,.51.51,0,0,1,.19.44,12.67,12.67,0,0,0,.74,2.32c1.2,3.28,3.45,9.4,3.19,16.33-.37,9.59-6.11,14.38-6.35,14.58A.38.38,0,0,1,142.67,247Z"/><path class="cls-1" d="M156.53,193a14.15,14.15,0,0,1-6.07-1.57.39.39,0,0,1-.14-.52.37.37,0,0,1,.51-.14c.31.18,7.69,4.25,11.83-1.77a28.3,28.3,0,0,0,6.16-11.38l1.43-5.24a43.43,43.43,0,0,1-18,15,.38.38,0,0,1-.31-.69,41.62,41.62,0,0,0,19-16.95.37.37,0,0,1,.69.27l-2.1,7.76a29.19,29.19,0,0,1-6.3,11.64A7.77,7.77,0,0,1,156.53,193Z"/><path class="cls-1" d="M131.52,212.9a.38.38,0,0,1-.35-.22s-1.54-3.37-6.72-7.22a.37.37,0,0,1-.08-.52.38.38,0,0,1,.53-.08c5.35,4,6.9,7.37,7,7.51a.39.39,0,0,1-.19.5Z"/><path class="cls-1" d="M139.8,239.9h0a.38.38,0,0,1-.37-.38c0-.3.24-7.41,5.16-11.87a.39.39,0,0,1,.53,0,.38.38,0,0,1,0,.53c-4.69,4.24-4.92,11.25-4.92,11.33A.37.37,0,0,1,139.8,239.9Z"/><path class="cls-1" d="M157.22,162.92h-.1a.38.38,0,0,1-.27-.46c.15-.57,3.77-14.07,10.6-17.21a.38.38,0,0,1,.31.69c-6.5,3-10.14,16.57-10.18,16.71A.37.37,0,0,1,157.22,162.92Z"/><path class="cls-1" d="M109.17,190.48a19.87,19.87,0,0,1-11.8-4.2.37.37,0,0,1,.39-.63,12.16,12.16,0,0,0,15.2-4.08.39.39,0,0,1,.25-.17c3.56-.62,4.56-2.47,4.57-2.49a.38.38,0,0,1,.41-.19l2.63.53a.36.36,0,0,1,.27.21l1.93,4.26a.37.37,0,0,1-.07.42C118.1,189,113.29,190.48,109.17,190.48Zm-9.24-3.32c3.93,2.34,12.9,5.83,22.3-3.37L120.49,180l-2.2-.45a7.26,7.26,0,0,1-4.8,2.61C112.77,183.11,108,189.12,99.93,187.16Z"/><path class="cls-1" d="M130.82,185.4a29.46,29.46,0,0,1-7.94-1.2.42.42,0,0,1-.18-.11l-.62-.67a.4.4,0,0,1-.1-.26v-.38a.39.39,0,0,1,.17-.31c.24-.16,5.94-4,9.91-4.32.65-.05,1.38-.07,2.14-.07,3.86-.06,8.66-.13,12.17-5.27a.39.39,0,0,1,.46-.13.37.37,0,0,1,.22.43,16.1,16.1,0,0,1-16.23,12.29Zm-7.64-1.9c6.52,1.82,11.94,1.48,16.13-1a15.87,15.87,0,0,0,6.33-7.55c-3.57,3.79-8,3.86-11.43,3.9-.75,0-1.46,0-2.1.07-3.4.27-8.41,3.46-9.38,4.09v0Z"/><path class="cls-1" d="M126.71,180.52a.37.37,0,0,1-.34-.22c-.05-.11-5-11.21,6.33-21.36,5.41-4.86,8.91-6.78,10.69-5.86a2.49,2.49,0,0,1,1,2.4c0,.09-.89,10.77-8.36,23.13a.37.37,0,0,1-.51.13.39.39,0,0,1-.13-.52c7.37-12.19,8.24-22.71,8.25-22.81s.13-1.27-.64-1.66-3.18-.23-9.84,5.75c-5.68,5.11-7,10.4-7.2,13.94a15.79,15.79,0,0,0,1,6.55.38.38,0,0,1-.18.5A.45.45,0,0,1,126.71,180.52Z"/><path class="cls-1" d="M113.27,182.15l-.14,0c-.49-.2-12.06-4.93-16-9.9-2-2.5-2.91-4.41-2.7-5.67a1.27,1.27,0,0,1,.49-.87.33.33,0,0,1,.16-.05c.2,0,4.93-.41,11,5.42a48.39,48.39,0,0,1,5.15,5.76,10.68,10.68,0,0,0,4.18,3.76.36.36,0,0,1,.17.5.38.38,0,0,1-.5.17,11.52,11.52,0,0,1-4.45-4,46.18,46.18,0,0,0-5.07-5.68c-5.24-5.05-9.49-5.2-10.26-5.22a.83.83,0,0,0-.12.38c-.07.59.18,2,2.56,5,3.85,4.82,15.62,9.63,15.73,9.67a.37.37,0,0,1,.21.49A.38.38,0,0,1,113.27,182.15Z"/><path class="cls-1" d="M121.76,179.72c-2.08,0-4.73-.84-7.37-3.95-.62-.73-1.28-1.49-2-2.26-5.28-6-11.85-13.55-10-21.7a3.68,3.68,0,0,1,1.89-2.37c1.2-.55,2.75-.31,4.59.7,5,2.77,11,.57,13.18-1.22,2.3-1.94,4.19-2.69,5.78-2.31,1.32.32,2.4,1.43,3.19,3.31,2.46,5.84,1.63,9.75,1.59,9.91a.37.37,0,1,1-.73-.16s.81-3.86-1.55-9.46c-.7-1.65-1.6-2.61-2.68-2.87-1.34-.32-3,.38-5.12,2.15-2.72,2.29-9.11,4-14,1.31-1.61-.89-2.93-1.12-3.9-.68A2.88,2.88,0,0,0,103.2,152c-1.8,7.78,4.36,14.82,9.8,21,.67.77,1.34,1.53,2,2.27,5.26,6.18,10.28,2.8,10.5,2.65a.38.38,0,0,1,.52.1.37.37,0,0,1-.09.52A7.9,7.9,0,0,1,121.76,179.72Z"/><path class="cls-1" d="M143.83,157.84a.38.38,0,0,1-.18-.71s4.81-2.66,5.16-7.4a5.29,5.29,0,0,0-.89-3.92,2.18,2.18,0,0,0-1.42-.75,19.22,19.22,0,0,1-5-.51,7.79,7.79,0,0,1-2.76-2.42c-1-1.2-2.05-2.44-3.55-2.63a3.83,3.83,0,0,0-4.14,1.78.38.38,0,0,1-.5.18.38.38,0,0,1-.18-.5,4.63,4.63,0,0,1,4.91-2.2c1.79.22,2.93,1.58,4,2.89a7.16,7.16,0,0,0,2.46,2.2,19.34,19.34,0,0,0,4.75.46,2.91,2.91,0,0,1,2,1,5.88,5.88,0,0,1,1.09,4.49c-.38,5.16-5.34,7.9-5.55,8A.41.41,0,0,1,143.83,157.84Z"/><path class="cls-1" d="M131.81,153.55a.4.4,0,0,1-.27-.12.37.37,0,0,1,0-.53,8.91,8.91,0,0,0,2.59-6,6.61,6.61,0,0,0-2.81-5.26,13.15,13.15,0,0,1-5.18-.78c-.21-.12-.56-.35-1-.64-1.73-1.14-5.35-3.53-7.57-3.28-2.89.32-4.75,2.36-6.56,4.34-.28.31-.56.62-.85.92a34.22,34.22,0,0,1-4.2,3.69.38.38,0,0,1-.44-.61,33.7,33.7,0,0,0,4.1-3.6l.84-.91c1.9-2.08,3.86-4.23,7-4.58,2.49-.28,6.12,2.12,8.07,3.4.42.28.74.5.94.61a14,14,0,0,0,4.55.73.43.43,0,0,1,.3-.08c.56.06,3.47,2.32,3.53,6a9.48,9.48,0,0,1-2.84,6.57A.39.39,0,0,1,131.81,153.55Z"/><path class="cls-1" d="M103.23,159.53a.36.36,0,0,1-.22-.07c-3.53-2.54-5.37-5.21-5.44-8a7.07,7.07,0,0,1,2.64-5.51c1.4-1.12,2.59-1,4.24-.81a22,22,0,0,0,4.28.13,9.36,9.36,0,0,0,5-2.38c1.63-1.23,3.17-2.39,5.26-1.65,3.84,1.37,3,8.2,3,8.49a.38.38,0,0,1-.42.33.39.39,0,0,1-.33-.42c0-.06.77-6.53-2.5-7.69-1.72-.61-3,.34-4.56,1.54a10,10,0,0,1-5.43,2.52,21.73,21.73,0,0,1-4.41-.13c-1.63-.18-2.54-.28-3.69.65a6.29,6.29,0,0,0-2.36,4.91c.07,2.5,1.79,5,5.13,7.37a.37.37,0,0,1,.09.52A.4.4,0,0,1,103.23,159.53Z"/><path class="cls-1" d="M95.51,166.37a.37.37,0,0,1-.31-.16c-.07-.1-1.84-2.55-1.19-4.93a4.63,4.63,0,0,1,2.88-3,3.14,3.14,0,0,0,1.56-1.51,2.78,2.78,0,0,0,.19-1.84.37.37,0,0,1,.73-.17,3.6,3.6,0,0,1-.24,2.33A3.86,3.86,0,0,1,97.19,159a3.94,3.94,0,0,0-2.46,2.47c-.55,2,1.06,4.28,1.08,4.3a.39.39,0,0,1-.08.53A.38.38,0,0,1,95.51,166.37Z"/><path class="cls-1" d="M158.75,123.7h-.16c-5.62-.12-10.15-6.38-10.34-6.65a.38.38,0,0,1,0-.43,4.83,4.83,0,0,1,5.39-1.76,4.69,4.69,0,0,1,2.72,1.79,6.4,6.4,0,0,0,2.45,1.92,9.69,9.69,0,0,0,6.8.35.37.37,0,0,1,.43.13.37.37,0,0,1,0,.45C163.87,122.29,161.42,123.7,158.75,123.7ZM149,116.84c.86,1.11,4.91,6,9.58,6.11h.14a8,8,0,0,0,5.95-3,9.8,9.8,0,0,1-6.23-.69,6.88,6.88,0,0,1-2.69-2.13,4.1,4.1,0,0,0-2.37-1.54A4,4,0,0,0,149,116.84Z"/><path class="cls-1" d="M142,122.21c-3,0-6.66-1.44-11-4.31a.37.37,0,0,1-.1-.52l.07-.09a.37.37,0,0,1,.05-.36.36.36,0,0,1,.52-.08s4.35,3.16,7.67,1.53c.56-.28,1.1-.57,1.63-.85,2.82-1.48,5.48-2.89,7.91-1a.35.35,0,0,1,.13.37,7.08,7.08,0,0,1-4,4.77A7.64,7.64,0,0,1,142,122.21Zm-7.34-3c4.1,2.19,7.42,2.78,9.92,1.78a6.39,6.39,0,0,0,3.54-4c-2-1.37-4.17-.23-6.9,1.22-.53.28-1.08.57-1.65.85A6.59,6.59,0,0,1,134.67,119.21Z"/><path class="cls-1" d="M143.66,117l-.13,0c-.32-.12-7.8-3-11.34-7.46-2.57-3.26-3.76-4.92-3.57-6.14a1.91,1.91,0,0,1,.93-1.29c.84-.56,2-.51,3.39.17a27.83,27.83,0,0,0,4.89,1.9,8.66,8.66,0,0,0,2.06.37h.2c8.48-.08,11.89,2.46,13.26,4.55a.38.38,0,0,1-.11.52.37.37,0,0,1-.52-.1c-1.26-1.93-4.44-4.22-12.45-4.22h-.38a9.57,9.57,0,0,1-2.25-.4,26.51,26.51,0,0,1-5-2,2.83,2.83,0,0,0-2.65-.22,1.19,1.19,0,0,0-.61.79c-.14.87.94,2.42,3.42,5.56,3.41,4.32,10.94,7.19,11,7.22a.37.37,0,0,1-.13.72Z"/><path class="cls-1" d="M161,119.5a12.45,12.45,0,0,1-2.4-.23.37.37,0,1,1,.15-.73c6.67,1.33,17-3.58,20.78-12.12a39.34,39.34,0,0,1,7.82-11c-4.56,3.08-11.58,7.71-15.67,9.84-3.61,1.89-7.89,1.86-11,1.84H159.4c-3.82,0-7.64,2.81-9.29,6.78a9.66,9.66,0,0,0-.68,2.28.37.37,0,0,1-.43.32.37.37,0,0,1-.32-.42,11.26,11.26,0,0,1,.73-2.47c1.77-4.24,5.88-7.21,10-7.24h1.23c3.05,0,7.23,0,10.67-1.76,6.35-3.31,19.86-12.7,20-12.8a.38.38,0,0,1,.44.61c-.08.06-7.91,6.15-11.55,14.33C176.68,114.61,167.79,119.5,161,119.5Z"/><path class="cls-1" d="M163.54,107.07a.32.32,0,0,1-.23-.08.37.37,0,0,1-.06-.53,44.22,44.22,0,0,1,7.19-6.7c5.64-4.14,11-5.58,15.54-4.17a.38.38,0,0,1-.23.72c-10.41-3.25-21.8,10.49-21.92,10.63A.36.36,0,0,1,163.54,107.07Z"/><path class="cls-1" d="M179.48,96.14a.31.31,0,0,1-.21-.07.37.37,0,0,1-.1-.52c.05-.07,4.91-7.23,2.24-12.17-1.77-3.29-3.62-3.43-5.25-3.56a4,4,0,0,1-2.35-.68,5.85,5.85,0,0,1-1.47-2.86c-.54-1.68-1.05-3.28-2.77-3.47a7.86,7.86,0,0,0-6.21,1.6c-2.87,2.36-4.6,7.17-5.17,14.28a.37.37,0,0,1-.4.35.37.37,0,0,1-.34-.41c.58-7.32,2.4-12.3,5.43-14.8a8.8,8.8,0,0,1,6.78-1.77c2.2.25,2.83,2.24,3.39,4a5.52,5.52,0,0,0,1.23,2.5,3.47,3.47,0,0,0,1.94.51c1.64.13,3.88.31,5.85,4,2.88,5.35-2.07,12.65-2.28,13A.4.4,0,0,1,179.48,96.14Z"/><path class="cls-1" d="M162.25,107.1a.36.36,0,0,1-.36-.3,12.38,12.38,0,0,1,2.91-9.86c5.19-6.09,5.66-7.33,6.13-8.53a2.31,2.31,0,0,0-.05-2.32c-.54-.61-1.74-.72-3.47-.31a20.45,20.45,0,0,0-3.57,1.37c-3.13,1.43-6.68,3-11.43,1.21-5.95-2.3-9.56-1.57-12.06,2.44a12.93,12.93,0,0,0-1.71,8.66c.52,3.78,1.16,4.83,1.49,5.12a.38.38,0,1,1-.49.57c-.74-.65-1.31-2.47-1.74-5.58a13.74,13.74,0,0,1,1.81-9.17c3.46-5.54,8.75-4.37,13-2.74,4.45,1.72,7.85.18,10.85-1.19a20.54,20.54,0,0,1,3.71-1.42c2-.49,3.46-.3,4.2.55a2.89,2.89,0,0,1,.21,3c-.51,1.31-1,2.61-6.28,8.8a11.9,11.9,0,0,0-2.75,9.22.37.37,0,0,1-.29.44Z"/><path class="cls-1" d="M130.9,111.79c-11.23,0-16.23-10.81-16.81-12.15a15.24,15.24,0,0,1-.77-4.27A1.54,1.54,0,0,1,116,94.24c1.25,1.39,4,2.73,8,2.37a8.92,8.92,0,0,0,2.89-.89,6.42,6.42,0,0,1,2-.66,6.28,6.28,0,0,1,5.87,2.61,11.52,11.52,0,0,0,3.85,3,.39.39,0,0,1,.2.5.38.38,0,0,1-.5.19,12,12,0,0,1-4.13-3.27A5.54,5.54,0,0,0,129,95.81a5.91,5.91,0,0,0-1.75.59,9.3,9.3,0,0,1-3.13,1c-4.3.39-7.29-1.1-8.66-2.62a.79.79,0,0,0-.91-.2.77.77,0,0,0-.48.78,14.07,14.07,0,0,0,.71,4c.61,1.42,6.32,13.78,19.41,11.39a.38.38,0,0,1,.14.74A19,19,0,0,1,130.9,111.79Z"/><path class="cls-1" d="M130.26,95.81a.38.38,0,0,1-.37-.32c0-.12-1.62-11.59,6.46-13.1l1.87-.35c6.66-1.23,10.67-2,13-4.83a3,3,0,0,1,3.23-1.28c2.11.6,3.86,3.78,4.36,7.89a.37.37,0,0,1-.33.42.36.36,0,0,1-.41-.33c-.46-3.76-2-6.75-3.83-7.26a2.34,2.34,0,0,0-2.44,1c-2.5,3.08-6.62,3.84-13.44,5.1l-1.87.34c-7.37,1.39-5.87,12.15-5.86,12.26a.37.37,0,0,1-.31.42Z"/><path class="cls-1" d="M124.08,97.36a.37.37,0,0,1-.3-.15l-5.53-7.52a15.85,15.85,0,0,1-2.58-5.19c-.76-2.82-.58-5.29.54-7.14a6.45,6.45,0,0,1,4.13-2.92,9.94,9.94,0,0,1,4.27.17,15.5,15.5,0,0,0,6,.23c2-.31,3.57-1.7,5.1-3a22.3,22.3,0,0,1,2.2-1.76,5.24,5.24,0,0,1,1.33-.59,6.59,6.59,0,0,1,5.61,1c4.58,3.17,3.31,9.5,3.26,9.77a.39.39,0,0,1-.45.29.38.38,0,0,1-.29-.44c0-.06,1.22-6.12-2.95-9a5.93,5.93,0,0,0-5-.87,4.35,4.35,0,0,0-1.13.51,20.16,20.16,0,0,0-2.11,1.7c-1.55,1.34-3.29,2.86-5.48,3.21a16.21,16.21,0,0,1-6.27-.23,9,9,0,0,0-4-.17,5.68,5.68,0,0,0-3.65,2.57c-1,1.66-1.16,3.93-.45,6.56a15,15,0,0,0,2.46,4.94l5.53,7.52a.38.38,0,0,1-.08.52A.39.39,0,0,1,124.08,97.36Z"/><path class="cls-1" d="M132.13,75.16h0a.38.38,0,0,1-.34-.41A13.58,13.58,0,0,1,137.92,65L138,65a9.38,9.38,0,0,1,11.36,1l2.49,2.26a15.94,15.94,0,0,0,6.82,3.2,6.58,6.58,0,0,1,4.18,3,.36.36,0,0,1-.11.52.35.35,0,0,1-.51-.11,6,6,0,0,0-3.67-2.69,16.49,16.49,0,0,1-7.2-3.38l-2.51-2.27a8.61,8.61,0,0,0-10.39-.92l-.16.1a13,13,0,0,0-5.82,9.15A.38.38,0,0,1,132.13,75.16Z"/></svg>