<svg id="Camada_1" data-name="Camada 1" xmlns="http://www.w3.org/2000/svg" viewBox="0 0 260.91 198.05"><defs><style>.cls-1{fill:#745d79;}</style></defs><path class="cls-1" d="M25.06,146.31a.56.56,0,0,1-.38-.14.59.59,0,0,1-.08-.84c.47-.56,47.46-55.79,95.2-53.48,24.87,1.2,36.76,7.24,48.27,13.09a110.13,110.13,0,0,0,16.35,7.19A58.61,58.61,0,0,0,210,114.45l8.15-1a.6.6,0,0,1,.15,1.19l-8.15,1A59.8,59.8,0,0,1,184,113.27,111.48,111.48,0,0,1,167.53,106c-11.4-5.79-23.18-11.77-47.79-13C72.57,90.76,26,145.55,25.52,146.1A.6.6,0,0,1,25.06,146.31Z"/><path class="cls-1" d="M42.66,128.6a.6.6,0,0,1-.59-.47c0-.19-4-19,9.64-32.63a.59.59,0,0,1,.85,0,.61.61,0,0,1,0,.85c-13.16,13.11-9.36,31.34-9.32,31.52a.59.59,0,0,1-.46.71Z"/><path class="cls-1" d="M41.74,115.65h0c-6.75-.59-11.56-2.89-14.28-6.86-4.08-5.93-2-13.34-1.93-13.65a.51.51,0,0,1,.59-.35C40.32,98,42.22,114.93,42.24,115.1a.52.52,0,0,1-.14.4A.49.49,0,0,1,41.74,115.65ZM26.34,95.88c-.37,1.69-1.35,7.62,1.9,12.35,2.47,3.58,6.82,5.72,12.92,6.36C40.68,111.64,38,98.85,26.34,95.88Z"/><path class="cls-1" d="M47.38,93.88a.51.51,0,0,1-.4-.2c-14.87-19.55-.35-38.85-.21-39a.52.52,0,0,1,.44-.19.49.49,0,0,1,.4.26c10.39,19.56.31,38.71.21,38.9a.52.52,0,0,1-.4.27Zm-.27-38c-2.31,3.44-12,19.8.18,36.51C49,88.85,55.54,72.61,47.11,55.91Z"/><path class="cls-1" d="M91.88,87.4h-.1a.5.5,0,0,1-.36-.3c-9-22.19,8.7-38.83,8.88-39a.49.49,0,0,1,.45-.12.47.47,0,0,1,.35.32c7.87,22-8.7,38.79-8.87,39A.5.5,0,0,1,91.88,87.4Zm8.54-38C97.56,52.35,84.85,67,92.05,86,94.76,83,106.7,68.17,100.42,49.38Z"/><path class="cls-1" d="M51.25,97.34a.51.51,0,0,1-.33-.13.49.49,0,0,1-.16-.45C54.8,71.92,77.1,64.07,77.32,64a.49.49,0,0,1,.49.1.48.48,0,0,1,.16.47c-5.3,26.51-26.37,32.7-26.59,32.76ZM76.8,65.27c-4,1.66-21.11,9.94-24.92,30.82C55.63,94.73,72,87.57,76.8,65.27Z"/><path class="cls-1" d="M123.33,87.23a37.09,37.09,0,0,1-22.42-7.17.5.5,0,0,1-.17-.4.48.48,0,0,1,.2-.38c20.51-15,46.85-.43,47.11-.28a.51.51,0,0,1,0,.87C138.73,85.39,130.35,87.23,123.33,87.23ZM102.07,79.7c3.16,2.32,20.59,13.58,44.7-.24C142.33,77.22,120,67.08,102.07,79.7Z"/><path class="cls-1" d="M186.67,101.44c-10.81,0-20.59-8.44-20.71-8.54a.48.48,0,0,1-.17-.43.49.49,0,0,1,.26-.39c14.1-7.7,29.23,6.31,29.38,6.46a.5.5,0,0,1,.16.43.49.49,0,0,1-.27.37A18.23,18.23,0,0,1,186.67,101.44Zm-19.48-8.83c2.83,2.25,15.63,11.57,27,6.18C191.48,96.47,179,86.78,167.19,92.61Z"/><path class="cls-1" d="M112,62.94h0a.48.48,0,0,1-.36-.16.49.49,0,0,1-.13-.38c1.76-21.82,29.58-29.5,29.86-29.58a.5.5,0,0,1,.62.57C136.8,62.52,113.21,62.94,112,62.94ZM140.84,34c-4.42,1.39-26.38,9.21-28.3,27.91C116.07,61.76,135.88,59.68,140.84,34Z"/><path class="cls-1" d="M49.82,99.07a.58.58,0,0,1-.37-.13c-.17-.13-1.72-1.46-2.86-6.25a.6.6,0,1,1,1.16-.28c1,4.38,2.44,5.58,2.45,5.6a.61.61,0,0,1,.09.84A.63.63,0,0,1,49.82,99.07Z"/><path class="cls-1" d="M82.75,101.28h-.06a.6.6,0,0,1-.54-.65c0-.12.31-3,5.18-9a51.3,51.3,0,0,1,7.08-7C98,81.55,107,73.33,112,61.45a.6.6,0,1,1,1.1.46C108,74,98.86,82.42,95.17,85.46a49.4,49.4,0,0,0-6.91,6.88c-4.58,5.63-4.91,8.37-4.92,8.4A.6.6,0,0,1,82.75,101.28Z"/><path class="cls-1" d="M90.31,131.06A.64.64,0,0,1,90,131c-11.77-7.79-21.83-8.3-21.93-8.3-17.15-1.2-24.13,5-24.2,5.07a.59.59,0,0,1-.84,0,.6.6,0,0,1,0-.85c.29-.27,7.36-6.62,25.07-5.39.41,0,10.46.51,22.53,8.5a.6.6,0,0,1,.17.83A.62.62,0,0,1,90.31,131.06Z"/><path class="cls-1" d="M66.69,122.66a.6.6,0,0,1-.09-1.2l15.75-2.35a.6.6,0,1,1,.17,1.19l-15.75,2.35Z"/><path class="cls-1" d="M175.94,143.7a.58.58,0,0,1-.37-.13c-.86-.66-21.26-16.39-25.24-28.71A50.71,50.71,0,0,0,138,95a.6.6,0,0,1,0-.85.59.59,0,0,1,.84,0,52.15,52.15,0,0,1,12.71,20.34c3.87,12,24.62,28,24.83,28.13a.59.59,0,0,1,.11.84A.57.57,0,0,1,175.94,143.7Z"/><path class="cls-1" d="M154.79,100a.62.62,0,0,1-.5-.27.61.61,0,0,1,.16-.83c.73-.49,17.77-11.88,25.27-13.5a.6.6,0,0,1,.71.45.61.61,0,0,1-.46.72c-7.27,1.57-24.67,13.21-24.85,13.32A.59.59,0,0,1,154.79,100Z"/><path class="cls-1" d="M142.28,122.56a.68.68,0,0,1-.23,0,.61.61,0,0,1-.32-.79c6.2-14.86.92-21.31.87-21.38a.6.6,0,1,1,.9-.78c.24.28,5.86,7-.66,22.63A.61.61,0,0,1,142.28,122.56Z"/><path class="cls-1" d="M158.88,114.78a.47.47,0,0,1-.17,0l-9.22-2.83a.6.6,0,0,1,.35-1.15l9.22,2.84a.6.6,0,0,1-.18,1.17Z"/><path class="cls-1" d="M165.92,131.47a.62.62,0,0,1-.26-.06l-6.52-3.15a.6.6,0,1,1,.53-1.08l6.51,3.14a.61.61,0,0,1-.26,1.15Z"/><path class="cls-1" d="M154.4,141h-.12a.6.6,0,0,1-.48-.7c2-10.75.36-18.06.35-18.14a.6.6,0,1,1,1.16-.27c.08.31,1.73,7.61-.33,18.63A.59.59,0,0,1,154.4,141Z"/><path class="cls-1" d="M166.18,92.4a.55.55,0,0,1-.35-.12h0c-9.64-7.79-6.63-16.5-5.48-19a13.6,13.6,0,0,0,1-8.11l-.65-3.67a.49.49,0,0,1,.2-.49.51.51,0,0,1,.53,0c.28.15.55.31.81.47l.21.12C171.14,66.7,174.14,76,170.3,85.9c-1.4,3.63-3.33,6.3-4,6.48Zm.28-.9Zm-4.57-29.09.46,2.6a14.51,14.51,0,0,1-1,8.63C160.2,76,157.44,84,166.17,91.27a19.94,19.94,0,0,0,3.2-5.73c2.86-7.37,2.41-17.3-7.4-23.09Z"/><path class="cls-1" d="M179.12,86.63h-.29a.52.52,0,0,1-.41-.24.54.54,0,0,1,0-.48c4.56-9.46,11.09-13.43,15.76-15.1a22.35,22.35,0,0,1,9.19-1.36.54.54,0,0,1,.37.23.5.5,0,0,1,.05.43C198.31,86.05,181.52,86.63,179.12,86.63Zm23-16.22c-3.6,0-15.34,1.13-22.49,15.22,3.51-.11,17.8-1.38,22.94-15.22Z"/><path class="cls-1" d="M139.35,145.76h-.07a.51.51,0,0,1-.35-.22c-9.72-14.9,3-24.56,3.12-24.65a.52.52,0,0,1,.42-.09.55.55,0,0,1,.33.27c7.25,14.9-3,24.47-3.12,24.56A.46.46,0,0,1,139.35,145.76Zm2.82-23.68c-2.17,1.85-10.41,10-2.74,22.39C141.25,142.56,147.85,134.41,142.17,122.08Z"/><path class="cls-1" d="M118.27,147.7c-7.61,0-19-3-29.55-17.61a.5.5,0,0,1,.29-.78c.28-.07,27.89-6.5,38.43,16.19a.48.48,0,0,1,0,.39.49.49,0,0,1-.27.28A24.24,24.24,0,0,1,118.27,147.7ZM90,130.12c15.86,21.34,33.23,16.42,36.32,15.32C116.93,126.1,94.38,129.29,90,130.12Z"/><path class="cls-1" d="M71.23,153.9l-.14,0a19.58,19.58,0,0,1-10.84-9.11c-3.24-5.88-3.53-13.44-.86-22.48a.47.47,0,0,1,.31-.32.46.46,0,0,1,.44,0c.19.12,18.82,12.47,11.56,31.56A.51.51,0,0,1,71.23,153.9ZM60.16,123.25c-2.38,8.46-2.06,15.53,1,21a19.08,19.08,0,0,0,9.82,8.5C76.78,136.55,63.13,125.43,60.16,123.25Z"/><path class="cls-1" d="M98,122.67a56.16,56.16,0,0,1-16.29-2.4.53.53,0,0,1-.33-.37.52.52,0,0,1,.15-.47c18.56-17.35,39-4.14,39.22-4a.53.53,0,0,1,.23.42.52.52,0,0,1-.22.41C113.38,121.25,105.05,122.67,98,122.67Zm-15.14-3.1c4,1.18,22.16,5.66,36.68-3.71C116,113.84,98.78,105.32,82.84,119.57Z"/><path class="cls-1" d="M155.41,166.6a.47.47,0,0,1-.34-.13c-.14-.12-13-12.33-.95-27a.5.5,0,0,1,.36-.18.53.53,0,0,1,.38.14c.11.11,11,11.06,1,26.91a.49.49,0,0,1-.36.23Zm-.88-26c-9.82,12.36-1.34,22.52.78,24.73,4.7-7.71,4.19-14.07,2.91-18.08A19.16,19.16,0,0,0,154.53,140.58Z"/><path class="cls-1" d="M192.4,159.61h0c-6.64-.59-11.45-2.76-14.28-6.46A13.86,13.86,0,0,1,175.45,143a.48.48,0,0,1,.23-.34.46.46,0,0,1,.41,0c13.92,4.47,16.77,16.26,16.8,16.38a.5.5,0,0,1-.49.61Zm-16-15.84a13,13,0,0,0,2.51,8.78c2.56,3.33,6.87,5.34,12.83,6A24,24,0,0,0,176.37,143.77Z"/><path class="cls-1" d="M179.49,136.79c-4,0-8.81-1.31-14.05-5.62a.5.5,0,0,1,0-.78c.11-.08,10.57-8.1,24.16,2.49a.51.51,0,0,1,0,.79A17.63,17.63,0,0,1,179.49,136.79Zm-12.9-6c10.89,8.59,19.64,3.91,21.86,2.44-5.21-3.88-10.67-5.5-15.84-4.67A16,16,0,0,0,166.59,130.82Z"/><path class="cls-1" d="M172.44,121c-8.08,0-13.86-6.44-13.93-6.52a.49.49,0,0,1-.11-.45.5.5,0,0,1,.31-.35,19.06,19.06,0,0,1,20.82,4.92.5.5,0,0,1,.11.42.56.56,0,0,1-.27.35A15.84,15.84,0,0,1,172.44,121Zm-12.65-6.64c2,2,9.5,8.29,18.53,4.39A17.71,17.71,0,0,0,159.79,114.39Z"/><path class="cls-1" d="M222.21,146.75a.53.53,0,0,1-.38-.16c-7.5-8.4-8.56-16.87-8.14-22.5a26.89,26.89,0,0,1,2.77-10.32.49.49,0,0,1,.38-.26.51.51,0,0,1,.43.17c7.88,9.22,8.92,17.65,8.41,23.09a22.48,22.48,0,0,1-3.06,9.76.47.47,0,0,1-.38.22ZM217,114.92c-1.43,3.15-6.56,16.92,5.11,30.48C223.64,142.58,229.31,129.82,217,114.92Z"/><path class="cls-1" d="M238.37,124.88A27.1,27.1,0,0,1,224,121.09a20.37,20.37,0,0,1-7-6.76.51.51,0,0,1,0-.45.52.52,0,0,1,.35-.28c22.2-4.89,30.94,9.17,31,9.31a.51.51,0,0,1,0,.45.47.47,0,0,1-.34.29A41,41,0,0,1,238.37,124.88Zm-20.13-10.45c1.77,2.57,10.07,12.64,28.85,8.42C245.21,120.34,236.63,110.67,218.24,114.43Z"/><path class="cls-1" d="M216.59,114.51a.47.47,0,0,1-.28-.09.5.5,0,0,1-.22-.4c-.49-24.86,20.84-31.58,21.06-31.64a.47.47,0,0,1,.43.07.48.48,0,0,1,.21.39c.74,23-20.8,31.55-21,31.63A.39.39,0,0,1,216.59,114.51Zm20.22-30.95a31.57,31.57,0,0,0-9.75,6c-4.59,4.12-10,11.56-10,23.7C220.64,111.63,237.05,103.06,236.81,83.56Z"/><path class="cls-1" d="M47.29,92.13c-.77-3.66-1.49-7.33-1.92-11.06a44.05,44.05,0,0,1-.29-5.63,28.44,28.44,0,0,1,.64-5.6h0c0-.53.08-1.06.14-1.6,0,.54,0,1.07.07,1.61h0a41.49,41.49,0,0,0-.19,5.57c0,1.85.19,3.7.38,5.55l.64,5.56C47,88.4,47.17,90.26,47.29,92.13Z"/><path class="cls-1" d="M132,79.55c-.74.1-1.49.18-2.24.25h0a42.44,42.44,0,0,0-6.76-.2c-2.25.07-4.49.33-6.74.6s-4.53.46-6.82.48a25,25,0,0,1-6.78-.92h0q-1.05-.11-2.1-.24c.71,0,1.41,0,2.12,0h0a29.24,29.24,0,0,0,6.72.5c2.25-.06,4.49-.33,6.74-.59S120.71,79,123,79a34.42,34.42,0,0,1,6.8.62h0Q130.91,79.55,132,79.55Z"/><path class="cls-1" d="M231.53,90.44c-.88,1.94-1.82,3.85-2.84,5.72s-2.11,3.69-3.22,5.51-2.34,3.55-3.56,5.29-2.54,3.42-3.92,5v0l-1.11,2,.92-2.12h0v0c1.18-1.76,2.4-3.5,3.56-5.27s2.32-3.54,3.47-5.32,2.24-3.6,3.37-5.4Z"/><path class="cls-1" d="M216.7,112.77c.49,2.23,1.13,4.4,1.7,6.61s1,4.45,1.44,6.69.72,4.5.95,6.77.37,4.55.41,6.83l-1-6.75c-.35-2.25-.68-4.49-1.11-6.72s-.83-4.46-1.27-6.69l-.68-3.35C216.93,115,216.83,113.9,216.7,112.77Z"/><path class="cls-1" d="M238.24,119.87c-.64-.16-1.27-.34-1.9-.52h0a18.56,18.56,0,0,0-4.47-1.46,28,28,0,0,0-4.7-.36,16.76,16.76,0,0,1-4.8-.71,14.32,14.32,0,0,1-4.23-2.34l0,0-1.26-.48q.66.12,1.32.27h0l0,0a16.61,16.61,0,0,0,4.29,1.91,18.89,18.89,0,0,0,4.64.56,23,23,0,0,1,4.81.48,15.84,15.84,0,0,1,4.47,1.86h0C237,119.35,237.64,119.6,238.24,119.87Z"/><path class="cls-1" d="M52.13,96c.3-.49.61-1,.93-1.46h0l0,0a21.74,21.74,0,0,0,3.75-4.91l3.23-5.36a41.14,41.14,0,0,1,3.76-5.08,18.49,18.49,0,0,1,4.92-3.93h0l1.2-1.06-1.08,1.19h0a20.84,20.84,0,0,0-4.56,4.18,44,44,0,0,0-3.59,5.06c-1.12,1.76-2.18,3.55-3.33,5.31a19.17,19.17,0,0,1-4.14,4.75l0,0C52.87,95.09,52.51,95.54,52.13,96Z"/><path class="cls-1" d="M92.16,85.59c0-.57.1-1.14.17-1.71v0a18.89,18.89,0,0,1,.29-6.27,58.82,58.82,0,0,1,1.69-6c.68-2,1.38-3.93,2-5.91a33.65,33.65,0,0,0,1.37-6v0h0l.6-1.49-.43,1.55v0a26.6,26.6,0,0,1-1,6.2c-.55,2-1.22,4-1.86,6s-1.32,3.93-1.78,5.94a21.75,21.75,0,0,0-.69,6.12v0h0C92.42,84.47,92.3,85,92.16,85.59Z"/><path class="cls-1" d="M111.9,63c.35-.45.72-.9,1.09-1.34h0v0a34.85,34.85,0,0,0,4.36-4.4c1.37-1.56,2.67-3.18,4-4.78s2.76-3.14,4.28-4.59a17.52,17.52,0,0,1,5.21-3.51h0l1.32-.91-1.21,1h0a19.32,19.32,0,0,0-4.85,3.79c-1.46,1.46-2.81,3-4.14,4.63s-2.7,3.17-4.11,4.71a28.17,28.17,0,0,1-4.7,4.16h0Z"/><path class="cls-1" d="M40.39,113.88A19.22,19.22,0,0,0,38,111.23l-2.72-2.37a21.77,21.77,0,0,1-2.58-2.59,12.36,12.36,0,0,1-1.9-3.15l0,0c-.29-.45-.59-.89-.87-1.35.38.38.74.78,1.11,1.17h0v0a22.75,22.75,0,0,0,4.71,5.33,32.7,32.7,0,0,1,2.6,2.54A11.54,11.54,0,0,1,40.39,113.88Z"/><path class="cls-1" d="M60.22,122.68a23.42,23.42,0,0,0,1.4,4.59c.61,1.48,1.28,3,2,4.42a43.4,43.4,0,0,1,1.8,4.52,12.73,12.73,0,0,1,.72,4.81,17.6,17.6,0,0,0-1.27-4.62c-.6-1.48-1.27-2.94-1.94-4.41a46.73,46.73,0,0,1-1.8-4.52A15.74,15.74,0,0,1,60.22,122.68Z"/><path class="cls-1" d="M82.22,119.53a48.54,48.54,0,0,0,6.22-1.12l6.19-1.4a55.5,55.5,0,0,1,6.31-1,16.94,16.94,0,0,1,6.34.51c-.53,0-1-.15-1.58-.18s-1-.06-1.57,0a27.32,27.32,0,0,0-3.13.25c-2.08.28-4.16.66-6.22,1.11s-4.13.87-6.22,1.23A28.72,28.72,0,0,1,82.22,119.53Z"/><path class="cls-1" d="M142.35,121.29a32.57,32.57,0,0,0-.29,3.81c0,1.27-.06,2.55-.15,3.84a19.9,19.9,0,0,1-.64,3.83,12.24,12.24,0,0,1-1.55,3.55,22.75,22.75,0,0,0,1-3.68c.21-1.24.36-2.49.45-3.76s.17-2.54.33-3.82A14.34,14.34,0,0,1,142.35,121.29Z"/><path class="cls-1" d="M154.71,140.44a23.44,23.44,0,0,0-.09,4.66c.12,1.55.29,3.1.45,4.65a37.12,37.12,0,0,1,.22,4.72,12.85,12.85,0,0,1-.9,4.64,18.07,18.07,0,0,0,.32-4.63c-.07-1.55-.22-3.1-.38-4.65a43.46,43.46,0,0,1-.28-4.71A14.8,14.8,0,0,1,154.71,140.44Z"/><path class="cls-1" d="M176.29,143.73a23,23,0,0,0,2.45,2.66c.88.81,1.82,1.54,2.78,2.29a17.85,17.85,0,0,1,2.69,2.53,10.44,10.44,0,0,1,1.85,3.19,18.82,18.82,0,0,0-2.28-2.8,29.36,29.36,0,0,0-2.73-2.33,22.64,22.64,0,0,1-2.73-2.47A11.78,11.78,0,0,1,176.29,143.73Z"/><path class="cls-1" d="M159.17,114.18a32.69,32.69,0,0,0,3.77.66c1.26.15,2.53.31,3.81.53a20.81,20.81,0,0,1,3.75,1,12.75,12.75,0,0,1,3.38,1.89,23.7,23.7,0,0,0-3.57-1.34c-1.21-.34-2.45-.6-3.7-.82s-2.51-.42-3.77-.7A15,15,0,0,1,159.17,114.18Z"/><path class="cls-1" d="M166.24,91.93a24.55,24.55,0,0,1-.79-4.75,27.83,27.83,0,0,1,.14-4.83c.17-1.59.43-3.17.59-4.73a12,12,0,0,0-.43-4.68,8.6,8.6,0,0,1,.81,2.28,12.38,12.38,0,0,1,.19,2.43c0,1.62-.27,3.21-.42,4.78s-.28,3.15-.31,4.73S166.13,90.33,166.24,91.93Z"/><path class="cls-1" d="M179.66,85.84a24.88,24.88,0,0,1,3.59-3.21,28.6,28.6,0,0,1,4.16-2.46c1.44-.71,2.91-1.32,4.32-2a12,12,0,0,0,3.72-2.86,8.8,8.8,0,0,1-1.49,1.9,12.55,12.55,0,0,1-2,1.46c-1.39.85-2.86,1.49-4.27,2.2s-2.81,1.45-4.17,2.27S181,84.89,179.66,85.84Z"/><path class="cls-1" d="M185.14,96.85a22.6,22.6,0,0,1-4.85-.3,26.42,26.42,0,0,1-4.69-1.34c-1.51-.59-3-1.26-4.45-1.83a10.86,10.86,0,0,0-4.67-.72,7.92,7.92,0,0,1,2.43-.26,11.82,11.82,0,0,1,2.42.43c1.57.46,3,1.12,4.54,1.68A42.94,42.94,0,0,0,180.41,96C182,96.38,183.54,96.61,185.14,96.85Z"/><path class="cls-1" d="M165.45,130.46a40.88,40.88,0,0,0,4.13.26c1.38,0,2.76.05,4.15.14a23.35,23.35,0,0,1,4.15.61,14.53,14.53,0,0,1,3.89,1.53,28.53,28.53,0,0,0-4-1c-1.35-.2-2.71-.34-4.08-.43s-2.75-.15-4.14-.31A16.79,16.79,0,0,1,165.45,130.46Z"/><path class="cls-1" d="M89.49,130a61.85,61.85,0,0,0,7,2.32c2.37.66,4.75,1.34,7.12,2a58.55,58.55,0,0,1,7,2.62,19.41,19.41,0,0,1,6.11,4.21,23.87,23.87,0,0,0-6.35-3.68,72.35,72.35,0,0,0-6.95-2.44c-2.34-.76-4.72-1.42-7.07-2.21A37.6,37.6,0,0,1,89.49,130Z"/><path class="cls-1" d="M68,94.17a1.36,1.36,0,0,1-.6-.14.84.84,0,0,1-.44-.44l-.1-.17a1.74,1.74,0,0,1-.25-.53,1.22,1.22,0,0,1,.09-.83l.54-1a1.74,1.74,0,0,1,2.14-.58,1.55,1.55,0,0,1,1.15,1.59,2.13,2.13,0,0,1-.25.79,1.19,1.19,0,0,1-.61.83l-.15.08a2,2,0,0,1-1,.31.58.58,0,0,0-.18,0A1.69,1.69,0,0,1,68,94.17Zm-.42-1.64a.48.48,0,0,0,0,.12,1.06,1.06,0,0,0,.12.24l.17.29a.84.84,0,0,0,.29,0,2.06,2.06,0,0,1,.4,0c.13,0,.24,0,.48-.19l.15-.08a.27.27,0,0,0,.12-.17l.06-.2a1.08,1.08,0,0,0,.16-.42c0-.1,0-.39-.53-.61a.72.72,0,0,0-.91.18Z"/><path class="cls-1" d="M63.11,104.9a1,1,0,0,1-.44-.1.72.72,0,0,1-.35-.35l-.06-.09a1.23,1.23,0,0,1-.17-.38.94.94,0,0,1,.07-.64l.32-.58a1.24,1.24,0,0,1,1.54-.43,1.14,1.14,0,0,1,.81,1.16,1.39,1.39,0,0,1-.16.51,1,1,0,0,1-.46.61,1.53,1.53,0,0,1-.78.25A1.55,1.55,0,0,1,63.11,104.9Zm0-1.13,0,.06,0,.06a1.71,1.71,0,0,1,.31,0,1.2,1.2,0,0,0,.18-.08l.09,0,0-.14a.6.6,0,0,0,.07-.18s0-.1-.19-.16a.25.25,0,0,0-.32,0Zm0,0h0Z"/><path class="cls-1" d="M73.79,101.46a1,1,0,0,1-.44-.1A.72.72,0,0,1,73,101l-.06-.1a1.43,1.43,0,0,1-.17-.37,1,1,0,0,1,.07-.64h0l.33-.58a1.24,1.24,0,0,1,1.53-.44,1.14,1.14,0,0,1,.81,1.17,1.44,1.44,0,0,1-.16.51,1,1,0,0,1-.46.61,1.5,1.5,0,0,1-.78.25A1.55,1.55,0,0,1,73.79,101.46Zm0-1.13a.15.15,0,0,1,0,.06l0,0,.31,0a.6.6,0,0,0,.18-.08l.1,0,0-.14a.6.6,0,0,0,.07-.18s0-.1-.19-.16-.3,0-.31,0Zm0,0Z"/><path class="cls-1" d="M46.51,135.43a1.35,1.35,0,0,1-.59-.14.86.86,0,0,1-.44-.43l-.11-.18a2,2,0,0,1-.24-.53,1.2,1.2,0,0,1,.09-.82h0l.54-1a1.74,1.74,0,0,1,2.14-.58,1.55,1.55,0,0,1,1.15,1.59,2.08,2.08,0,0,1-.25.79,1.24,1.24,0,0,1-.62.83l-.13.08a2,2,0,0,1-1,.31.58.58,0,0,0-.18,0A1.79,1.79,0,0,1,46.51,135.43Zm-.41-1.64a.24.24,0,0,0,0,.12,1.06,1.06,0,0,0,.12.24l.17.29a.86.86,0,0,0,.29,0,2.06,2.06,0,0,1,.4,0c.14,0,.24-.05.48-.19l.15-.08a.24.24,0,0,0,.11-.17l.07-.19a1.15,1.15,0,0,0,.16-.43c0-.1,0-.39-.53-.61a.74.74,0,0,0-.92.18Zm0,0Z"/><path class="cls-1" d="M41.61,146.16a1,1,0,0,1-.44-.1.68.68,0,0,1-.35-.35l-.06-.09a1.28,1.28,0,0,1-.17-.37.87.87,0,0,1,.07-.64h0L41,144a1.26,1.26,0,0,1,1.54-.43,1.15,1.15,0,0,1,.81,1.16,1.39,1.39,0,0,1-.16.51,1,1,0,0,1-.46.61,1.51,1.51,0,0,1-.78.26A3.16,3.16,0,0,1,41.61,146.16Zm0-1.13,0,.06,0,.06.32,0,.18-.09.09,0,0-.14a.62.62,0,0,0,.07-.17s0-.11-.19-.17a.25.25,0,0,0-.32.05Zm0,.06h0Z"/><path class="cls-1" d="M52.29,142.72a1,1,0,0,1-.44-.1.72.72,0,0,1-.35-.35l-.06-.09a1.52,1.52,0,0,1-.17-.38,1,1,0,0,1,.07-.64l.33-.58a1.22,1.22,0,0,1,1.53-.43,1.14,1.14,0,0,1,.81,1.16,1.39,1.39,0,0,1-.16.51,1,1,0,0,1-.46.61,1.41,1.41,0,0,1-.78.25A1.55,1.55,0,0,1,52.29,142.72Zm0-1.13a.15.15,0,0,1,0,.06l0,.06a1.71,1.71,0,0,1,.31,0,.86.86,0,0,0,.18-.08l.09,0,0-.14a.6.6,0,0,0,.07-.18s0-.1-.19-.16a.25.25,0,0,0-.32.05Zm0,0h0Z"/><path class="cls-1" d="M112.21,105.39h-.06a1.28,1.28,0,0,1-.76-.32l-.78-.8a1.74,1.74,0,0,1,.06-2.22,1.53,1.53,0,0,1,1.85-.64,2,2,0,0,1,.69.46,1.27,1.27,0,0,1,.62.83l0,.16a1.83,1.83,0,0,1,0,1,.84.84,0,0,0,0,.18,1.36,1.36,0,0,1-.37.88.88.88,0,0,1-.54.3l-.2,0A1.94,1.94,0,0,1,112.21,105.39Zm-.12-1a.21.21,0,0,0,.12,0,.73.73,0,0,0,.26,0l.32-.08a.73.73,0,0,0,.06-.28,1.77,1.77,0,0,1,.07-.4,1,1,0,0,0,0-.51l0-.17a.28.28,0,0,0-.13-.16l-.17-.11a1.18,1.18,0,0,0-.36-.28c-.1,0-.37-.13-.74.33a.75.75,0,0,0-.09.94Z"/><path class="cls-1" d="M121.52,112.93h0a.93.93,0,0,1-.59-.25l-.47-.48a1.24,1.24,0,0,1,0-1.59,1.12,1.12,0,0,1,1.34-.44,1.19,1.19,0,0,1,.45.29.94.94,0,0,1,.45.62,1.53,1.53,0,0,1,0,.82,1.17,1.17,0,0,1-.28.71.72.72,0,0,1-.44.24l-.1,0A1.17,1.17,0,0,1,121.52,112.93Zm-.11-1.83s-.11,0-.2.14-.06.29,0,.3l.39.39.07,0,.06,0a2.21,2.21,0,0,1,.07-.3.51.51,0,0,0,0-.21l0-.1-.13-.06a.48.48,0,0,0-.15-.12Z"/><path class="cls-1" d="M121.3,101.71h0a.93.93,0,0,1-.59-.25l-.47-.48a1.25,1.25,0,0,1,0-1.6,1.15,1.15,0,0,1,1.34-.44,1.41,1.41,0,0,1,.45.3.94.94,0,0,1,.45.62,1.53,1.53,0,0,1,0,.82,1.17,1.17,0,0,1-.28.71.72.72,0,0,1-.44.24l-.1,0A1.23,1.23,0,0,1,121.3,101.71Zm.07-.95Zm-.18-.89s-.11,0-.2.14-.06.3,0,.31l.38.39.07,0,.07,0a1.91,1.91,0,0,1,.07-.3.7.7,0,0,0,0-.2l0-.11-.13-.06c-.09-.1-.14-.12-.15-.12Z"/><path class="cls-1" d="M141.08,64H141a1.17,1.17,0,0,1-.76-.32l-.78-.8a1.74,1.74,0,0,1,.06-2.22,1.56,1.56,0,0,1,1.85-.64,2,2,0,0,1,.69.47,1.24,1.24,0,0,1,.62.83l0,.15a1.83,1.83,0,0,1,0,1,.84.84,0,0,0,0,.19,1.38,1.38,0,0,1-.37.88.85.85,0,0,1-.54.29l-.2,0A1.87,1.87,0,0,1,141.08,64Zm.44-1.1.28.45-.14-.48a1.09,1.09,0,0,0,.06-.28,1.68,1.68,0,0,1,.07-.4,1,1,0,0,0,0-.51l0-.17a.22.22,0,0,0-.13-.16l-.17-.12a1,1,0,0,0-.36-.27c-.1,0-.37-.14-.74.32a.74.74,0,0,0-.09.93l.73.75.11,0a1.22,1.22,0,0,0,.27-.06Z"/><path class="cls-1" d="M150.38,71.5h0a.89.89,0,0,1-.59-.26l-.47-.48a1.23,1.23,0,0,1,0-1.59,1.13,1.13,0,0,1,1.34-.44,1.41,1.41,0,0,1,.45.3.94.94,0,0,1,.45.62,1.53,1.53,0,0,1,0,.82,1.2,1.2,0,0,1-.28.71.69.69,0,0,1-.44.23l-.11,0A1.49,1.49,0,0,1,150.38,71.5Zm.08-1h0Zm-.19-.88s-.1,0-.19.14a.26.26,0,0,0,0,.32l.37.38.07,0h.07a2.38,2.38,0,0,1,.07-.31.47.47,0,0,0,0-.2l0-.1-.13-.07a.8.8,0,0,0-.15-.12Z"/><path class="cls-1" d="M150.16,60.28h0a1,1,0,0,1-.59-.26l-.47-.48a1.24,1.24,0,0,1,0-1.59,1.13,1.13,0,0,1,1.34-.44,1.35,1.35,0,0,1,.45.3,1,1,0,0,1,.45.62,1.52,1.52,0,0,1,0,.82,1.17,1.17,0,0,1-.28.7.69.69,0,0,1-.44.24l-.11,0A1.49,1.49,0,0,1,150.16,60.28Zm.08-1Zm-.19-.88s-.1,0-.19.14a.25.25,0,0,0,0,.32l.37.38.07,0h.07a1.41,1.41,0,0,1,.07-.31.79.79,0,0,0,0-.2l0-.1-.13-.07a.67.67,0,0,0-.15-.12Z"/><path class="cls-1" d="M207.76,136.89a1.37,1.37,0,0,1-.74-.22,2,2,0,0,1-.59-.59,1.18,1.18,0,0,1-.45-.92V135a1.84,1.84,0,0,1,.18-1,.54.54,0,0,0,.07-.17,1.43,1.43,0,0,1,.52-.8.89.89,0,0,1,.59-.19h.21a1.94,1.94,0,0,1,.58,0,1.27,1.27,0,0,1,.69.46l.62.93a1.75,1.75,0,0,1-.47,2.17A1.85,1.85,0,0,1,207.76,136.89Zm-.53-3.57.05.49a1,1,0,0,0-.1.27,1.56,1.56,0,0,1-.15.38c-.07.11-.07.23-.06.51v.17a.22.22,0,0,0,.08.17l.16.16a1,1,0,0,0,.3.33c.09.06.34.2.79-.18a.76.76,0,0,0,.26-.91l-.58-.85a.2.2,0,0,0-.11-.06.74.74,0,0,0-.26,0h-.19Z"/><path class="cls-1" d="M200.09,126.51a1,1,0,0,1-.55-.16,1.24,1.24,0,0,1-.39-.37,1,1,0,0,1-.32-.69,1.38,1.38,0,0,1,.13-.81,1.17,1.17,0,0,1,.4-.65.72.72,0,0,1,.48-.15h.1a1.24,1.24,0,0,1,.42,0,.91.91,0,0,1,.53.36h0l.37.56a1.24,1.24,0,0,1-.32,1.56A1.28,1.28,0,0,1,200.09,126.51Zm-.13-1.84a2.73,2.73,0,0,1-.13.29.77.77,0,0,0,0,.2v.11l.11.09a.72.72,0,0,0,.12.14s.11,0,.23-.1.12-.27.11-.29l-.3-.45H200Zm.1-.07h0Z"/><path class="cls-1" d="M198.23,137.58a1,1,0,0,1-.55-.16,1.3,1.3,0,0,1-.38-.38.93.93,0,0,1-.33-.69,1.45,1.45,0,0,1,.13-.8,1.11,1.11,0,0,1,.41-.65.68.68,0,0,1,.47-.15h.11a1.18,1.18,0,0,1,.41,0,.9.9,0,0,1,.54.36l.36.56a1.24,1.24,0,0,1-.32,1.56A1.28,1.28,0,0,1,198.23,137.58Zm-.13-1.84a2.85,2.85,0,0,1-.12.29s0,.08,0,.2v.11l.11.09a.72.72,0,0,0,.12.14s.11,0,.24-.1.11-.27.1-.29l-.3-.45h-.14Zm.1-.07h0Z"/><path class="cls-1" d="M209.37,104.66h-.21a1.56,1.56,0,0,1-1.56-1.19,2,2,0,0,1,0-.83,1.22,1.22,0,0,1,.35-1l.11-.12a1.88,1.88,0,0,1,.86-.58.44.44,0,0,0,.17-.08,1.51,1.51,0,0,1,.94-.18.9.9,0,0,1,.55.3l.15.14a1.86,1.86,0,0,1,.39.43,1.27,1.27,0,0,1,.15.82h0l-.24,1.09A1.74,1.74,0,0,1,209.37,104.66Zm.79-3.38-.33.38a.8.8,0,0,0-.26.11,2.41,2.41,0,0,1-.38.16c-.12,0-.21.11-.4.31l-.12.12a.24.24,0,0,0-.06.2v.09l0,.11a1.34,1.34,0,0,0,0,.46c0,.1.09.38.68.43a.73.73,0,0,0,.83-.44l.22-1a.28.28,0,0,0,0-.12,1.48,1.48,0,0,0-.18-.19l-.14-.13Z"/><path class="cls-1" d="M211.05,91.79h-.15a1.13,1.13,0,0,1-1.11-.88,1.34,1.34,0,0,1,0-.53.94.94,0,0,1,.26-.72,1.45,1.45,0,0,1,.68-.47,1.2,1.2,0,0,1,.74-.16.71.71,0,0,1,.44.24l.08.07a1.22,1.22,0,0,1,.27.31.9.9,0,0,1,.12.63h0l-.14.66A1.25,1.25,0,0,1,211.05,91.79Zm.24-1.75-.29.11s-.07,0-.15.13l-.08.08,0,.11v0a.55.55,0,0,0,0,.19s.07.08.23.1.24,0,.29-.14l.11-.52-.06,0Zm.12,0h0Z"/><path class="cls-1" d="M201.82,98.17h-.15a1.14,1.14,0,0,1-1.11-.88,1.33,1.33,0,0,1,0-.54.94.94,0,0,1,.27-.71,1.42,1.42,0,0,1,.67-.47,1.09,1.09,0,0,1,.74-.16.8.8,0,0,1,.45.23l.07.08A1.07,1.07,0,0,1,203,96a.89.89,0,0,1,.11.63h0l-.14.65A1.25,1.25,0,0,1,201.82,98.17Zm.23-1.76a2.24,2.24,0,0,1-.29.12s-.07,0-.15.13l-.07.08,0,.1v0a.5.5,0,0,0,0,.18s.07.09.23.11a.28.28,0,0,0,.29-.13l.11-.54-.06,0Zm.13,0Z"/></svg>